%FSLAX45Y45*%
G04 Gerber Fmt 4.5, Leading zero omitted, Abs format (unit mm)*
G04 Created by KiCad (PCBNEW 5.1.10-88a1d61d58~88~ubuntu20.10.1) date 2021-05-21 17:46:08*
%MOMM*%
%LPD*%
G01*
G04 APERTURE LIST*
%TA.AperFunction,Profile*%
%ADD10C,0.200000*%
%TD*%
%ADD11C,0.200000*%
%ADD12C,0.300000*%
G04 APERTURE END LIST*
D10*
X19456400Y-13447984D02*
G75*
G02*
X19171800Y-13741400I-289577J-3856D01*
G01*
X19450049Y-9163048D02*
G75*
G03*
X19165687Y-8883752I-289340J-10179D01*
G01*
X12172950Y-8883650D02*
G75*
G03*
X11880849Y-9170772I-2541J-289559D01*
G01*
X12178677Y-13743856D02*
G75*
G02*
X11854687Y-13406269I-15230J309647D01*
G01*
X19165687Y-8883752D02*
X12172950Y-8883650D01*
X19456400Y-13447984D02*
X19450049Y-9163048D01*
X12178677Y-13743856D02*
X19171800Y-13741400D01*
X11880849Y-9170772D02*
X11854687Y-13406269D01*
D11*
D12*
X12129854Y-14219944D02*
X12129854Y-13919944D01*
X12201282Y-13919944D01*
X12244139Y-13934230D01*
X12272711Y-13962802D01*
X12286997Y-13991373D01*
X12301282Y-14048516D01*
X12301282Y-14091373D01*
X12286997Y-14148516D01*
X12272711Y-14177087D01*
X12244139Y-14205659D01*
X12201282Y-14219944D01*
X12129854Y-14219944D01*
X12429854Y-14219944D02*
X12429854Y-14019944D01*
X12429854Y-14077087D02*
X12444139Y-14048516D01*
X12458425Y-14034230D01*
X12486997Y-14019944D01*
X12515568Y-14019944D01*
X12615568Y-14219944D02*
X12615568Y-14019944D01*
X12615568Y-13919944D02*
X12601282Y-13934230D01*
X12615568Y-13948516D01*
X12629854Y-13934230D01*
X12615568Y-13919944D01*
X12615568Y-13948516D01*
X12801282Y-14219944D02*
X12772711Y-14205659D01*
X12758425Y-14177087D01*
X12758425Y-13919944D01*
X12958425Y-14219944D02*
X12929854Y-14205659D01*
X12915568Y-14177087D01*
X12915568Y-13919944D01*
X13301282Y-14219944D02*
X13301282Y-13919944D01*
X13401282Y-14134230D01*
X13501282Y-13919944D01*
X13501282Y-14219944D01*
X13772711Y-14219944D02*
X13772711Y-14062802D01*
X13758425Y-14034230D01*
X13729854Y-14019944D01*
X13672711Y-14019944D01*
X13644139Y-14034230D01*
X13772711Y-14205659D02*
X13744139Y-14219944D01*
X13672711Y-14219944D01*
X13644139Y-14205659D01*
X13629854Y-14177087D01*
X13629854Y-14148516D01*
X13644139Y-14119944D01*
X13672711Y-14105659D01*
X13744139Y-14105659D01*
X13772711Y-14091373D01*
X13915568Y-14019944D02*
X13915568Y-14319944D01*
X13915568Y-14034230D02*
X13944139Y-14019944D01*
X14001282Y-14019944D01*
X14029854Y-14034230D01*
X14044139Y-14048516D01*
X14058425Y-14077087D01*
X14058425Y-14162802D01*
X14044139Y-14191373D01*
X14029854Y-14205659D01*
X14001282Y-14219944D01*
X13944139Y-14219944D01*
X13915568Y-14205659D01*
X14186997Y-14191373D02*
X14201282Y-14205659D01*
X14186997Y-14219944D01*
X14172711Y-14205659D01*
X14186997Y-14191373D01*
X14186997Y-14219944D01*
X14186997Y-14034230D02*
X14201282Y-14048516D01*
X14186997Y-14062802D01*
X14172711Y-14048516D01*
X14186997Y-14034230D01*
X14186997Y-14062802D01*
M02*
