G04 #@! TF.GenerationSoftware,KiCad,Pcbnew,5.1.10-88a1d61d58~88~ubuntu20.10.1*
G04 #@! TF.CreationDate,2021-05-21T17:46:03+03:00*
G04 #@! TF.ProjectId,Devboard,44657662-6f61-4726-942e-6b696361645f,rev?*
G04 #@! TF.SameCoordinates,Original*
G04 #@! TF.FileFunction,Legend,Top*
G04 #@! TF.FilePolarity,Positive*
%FSLAX46Y46*%
G04 Gerber Fmt 4.6, Leading zero omitted, Abs format (unit mm)*
G04 Created by KiCad (PCBNEW 5.1.10-88a1d61d58~88~ubuntu20.10.1) date 2021-05-21 17:46:03*
%MOMM*%
%LPD*%
G01*
G04 APERTURE LIST*
%ADD10C,0.250000*%
%ADD11C,0.187500*%
%ADD12C,0.300000*%
%ADD13C,0.500000*%
%ADD14C,0.375000*%
%ADD15C,0.120000*%
%ADD16C,0.150000*%
%ADD17C,0.100000*%
%ADD18C,2.600000*%
%ADD19R,2.600000X2.600000*%
%ADD20O,1.700000X1.700000*%
%ADD21R,1.700000X1.700000*%
%ADD22O,1.600000X1.600000*%
%ADD23C,1.600000*%
%ADD24R,2.300000X3.500000*%
%ADD25R,3.500000X3.500000*%
%ADD26R,2.000000X1.500000*%
%ADD27R,2.000000X3.800000*%
%ADD28C,7.000000*%
%ADD29C,3.900000*%
%ADD30R,1.500000X1.300000*%
%ADD31R,1.300000X1.500000*%
%ADD32C,2.000000*%
%ADD33R,1.000000X1.000000*%
%ADD34O,1.000000X1.000000*%
%ADD35R,2.000000X1.000000*%
G04 APERTURE END LIST*
D10*
X188214095Y-124976000D02*
X188118857Y-124928380D01*
X187976000Y-124928380D01*
X187833142Y-124976000D01*
X187737904Y-125071238D01*
X187690285Y-125166476D01*
X187642666Y-125356952D01*
X187642666Y-125499809D01*
X187690285Y-125690285D01*
X187737904Y-125785523D01*
X187833142Y-125880761D01*
X187976000Y-125928380D01*
X188071238Y-125928380D01*
X188214095Y-125880761D01*
X188261714Y-125833142D01*
X188261714Y-125499809D01*
X188071238Y-125499809D01*
X188690285Y-125928380D02*
X188690285Y-124928380D01*
X189261714Y-125928380D01*
X189261714Y-124928380D01*
X189737904Y-125928380D02*
X189737904Y-124928380D01*
X189976000Y-124928380D01*
X190118857Y-124976000D01*
X190214095Y-125071238D01*
X190261714Y-125166476D01*
X190309333Y-125356952D01*
X190309333Y-125499809D01*
X190261714Y-125690285D01*
X190214095Y-125785523D01*
X190118857Y-125880761D01*
X189976000Y-125928380D01*
X189737904Y-125928380D01*
D11*
X150304571Y-114179000D02*
X150233142Y-114143285D01*
X150126000Y-114143285D01*
X150018857Y-114179000D01*
X149947428Y-114250428D01*
X149911714Y-114321857D01*
X149876000Y-114464714D01*
X149876000Y-114571857D01*
X149911714Y-114714714D01*
X149947428Y-114786142D01*
X150018857Y-114857571D01*
X150126000Y-114893285D01*
X150197428Y-114893285D01*
X150304571Y-114857571D01*
X150340285Y-114821857D01*
X150340285Y-114571857D01*
X150197428Y-114571857D01*
X150661714Y-114893285D02*
X150661714Y-114143285D01*
X151090285Y-114893285D01*
X151090285Y-114143285D01*
X151447428Y-114893285D02*
X151447428Y-114143285D01*
X151626000Y-114143285D01*
X151733142Y-114179000D01*
X151804571Y-114250428D01*
X151840285Y-114321857D01*
X151876000Y-114464714D01*
X151876000Y-114571857D01*
X151840285Y-114714714D01*
X151804571Y-114786142D01*
X151733142Y-114857571D01*
X151626000Y-114893285D01*
X151447428Y-114893285D01*
X152741428Y-117953285D02*
X153205714Y-117953285D01*
X152955714Y-118239000D01*
X153062857Y-118239000D01*
X153134285Y-118274714D01*
X153170000Y-118310428D01*
X153205714Y-118381857D01*
X153205714Y-118560428D01*
X153170000Y-118631857D01*
X153134285Y-118667571D01*
X153062857Y-118703285D01*
X152848571Y-118703285D01*
X152777142Y-118667571D01*
X152741428Y-118631857D01*
X153420000Y-117953285D02*
X153670000Y-118703285D01*
X153920000Y-117953285D01*
X154098571Y-117953285D02*
X154562857Y-117953285D01*
X154312857Y-118239000D01*
X154420000Y-118239000D01*
X154491428Y-118274714D01*
X154527142Y-118310428D01*
X154562857Y-118381857D01*
X154562857Y-118560428D01*
X154527142Y-118631857D01*
X154491428Y-118667571D01*
X154420000Y-118703285D01*
X154205714Y-118703285D01*
X154134285Y-118667571D01*
X154098571Y-118631857D01*
X134753000Y-116395428D02*
X134717285Y-116466857D01*
X134717285Y-116574000D01*
X134753000Y-116681142D01*
X134824428Y-116752571D01*
X134895857Y-116788285D01*
X135038714Y-116824000D01*
X135145857Y-116824000D01*
X135288714Y-116788285D01*
X135360142Y-116752571D01*
X135431571Y-116681142D01*
X135467285Y-116574000D01*
X135467285Y-116502571D01*
X135431571Y-116395428D01*
X135395857Y-116359714D01*
X135145857Y-116359714D01*
X135145857Y-116502571D01*
X135467285Y-116038285D02*
X134717285Y-116038285D01*
X135467285Y-115609714D01*
X134717285Y-115609714D01*
X135467285Y-115252571D02*
X134717285Y-115252571D01*
X134717285Y-115074000D01*
X134753000Y-114966857D01*
X134824428Y-114895428D01*
X134895857Y-114859714D01*
X135038714Y-114824000D01*
X135145857Y-114824000D01*
X135288714Y-114859714D01*
X135360142Y-114895428D01*
X135431571Y-114966857D01*
X135467285Y-115074000D01*
X135467285Y-115252571D01*
D10*
X183754020Y-101923386D02*
X182754020Y-101923386D01*
X182754020Y-101542434D01*
X182801640Y-101447196D01*
X182849259Y-101399577D01*
X182944497Y-101351958D01*
X183087354Y-101351958D01*
X183182592Y-101399577D01*
X183230211Y-101447196D01*
X183277830Y-101542434D01*
X183277830Y-101923386D01*
X183230211Y-100590053D02*
X183230211Y-100923386D01*
X183754020Y-100923386D02*
X182754020Y-100923386D01*
X182754020Y-100447196D01*
X182754020Y-99875767D02*
X182754020Y-99780529D01*
X182801640Y-99685291D01*
X182849259Y-99637672D01*
X182944497Y-99590053D01*
X183134973Y-99542434D01*
X183373068Y-99542434D01*
X183563544Y-99590053D01*
X183658782Y-99637672D01*
X183706401Y-99685291D01*
X183754020Y-99780529D01*
X183754020Y-99875767D01*
X183706401Y-99971005D01*
X183658782Y-100018624D01*
X183563544Y-100066243D01*
X183373068Y-100113862D01*
X183134973Y-100113862D01*
X182944497Y-100066243D01*
X182849259Y-100018624D01*
X182801640Y-99971005D01*
X182754020Y-99875767D01*
X183332380Y-107632285D02*
X182332380Y-107632285D01*
X182332380Y-107251333D01*
X182380000Y-107156095D01*
X182427619Y-107108476D01*
X182522857Y-107060857D01*
X182665714Y-107060857D01*
X182760952Y-107108476D01*
X182808571Y-107156095D01*
X182856190Y-107251333D01*
X182856190Y-107632285D01*
X183237142Y-106060857D02*
X183284761Y-106108476D01*
X183332380Y-106251333D01*
X183332380Y-106346571D01*
X183284761Y-106489428D01*
X183189523Y-106584666D01*
X183094285Y-106632285D01*
X182903809Y-106679904D01*
X182760952Y-106679904D01*
X182570476Y-106632285D01*
X182475238Y-106584666D01*
X182380000Y-106489428D01*
X182332380Y-106346571D01*
X182332380Y-106251333D01*
X182380000Y-106108476D01*
X182427619Y-106060857D01*
X183332380Y-105108476D02*
X183332380Y-105679904D01*
X183332380Y-105394190D02*
X182332380Y-105394190D01*
X182475238Y-105489428D01*
X182570476Y-105584666D01*
X182618095Y-105679904D01*
X182332380Y-104489428D02*
X182332380Y-104394190D01*
X182380000Y-104298952D01*
X182427619Y-104251333D01*
X182522857Y-104203714D01*
X182713333Y-104156095D01*
X182951428Y-104156095D01*
X183141904Y-104203714D01*
X183237142Y-104251333D01*
X183284761Y-104298952D01*
X183332380Y-104394190D01*
X183332380Y-104489428D01*
X183284761Y-104584666D01*
X183237142Y-104632285D01*
X183141904Y-104679904D01*
X182951428Y-104727523D01*
X182713333Y-104727523D01*
X182522857Y-104679904D01*
X182427619Y-104632285D01*
X182380000Y-104584666D01*
X182332380Y-104489428D01*
X183332380Y-112712285D02*
X182332380Y-112712285D01*
X182332380Y-112331333D01*
X182380000Y-112236095D01*
X182427619Y-112188476D01*
X182522857Y-112140857D01*
X182665714Y-112140857D01*
X182760952Y-112188476D01*
X182808571Y-112236095D01*
X182856190Y-112331333D01*
X182856190Y-112712285D01*
X182808571Y-111378952D02*
X182856190Y-111236095D01*
X182903809Y-111188476D01*
X182999047Y-111140857D01*
X183141904Y-111140857D01*
X183237142Y-111188476D01*
X183284761Y-111236095D01*
X183332380Y-111331333D01*
X183332380Y-111712285D01*
X182332380Y-111712285D01*
X182332380Y-111378952D01*
X182380000Y-111283714D01*
X182427619Y-111236095D01*
X182522857Y-111188476D01*
X182618095Y-111188476D01*
X182713333Y-111236095D01*
X182760952Y-111283714D01*
X182808571Y-111378952D01*
X182808571Y-111712285D01*
X183332380Y-110188476D02*
X183332380Y-110759904D01*
X183332380Y-110474190D02*
X182332380Y-110474190D01*
X182475238Y-110569428D01*
X182570476Y-110664666D01*
X182618095Y-110759904D01*
X182665714Y-109331333D02*
X183332380Y-109331333D01*
X182284761Y-109569428D02*
X182999047Y-109807523D01*
X182999047Y-109188476D01*
X183332380Y-118046285D02*
X182332380Y-118046285D01*
X182332380Y-117665333D01*
X182380000Y-117570095D01*
X182427619Y-117522476D01*
X182522857Y-117474857D01*
X182665714Y-117474857D01*
X182760952Y-117522476D01*
X182808571Y-117570095D01*
X182856190Y-117665333D01*
X182856190Y-118046285D01*
X182808571Y-116712952D02*
X182856190Y-116570095D01*
X182903809Y-116522476D01*
X182999047Y-116474857D01*
X183141904Y-116474857D01*
X183237142Y-116522476D01*
X183284761Y-116570095D01*
X183332380Y-116665333D01*
X183332380Y-117046285D01*
X182332380Y-117046285D01*
X182332380Y-116712952D01*
X182380000Y-116617714D01*
X182427619Y-116570095D01*
X182522857Y-116522476D01*
X182618095Y-116522476D01*
X182713333Y-116570095D01*
X182760952Y-116617714D01*
X182808571Y-116712952D01*
X182808571Y-117046285D01*
X183332380Y-115522476D02*
X183332380Y-116093904D01*
X183332380Y-115808190D02*
X182332380Y-115808190D01*
X182475238Y-115903428D01*
X182570476Y-115998666D01*
X182618095Y-116093904D01*
X182332380Y-114617714D02*
X182332380Y-115093904D01*
X182808571Y-115141523D01*
X182760952Y-115093904D01*
X182713333Y-114998666D01*
X182713333Y-114760571D01*
X182760952Y-114665333D01*
X182808571Y-114617714D01*
X182903809Y-114570095D01*
X183141904Y-114570095D01*
X183237142Y-114617714D01*
X183284761Y-114665333D01*
X183332380Y-114760571D01*
X183332380Y-114998666D01*
X183284761Y-115093904D01*
X183237142Y-115141523D01*
X182380000Y-122681904D02*
X182332380Y-122777142D01*
X182332380Y-122920000D01*
X182380000Y-123062857D01*
X182475238Y-123158095D01*
X182570476Y-123205714D01*
X182760952Y-123253333D01*
X182903809Y-123253333D01*
X183094285Y-123205714D01*
X183189523Y-123158095D01*
X183284761Y-123062857D01*
X183332380Y-122920000D01*
X183332380Y-122824761D01*
X183284761Y-122681904D01*
X183237142Y-122634285D01*
X182903809Y-122634285D01*
X182903809Y-122824761D01*
X183332380Y-122205714D02*
X182332380Y-122205714D01*
X183332380Y-121634285D01*
X182332380Y-121634285D01*
X183332380Y-121158095D02*
X182332380Y-121158095D01*
X182332380Y-120920000D01*
X182380000Y-120777142D01*
X182475238Y-120681904D01*
X182570476Y-120634285D01*
X182760952Y-120586666D01*
X182903809Y-120586666D01*
X183094285Y-120634285D01*
X183189523Y-120681904D01*
X183284761Y-120777142D01*
X183332380Y-120920000D01*
X183332380Y-121158095D01*
D12*
X122287828Y-124683662D02*
X123787828Y-124683662D01*
X123787828Y-125040805D01*
X123716400Y-125255091D01*
X123573542Y-125397948D01*
X123430685Y-125469377D01*
X123144971Y-125540805D01*
X122930685Y-125540805D01*
X122644971Y-125469377D01*
X122502114Y-125397948D01*
X122359257Y-125255091D01*
X122287828Y-125040805D01*
X122287828Y-124683662D01*
X122430685Y-127040805D02*
X122359257Y-126969377D01*
X122287828Y-126755091D01*
X122287828Y-126612234D01*
X122359257Y-126397948D01*
X122502114Y-126255091D01*
X122644971Y-126183662D01*
X122930685Y-126112234D01*
X123144971Y-126112234D01*
X123430685Y-126183662D01*
X123573542Y-126255091D01*
X123716400Y-126397948D01*
X123787828Y-126612234D01*
X123787828Y-126755091D01*
X123716400Y-126969377D01*
X123644971Y-127040805D01*
X119737828Y-125040805D02*
X121237828Y-125040805D01*
X119737828Y-125755091D02*
X121237828Y-125755091D01*
X119737828Y-126612234D01*
X121237828Y-126612234D01*
D10*
X163507680Y-118318704D02*
X162507680Y-118318704D01*
X163412442Y-117271085D02*
X163460061Y-117318704D01*
X163507680Y-117461561D01*
X163507680Y-117556800D01*
X163460061Y-117699657D01*
X163364823Y-117794895D01*
X163269585Y-117842514D01*
X163079109Y-117890133D01*
X162936252Y-117890133D01*
X162745776Y-117842514D01*
X162650538Y-117794895D01*
X162555300Y-117699657D01*
X162507680Y-117556800D01*
X162507680Y-117461561D01*
X162555300Y-117318704D01*
X162602919Y-117271085D01*
X163412442Y-116271085D02*
X163460061Y-116318704D01*
X163507680Y-116461561D01*
X163507680Y-116556800D01*
X163460061Y-116699657D01*
X163364823Y-116794895D01*
X163269585Y-116842514D01*
X163079109Y-116890133D01*
X162936252Y-116890133D01*
X162745776Y-116842514D01*
X162650538Y-116794895D01*
X162555300Y-116699657D01*
X162507680Y-116556800D01*
X162507680Y-116461561D01*
X162555300Y-116318704D01*
X162602919Y-116271085D01*
X163126728Y-115842514D02*
X163126728Y-115080609D01*
X163507680Y-114080609D02*
X163507680Y-114652038D01*
X163507680Y-114366323D02*
X162507680Y-114366323D01*
X162650538Y-114461561D01*
X162745776Y-114556800D01*
X162793395Y-114652038D01*
X162460061Y-112175847D02*
X163745776Y-113032990D01*
X163507680Y-111080609D02*
X162507680Y-111080609D01*
X163412442Y-110032990D02*
X163460061Y-110080609D01*
X163507680Y-110223466D01*
X163507680Y-110318704D01*
X163460061Y-110461561D01*
X163364823Y-110556800D01*
X163269585Y-110604419D01*
X163079109Y-110652038D01*
X162936252Y-110652038D01*
X162745776Y-110604419D01*
X162650538Y-110556800D01*
X162555300Y-110461561D01*
X162507680Y-110318704D01*
X162507680Y-110223466D01*
X162555300Y-110080609D01*
X162602919Y-110032990D01*
X163412442Y-109032990D02*
X163460061Y-109080609D01*
X163507680Y-109223466D01*
X163507680Y-109318704D01*
X163460061Y-109461561D01*
X163364823Y-109556800D01*
X163269585Y-109604419D01*
X163079109Y-109652038D01*
X162936252Y-109652038D01*
X162745776Y-109604419D01*
X162650538Y-109556800D01*
X162555300Y-109461561D01*
X162507680Y-109318704D01*
X162507680Y-109223466D01*
X162555300Y-109080609D01*
X162602919Y-109032990D01*
X163126728Y-108604419D02*
X163126728Y-107842514D01*
X163221966Y-107413942D02*
X163221966Y-106937752D01*
X163507680Y-107509180D02*
X162507680Y-107175847D01*
X163507680Y-106842514D01*
X163126728Y-106509180D02*
X163126728Y-105747276D01*
X163507680Y-104747276D02*
X163507680Y-105318704D01*
X163507680Y-105032990D02*
X162507680Y-105032990D01*
X162650538Y-105128228D01*
X162745776Y-105223466D01*
X162793395Y-105318704D01*
X143724380Y-92541600D02*
X143724380Y-92351123D01*
X143772000Y-92255885D01*
X143867238Y-92160647D01*
X144057714Y-92113028D01*
X144391047Y-92113028D01*
X144581523Y-92160647D01*
X144676761Y-92255885D01*
X144724380Y-92351123D01*
X144724380Y-92541600D01*
X144676761Y-92636838D01*
X144581523Y-92732076D01*
X144391047Y-92779695D01*
X144057714Y-92779695D01*
X143867238Y-92732076D01*
X143772000Y-92636838D01*
X143724380Y-92541600D01*
X143724380Y-91684457D02*
X144533904Y-91684457D01*
X144629142Y-91636838D01*
X144676761Y-91589219D01*
X144724380Y-91493980D01*
X144724380Y-91303504D01*
X144676761Y-91208266D01*
X144629142Y-91160647D01*
X144533904Y-91113028D01*
X143724380Y-91113028D01*
X143724380Y-90779695D02*
X143724380Y-90208266D01*
X144724380Y-90493980D02*
X143724380Y-90493980D01*
X135847200Y-92303504D02*
X135799580Y-92398742D01*
X135799580Y-92541600D01*
X135847200Y-92684457D01*
X135942438Y-92779695D01*
X136037676Y-92827314D01*
X136228152Y-92874933D01*
X136371009Y-92874933D01*
X136561485Y-92827314D01*
X136656723Y-92779695D01*
X136751961Y-92684457D01*
X136799580Y-92541600D01*
X136799580Y-92446361D01*
X136751961Y-92303504D01*
X136704342Y-92255885D01*
X136371009Y-92255885D01*
X136371009Y-92446361D01*
X136799580Y-91827314D02*
X135799580Y-91827314D01*
X136799580Y-91255885D01*
X135799580Y-91255885D01*
X136799580Y-90779695D02*
X135799580Y-90779695D01*
X135799580Y-90541600D01*
X135847200Y-90398742D01*
X135942438Y-90303504D01*
X136037676Y-90255885D01*
X136228152Y-90208266D01*
X136371009Y-90208266D01*
X136561485Y-90255885D01*
X136656723Y-90303504D01*
X136751961Y-90398742D01*
X136799580Y-90541600D01*
X136799580Y-90779695D01*
X131465580Y-110649828D02*
X131465580Y-111126019D01*
X130465580Y-111126019D01*
X130941771Y-110316495D02*
X130941771Y-109983161D01*
X131465580Y-109840304D02*
X131465580Y-110316495D01*
X130465580Y-110316495D01*
X130465580Y-109840304D01*
X131465580Y-109411733D02*
X130465580Y-109411733D01*
X130465580Y-109173638D01*
X130513200Y-109030780D01*
X130608438Y-108935542D01*
X130703676Y-108887923D01*
X130894152Y-108840304D01*
X131037009Y-108840304D01*
X131227485Y-108887923D01*
X131322723Y-108935542D01*
X131417961Y-109030780D01*
X131465580Y-109173638D01*
X131465580Y-109411733D01*
X131560819Y-108649828D02*
X131560819Y-107887923D01*
X131179866Y-107697447D02*
X131179866Y-107221257D01*
X131465580Y-107792685D02*
X130465580Y-107459352D01*
X131465580Y-107126019D01*
X131465580Y-105554590D02*
X131465580Y-106030780D01*
X130465580Y-106030780D01*
X130941771Y-105221257D02*
X130941771Y-104887923D01*
X131465580Y-104745066D02*
X131465580Y-105221257D01*
X130465580Y-105221257D01*
X130465580Y-104745066D01*
X131465580Y-104316495D02*
X130465580Y-104316495D01*
X130465580Y-104078400D01*
X130513200Y-103935542D01*
X130608438Y-103840304D01*
X130703676Y-103792685D01*
X130894152Y-103745066D01*
X131037009Y-103745066D01*
X131227485Y-103792685D01*
X131322723Y-103840304D01*
X131417961Y-103935542D01*
X131465580Y-104078400D01*
X131465580Y-104316495D01*
X131560819Y-103554590D02*
X131560819Y-102792685D01*
X131465580Y-102554590D02*
X130465580Y-102554590D01*
X131465580Y-101983161D02*
X130894152Y-102411733D01*
X130465580Y-101983161D02*
X131037009Y-102554590D01*
D13*
X127558895Y-128666857D02*
X129082704Y-128666857D01*
X128320800Y-129428761D02*
X128320800Y-127904952D01*
D11*
X134780785Y-119737071D02*
X134780785Y-119272785D01*
X135066500Y-119522785D01*
X135066500Y-119415642D01*
X135102214Y-119344214D01*
X135137928Y-119308500D01*
X135209357Y-119272785D01*
X135387928Y-119272785D01*
X135459357Y-119308500D01*
X135495071Y-119344214D01*
X135530785Y-119415642D01*
X135530785Y-119629928D01*
X135495071Y-119701357D01*
X135459357Y-119737071D01*
X134780785Y-119058500D02*
X135530785Y-118808500D01*
X134780785Y-118558500D01*
X134780785Y-118379928D02*
X134780785Y-117915642D01*
X135066500Y-118165642D01*
X135066500Y-118058500D01*
X135102214Y-117987071D01*
X135137928Y-117951357D01*
X135209357Y-117915642D01*
X135387928Y-117915642D01*
X135459357Y-117951357D01*
X135495071Y-117987071D01*
X135530785Y-118058500D01*
X135530785Y-118272785D01*
X135495071Y-118344214D01*
X135459357Y-118379928D01*
D10*
X162344266Y-135250180D02*
X162344266Y-134250180D01*
X162725219Y-134250180D01*
X162820457Y-134297800D01*
X162868076Y-134345419D01*
X162915695Y-134440657D01*
X162915695Y-134583514D01*
X162868076Y-134678752D01*
X162820457Y-134726371D01*
X162725219Y-134773990D01*
X162344266Y-134773990D01*
X163249028Y-134250180D02*
X163487123Y-135250180D01*
X163677600Y-134535895D01*
X163868076Y-135250180D01*
X164106171Y-134250180D01*
X165058552Y-135250180D02*
X164725219Y-134773990D01*
X164487123Y-135250180D02*
X164487123Y-134250180D01*
X164868076Y-134250180D01*
X164963314Y-134297800D01*
X165010933Y-134345419D01*
X165058552Y-134440657D01*
X165058552Y-134583514D01*
X165010933Y-134678752D01*
X164963314Y-134726371D01*
X164868076Y-134773990D01*
X164487123Y-134773990D01*
X176611375Y-125047120D02*
X176516137Y-124999500D01*
X176373280Y-124999500D01*
X176230422Y-125047120D01*
X176135184Y-125142358D01*
X176087565Y-125237596D01*
X176039946Y-125428072D01*
X176039946Y-125570929D01*
X176087565Y-125761405D01*
X176135184Y-125856643D01*
X176230422Y-125951881D01*
X176373280Y-125999500D01*
X176468518Y-125999500D01*
X176611375Y-125951881D01*
X176658994Y-125904262D01*
X176658994Y-125570929D01*
X176468518Y-125570929D01*
X177087565Y-125999500D02*
X177087565Y-124999500D01*
X177658994Y-125999500D01*
X177658994Y-124999500D01*
X178135184Y-125999500D02*
X178135184Y-124999500D01*
X178373280Y-124999500D01*
X178516137Y-125047120D01*
X178611375Y-125142358D01*
X178658994Y-125237596D01*
X178706613Y-125428072D01*
X178706613Y-125570929D01*
X178658994Y-125761405D01*
X178611375Y-125856643D01*
X178516137Y-125951881D01*
X178373280Y-125999500D01*
X178135184Y-125999500D01*
X175171314Y-123378220D02*
X175171314Y-122378220D01*
X175552266Y-122378220D01*
X175647504Y-122425840D01*
X175695123Y-122473459D01*
X175742742Y-122568697D01*
X175742742Y-122711554D01*
X175695123Y-122806792D01*
X175647504Y-122854411D01*
X175552266Y-122902030D01*
X175171314Y-122902030D01*
X176504647Y-122854411D02*
X176647504Y-122902030D01*
X176695123Y-122949649D01*
X176742742Y-123044887D01*
X176742742Y-123187744D01*
X176695123Y-123282982D01*
X176647504Y-123330601D01*
X176552266Y-123378220D01*
X176171314Y-123378220D01*
X176171314Y-122378220D01*
X176504647Y-122378220D01*
X176599885Y-122425840D01*
X176647504Y-122473459D01*
X176695123Y-122568697D01*
X176695123Y-122663935D01*
X176647504Y-122759173D01*
X176599885Y-122806792D01*
X176504647Y-122854411D01*
X176171314Y-122854411D01*
X177695123Y-123378220D02*
X177123695Y-123378220D01*
X177409409Y-123378220D02*
X177409409Y-122378220D01*
X177314171Y-122521078D01*
X177218933Y-122616316D01*
X177123695Y-122663935D01*
X178599885Y-122378220D02*
X178123695Y-122378220D01*
X178076076Y-122854411D01*
X178123695Y-122806792D01*
X178218933Y-122759173D01*
X178457028Y-122759173D01*
X178552266Y-122806792D01*
X178599885Y-122854411D01*
X178647504Y-122949649D01*
X178647504Y-123187744D01*
X178599885Y-123282982D01*
X178552266Y-123330601D01*
X178457028Y-123378220D01*
X178218933Y-123378220D01*
X178123695Y-123330601D01*
X178076076Y-123282982D01*
X175150994Y-120904260D02*
X175150994Y-119904260D01*
X175531946Y-119904260D01*
X175627184Y-119951880D01*
X175674803Y-119999499D01*
X175722422Y-120094737D01*
X175722422Y-120237594D01*
X175674803Y-120332832D01*
X175627184Y-120380451D01*
X175531946Y-120428070D01*
X175150994Y-120428070D01*
X176484327Y-120380451D02*
X176627184Y-120428070D01*
X176674803Y-120475689D01*
X176722422Y-120570927D01*
X176722422Y-120713784D01*
X176674803Y-120809022D01*
X176627184Y-120856641D01*
X176531946Y-120904260D01*
X176150994Y-120904260D01*
X176150994Y-119904260D01*
X176484327Y-119904260D01*
X176579565Y-119951880D01*
X176627184Y-119999499D01*
X176674803Y-120094737D01*
X176674803Y-120189975D01*
X176627184Y-120285213D01*
X176579565Y-120332832D01*
X176484327Y-120380451D01*
X176150994Y-120380451D01*
X177674803Y-120904260D02*
X177103375Y-120904260D01*
X177389089Y-120904260D02*
X177389089Y-119904260D01*
X177293851Y-120047118D01*
X177198613Y-120142356D01*
X177103375Y-120189975D01*
X178531946Y-120237594D02*
X178531946Y-120904260D01*
X178293851Y-119856641D02*
X178055756Y-120570927D01*
X178674803Y-120570927D01*
X175079874Y-118343940D02*
X175079874Y-117343940D01*
X175460826Y-117343940D01*
X175556064Y-117391560D01*
X175603683Y-117439179D01*
X175651302Y-117534417D01*
X175651302Y-117677274D01*
X175603683Y-117772512D01*
X175556064Y-117820131D01*
X175460826Y-117867750D01*
X175079874Y-117867750D01*
X176651302Y-118248702D02*
X176603683Y-118296321D01*
X176460826Y-118343940D01*
X176365588Y-118343940D01*
X176222731Y-118296321D01*
X176127493Y-118201083D01*
X176079874Y-118105845D01*
X176032255Y-117915369D01*
X176032255Y-117772512D01*
X176079874Y-117582036D01*
X176127493Y-117486798D01*
X176222731Y-117391560D01*
X176365588Y-117343940D01*
X176460826Y-117343940D01*
X176603683Y-117391560D01*
X176651302Y-117439179D01*
X177603683Y-118343940D02*
X177032255Y-118343940D01*
X177317969Y-118343940D02*
X177317969Y-117343940D01*
X177222731Y-117486798D01*
X177127493Y-117582036D01*
X177032255Y-117629655D01*
X178222731Y-117343940D02*
X178317969Y-117343940D01*
X178413207Y-117391560D01*
X178460826Y-117439179D01*
X178508445Y-117534417D01*
X178556064Y-117724893D01*
X178556064Y-117962988D01*
X178508445Y-118153464D01*
X178460826Y-118248702D01*
X178413207Y-118296321D01*
X178317969Y-118343940D01*
X178222731Y-118343940D01*
X178127493Y-118296321D01*
X178079874Y-118248702D01*
X178032255Y-118153464D01*
X177984636Y-117962988D01*
X177984636Y-117724893D01*
X178032255Y-117534417D01*
X178079874Y-117439179D01*
X178127493Y-117391560D01*
X178222731Y-117343940D01*
X175044314Y-115717580D02*
X175044314Y-114717580D01*
X175425266Y-114717580D01*
X175520504Y-114765200D01*
X175568123Y-114812819D01*
X175615742Y-114908057D01*
X175615742Y-115050914D01*
X175568123Y-115146152D01*
X175520504Y-115193771D01*
X175425266Y-115241390D01*
X175044314Y-115241390D01*
X176615742Y-115622342D02*
X176568123Y-115669961D01*
X176425266Y-115717580D01*
X176330028Y-115717580D01*
X176187171Y-115669961D01*
X176091933Y-115574723D01*
X176044314Y-115479485D01*
X175996695Y-115289009D01*
X175996695Y-115146152D01*
X176044314Y-114955676D01*
X176091933Y-114860438D01*
X176187171Y-114765200D01*
X176330028Y-114717580D01*
X176425266Y-114717580D01*
X176568123Y-114765200D01*
X176615742Y-114812819D01*
X177568123Y-115717580D02*
X176996695Y-115717580D01*
X177282409Y-115717580D02*
X177282409Y-114717580D01*
X177187171Y-114860438D01*
X177091933Y-114955676D01*
X176996695Y-115003295D01*
X178520504Y-115717580D02*
X177949076Y-115717580D01*
X178234790Y-115717580D02*
X178234790Y-114717580D01*
X178139552Y-114860438D01*
X178044314Y-114955676D01*
X177949076Y-115003295D01*
X176059293Y-113350300D02*
X176059293Y-112350300D01*
X176440245Y-112350300D01*
X176535483Y-112397920D01*
X176583102Y-112445539D01*
X176630721Y-112540777D01*
X176630721Y-112683634D01*
X176583102Y-112778872D01*
X176535483Y-112826491D01*
X176440245Y-112874110D01*
X176059293Y-112874110D01*
X177392626Y-112826491D02*
X177059293Y-112826491D01*
X177059293Y-113350300D02*
X177059293Y-112350300D01*
X177535483Y-112350300D01*
X178106912Y-112350300D02*
X178202150Y-112350300D01*
X178297388Y-112397920D01*
X178345007Y-112445539D01*
X178392626Y-112540777D01*
X178440245Y-112731253D01*
X178440245Y-112969348D01*
X178392626Y-113159824D01*
X178345007Y-113255062D01*
X178297388Y-113302681D01*
X178202150Y-113350300D01*
X178106912Y-113350300D01*
X178011674Y-113302681D01*
X177964055Y-113255062D01*
X177916436Y-113159824D01*
X177868817Y-112969348D01*
X177868817Y-112731253D01*
X177916436Y-112540777D01*
X177964055Y-112445539D01*
X178011674Y-112397920D01*
X178106912Y-112350300D01*
X176150733Y-110662980D02*
X176150733Y-109662980D01*
X176531685Y-109662980D01*
X176626923Y-109710600D01*
X176674542Y-109758219D01*
X176722161Y-109853457D01*
X176722161Y-109996314D01*
X176674542Y-110091552D01*
X176626923Y-110139171D01*
X176531685Y-110186790D01*
X176150733Y-110186790D01*
X177484066Y-110139171D02*
X177150733Y-110139171D01*
X177150733Y-110662980D02*
X177150733Y-109662980D01*
X177626923Y-109662980D01*
X178531685Y-110662980D02*
X177960257Y-110662980D01*
X178245971Y-110662980D02*
X178245971Y-109662980D01*
X178150733Y-109805838D01*
X178055495Y-109901076D01*
X177960257Y-109948695D01*
X176028813Y-108117900D02*
X176028813Y-107117900D01*
X176409765Y-107117900D01*
X176505003Y-107165520D01*
X176552622Y-107213139D01*
X176600241Y-107308377D01*
X176600241Y-107451234D01*
X176552622Y-107546472D01*
X176505003Y-107594091D01*
X176409765Y-107641710D01*
X176028813Y-107641710D01*
X177362146Y-107594091D02*
X177028813Y-107594091D01*
X177028813Y-108117900D02*
X177028813Y-107117900D01*
X177505003Y-107117900D01*
X177838337Y-107213139D02*
X177885956Y-107165520D01*
X177981194Y-107117900D01*
X178219289Y-107117900D01*
X178314527Y-107165520D01*
X178362146Y-107213139D01*
X178409765Y-107308377D01*
X178409765Y-107403615D01*
X178362146Y-107546472D01*
X177790718Y-108117900D01*
X178409765Y-108117900D01*
X175866253Y-105699820D02*
X175866253Y-104699820D01*
X176247205Y-104699820D01*
X176342443Y-104747440D01*
X176390062Y-104795059D01*
X176437681Y-104890297D01*
X176437681Y-105033154D01*
X176390062Y-105128392D01*
X176342443Y-105176011D01*
X176247205Y-105223630D01*
X175866253Y-105223630D01*
X177199586Y-105176011D02*
X176866253Y-105176011D01*
X176866253Y-105699820D02*
X176866253Y-104699820D01*
X177342443Y-104699820D01*
X177628158Y-104699820D02*
X178247205Y-104699820D01*
X177913872Y-105080773D01*
X178056729Y-105080773D01*
X178151967Y-105128392D01*
X178199586Y-105176011D01*
X178247205Y-105271249D01*
X178247205Y-105509344D01*
X178199586Y-105604582D01*
X178151967Y-105652201D01*
X178056729Y-105699820D01*
X177771015Y-105699820D01*
X177675777Y-105652201D01*
X177628158Y-105604582D01*
X175824640Y-103063300D02*
X175491306Y-102587110D01*
X175253211Y-103063300D02*
X175253211Y-102063300D01*
X175634163Y-102063300D01*
X175729401Y-102110920D01*
X175777020Y-102158539D01*
X175824640Y-102253777D01*
X175824640Y-102396634D01*
X175777020Y-102491872D01*
X175729401Y-102539491D01*
X175634163Y-102587110D01*
X175253211Y-102587110D01*
X176205592Y-103015681D02*
X176348449Y-103063300D01*
X176586544Y-103063300D01*
X176681782Y-103015681D01*
X176729401Y-102968062D01*
X176777020Y-102872824D01*
X176777020Y-102777586D01*
X176729401Y-102682348D01*
X176681782Y-102634729D01*
X176586544Y-102587110D01*
X176396068Y-102539491D01*
X176300830Y-102491872D01*
X176253211Y-102444253D01*
X176205592Y-102349015D01*
X176205592Y-102253777D01*
X176253211Y-102158539D01*
X176300830Y-102110920D01*
X176396068Y-102063300D01*
X176634163Y-102063300D01*
X176777020Y-102110920D01*
X177062735Y-102063300D02*
X177634163Y-102063300D01*
X177348449Y-103063300D02*
X177348449Y-102063300D01*
X177967497Y-102396634D02*
X177967497Y-103063300D01*
X177967497Y-102491872D02*
X178015116Y-102444253D01*
X178110354Y-102396634D01*
X178253211Y-102396634D01*
X178348449Y-102444253D01*
X178396068Y-102539491D01*
X178396068Y-103063300D01*
X141075873Y-103182680D02*
X141075873Y-102182680D01*
X141456825Y-102182680D01*
X141552063Y-102230300D01*
X141599682Y-102277919D01*
X141647301Y-102373157D01*
X141647301Y-102516014D01*
X141599682Y-102611252D01*
X141552063Y-102658871D01*
X141456825Y-102706490D01*
X141075873Y-102706490D01*
X142028254Y-102896966D02*
X142504444Y-102896966D01*
X141933016Y-103182680D02*
X142266349Y-102182680D01*
X142599682Y-103182680D01*
X143123492Y-102182680D02*
X143218730Y-102182680D01*
X143313968Y-102230300D01*
X143361587Y-102277919D01*
X143409206Y-102373157D01*
X143456825Y-102563633D01*
X143456825Y-102801728D01*
X143409206Y-102992204D01*
X143361587Y-103087442D01*
X143313968Y-103135061D01*
X143218730Y-103182680D01*
X143123492Y-103182680D01*
X143028254Y-103135061D01*
X142980635Y-103087442D01*
X142933016Y-102992204D01*
X142885397Y-102801728D01*
X142885397Y-102563633D01*
X142933016Y-102373157D01*
X142980635Y-102277919D01*
X143028254Y-102230300D01*
X143123492Y-102182680D01*
X141075873Y-105722680D02*
X141075873Y-104722680D01*
X141456825Y-104722680D01*
X141552063Y-104770300D01*
X141599682Y-104817919D01*
X141647301Y-104913157D01*
X141647301Y-105056014D01*
X141599682Y-105151252D01*
X141552063Y-105198871D01*
X141456825Y-105246490D01*
X141075873Y-105246490D01*
X142028254Y-105436966D02*
X142504444Y-105436966D01*
X141933016Y-105722680D02*
X142266349Y-104722680D01*
X142599682Y-105722680D01*
X143456825Y-105722680D02*
X142885397Y-105722680D01*
X143171111Y-105722680D02*
X143171111Y-104722680D01*
X143075873Y-104865538D01*
X142980635Y-104960776D01*
X142885397Y-105008395D01*
X141361587Y-107738871D02*
X141504444Y-107786490D01*
X141552063Y-107834109D01*
X141599682Y-107929347D01*
X141599682Y-108072204D01*
X141552063Y-108167442D01*
X141504444Y-108215061D01*
X141409206Y-108262680D01*
X141028254Y-108262680D01*
X141028254Y-107262680D01*
X141361587Y-107262680D01*
X141456825Y-107310300D01*
X141504444Y-107357919D01*
X141552063Y-107453157D01*
X141552063Y-107548395D01*
X141504444Y-107643633D01*
X141456825Y-107691252D01*
X141361587Y-107738871D01*
X141028254Y-107738871D01*
X142552063Y-108262680D02*
X141980635Y-108262680D01*
X142266349Y-108262680D02*
X142266349Y-107262680D01*
X142171111Y-107405538D01*
X142075873Y-107500776D01*
X141980635Y-107548395D01*
X142933016Y-107357919D02*
X142980635Y-107310300D01*
X143075873Y-107262680D01*
X143313968Y-107262680D01*
X143409206Y-107310300D01*
X143456825Y-107357919D01*
X143504444Y-107453157D01*
X143504444Y-107548395D01*
X143456825Y-107691252D01*
X142885397Y-108262680D01*
X143504444Y-108262680D01*
X141361587Y-110278871D02*
X141504444Y-110326490D01*
X141552063Y-110374109D01*
X141599682Y-110469347D01*
X141599682Y-110612204D01*
X141552063Y-110707442D01*
X141504444Y-110755061D01*
X141409206Y-110802680D01*
X141028254Y-110802680D01*
X141028254Y-109802680D01*
X141361587Y-109802680D01*
X141456825Y-109850300D01*
X141504444Y-109897919D01*
X141552063Y-109993157D01*
X141552063Y-110088395D01*
X141504444Y-110183633D01*
X141456825Y-110231252D01*
X141361587Y-110278871D01*
X141028254Y-110278871D01*
X142552063Y-110802680D02*
X141980635Y-110802680D01*
X142266349Y-110802680D02*
X142266349Y-109802680D01*
X142171111Y-109945538D01*
X142075873Y-110040776D01*
X141980635Y-110088395D01*
X142885397Y-109802680D02*
X143504444Y-109802680D01*
X143171111Y-110183633D01*
X143313968Y-110183633D01*
X143409206Y-110231252D01*
X143456825Y-110278871D01*
X143504444Y-110374109D01*
X143504444Y-110612204D01*
X143456825Y-110707442D01*
X143409206Y-110755061D01*
X143313968Y-110802680D01*
X143028254Y-110802680D01*
X142933016Y-110755061D01*
X142885397Y-110707442D01*
X141480635Y-112390300D02*
X141385397Y-112342680D01*
X141242540Y-112342680D01*
X141099682Y-112390300D01*
X141004444Y-112485538D01*
X140956825Y-112580776D01*
X140909206Y-112771252D01*
X140909206Y-112914109D01*
X140956825Y-113104585D01*
X141004444Y-113199823D01*
X141099682Y-113295061D01*
X141242540Y-113342680D01*
X141337778Y-113342680D01*
X141480635Y-113295061D01*
X141528254Y-113247442D01*
X141528254Y-112914109D01*
X141337778Y-112914109D01*
X141956825Y-113342680D02*
X141956825Y-112342680D01*
X142528254Y-113342680D01*
X142528254Y-112342680D01*
X143004444Y-113342680D02*
X143004444Y-112342680D01*
X143242540Y-112342680D01*
X143385397Y-112390300D01*
X143480635Y-112485538D01*
X143528254Y-112580776D01*
X143575873Y-112771252D01*
X143575873Y-112914109D01*
X143528254Y-113104585D01*
X143480635Y-113199823D01*
X143385397Y-113295061D01*
X143242540Y-113342680D01*
X143004444Y-113342680D01*
X140909206Y-114882680D02*
X141242540Y-115882680D01*
X141575873Y-114882680D01*
X142480635Y-115787442D02*
X142433016Y-115835061D01*
X142290159Y-115882680D01*
X142194920Y-115882680D01*
X142052063Y-115835061D01*
X141956825Y-115739823D01*
X141909206Y-115644585D01*
X141861587Y-115454109D01*
X141861587Y-115311252D01*
X141909206Y-115120776D01*
X141956825Y-115025538D01*
X142052063Y-114930300D01*
X142194920Y-114882680D01*
X142290159Y-114882680D01*
X142433016Y-114930300D01*
X142480635Y-114977919D01*
X143480635Y-115787442D02*
X143433016Y-115835061D01*
X143290159Y-115882680D01*
X143194920Y-115882680D01*
X143052063Y-115835061D01*
X142956825Y-115739823D01*
X142909206Y-115644585D01*
X142861587Y-115454109D01*
X142861587Y-115311252D01*
X142909206Y-115120776D01*
X142956825Y-115025538D01*
X143052063Y-114930300D01*
X143194920Y-114882680D01*
X143290159Y-114882680D01*
X143433016Y-114930300D01*
X143480635Y-114977919D01*
X176093619Y-92400380D02*
X175760285Y-91924190D01*
X175522190Y-92400380D02*
X175522190Y-91400380D01*
X175903142Y-91400380D01*
X175998380Y-91448000D01*
X176046000Y-91495619D01*
X176093619Y-91590857D01*
X176093619Y-91733714D01*
X176046000Y-91828952D01*
X175998380Y-91876571D01*
X175903142Y-91924190D01*
X175522190Y-91924190D01*
X176522190Y-91876571D02*
X176855523Y-91876571D01*
X176998380Y-92400380D02*
X176522190Y-92400380D01*
X176522190Y-91400380D01*
X176998380Y-91400380D01*
X177379333Y-92352761D02*
X177522190Y-92400380D01*
X177760285Y-92400380D01*
X177855523Y-92352761D01*
X177903142Y-92305142D01*
X177950761Y-92209904D01*
X177950761Y-92114666D01*
X177903142Y-92019428D01*
X177855523Y-91971809D01*
X177760285Y-91924190D01*
X177569809Y-91876571D01*
X177474571Y-91828952D01*
X177426952Y-91781333D01*
X177379333Y-91686095D01*
X177379333Y-91590857D01*
X177426952Y-91495619D01*
X177474571Y-91448000D01*
X177569809Y-91400380D01*
X177807904Y-91400380D01*
X177950761Y-91448000D01*
X178379333Y-91876571D02*
X178712666Y-91876571D01*
X178855523Y-92400380D02*
X178379333Y-92400380D01*
X178379333Y-91400380D01*
X178855523Y-91400380D01*
X179141238Y-91400380D02*
X179712666Y-91400380D01*
X179426952Y-92400380D02*
X179426952Y-91400380D01*
D11*
X163004571Y-129294000D02*
X162933142Y-129246380D01*
X162826000Y-129246380D01*
X162718857Y-129294000D01*
X162647428Y-129389238D01*
X162611714Y-129484476D01*
X162576000Y-129674952D01*
X162576000Y-129817809D01*
X162611714Y-130008285D01*
X162647428Y-130103523D01*
X162718857Y-130198761D01*
X162826000Y-130246380D01*
X162897428Y-130246380D01*
X163004571Y-130198761D01*
X163040285Y-130151142D01*
X163040285Y-129817809D01*
X162897428Y-129817809D01*
X163361714Y-130246380D02*
X163361714Y-129246380D01*
X163790285Y-130246380D01*
X163790285Y-129246380D01*
X164147428Y-130246380D02*
X164147428Y-129246380D01*
X164326000Y-129246380D01*
X164433142Y-129294000D01*
X164504571Y-129389238D01*
X164540285Y-129484476D01*
X164576000Y-129674952D01*
X164576000Y-129817809D01*
X164540285Y-130008285D01*
X164504571Y-130103523D01*
X164433142Y-130198761D01*
X164326000Y-130246380D01*
X164147428Y-130246380D01*
X160032000Y-130246380D02*
X159782000Y-129770190D01*
X159603428Y-130246380D02*
X159603428Y-129246380D01*
X159889142Y-129246380D01*
X159960571Y-129294000D01*
X159996285Y-129341619D01*
X160032000Y-129436857D01*
X160032000Y-129579714D01*
X159996285Y-129674952D01*
X159960571Y-129722571D01*
X159889142Y-129770190D01*
X159603428Y-129770190D01*
X160317714Y-130198761D02*
X160424857Y-130246380D01*
X160603428Y-130246380D01*
X160674857Y-130198761D01*
X160710571Y-130151142D01*
X160746285Y-130055904D01*
X160746285Y-129960666D01*
X160710571Y-129865428D01*
X160674857Y-129817809D01*
X160603428Y-129770190D01*
X160460571Y-129722571D01*
X160389142Y-129674952D01*
X160353428Y-129627333D01*
X160317714Y-129532095D01*
X160317714Y-129436857D01*
X160353428Y-129341619D01*
X160389142Y-129294000D01*
X160460571Y-129246380D01*
X160639142Y-129246380D01*
X160746285Y-129294000D01*
X160960571Y-129246380D02*
X161389142Y-129246380D01*
X161174857Y-130246380D02*
X161174857Y-129246380D01*
X161639142Y-129579714D02*
X161639142Y-130246380D01*
X161639142Y-129674952D02*
X161674857Y-129627333D01*
X161746285Y-129579714D01*
X161853428Y-129579714D01*
X161924857Y-129627333D01*
X161960571Y-129722571D01*
X161960571Y-130246380D01*
X156805428Y-129246380D02*
X157269714Y-129246380D01*
X157019714Y-129627333D01*
X157126857Y-129627333D01*
X157198285Y-129674952D01*
X157234000Y-129722571D01*
X157269714Y-129817809D01*
X157269714Y-130055904D01*
X157234000Y-130151142D01*
X157198285Y-130198761D01*
X157126857Y-130246380D01*
X156912571Y-130246380D01*
X156841142Y-130198761D01*
X156805428Y-130151142D01*
X157484000Y-129246380D02*
X157734000Y-130246380D01*
X157984000Y-129246380D01*
X158162571Y-129246380D02*
X158626857Y-129246380D01*
X158376857Y-129627333D01*
X158484000Y-129627333D01*
X158555428Y-129674952D01*
X158591142Y-129722571D01*
X158626857Y-129817809D01*
X158626857Y-130055904D01*
X158591142Y-130151142D01*
X158555428Y-130198761D01*
X158484000Y-130246380D01*
X158269714Y-130246380D01*
X158198285Y-130198761D01*
X158162571Y-130151142D01*
X156452571Y-122324761D02*
X156559714Y-122372380D01*
X156738285Y-122372380D01*
X156809714Y-122324761D01*
X156845428Y-122277142D01*
X156881142Y-122181904D01*
X156881142Y-122086666D01*
X156845428Y-121991428D01*
X156809714Y-121943809D01*
X156738285Y-121896190D01*
X156595428Y-121848571D01*
X156524000Y-121800952D01*
X156488285Y-121753333D01*
X156452571Y-121658095D01*
X156452571Y-121562857D01*
X156488285Y-121467619D01*
X156524000Y-121420000D01*
X156595428Y-121372380D01*
X156774000Y-121372380D01*
X156881142Y-121420000D01*
X157131142Y-121372380D02*
X157309714Y-122372380D01*
X157452571Y-121658095D01*
X157595428Y-122372380D01*
X157774000Y-121372380D01*
X158059714Y-122372380D02*
X158059714Y-121372380D01*
X158238285Y-121372380D01*
X158345428Y-121420000D01*
X158416857Y-121515238D01*
X158452571Y-121610476D01*
X158488285Y-121800952D01*
X158488285Y-121943809D01*
X158452571Y-122134285D01*
X158416857Y-122229523D01*
X158345428Y-122324761D01*
X158238285Y-122372380D01*
X158059714Y-122372380D01*
X158809714Y-122372380D02*
X158809714Y-121372380D01*
X159309714Y-121372380D02*
X159452571Y-121372380D01*
X159524000Y-121420000D01*
X159595428Y-121515238D01*
X159631142Y-121705714D01*
X159631142Y-122039047D01*
X159595428Y-122229523D01*
X159524000Y-122324761D01*
X159452571Y-122372380D01*
X159309714Y-122372380D01*
X159238285Y-122324761D01*
X159166857Y-122229523D01*
X159131142Y-122039047D01*
X159131142Y-121705714D01*
X159166857Y-121515238D01*
X159238285Y-121420000D01*
X159309714Y-121372380D01*
X160488285Y-121324761D02*
X159845428Y-122610476D01*
X161166857Y-122277142D02*
X161131142Y-122324761D01*
X161024000Y-122372380D01*
X160952571Y-122372380D01*
X160845428Y-122324761D01*
X160774000Y-122229523D01*
X160738285Y-122134285D01*
X160702571Y-121943809D01*
X160702571Y-121800952D01*
X160738285Y-121610476D01*
X160774000Y-121515238D01*
X160845428Y-121420000D01*
X160952571Y-121372380D01*
X161024000Y-121372380D01*
X161131142Y-121420000D01*
X161166857Y-121467619D01*
X161845428Y-122372380D02*
X161488285Y-122372380D01*
X161488285Y-121372380D01*
X162095428Y-122372380D02*
X162095428Y-121372380D01*
X162524000Y-122372380D02*
X162202571Y-121800952D01*
X162524000Y-121372380D02*
X162095428Y-121943809D01*
X163381142Y-121324761D02*
X162738285Y-122610476D01*
X163774000Y-121372380D02*
X163916857Y-121372380D01*
X163988285Y-121420000D01*
X164059714Y-121515238D01*
X164095428Y-121705714D01*
X164095428Y-122039047D01*
X164059714Y-122229523D01*
X163988285Y-122324761D01*
X163916857Y-122372380D01*
X163774000Y-122372380D01*
X163702571Y-122324761D01*
X163631142Y-122229523D01*
X163595428Y-122039047D01*
X163595428Y-121705714D01*
X163631142Y-121515238D01*
X163702571Y-121420000D01*
X163774000Y-121372380D01*
D14*
X150777000Y-123194071D02*
X150777000Y-124265500D01*
X150705571Y-124479785D01*
X150562714Y-124622642D01*
X150348428Y-124694071D01*
X150205571Y-124694071D01*
X151277000Y-123194071D02*
X152134142Y-123194071D01*
X151705571Y-124694071D02*
X151705571Y-123194071D01*
X152562714Y-124265500D02*
X153277000Y-124265500D01*
X152419857Y-124694071D02*
X152919857Y-123194071D01*
X153419857Y-124694071D01*
X154705571Y-123265500D02*
X154562714Y-123194071D01*
X154348428Y-123194071D01*
X154134142Y-123265500D01*
X153991285Y-123408357D01*
X153919857Y-123551214D01*
X153848428Y-123836928D01*
X153848428Y-124051214D01*
X153919857Y-124336928D01*
X153991285Y-124479785D01*
X154134142Y-124622642D01*
X154348428Y-124694071D01*
X154491285Y-124694071D01*
X154705571Y-124622642D01*
X154777000Y-124551214D01*
X154777000Y-124051214D01*
X154491285Y-124051214D01*
D10*
X167205447Y-129376466D02*
X167681638Y-129376466D01*
X167110209Y-129662180D02*
X167443542Y-128662180D01*
X167776876Y-129662180D01*
X168681638Y-129662180D02*
X168348304Y-129185990D01*
X168110209Y-129662180D02*
X168110209Y-128662180D01*
X168491161Y-128662180D01*
X168586400Y-128709800D01*
X168634019Y-128757419D01*
X168681638Y-128852657D01*
X168681638Y-128995514D01*
X168634019Y-129090752D01*
X168586400Y-129138371D01*
X168491161Y-129185990D01*
X168110209Y-129185990D01*
X169110209Y-129662180D02*
X169110209Y-128662180D01*
X169443542Y-129376466D01*
X169776876Y-128662180D01*
X169776876Y-129662180D01*
X171300685Y-128662180D02*
X171300685Y-129376466D01*
X171253066Y-129519323D01*
X171157828Y-129614561D01*
X171014971Y-129662180D01*
X170919733Y-129662180D01*
X171634019Y-128662180D02*
X172205447Y-128662180D01*
X171919733Y-129662180D02*
X171919733Y-128662180D01*
X172491161Y-129376466D02*
X172967352Y-129376466D01*
X172395923Y-129662180D02*
X172729257Y-128662180D01*
X173062590Y-129662180D01*
X173919733Y-128709800D02*
X173824495Y-128662180D01*
X173681638Y-128662180D01*
X173538780Y-128709800D01*
X173443542Y-128805038D01*
X173395923Y-128900276D01*
X173348304Y-129090752D01*
X173348304Y-129233609D01*
X173395923Y-129424085D01*
X173443542Y-129519323D01*
X173538780Y-129614561D01*
X173681638Y-129662180D01*
X173776876Y-129662180D01*
X173919733Y-129614561D01*
X173967352Y-129566942D01*
X173967352Y-129233609D01*
X173776876Y-129233609D01*
D15*
X190656253Y-121383195D02*
G75*
G02*
X190511000Y-122096000I-1680253J-28805D01*
G01*
X189659042Y-122947426D02*
G75*
G02*
X188292000Y-122947000I-683042J1535426D01*
G01*
X187440574Y-122095042D02*
G75*
G02*
X187441000Y-120728000I1535426J683042D01*
G01*
X188292958Y-119876574D02*
G75*
G02*
X189660000Y-119877000I683042J-1535426D01*
G01*
X190510756Y-120728682D02*
G75*
G02*
X190656000Y-121412000I-1534756J-683318D01*
G01*
X190656000Y-116412000D02*
G75*
G03*
X190656000Y-116412000I-1680000J0D01*
G01*
X190656000Y-111412000D02*
G75*
G03*
X190656000Y-111412000I-1680000J0D01*
G01*
X190656000Y-106412000D02*
G75*
G03*
X190656000Y-106412000I-1680000J0D01*
G01*
X193076000Y-123972000D02*
X193076000Y-103851000D01*
X191576000Y-123972000D02*
X191576000Y-103851000D01*
X186675000Y-123972000D02*
X186675000Y-103851000D01*
X183715000Y-123972000D02*
X183715000Y-103851000D01*
X193636000Y-123972000D02*
X193636000Y-103851000D01*
X183715000Y-123972000D02*
X193636000Y-123972000D01*
X183715000Y-103851000D02*
X193636000Y-103851000D01*
X187907000Y-115137000D02*
X187953000Y-115184000D01*
X190215000Y-117446000D02*
X190250000Y-117481000D01*
X187701000Y-115342000D02*
X187737000Y-115377000D01*
X189999000Y-117639000D02*
X190045000Y-117686000D01*
X187907000Y-110137000D02*
X187953000Y-110184000D01*
X190215000Y-112446000D02*
X190250000Y-112481000D01*
X187701000Y-110342000D02*
X187737000Y-110377000D01*
X189999000Y-112639000D02*
X190045000Y-112686000D01*
X187907000Y-105137000D02*
X187953000Y-105184000D01*
X190215000Y-107446000D02*
X190250000Y-107481000D01*
X187701000Y-105342000D02*
X187737000Y-105377000D01*
X189999000Y-107639000D02*
X190045000Y-107686000D01*
X193136000Y-124212000D02*
X193876000Y-124212000D01*
X193876000Y-124212000D02*
X193876000Y-123712000D01*
X180718000Y-132034000D02*
G75*
G02*
X181418000Y-131334000I700000J0D01*
G01*
X181418000Y-133334000D02*
G75*
G02*
X180718000Y-132634000I0J700000D01*
G01*
X183518000Y-132634000D02*
G75*
G02*
X182818000Y-133334000I-700000J0D01*
G01*
X182818000Y-131334000D02*
G75*
G02*
X183518000Y-132034000I0J-700000D01*
G01*
X180718000Y-132634000D02*
X180718000Y-132034000D01*
X182818000Y-133334000D02*
X181418000Y-133334000D01*
X183518000Y-132034000D02*
X183518000Y-132634000D01*
X181418000Y-131334000D02*
X182818000Y-131334000D01*
X131560000Y-132634000D02*
G75*
G02*
X130860000Y-133334000I-700000J0D01*
G01*
X130860000Y-131334000D02*
G75*
G02*
X131560000Y-132034000I0J-700000D01*
G01*
X128760000Y-132034000D02*
G75*
G02*
X129460000Y-131334000I700000J0D01*
G01*
X129460000Y-133334000D02*
G75*
G02*
X128760000Y-132634000I0J700000D01*
G01*
X131560000Y-132034000D02*
X131560000Y-132634000D01*
X129460000Y-131334000D02*
X130860000Y-131334000D01*
X128760000Y-132634000D02*
X128760000Y-132034000D01*
X130860000Y-133334000D02*
X129460000Y-133334000D01*
X181480000Y-91140000D02*
G75*
G02*
X182180000Y-90440000I700000J0D01*
G01*
X182180000Y-92440000D02*
G75*
G02*
X181480000Y-91740000I0J700000D01*
G01*
X184280000Y-91740000D02*
G75*
G02*
X183580000Y-92440000I-700000J0D01*
G01*
X183580000Y-90440000D02*
G75*
G02*
X184280000Y-91140000I0J-700000D01*
G01*
X181480000Y-91740000D02*
X181480000Y-91140000D01*
X183580000Y-92440000D02*
X182180000Y-92440000D01*
X184280000Y-91140000D02*
X184280000Y-91740000D01*
X182180000Y-90440000D02*
X183580000Y-90440000D01*
X132210000Y-92248000D02*
G75*
G02*
X131510000Y-92948000I-700000J0D01*
G01*
X131510000Y-90948000D02*
G75*
G02*
X132210000Y-91648000I0J-700000D01*
G01*
X129410000Y-91648000D02*
G75*
G02*
X130110000Y-90948000I700000J0D01*
G01*
X130110000Y-92948000D02*
G75*
G02*
X129410000Y-92248000I0J700000D01*
G01*
X132210000Y-91648000D02*
X132210000Y-92248000D01*
X130110000Y-90948000D02*
X131510000Y-90948000D01*
X129410000Y-92248000D02*
X129410000Y-91648000D01*
X131510000Y-92948000D02*
X130110000Y-92948000D01*
X142858800Y-90211600D02*
X142858800Y-91541600D01*
X141528800Y-90211600D02*
X142858800Y-90211600D01*
X140258800Y-90211600D02*
X140258800Y-92871600D01*
X140258800Y-92871600D02*
X137658800Y-92871600D01*
X140258800Y-90211600D02*
X137658800Y-90211600D01*
X137658800Y-90211600D02*
X137658800Y-92871600D01*
X132338400Y-99552136D02*
X132338400Y-101006264D01*
X134158400Y-99552136D02*
X134158400Y-101006264D01*
X129600000Y-124781000D02*
X129600000Y-126111000D01*
X128270000Y-124781000D02*
X129600000Y-124781000D01*
X127000000Y-124781000D02*
X127000000Y-127441000D01*
X127000000Y-127441000D02*
X124400000Y-127441000D01*
X127000000Y-124781000D02*
X124400000Y-124781000D01*
X124400000Y-124781000D02*
X124400000Y-127441000D01*
X137698800Y-97891600D02*
X137698800Y-101341600D01*
X137698800Y-97891600D02*
X137698800Y-95941600D01*
X142818800Y-97891600D02*
X142818800Y-99841600D01*
X142818800Y-97891600D02*
X142818800Y-95941600D01*
X146299600Y-98263064D02*
X146299600Y-96808936D01*
X144479600Y-98263064D02*
X144479600Y-96808936D01*
X136788536Y-107234400D02*
X138242664Y-107234400D01*
X136788536Y-105414400D02*
X138242664Y-105414400D01*
X133299200Y-113107600D02*
X133299200Y-112337600D01*
X133299200Y-105027600D02*
X133299200Y-105797600D01*
X134669200Y-112337600D02*
X134669200Y-105797600D01*
X131929200Y-112337600D02*
X134669200Y-112337600D01*
X131929200Y-105797600D02*
X131929200Y-112337600D01*
X134669200Y-105797600D02*
X131929200Y-105797600D01*
X149787500Y-126654500D02*
X145487500Y-126654500D01*
X145487500Y-126654500D02*
X145487500Y-133954500D01*
X149787500Y-126654500D02*
X149787500Y-133954500D01*
X131091000Y-125317000D02*
X133831000Y-125317000D01*
X133831000Y-125317000D02*
X133831000Y-118777000D01*
X133831000Y-118777000D02*
X131091000Y-118777000D01*
X131091000Y-118777000D02*
X131091000Y-125317000D01*
X132461000Y-126087000D02*
X132461000Y-125317000D01*
X132461000Y-118007000D02*
X132461000Y-118777000D01*
X142841000Y-135094000D02*
X142841000Y-133394000D01*
X142841000Y-129574000D02*
X142841000Y-131274000D01*
X138385437Y-129574000D02*
X142841000Y-129574000D01*
X138385437Y-135094000D02*
X142841000Y-135094000D01*
X137321000Y-134029563D02*
X137321000Y-133394000D01*
X137321000Y-130638437D02*
X137321000Y-131274000D01*
X137321000Y-130638437D02*
X138385437Y-129574000D01*
X137321000Y-134029563D02*
X138385437Y-135094000D01*
X136456000Y-130649000D02*
X137081000Y-130649000D01*
X136768500Y-130336500D02*
X136768500Y-130961500D01*
X129116000Y-113344000D02*
X129116000Y-112294000D01*
X128066000Y-112294000D02*
X129116000Y-112294000D01*
X123016000Y-121694000D02*
X114216000Y-121694000D01*
X114216000Y-121694000D02*
X114216000Y-112494000D01*
X128916000Y-118994000D02*
X128916000Y-121694000D01*
X128916000Y-121694000D02*
X127016000Y-121694000D01*
X114216000Y-112494000D02*
X128916000Y-112494000D01*
X128916000Y-112494000D02*
X128916000Y-115094000D01*
X126394000Y-108886000D02*
G75*
G03*
X126394000Y-108886000I-1680000J0D01*
G01*
X120614000Y-101326000D02*
X120614000Y-111446000D01*
X122114000Y-101326000D02*
X122114000Y-111446000D01*
X127015000Y-101326000D02*
X127015000Y-111446000D01*
X129975000Y-101326000D02*
X129975000Y-111446000D01*
X120054000Y-101326000D02*
X120054000Y-111446000D01*
X129975000Y-101326000D02*
X120054000Y-101326000D01*
X129975000Y-111446000D02*
X120054000Y-111446000D01*
X125783000Y-110161000D02*
X125737000Y-110114000D01*
X123475000Y-107852000D02*
X123440000Y-107817000D01*
X125989000Y-109956000D02*
X125953000Y-109921000D01*
X123691000Y-107659000D02*
X123645000Y-107612000D01*
X120554000Y-101086000D02*
X119814000Y-101086000D01*
X119814000Y-101086000D02*
X119814000Y-101586000D01*
X123033747Y-103914805D02*
G75*
G02*
X123179000Y-103202000I1680253J28805D01*
G01*
X124030958Y-102350574D02*
G75*
G02*
X125398000Y-102351000I683042J-1535426D01*
G01*
X126249426Y-103202958D02*
G75*
G02*
X126249000Y-104570000I-1535426J-683042D01*
G01*
X125397042Y-105421426D02*
G75*
G02*
X124030000Y-105421000I-683042J1535426D01*
G01*
X123179244Y-104569318D02*
G75*
G02*
X123034000Y-103886000I1534756J683318D01*
G01*
X141864000Y-129140000D02*
X141864000Y-127880000D01*
X141864000Y-122320000D02*
X141864000Y-123580000D01*
X138104000Y-129140000D02*
X141864000Y-129140000D01*
X135854000Y-122320000D02*
X141864000Y-122320000D01*
X144137748Y-120359500D02*
X144660252Y-120359500D01*
X144137748Y-121829500D02*
X144660252Y-121829500D01*
X134339000Y-130421748D02*
X134339000Y-130944252D01*
X132869000Y-130421748D02*
X132869000Y-130944252D01*
X148617000Y-118610748D02*
X148617000Y-119133252D01*
X150087000Y-118610748D02*
X150087000Y-119133252D01*
X155159500Y-126418000D02*
X154534500Y-126418000D01*
X154847000Y-126105500D02*
X154847000Y-126730500D01*
X151466437Y-126970500D02*
X150402000Y-128034937D01*
X154857563Y-126970500D02*
X155922000Y-128034937D01*
X154857563Y-126970500D02*
X154222000Y-126970500D01*
X151466437Y-126970500D02*
X152102000Y-126970500D01*
X150402000Y-128034937D02*
X150402000Y-132490500D01*
X155922000Y-128034937D02*
X155922000Y-132490500D01*
X155922000Y-132490500D02*
X154222000Y-132490500D01*
X150402000Y-132490500D02*
X152102000Y-132490500D01*
X162639500Y-132028500D02*
X165839500Y-132028500D01*
X165839500Y-133528500D02*
X162639500Y-133528500D01*
X165839500Y-133528500D02*
X165839500Y-132028500D01*
X136084000Y-119630500D02*
X138744000Y-119630500D01*
X136084000Y-117030500D02*
X136084000Y-119630500D01*
X138744000Y-117030500D02*
X138744000Y-119630500D01*
X136084000Y-117030500D02*
X138744000Y-117030500D01*
X136084000Y-115760500D02*
X136084000Y-114430500D01*
X136084000Y-114430500D02*
X137414000Y-114430500D01*
X143819500Y-116582500D02*
X146479500Y-116582500D01*
X143819500Y-103822500D02*
X143819500Y-116582500D01*
X146479500Y-103822500D02*
X146479500Y-116582500D01*
X143819500Y-103822500D02*
X146479500Y-103822500D01*
X143819500Y-102552500D02*
X143819500Y-101222500D01*
X143819500Y-101222500D02*
X145149500Y-101222500D01*
X179010000Y-126742500D02*
X181670000Y-126742500D01*
X179010000Y-103822500D02*
X179010000Y-126742500D01*
X181670000Y-103822500D02*
X181670000Y-126742500D01*
X179010000Y-103822500D02*
X181670000Y-103822500D01*
X179010000Y-102552500D02*
X179010000Y-101222500D01*
X179010000Y-101222500D02*
X180340000Y-101222500D01*
X158868000Y-132686500D02*
X158868000Y-133886500D01*
X157108000Y-133886500D02*
X157108000Y-132686500D01*
X175625000Y-100115000D02*
X180125000Y-100115000D01*
X174375000Y-96115000D02*
X174375000Y-97615000D01*
X180125000Y-93615000D02*
X175625000Y-93615000D01*
X181375000Y-97615000D02*
X181375000Y-96115000D01*
X174050000Y-127495000D02*
X174050000Y-126672530D01*
X174050000Y-124787470D02*
X174050000Y-123965000D01*
X174050000Y-126057470D02*
X174050000Y-125402530D01*
X169035000Y-127495000D02*
X174050000Y-127495000D01*
X167580000Y-123965000D02*
X174050000Y-123965000D01*
X169035000Y-127495000D02*
X169035000Y-126928471D01*
X169035000Y-125801529D02*
X169035000Y-125658471D01*
X168981529Y-125605000D02*
X168838471Y-125605000D01*
X167711529Y-125605000D02*
X167580000Y-125605000D01*
X167580000Y-125605000D02*
X167580000Y-125402530D01*
X167580000Y-124787470D02*
X167580000Y-123965000D01*
X168275000Y-127495000D02*
X167515000Y-127495000D01*
X167515000Y-127495000D02*
X167515000Y-126365000D01*
X164525000Y-128330000D02*
X164525000Y-123130000D01*
X159385000Y-128330000D02*
X164525000Y-128330000D01*
X156785000Y-123130000D02*
X164525000Y-123130000D01*
X159385000Y-128330000D02*
X159385000Y-125730000D01*
X159385000Y-125730000D02*
X156785000Y-125730000D01*
X156785000Y-125730000D02*
X156785000Y-123130000D01*
X158115000Y-128330000D02*
X156785000Y-128330000D01*
X156785000Y-128330000D02*
X156785000Y-127000000D01*
D16*
X157272000Y-103503000D02*
X169210000Y-103503000D01*
X157272000Y-119759000D02*
X157272000Y-103503000D01*
X169210000Y-119759000D02*
X157272000Y-119759000D01*
X169210000Y-103503000D02*
X169210000Y-119759000D01*
D17*
X166670000Y-96391000D02*
X166670000Y-102391000D01*
X156670000Y-105391000D02*
X156670000Y-100391000D01*
X153670000Y-117391000D02*
X153670000Y-105391000D01*
X156670000Y-100391000D02*
X152670000Y-100391000D01*
X152670000Y-96391000D02*
X166670000Y-96391000D01*
X152670000Y-100391000D02*
X152670000Y-96391000D01*
X170670000Y-120391000D02*
X156670000Y-120391000D01*
X166670000Y-102391000D02*
X170670000Y-102391000D01*
X156670000Y-117391000D02*
X153670000Y-117391000D01*
X153670000Y-105391000D02*
X156670000Y-105391000D01*
X156670000Y-120391000D02*
X156670000Y-117391000D01*
X170670000Y-102391000D02*
X170670000Y-120391000D01*
D16*
X188936380Y-102409523D02*
X189650666Y-102409523D01*
X189793523Y-102457142D01*
X189888761Y-102552380D01*
X189936380Y-102695238D01*
X189936380Y-102790476D01*
X189936380Y-101409523D02*
X189936380Y-101980952D01*
X189936380Y-101695238D02*
X188936380Y-101695238D01*
X189079238Y-101790476D01*
X189174476Y-101885714D01*
X189222095Y-101980952D01*
X188936380Y-100790476D02*
X188936380Y-100695238D01*
X188984000Y-100600000D01*
X189031619Y-100552380D01*
X189126857Y-100504761D01*
X189317333Y-100457142D01*
X189555428Y-100457142D01*
X189745904Y-100504761D01*
X189841142Y-100552380D01*
X189888761Y-100600000D01*
X189936380Y-100695238D01*
X189936380Y-100790476D01*
X189888761Y-100885714D01*
X189841142Y-100933333D01*
X189745904Y-100980952D01*
X189555428Y-101028571D01*
X189317333Y-101028571D01*
X189126857Y-100980952D01*
X189031619Y-100933333D01*
X188984000Y-100885714D01*
X188936380Y-100790476D01*
X181030666Y-134072380D02*
X181030666Y-134786666D01*
X180983047Y-134929523D01*
X180887809Y-135024761D01*
X180744952Y-135072380D01*
X180649714Y-135072380D01*
X181506857Y-135072380D02*
X181506857Y-134072380D01*
X181887809Y-134072380D01*
X181983047Y-134120000D01*
X182030666Y-134167619D01*
X182078285Y-134262857D01*
X182078285Y-134405714D01*
X182030666Y-134500952D01*
X181983047Y-134548571D01*
X181887809Y-134596190D01*
X181506857Y-134596190D01*
X182935428Y-134405714D02*
X182935428Y-135072380D01*
X182697333Y-134024761D02*
X182459238Y-134739047D01*
X183078285Y-134739047D01*
X129326666Y-133586380D02*
X129326666Y-134300666D01*
X129279047Y-134443523D01*
X129183809Y-134538761D01*
X129040952Y-134586380D01*
X128945714Y-134586380D01*
X129802857Y-134586380D02*
X129802857Y-133586380D01*
X130183809Y-133586380D01*
X130279047Y-133634000D01*
X130326666Y-133681619D01*
X130374285Y-133776857D01*
X130374285Y-133919714D01*
X130326666Y-134014952D01*
X130279047Y-134062571D01*
X130183809Y-134110190D01*
X129802857Y-134110190D01*
X130707619Y-133586380D02*
X131326666Y-133586380D01*
X130993333Y-133967333D01*
X131136190Y-133967333D01*
X131231428Y-134014952D01*
X131279047Y-134062571D01*
X131326666Y-134157809D01*
X131326666Y-134395904D01*
X131279047Y-134491142D01*
X131231428Y-134538761D01*
X131136190Y-134586380D01*
X130850476Y-134586380D01*
X130755238Y-134538761D01*
X130707619Y-134491142D01*
X182554666Y-92924380D02*
X182554666Y-93638666D01*
X182507047Y-93781523D01*
X182411809Y-93876761D01*
X182268952Y-93924380D01*
X182173714Y-93924380D01*
X183030857Y-93924380D02*
X183030857Y-92924380D01*
X183411809Y-92924380D01*
X183507047Y-92972000D01*
X183554666Y-93019619D01*
X183602285Y-93114857D01*
X183602285Y-93257714D01*
X183554666Y-93352952D01*
X183507047Y-93400571D01*
X183411809Y-93448190D01*
X183030857Y-93448190D01*
X183983238Y-93019619D02*
X184030857Y-92972000D01*
X184126095Y-92924380D01*
X184364190Y-92924380D01*
X184459428Y-92972000D01*
X184507047Y-93019619D01*
X184554666Y-93114857D01*
X184554666Y-93210095D01*
X184507047Y-93352952D01*
X183935619Y-93924380D01*
X184554666Y-93924380D01*
X129976666Y-93200380D02*
X129976666Y-93914666D01*
X129929047Y-94057523D01*
X129833809Y-94152761D01*
X129690952Y-94200380D01*
X129595714Y-94200380D01*
X130452857Y-94200380D02*
X130452857Y-93200380D01*
X130833809Y-93200380D01*
X130929047Y-93248000D01*
X130976666Y-93295619D01*
X131024285Y-93390857D01*
X131024285Y-93533714D01*
X130976666Y-93628952D01*
X130929047Y-93676571D01*
X130833809Y-93724190D01*
X130452857Y-93724190D01*
X131976666Y-94200380D02*
X131405238Y-94200380D01*
X131690952Y-94200380D02*
X131690952Y-93200380D01*
X131595714Y-93343238D01*
X131500476Y-93438476D01*
X131405238Y-93486095D01*
X133564380Y-91773333D02*
X134278666Y-91773333D01*
X134421523Y-91820952D01*
X134516761Y-91916190D01*
X134564380Y-92059047D01*
X134564380Y-92154285D01*
X134564380Y-91249523D02*
X134564380Y-91059047D01*
X134516761Y-90963809D01*
X134469142Y-90916190D01*
X134326285Y-90820952D01*
X134135809Y-90773333D01*
X133754857Y-90773333D01*
X133659619Y-90820952D01*
X133612000Y-90868571D01*
X133564380Y-90963809D01*
X133564380Y-91154285D01*
X133612000Y-91249523D01*
X133659619Y-91297142D01*
X133754857Y-91344761D01*
X133992952Y-91344761D01*
X134088190Y-91297142D01*
X134135809Y-91249523D01*
X134183428Y-91154285D01*
X134183428Y-90963809D01*
X134135809Y-90868571D01*
X134088190Y-90820952D01*
X133992952Y-90773333D01*
X135520780Y-100445866D02*
X135044590Y-100779200D01*
X135520780Y-101017295D02*
X134520780Y-101017295D01*
X134520780Y-100636342D01*
X134568400Y-100541104D01*
X134616019Y-100493485D01*
X134711257Y-100445866D01*
X134854114Y-100445866D01*
X134949352Y-100493485D01*
X134996971Y-100541104D01*
X135044590Y-100636342D01*
X135044590Y-101017295D01*
X134616019Y-100064914D02*
X134568400Y-100017295D01*
X134520780Y-99922057D01*
X134520780Y-99683961D01*
X134568400Y-99588723D01*
X134616019Y-99541104D01*
X134711257Y-99493485D01*
X134806495Y-99493485D01*
X134949352Y-99541104D01*
X135520780Y-100112533D01*
X135520780Y-99493485D01*
X130052380Y-126444333D02*
X130766666Y-126444333D01*
X130909523Y-126491952D01*
X131004761Y-126587190D01*
X131052380Y-126730047D01*
X131052380Y-126825285D01*
X130480952Y-125825285D02*
X130433333Y-125920523D01*
X130385714Y-125968142D01*
X130290476Y-126015761D01*
X130242857Y-126015761D01*
X130147619Y-125968142D01*
X130100000Y-125920523D01*
X130052380Y-125825285D01*
X130052380Y-125634809D01*
X130100000Y-125539571D01*
X130147619Y-125491952D01*
X130242857Y-125444333D01*
X130290476Y-125444333D01*
X130385714Y-125491952D01*
X130433333Y-125539571D01*
X130480952Y-125634809D01*
X130480952Y-125825285D01*
X130528571Y-125920523D01*
X130576190Y-125968142D01*
X130671428Y-126015761D01*
X130861904Y-126015761D01*
X130957142Y-125968142D01*
X131004761Y-125920523D01*
X131052380Y-125825285D01*
X131052380Y-125634809D01*
X131004761Y-125539571D01*
X130957142Y-125491952D01*
X130861904Y-125444333D01*
X130671428Y-125444333D01*
X130576190Y-125491952D01*
X130528571Y-125539571D01*
X130480952Y-125634809D01*
X137406419Y-97986838D02*
X137358800Y-98082076D01*
X137263561Y-98177314D01*
X137120704Y-98320171D01*
X137073085Y-98415409D01*
X137073085Y-98510647D01*
X137311180Y-98463028D02*
X137263561Y-98558266D01*
X137168323Y-98653504D01*
X136977847Y-98701123D01*
X136644514Y-98701123D01*
X136454038Y-98653504D01*
X136358800Y-98558266D01*
X136311180Y-98463028D01*
X136311180Y-98272552D01*
X136358800Y-98177314D01*
X136454038Y-98082076D01*
X136644514Y-98034457D01*
X136977847Y-98034457D01*
X137168323Y-98082076D01*
X137263561Y-98177314D01*
X137311180Y-98272552D01*
X137311180Y-98463028D01*
X137311180Y-97082076D02*
X137311180Y-97653504D01*
X137311180Y-97367790D02*
X136311180Y-97367790D01*
X136454038Y-97463028D01*
X136549276Y-97558266D01*
X136596895Y-97653504D01*
X148026380Y-97702666D02*
X147550190Y-98036000D01*
X148026380Y-98274095D02*
X147026380Y-98274095D01*
X147026380Y-97893142D01*
X147074000Y-97797904D01*
X147121619Y-97750285D01*
X147216857Y-97702666D01*
X147359714Y-97702666D01*
X147454952Y-97750285D01*
X147502571Y-97797904D01*
X147550190Y-97893142D01*
X147550190Y-98274095D01*
X147026380Y-97369333D02*
X147026380Y-96750285D01*
X147407333Y-97083619D01*
X147407333Y-96940761D01*
X147454952Y-96845523D01*
X147502571Y-96797904D01*
X147597809Y-96750285D01*
X147835904Y-96750285D01*
X147931142Y-96797904D01*
X147978761Y-96845523D01*
X148026380Y-96940761D01*
X148026380Y-97226476D01*
X147978761Y-97321714D01*
X147931142Y-97369333D01*
X137069533Y-109113580D02*
X136736200Y-108637390D01*
X136498104Y-109113580D02*
X136498104Y-108113580D01*
X136879057Y-108113580D01*
X136974295Y-108161200D01*
X137021914Y-108208819D01*
X137069533Y-108304057D01*
X137069533Y-108446914D01*
X137021914Y-108542152D01*
X136974295Y-108589771D01*
X136879057Y-108637390D01*
X136498104Y-108637390D01*
X137926676Y-108446914D02*
X137926676Y-109113580D01*
X137688580Y-108065961D02*
X137450485Y-108780247D01*
X138069533Y-108780247D01*
X135437571Y-111686933D02*
X135437571Y-112020266D01*
X135961380Y-112020266D02*
X134961380Y-112020266D01*
X134961380Y-111544076D01*
X135056619Y-111210742D02*
X135009000Y-111163123D01*
X134961380Y-111067885D01*
X134961380Y-110829790D01*
X135009000Y-110734552D01*
X135056619Y-110686933D01*
X135151857Y-110639314D01*
X135247095Y-110639314D01*
X135389952Y-110686933D01*
X135961380Y-111258361D01*
X135961380Y-110639314D01*
X144851380Y-130468595D02*
X143851380Y-130468595D01*
X143851380Y-130230500D01*
X143899000Y-130087642D01*
X143994238Y-129992404D01*
X144089476Y-129944785D01*
X144279952Y-129897166D01*
X144422809Y-129897166D01*
X144613285Y-129944785D01*
X144708523Y-129992404D01*
X144803761Y-130087642D01*
X144851380Y-130230500D01*
X144851380Y-130468595D01*
X143946619Y-129516214D02*
X143899000Y-129468595D01*
X143851380Y-129373357D01*
X143851380Y-129135261D01*
X143899000Y-129040023D01*
X143946619Y-128992404D01*
X144041857Y-128944785D01*
X144137095Y-128944785D01*
X144279952Y-128992404D01*
X144851380Y-129563833D01*
X144851380Y-128944785D01*
X130019571Y-122380333D02*
X130019571Y-122713666D01*
X130543380Y-122713666D02*
X129543380Y-122713666D01*
X129543380Y-122237476D01*
X130543380Y-121332714D02*
X130543380Y-121904142D01*
X130543380Y-121618428D02*
X129543380Y-121618428D01*
X129686238Y-121713666D01*
X129781476Y-121808904D01*
X129829095Y-121904142D01*
X136866333Y-135802642D02*
X136818714Y-135850261D01*
X136675857Y-135897880D01*
X136580619Y-135897880D01*
X136437761Y-135850261D01*
X136342523Y-135755023D01*
X136294904Y-135659785D01*
X136247285Y-135469309D01*
X136247285Y-135326452D01*
X136294904Y-135135976D01*
X136342523Y-135040738D01*
X136437761Y-134945500D01*
X136580619Y-134897880D01*
X136675857Y-134897880D01*
X136818714Y-134945500D01*
X136866333Y-134993119D01*
X137771095Y-134897880D02*
X137294904Y-134897880D01*
X137247285Y-135374071D01*
X137294904Y-135326452D01*
X137390142Y-135278833D01*
X137628238Y-135278833D01*
X137723476Y-135326452D01*
X137771095Y-135374071D01*
X137818714Y-135469309D01*
X137818714Y-135707404D01*
X137771095Y-135802642D01*
X137723476Y-135850261D01*
X137628238Y-135897880D01*
X137390142Y-135897880D01*
X137294904Y-135850261D01*
X137247285Y-135802642D01*
X129596900Y-113622413D02*
X130311186Y-113622413D01*
X130454043Y-113670032D01*
X130549281Y-113765270D01*
X130596900Y-113908127D01*
X130596900Y-114003365D01*
X129596900Y-113241460D02*
X129596900Y-112574794D01*
X130596900Y-113003365D01*
X127468380Y-99647333D02*
X128182666Y-99647333D01*
X128325523Y-99694952D01*
X128420761Y-99790190D01*
X128468380Y-99933047D01*
X128468380Y-100028285D01*
X127468380Y-98742571D02*
X127468380Y-98933047D01*
X127516000Y-99028285D01*
X127563619Y-99075904D01*
X127706476Y-99171142D01*
X127896952Y-99218761D01*
X128277904Y-99218761D01*
X128373142Y-99171142D01*
X128420761Y-99123523D01*
X128468380Y-99028285D01*
X128468380Y-98837809D01*
X128420761Y-98742571D01*
X128373142Y-98694952D01*
X128277904Y-98647333D01*
X128039809Y-98647333D01*
X127944571Y-98694952D01*
X127896952Y-98742571D01*
X127849333Y-98837809D01*
X127849333Y-99028285D01*
X127896952Y-99123523D01*
X127944571Y-99171142D01*
X128039809Y-99218761D01*
X139192095Y-120682380D02*
X139192095Y-121491904D01*
X139239714Y-121587142D01*
X139287333Y-121634761D01*
X139382571Y-121682380D01*
X139573047Y-121682380D01*
X139668285Y-121634761D01*
X139715904Y-121587142D01*
X139763523Y-121491904D01*
X139763523Y-120682380D01*
X140192095Y-120777619D02*
X140239714Y-120730000D01*
X140334952Y-120682380D01*
X140573047Y-120682380D01*
X140668285Y-120730000D01*
X140715904Y-120777619D01*
X140763523Y-120872857D01*
X140763523Y-120968095D01*
X140715904Y-121110952D01*
X140144476Y-121682380D01*
X140763523Y-121682380D01*
X144105333Y-119483142D02*
X144057714Y-119530761D01*
X143914857Y-119578380D01*
X143819619Y-119578380D01*
X143676761Y-119530761D01*
X143581523Y-119435523D01*
X143533904Y-119340285D01*
X143486285Y-119149809D01*
X143486285Y-119006952D01*
X143533904Y-118816476D01*
X143581523Y-118721238D01*
X143676761Y-118626000D01*
X143819619Y-118578380D01*
X143914857Y-118578380D01*
X144057714Y-118626000D01*
X144105333Y-118673619D01*
X144962476Y-118911714D02*
X144962476Y-119578380D01*
X144724380Y-118530761D02*
X144486285Y-119245047D01*
X145105333Y-119245047D01*
X133971302Y-134751106D02*
X134018921Y-134798725D01*
X134066540Y-134941582D01*
X134066540Y-135036820D01*
X134018921Y-135179678D01*
X133923683Y-135274916D01*
X133828445Y-135322535D01*
X133637969Y-135370154D01*
X133495112Y-135370154D01*
X133304636Y-135322535D01*
X133209398Y-135274916D01*
X133114160Y-135179678D01*
X133066540Y-135036820D01*
X133066540Y-134941582D01*
X133114160Y-134798725D01*
X133161779Y-134751106D01*
X133066540Y-134417773D02*
X133066540Y-133798725D01*
X133447493Y-134132059D01*
X133447493Y-133989201D01*
X133495112Y-133893963D01*
X133542731Y-133846344D01*
X133637969Y-133798725D01*
X133876064Y-133798725D01*
X133971302Y-133846344D01*
X134018921Y-133893963D01*
X134066540Y-133989201D01*
X134066540Y-134274916D01*
X134018921Y-134370154D01*
X133971302Y-134417773D01*
X151487142Y-119292666D02*
X151534761Y-119340285D01*
X151582380Y-119483142D01*
X151582380Y-119578380D01*
X151534761Y-119721238D01*
X151439523Y-119816476D01*
X151344285Y-119864095D01*
X151153809Y-119911714D01*
X151010952Y-119911714D01*
X150820476Y-119864095D01*
X150725238Y-119816476D01*
X150630000Y-119721238D01*
X150582380Y-119578380D01*
X150582380Y-119483142D01*
X150630000Y-119340285D01*
X150677619Y-119292666D01*
X150677619Y-118911714D02*
X150630000Y-118864095D01*
X150582380Y-118768857D01*
X150582380Y-118530761D01*
X150630000Y-118435523D01*
X150677619Y-118387904D01*
X150772857Y-118340285D01*
X150868095Y-118340285D01*
X151010952Y-118387904D01*
X151582380Y-118959333D01*
X151582380Y-118340285D01*
X151423642Y-134786666D02*
X151471261Y-134834285D01*
X151518880Y-134977142D01*
X151518880Y-135072380D01*
X151471261Y-135215238D01*
X151376023Y-135310476D01*
X151280785Y-135358095D01*
X151090309Y-135405714D01*
X150947452Y-135405714D01*
X150756976Y-135358095D01*
X150661738Y-135310476D01*
X150566500Y-135215238D01*
X150518880Y-135072380D01*
X150518880Y-134977142D01*
X150566500Y-134834285D01*
X150614119Y-134786666D01*
X151518880Y-133834285D02*
X151518880Y-134405714D01*
X151518880Y-134120000D02*
X150518880Y-134120000D01*
X150661738Y-134215238D01*
X150756976Y-134310476D01*
X150804595Y-134405714D01*
X167219404Y-133294380D02*
X167219404Y-132294380D01*
X167457500Y-132294380D01*
X167600357Y-132342000D01*
X167695595Y-132437238D01*
X167743214Y-132532476D01*
X167790833Y-132722952D01*
X167790833Y-132865809D01*
X167743214Y-133056285D01*
X167695595Y-133151523D01*
X167600357Y-133246761D01*
X167457500Y-133294380D01*
X167219404Y-133294380D01*
X168743214Y-133294380D02*
X168171785Y-133294380D01*
X168457500Y-133294380D02*
X168457500Y-132294380D01*
X168362261Y-132437238D01*
X168267023Y-132532476D01*
X168171785Y-132580095D01*
X136675880Y-121046833D02*
X137390166Y-121046833D01*
X137533023Y-121094452D01*
X137628261Y-121189690D01*
X137675880Y-121332547D01*
X137675880Y-121427785D01*
X137675880Y-120046833D02*
X137675880Y-120618261D01*
X137675880Y-120332547D02*
X136675880Y-120332547D01*
X136818738Y-120427785D01*
X136913976Y-120523023D01*
X136961595Y-120618261D01*
X146478666Y-100036380D02*
X146478666Y-100750666D01*
X146431047Y-100893523D01*
X146335809Y-100988761D01*
X146192952Y-101036380D01*
X146097714Y-101036380D01*
X146907238Y-100131619D02*
X146954857Y-100084000D01*
X147050095Y-100036380D01*
X147288190Y-100036380D01*
X147383428Y-100084000D01*
X147431047Y-100131619D01*
X147478666Y-100226857D01*
X147478666Y-100322095D01*
X147431047Y-100464952D01*
X146859619Y-101036380D01*
X147478666Y-101036380D01*
X179816166Y-127785880D02*
X179816166Y-128500166D01*
X179768547Y-128643023D01*
X179673309Y-128738261D01*
X179530452Y-128785880D01*
X179435214Y-128785880D01*
X180720928Y-128119214D02*
X180720928Y-128785880D01*
X180482833Y-127738261D02*
X180244738Y-128452547D01*
X180863785Y-128452547D01*
X156090880Y-134532666D02*
X155614690Y-134866000D01*
X156090880Y-135104095D02*
X155090880Y-135104095D01*
X155090880Y-134723142D01*
X155138500Y-134627904D01*
X155186119Y-134580285D01*
X155281357Y-134532666D01*
X155424214Y-134532666D01*
X155519452Y-134580285D01*
X155567071Y-134627904D01*
X155614690Y-134723142D01*
X155614690Y-135104095D01*
X156090880Y-133580285D02*
X156090880Y-134151714D01*
X156090880Y-133866000D02*
X155090880Y-133866000D01*
X155233738Y-133961238D01*
X155328976Y-134056476D01*
X155376595Y-134151714D01*
X170561166Y-97369261D02*
X170704023Y-97416880D01*
X170942119Y-97416880D01*
X171037357Y-97369261D01*
X171084976Y-97321642D01*
X171132595Y-97226404D01*
X171132595Y-97131166D01*
X171084976Y-97035928D01*
X171037357Y-96988309D01*
X170942119Y-96940690D01*
X170751642Y-96893071D01*
X170656404Y-96845452D01*
X170608785Y-96797833D01*
X170561166Y-96702595D01*
X170561166Y-96607357D01*
X170608785Y-96512119D01*
X170656404Y-96464500D01*
X170751642Y-96416880D01*
X170989738Y-96416880D01*
X171132595Y-96464500D01*
X171465928Y-96416880D02*
X171704023Y-97416880D01*
X171894500Y-96702595D01*
X172084976Y-97416880D01*
X172323071Y-96416880D01*
X173227833Y-97416880D02*
X172656404Y-97416880D01*
X172942119Y-97416880D02*
X172942119Y-96416880D01*
X172846880Y-96559738D01*
X172751642Y-96654976D01*
X172656404Y-96702595D01*
X166032380Y-127587333D02*
X166746666Y-127587333D01*
X166889523Y-127634952D01*
X166984761Y-127730190D01*
X167032380Y-127873047D01*
X167032380Y-127968285D01*
X166032380Y-127206380D02*
X166032380Y-126587333D01*
X166413333Y-126920666D01*
X166413333Y-126777809D01*
X166460952Y-126682571D01*
X166508571Y-126634952D01*
X166603809Y-126587333D01*
X166841904Y-126587333D01*
X166937142Y-126634952D01*
X166984761Y-126682571D01*
X167032380Y-126777809D01*
X167032380Y-127063523D01*
X166984761Y-127158761D01*
X166937142Y-127206380D01*
X155408380Y-124348833D02*
X156122666Y-124348833D01*
X156265523Y-124396452D01*
X156360761Y-124491690D01*
X156408380Y-124634547D01*
X156408380Y-124729785D01*
X155408380Y-123396452D02*
X155408380Y-123872642D01*
X155884571Y-123920261D01*
X155836952Y-123872642D01*
X155789333Y-123777404D01*
X155789333Y-123539309D01*
X155836952Y-123444071D01*
X155884571Y-123396452D01*
X155979809Y-123348833D01*
X156217904Y-123348833D01*
X156313142Y-123396452D01*
X156360761Y-123444071D01*
X156408380Y-123539309D01*
X156408380Y-123777404D01*
X156360761Y-123872642D01*
X156313142Y-123920261D01*
X154432095Y-102830380D02*
X154432095Y-103639904D01*
X154479714Y-103735142D01*
X154527333Y-103782761D01*
X154622571Y-103830380D01*
X154813047Y-103830380D01*
X154908285Y-103782761D01*
X154955904Y-103735142D01*
X155003523Y-103639904D01*
X155003523Y-102830380D01*
X156003523Y-103830380D02*
X155432095Y-103830380D01*
X155717809Y-103830380D02*
X155717809Y-102830380D01*
X155622571Y-102973238D01*
X155527333Y-103068476D01*
X155432095Y-103116095D01*
%LPC*%
D18*
X188976000Y-106412000D03*
X188976000Y-111412000D03*
X188976000Y-116412000D03*
D19*
X188976000Y-121412000D03*
D17*
G36*
X182768000Y-131584602D02*
G01*
X182792534Y-131584602D01*
X182841365Y-131589412D01*
X182889490Y-131598984D01*
X182936445Y-131613228D01*
X182981778Y-131632005D01*
X183025051Y-131655136D01*
X183065850Y-131682396D01*
X183103779Y-131713524D01*
X183138476Y-131748221D01*
X183169604Y-131786150D01*
X183196864Y-131826949D01*
X183219995Y-131870222D01*
X183238772Y-131915555D01*
X183253016Y-131962510D01*
X183262588Y-132010635D01*
X183267398Y-132059466D01*
X183267398Y-132084000D01*
X183268000Y-132084000D01*
X183268000Y-132584000D01*
X183267398Y-132584000D01*
X183267398Y-132608534D01*
X183262588Y-132657365D01*
X183253016Y-132705490D01*
X183238772Y-132752445D01*
X183219995Y-132797778D01*
X183196864Y-132841051D01*
X183169604Y-132881850D01*
X183138476Y-132919779D01*
X183103779Y-132954476D01*
X183065850Y-132985604D01*
X183025051Y-133012864D01*
X182981778Y-133035995D01*
X182936445Y-133054772D01*
X182889490Y-133069016D01*
X182841365Y-133078588D01*
X182792534Y-133083398D01*
X182768000Y-133083398D01*
X182768000Y-133084000D01*
X182268000Y-133084000D01*
X182268000Y-131584000D01*
X182768000Y-131584000D01*
X182768000Y-131584602D01*
G37*
G36*
X181968000Y-133084000D02*
G01*
X181468000Y-133084000D01*
X181468000Y-133083398D01*
X181443466Y-133083398D01*
X181394635Y-133078588D01*
X181346510Y-133069016D01*
X181299555Y-133054772D01*
X181254222Y-133035995D01*
X181210949Y-133012864D01*
X181170150Y-132985604D01*
X181132221Y-132954476D01*
X181097524Y-132919779D01*
X181066396Y-132881850D01*
X181039136Y-132841051D01*
X181016005Y-132797778D01*
X180997228Y-132752445D01*
X180982984Y-132705490D01*
X180973412Y-132657365D01*
X180968602Y-132608534D01*
X180968602Y-132584000D01*
X180968000Y-132584000D01*
X180968000Y-132084000D01*
X180968602Y-132084000D01*
X180968602Y-132059466D01*
X180973412Y-132010635D01*
X180982984Y-131962510D01*
X180997228Y-131915555D01*
X181016005Y-131870222D01*
X181039136Y-131826949D01*
X181066396Y-131786150D01*
X181097524Y-131748221D01*
X181132221Y-131713524D01*
X181170150Y-131682396D01*
X181210949Y-131655136D01*
X181254222Y-131632005D01*
X181299555Y-131613228D01*
X181346510Y-131598984D01*
X181394635Y-131589412D01*
X181443466Y-131584602D01*
X181468000Y-131584602D01*
X181468000Y-131584000D01*
X181968000Y-131584000D01*
X181968000Y-133084000D01*
G37*
G36*
X129510000Y-133083398D02*
G01*
X129485466Y-133083398D01*
X129436635Y-133078588D01*
X129388510Y-133069016D01*
X129341555Y-133054772D01*
X129296222Y-133035995D01*
X129252949Y-133012864D01*
X129212150Y-132985604D01*
X129174221Y-132954476D01*
X129139524Y-132919779D01*
X129108396Y-132881850D01*
X129081136Y-132841051D01*
X129058005Y-132797778D01*
X129039228Y-132752445D01*
X129024984Y-132705490D01*
X129015412Y-132657365D01*
X129010602Y-132608534D01*
X129010602Y-132584000D01*
X129010000Y-132584000D01*
X129010000Y-132084000D01*
X129010602Y-132084000D01*
X129010602Y-132059466D01*
X129015412Y-132010635D01*
X129024984Y-131962510D01*
X129039228Y-131915555D01*
X129058005Y-131870222D01*
X129081136Y-131826949D01*
X129108396Y-131786150D01*
X129139524Y-131748221D01*
X129174221Y-131713524D01*
X129212150Y-131682396D01*
X129252949Y-131655136D01*
X129296222Y-131632005D01*
X129341555Y-131613228D01*
X129388510Y-131598984D01*
X129436635Y-131589412D01*
X129485466Y-131584602D01*
X129510000Y-131584602D01*
X129510000Y-131584000D01*
X130010000Y-131584000D01*
X130010000Y-133084000D01*
X129510000Y-133084000D01*
X129510000Y-133083398D01*
G37*
G36*
X130310000Y-131584000D02*
G01*
X130810000Y-131584000D01*
X130810000Y-131584602D01*
X130834534Y-131584602D01*
X130883365Y-131589412D01*
X130931490Y-131598984D01*
X130978445Y-131613228D01*
X131023778Y-131632005D01*
X131067051Y-131655136D01*
X131107850Y-131682396D01*
X131145779Y-131713524D01*
X131180476Y-131748221D01*
X131211604Y-131786150D01*
X131238864Y-131826949D01*
X131261995Y-131870222D01*
X131280772Y-131915555D01*
X131295016Y-131962510D01*
X131304588Y-132010635D01*
X131309398Y-132059466D01*
X131309398Y-132084000D01*
X131310000Y-132084000D01*
X131310000Y-132584000D01*
X131309398Y-132584000D01*
X131309398Y-132608534D01*
X131304588Y-132657365D01*
X131295016Y-132705490D01*
X131280772Y-132752445D01*
X131261995Y-132797778D01*
X131238864Y-132841051D01*
X131211604Y-132881850D01*
X131180476Y-132919779D01*
X131145779Y-132954476D01*
X131107850Y-132985604D01*
X131067051Y-133012864D01*
X131023778Y-133035995D01*
X130978445Y-133054772D01*
X130931490Y-133069016D01*
X130883365Y-133078588D01*
X130834534Y-133083398D01*
X130810000Y-133083398D01*
X130810000Y-133084000D01*
X130310000Y-133084000D01*
X130310000Y-131584000D01*
G37*
G36*
X183530000Y-90690602D02*
G01*
X183554534Y-90690602D01*
X183603365Y-90695412D01*
X183651490Y-90704984D01*
X183698445Y-90719228D01*
X183743778Y-90738005D01*
X183787051Y-90761136D01*
X183827850Y-90788396D01*
X183865779Y-90819524D01*
X183900476Y-90854221D01*
X183931604Y-90892150D01*
X183958864Y-90932949D01*
X183981995Y-90976222D01*
X184000772Y-91021555D01*
X184015016Y-91068510D01*
X184024588Y-91116635D01*
X184029398Y-91165466D01*
X184029398Y-91190000D01*
X184030000Y-91190000D01*
X184030000Y-91690000D01*
X184029398Y-91690000D01*
X184029398Y-91714534D01*
X184024588Y-91763365D01*
X184015016Y-91811490D01*
X184000772Y-91858445D01*
X183981995Y-91903778D01*
X183958864Y-91947051D01*
X183931604Y-91987850D01*
X183900476Y-92025779D01*
X183865779Y-92060476D01*
X183827850Y-92091604D01*
X183787051Y-92118864D01*
X183743778Y-92141995D01*
X183698445Y-92160772D01*
X183651490Y-92175016D01*
X183603365Y-92184588D01*
X183554534Y-92189398D01*
X183530000Y-92189398D01*
X183530000Y-92190000D01*
X183030000Y-92190000D01*
X183030000Y-90690000D01*
X183530000Y-90690000D01*
X183530000Y-90690602D01*
G37*
G36*
X182730000Y-92190000D02*
G01*
X182230000Y-92190000D01*
X182230000Y-92189398D01*
X182205466Y-92189398D01*
X182156635Y-92184588D01*
X182108510Y-92175016D01*
X182061555Y-92160772D01*
X182016222Y-92141995D01*
X181972949Y-92118864D01*
X181932150Y-92091604D01*
X181894221Y-92060476D01*
X181859524Y-92025779D01*
X181828396Y-91987850D01*
X181801136Y-91947051D01*
X181778005Y-91903778D01*
X181759228Y-91858445D01*
X181744984Y-91811490D01*
X181735412Y-91763365D01*
X181730602Y-91714534D01*
X181730602Y-91690000D01*
X181730000Y-91690000D01*
X181730000Y-91190000D01*
X181730602Y-91190000D01*
X181730602Y-91165466D01*
X181735412Y-91116635D01*
X181744984Y-91068510D01*
X181759228Y-91021555D01*
X181778005Y-90976222D01*
X181801136Y-90932949D01*
X181828396Y-90892150D01*
X181859524Y-90854221D01*
X181894221Y-90819524D01*
X181932150Y-90788396D01*
X181972949Y-90761136D01*
X182016222Y-90738005D01*
X182061555Y-90719228D01*
X182108510Y-90704984D01*
X182156635Y-90695412D01*
X182205466Y-90690602D01*
X182230000Y-90690602D01*
X182230000Y-90690000D01*
X182730000Y-90690000D01*
X182730000Y-92190000D01*
G37*
G36*
X130160000Y-92697398D02*
G01*
X130135466Y-92697398D01*
X130086635Y-92692588D01*
X130038510Y-92683016D01*
X129991555Y-92668772D01*
X129946222Y-92649995D01*
X129902949Y-92626864D01*
X129862150Y-92599604D01*
X129824221Y-92568476D01*
X129789524Y-92533779D01*
X129758396Y-92495850D01*
X129731136Y-92455051D01*
X129708005Y-92411778D01*
X129689228Y-92366445D01*
X129674984Y-92319490D01*
X129665412Y-92271365D01*
X129660602Y-92222534D01*
X129660602Y-92198000D01*
X129660000Y-92198000D01*
X129660000Y-91698000D01*
X129660602Y-91698000D01*
X129660602Y-91673466D01*
X129665412Y-91624635D01*
X129674984Y-91576510D01*
X129689228Y-91529555D01*
X129708005Y-91484222D01*
X129731136Y-91440949D01*
X129758396Y-91400150D01*
X129789524Y-91362221D01*
X129824221Y-91327524D01*
X129862150Y-91296396D01*
X129902949Y-91269136D01*
X129946222Y-91246005D01*
X129991555Y-91227228D01*
X130038510Y-91212984D01*
X130086635Y-91203412D01*
X130135466Y-91198602D01*
X130160000Y-91198602D01*
X130160000Y-91198000D01*
X130660000Y-91198000D01*
X130660000Y-92698000D01*
X130160000Y-92698000D01*
X130160000Y-92697398D01*
G37*
G36*
X130960000Y-91198000D02*
G01*
X131460000Y-91198000D01*
X131460000Y-91198602D01*
X131484534Y-91198602D01*
X131533365Y-91203412D01*
X131581490Y-91212984D01*
X131628445Y-91227228D01*
X131673778Y-91246005D01*
X131717051Y-91269136D01*
X131757850Y-91296396D01*
X131795779Y-91327524D01*
X131830476Y-91362221D01*
X131861604Y-91400150D01*
X131888864Y-91440949D01*
X131911995Y-91484222D01*
X131930772Y-91529555D01*
X131945016Y-91576510D01*
X131954588Y-91624635D01*
X131959398Y-91673466D01*
X131959398Y-91698000D01*
X131960000Y-91698000D01*
X131960000Y-92198000D01*
X131959398Y-92198000D01*
X131959398Y-92222534D01*
X131954588Y-92271365D01*
X131945016Y-92319490D01*
X131930772Y-92366445D01*
X131911995Y-92411778D01*
X131888864Y-92455051D01*
X131861604Y-92495850D01*
X131830476Y-92533779D01*
X131795779Y-92568476D01*
X131757850Y-92599604D01*
X131717051Y-92626864D01*
X131673778Y-92649995D01*
X131628445Y-92668772D01*
X131581490Y-92683016D01*
X131533365Y-92692588D01*
X131484534Y-92697398D01*
X131460000Y-92697398D01*
X131460000Y-92698000D01*
X130960000Y-92698000D01*
X130960000Y-91198000D01*
G37*
D20*
X138988800Y-91541600D03*
D21*
X141528800Y-91541600D03*
G36*
G01*
X132623400Y-101179200D02*
X133873400Y-101179200D01*
G75*
G02*
X134123400Y-101429200I0J-250000D01*
G01*
X134123400Y-102229200D01*
G75*
G02*
X133873400Y-102479200I-250000J0D01*
G01*
X132623400Y-102479200D01*
G75*
G02*
X132373400Y-102229200I0J250000D01*
G01*
X132373400Y-101429200D01*
G75*
G02*
X132623400Y-101179200I250000J0D01*
G01*
G37*
G36*
G01*
X132623400Y-98079200D02*
X133873400Y-98079200D01*
G75*
G02*
X134123400Y-98329200I0J-250000D01*
G01*
X134123400Y-99129200D01*
G75*
G02*
X133873400Y-99379200I-250000J0D01*
G01*
X132623400Y-99379200D01*
G75*
G02*
X132373400Y-99129200I0J250000D01*
G01*
X132373400Y-98329200D01*
G75*
G02*
X132623400Y-98079200I250000J0D01*
G01*
G37*
D20*
X125730000Y-126111000D03*
D21*
X128270000Y-126111000D03*
G36*
G01*
X138503800Y-96191600D02*
X138203800Y-96191600D01*
G75*
G02*
X138053800Y-96041600I0J150000D01*
G01*
X138053800Y-94591600D01*
G75*
G02*
X138203800Y-94441600I150000J0D01*
G01*
X138503800Y-94441600D01*
G75*
G02*
X138653800Y-94591600I0J-150000D01*
G01*
X138653800Y-96041600D01*
G75*
G02*
X138503800Y-96191600I-150000J0D01*
G01*
G37*
G36*
G01*
X139773800Y-96191600D02*
X139473800Y-96191600D01*
G75*
G02*
X139323800Y-96041600I0J150000D01*
G01*
X139323800Y-94591600D01*
G75*
G02*
X139473800Y-94441600I150000J0D01*
G01*
X139773800Y-94441600D01*
G75*
G02*
X139923800Y-94591600I0J-150000D01*
G01*
X139923800Y-96041600D01*
G75*
G02*
X139773800Y-96191600I-150000J0D01*
G01*
G37*
G36*
G01*
X141043800Y-96191600D02*
X140743800Y-96191600D01*
G75*
G02*
X140593800Y-96041600I0J150000D01*
G01*
X140593800Y-94591600D01*
G75*
G02*
X140743800Y-94441600I150000J0D01*
G01*
X141043800Y-94441600D01*
G75*
G02*
X141193800Y-94591600I0J-150000D01*
G01*
X141193800Y-96041600D01*
G75*
G02*
X141043800Y-96191600I-150000J0D01*
G01*
G37*
G36*
G01*
X142313800Y-96191600D02*
X142013800Y-96191600D01*
G75*
G02*
X141863800Y-96041600I0J150000D01*
G01*
X141863800Y-94591600D01*
G75*
G02*
X142013800Y-94441600I150000J0D01*
G01*
X142313800Y-94441600D01*
G75*
G02*
X142463800Y-94591600I0J-150000D01*
G01*
X142463800Y-96041600D01*
G75*
G02*
X142313800Y-96191600I-150000J0D01*
G01*
G37*
G36*
G01*
X142313800Y-101341600D02*
X142013800Y-101341600D01*
G75*
G02*
X141863800Y-101191600I0J150000D01*
G01*
X141863800Y-99741600D01*
G75*
G02*
X142013800Y-99591600I150000J0D01*
G01*
X142313800Y-99591600D01*
G75*
G02*
X142463800Y-99741600I0J-150000D01*
G01*
X142463800Y-101191600D01*
G75*
G02*
X142313800Y-101341600I-150000J0D01*
G01*
G37*
G36*
G01*
X141043800Y-101341600D02*
X140743800Y-101341600D01*
G75*
G02*
X140593800Y-101191600I0J150000D01*
G01*
X140593800Y-99741600D01*
G75*
G02*
X140743800Y-99591600I150000J0D01*
G01*
X141043800Y-99591600D01*
G75*
G02*
X141193800Y-99741600I0J-150000D01*
G01*
X141193800Y-101191600D01*
G75*
G02*
X141043800Y-101341600I-150000J0D01*
G01*
G37*
G36*
G01*
X139773800Y-101341600D02*
X139473800Y-101341600D01*
G75*
G02*
X139323800Y-101191600I0J150000D01*
G01*
X139323800Y-99741600D01*
G75*
G02*
X139473800Y-99591600I150000J0D01*
G01*
X139773800Y-99591600D01*
G75*
G02*
X139923800Y-99741600I0J-150000D01*
G01*
X139923800Y-101191600D01*
G75*
G02*
X139773800Y-101341600I-150000J0D01*
G01*
G37*
G36*
G01*
X138503800Y-101341600D02*
X138203800Y-101341600D01*
G75*
G02*
X138053800Y-101191600I0J150000D01*
G01*
X138053800Y-99741600D01*
G75*
G02*
X138203800Y-99591600I150000J0D01*
G01*
X138503800Y-99591600D01*
G75*
G02*
X138653800Y-99741600I0J-150000D01*
G01*
X138653800Y-101191600D01*
G75*
G02*
X138503800Y-101341600I-150000J0D01*
G01*
G37*
G36*
G01*
X146014600Y-96636000D02*
X144764600Y-96636000D01*
G75*
G02*
X144514600Y-96386000I0J250000D01*
G01*
X144514600Y-95586000D01*
G75*
G02*
X144764600Y-95336000I250000J0D01*
G01*
X146014600Y-95336000D01*
G75*
G02*
X146264600Y-95586000I0J-250000D01*
G01*
X146264600Y-96386000D01*
G75*
G02*
X146014600Y-96636000I-250000J0D01*
G01*
G37*
G36*
G01*
X146014600Y-99736000D02*
X144764600Y-99736000D01*
G75*
G02*
X144514600Y-99486000I0J250000D01*
G01*
X144514600Y-98686000D01*
G75*
G02*
X144764600Y-98436000I250000J0D01*
G01*
X146014600Y-98436000D01*
G75*
G02*
X146264600Y-98686000I0J-250000D01*
G01*
X146264600Y-99486000D01*
G75*
G02*
X146014600Y-99736000I-250000J0D01*
G01*
G37*
G36*
G01*
X138415600Y-106949400D02*
X138415600Y-105699400D01*
G75*
G02*
X138665600Y-105449400I250000J0D01*
G01*
X139465600Y-105449400D01*
G75*
G02*
X139715600Y-105699400I0J-250000D01*
G01*
X139715600Y-106949400D01*
G75*
G02*
X139465600Y-107199400I-250000J0D01*
G01*
X138665600Y-107199400D01*
G75*
G02*
X138415600Y-106949400I0J250000D01*
G01*
G37*
G36*
G01*
X135315600Y-106949400D02*
X135315600Y-105699400D01*
G75*
G02*
X135565600Y-105449400I250000J0D01*
G01*
X136365600Y-105449400D01*
G75*
G02*
X136615600Y-105699400I0J-250000D01*
G01*
X136615600Y-106949400D01*
G75*
G02*
X136365600Y-107199400I-250000J0D01*
G01*
X135565600Y-107199400D01*
G75*
G02*
X135315600Y-106949400I0J250000D01*
G01*
G37*
D22*
X133299200Y-114147600D03*
D23*
X133299200Y-103987600D03*
D24*
X147637500Y-133954500D03*
X147637500Y-128554500D03*
D22*
X132461000Y-116967000D03*
D23*
X132461000Y-127127000D03*
G36*
G01*
X140781000Y-132884000D02*
X140781000Y-131784000D01*
G75*
G02*
X141031000Y-131534000I250000J0D01*
G01*
X143531000Y-131534000D01*
G75*
G02*
X143781000Y-131784000I0J-250000D01*
G01*
X143781000Y-132884000D01*
G75*
G02*
X143531000Y-133134000I-250000J0D01*
G01*
X141031000Y-133134000D01*
G75*
G02*
X140781000Y-132884000I0J250000D01*
G01*
G37*
G36*
G01*
X136381000Y-132884000D02*
X136381000Y-131784000D01*
G75*
G02*
X136631000Y-131534000I250000J0D01*
G01*
X139131000Y-131534000D01*
G75*
G02*
X139381000Y-131784000I0J-250000D01*
G01*
X139381000Y-132884000D01*
G75*
G02*
X139131000Y-133134000I-250000J0D01*
G01*
X136631000Y-133134000D01*
G75*
G02*
X136381000Y-132884000I0J250000D01*
G01*
G37*
G36*
G01*
X123266000Y-122669000D02*
X123266000Y-120919000D01*
G75*
G02*
X124141000Y-120044000I875000J0D01*
G01*
X125891000Y-120044000D01*
G75*
G02*
X126766000Y-120919000I0J-875000D01*
G01*
X126766000Y-122669000D01*
G75*
G02*
X125891000Y-123544000I-875000J0D01*
G01*
X124141000Y-123544000D01*
G75*
G02*
X123266000Y-122669000I0J875000D01*
G01*
G37*
G36*
G01*
X120516000Y-118094000D02*
X120516000Y-116094000D01*
G75*
G02*
X121266000Y-115344000I750000J0D01*
G01*
X122766000Y-115344000D01*
G75*
G02*
X123516000Y-116094000I0J-750000D01*
G01*
X123516000Y-118094000D01*
G75*
G02*
X122766000Y-118844000I-750000J0D01*
G01*
X121266000Y-118844000D01*
G75*
G02*
X120516000Y-118094000I0J750000D01*
G01*
G37*
D25*
X128016000Y-117094000D03*
D18*
X124714000Y-108886000D03*
D19*
X124714000Y-103886000D03*
D26*
X136804000Y-123430000D03*
X136804000Y-128030000D03*
X136804000Y-125730000D03*
D27*
X143104000Y-125730000D03*
G36*
G01*
X144849000Y-121569500D02*
X144849000Y-120619500D01*
G75*
G02*
X145099000Y-120369500I250000J0D01*
G01*
X145774000Y-120369500D01*
G75*
G02*
X146024000Y-120619500I0J-250000D01*
G01*
X146024000Y-121569500D01*
G75*
G02*
X145774000Y-121819500I-250000J0D01*
G01*
X145099000Y-121819500D01*
G75*
G02*
X144849000Y-121569500I0J250000D01*
G01*
G37*
G36*
G01*
X142774000Y-121569500D02*
X142774000Y-120619500D01*
G75*
G02*
X143024000Y-120369500I250000J0D01*
G01*
X143699000Y-120369500D01*
G75*
G02*
X143949000Y-120619500I0J-250000D01*
G01*
X143949000Y-121569500D01*
G75*
G02*
X143699000Y-121819500I-250000J0D01*
G01*
X143024000Y-121819500D01*
G75*
G02*
X142774000Y-121569500I0J250000D01*
G01*
G37*
G36*
G01*
X133129000Y-131133000D02*
X134079000Y-131133000D01*
G75*
G02*
X134329000Y-131383000I0J-250000D01*
G01*
X134329000Y-132058000D01*
G75*
G02*
X134079000Y-132308000I-250000J0D01*
G01*
X133129000Y-132308000D01*
G75*
G02*
X132879000Y-132058000I0J250000D01*
G01*
X132879000Y-131383000D01*
G75*
G02*
X133129000Y-131133000I250000J0D01*
G01*
G37*
G36*
G01*
X133129000Y-129058000D02*
X134079000Y-129058000D01*
G75*
G02*
X134329000Y-129308000I0J-250000D01*
G01*
X134329000Y-129983000D01*
G75*
G02*
X134079000Y-130233000I-250000J0D01*
G01*
X133129000Y-130233000D01*
G75*
G02*
X132879000Y-129983000I0J250000D01*
G01*
X132879000Y-129308000D01*
G75*
G02*
X133129000Y-129058000I250000J0D01*
G01*
G37*
D28*
X188952000Y-132334000D03*
D29*
X188952000Y-132334000D03*
D28*
X123952000Y-132334000D03*
D29*
X123952000Y-132334000D03*
D28*
X188952000Y-94334000D03*
D29*
X188952000Y-94334000D03*
D28*
X123952000Y-94334000D03*
D29*
X123952000Y-94334000D03*
G36*
G01*
X148877000Y-119322000D02*
X149827000Y-119322000D01*
G75*
G02*
X150077000Y-119572000I0J-250000D01*
G01*
X150077000Y-120247000D01*
G75*
G02*
X149827000Y-120497000I-250000J0D01*
G01*
X148877000Y-120497000D01*
G75*
G02*
X148627000Y-120247000I0J250000D01*
G01*
X148627000Y-119572000D01*
G75*
G02*
X148877000Y-119322000I250000J0D01*
G01*
G37*
G36*
G01*
X148877000Y-117247000D02*
X149827000Y-117247000D01*
G75*
G02*
X150077000Y-117497000I0J-250000D01*
G01*
X150077000Y-118172000D01*
G75*
G02*
X149827000Y-118422000I-250000J0D01*
G01*
X148877000Y-118422000D01*
G75*
G02*
X148627000Y-118172000I0J250000D01*
G01*
X148627000Y-117497000D01*
G75*
G02*
X148877000Y-117247000I250000J0D01*
G01*
G37*
G36*
G01*
X152612000Y-130430500D02*
X153712000Y-130430500D01*
G75*
G02*
X153962000Y-130680500I0J-250000D01*
G01*
X153962000Y-133180500D01*
G75*
G02*
X153712000Y-133430500I-250000J0D01*
G01*
X152612000Y-133430500D01*
G75*
G02*
X152362000Y-133180500I0J250000D01*
G01*
X152362000Y-130680500D01*
G75*
G02*
X152612000Y-130430500I250000J0D01*
G01*
G37*
G36*
G01*
X152612000Y-126030500D02*
X153712000Y-126030500D01*
G75*
G02*
X153962000Y-126280500I0J-250000D01*
G01*
X153962000Y-128780500D01*
G75*
G02*
X153712000Y-129030500I-250000J0D01*
G01*
X152612000Y-129030500D01*
G75*
G02*
X152362000Y-128780500I0J250000D01*
G01*
X152362000Y-126280500D01*
G75*
G02*
X152612000Y-126030500I250000J0D01*
G01*
G37*
D30*
X164989500Y-132778500D03*
X162289500Y-132778500D03*
D21*
X137414000Y-115760500D03*
D20*
X137414000Y-118300500D03*
D21*
X145149500Y-102552500D03*
D20*
X145149500Y-105092500D03*
X145149500Y-107632500D03*
X145149500Y-110172500D03*
X145149500Y-112712500D03*
X145149500Y-115252500D03*
D21*
X180340000Y-102552500D03*
D20*
X180340000Y-105092500D03*
X180340000Y-107632500D03*
X180340000Y-110172500D03*
X180340000Y-112712500D03*
X180340000Y-115252500D03*
X180340000Y-117792500D03*
X180340000Y-120332500D03*
X180340000Y-122872500D03*
X180340000Y-125412500D03*
D31*
X157988000Y-134636500D03*
X157988000Y-131936500D03*
D32*
X174625000Y-99115000D03*
X174625000Y-94615000D03*
X181125000Y-99115000D03*
X181125000Y-94615000D03*
D33*
X168275000Y-126365000D03*
D34*
X168275000Y-125095000D03*
X169545000Y-126365000D03*
X169545000Y-125095000D03*
X170815000Y-126365000D03*
X170815000Y-125095000D03*
X172085000Y-126365000D03*
X172085000Y-125095000D03*
X173355000Y-126365000D03*
X173355000Y-125095000D03*
D21*
X158115000Y-127000000D03*
D20*
X158115000Y-124460000D03*
X160655000Y-127000000D03*
X160655000Y-124460000D03*
X163195000Y-127000000D03*
X163195000Y-124460000D03*
D35*
X153670000Y-106391000D03*
X153670000Y-108341000D03*
X153670000Y-110341000D03*
X153670000Y-112395000D03*
X153670000Y-114391000D03*
X153670000Y-116391000D03*
X170670000Y-119291000D03*
X170670000Y-117541000D03*
X170670000Y-115791000D03*
X170670000Y-114041000D03*
X170670000Y-112291000D03*
X170670000Y-110491000D03*
X170670000Y-108741000D03*
X170670000Y-106991000D03*
X170670000Y-105241000D03*
X170670000Y-103491000D03*
M02*
