G04 #@! TF.GenerationSoftware,KiCad,Pcbnew,5.1.10-88a1d61d58~88~ubuntu20.10.1*
G04 #@! TF.CreationDate,2021-05-21T17:46:03+03:00*
G04 #@! TF.ProjectId,Devboard,44657662-6f61-4726-942e-6b696361645f,rev?*
G04 #@! TF.SameCoordinates,Original*
G04 #@! TF.FileFunction,Soldermask,Bot*
G04 #@! TF.FilePolarity,Negative*
%FSLAX46Y46*%
G04 Gerber Fmt 4.6, Leading zero omitted, Abs format (unit mm)*
G04 Created by KiCad (PCBNEW 5.1.10-88a1d61d58~88~ubuntu20.10.1) date 2021-05-21 17:46:03*
%MOMM*%
%LPD*%
G01*
G04 APERTURE LIST*
%ADD10C,2.600000*%
%ADD11R,2.600000X2.600000*%
%ADD12O,1.700000X1.700000*%
%ADD13R,1.700000X1.700000*%
%ADD14O,1.600000X1.600000*%
%ADD15C,1.600000*%
%ADD16R,3.500000X3.500000*%
%ADD17C,7.000000*%
%ADD18C,3.900000*%
%ADD19C,2.000000*%
%ADD20R,1.000000X1.000000*%
%ADD21O,1.000000X1.000000*%
G04 APERTURE END LIST*
D10*
X188976000Y-106412000D03*
X188976000Y-111412000D03*
X188976000Y-116412000D03*
D11*
X188976000Y-121412000D03*
D12*
X138988800Y-91541600D03*
D13*
X141528800Y-91541600D03*
D12*
X125730000Y-126111000D03*
D13*
X128270000Y-126111000D03*
D14*
X133299200Y-114147600D03*
D15*
X133299200Y-103987600D03*
D14*
X132461000Y-116967000D03*
D15*
X132461000Y-127127000D03*
G36*
G01*
X123266000Y-122669000D02*
X123266000Y-120919000D01*
G75*
G02*
X124141000Y-120044000I875000J0D01*
G01*
X125891000Y-120044000D01*
G75*
G02*
X126766000Y-120919000I0J-875000D01*
G01*
X126766000Y-122669000D01*
G75*
G02*
X125891000Y-123544000I-875000J0D01*
G01*
X124141000Y-123544000D01*
G75*
G02*
X123266000Y-122669000I0J875000D01*
G01*
G37*
G36*
G01*
X120516000Y-118094000D02*
X120516000Y-116094000D01*
G75*
G02*
X121266000Y-115344000I750000J0D01*
G01*
X122766000Y-115344000D01*
G75*
G02*
X123516000Y-116094000I0J-750000D01*
G01*
X123516000Y-118094000D01*
G75*
G02*
X122766000Y-118844000I-750000J0D01*
G01*
X121266000Y-118844000D01*
G75*
G02*
X120516000Y-118094000I0J750000D01*
G01*
G37*
D16*
X128016000Y-117094000D03*
D10*
X124714000Y-108886000D03*
D11*
X124714000Y-103886000D03*
D17*
X188952000Y-132334000D03*
D18*
X188952000Y-132334000D03*
D17*
X123952000Y-132334000D03*
D18*
X123952000Y-132334000D03*
D17*
X188952000Y-94334000D03*
D18*
X188952000Y-94334000D03*
D17*
X123952000Y-94334000D03*
D18*
X123952000Y-94334000D03*
D13*
X137414000Y-115760500D03*
D12*
X137414000Y-118300500D03*
D13*
X145149500Y-102552500D03*
D12*
X145149500Y-105092500D03*
X145149500Y-107632500D03*
X145149500Y-110172500D03*
X145149500Y-112712500D03*
X145149500Y-115252500D03*
D13*
X180340000Y-102552500D03*
D12*
X180340000Y-105092500D03*
X180340000Y-107632500D03*
X180340000Y-110172500D03*
X180340000Y-112712500D03*
X180340000Y-115252500D03*
X180340000Y-117792500D03*
X180340000Y-120332500D03*
X180340000Y-122872500D03*
X180340000Y-125412500D03*
D19*
X174625000Y-99115000D03*
X174625000Y-94615000D03*
X181125000Y-99115000D03*
X181125000Y-94615000D03*
D20*
X168275000Y-126365000D03*
D21*
X168275000Y-125095000D03*
X169545000Y-126365000D03*
X169545000Y-125095000D03*
X170815000Y-126365000D03*
X170815000Y-125095000D03*
X172085000Y-126365000D03*
X172085000Y-125095000D03*
X173355000Y-126365000D03*
X173355000Y-125095000D03*
D13*
X158115000Y-127000000D03*
D12*
X158115000Y-124460000D03*
X160655000Y-127000000D03*
X160655000Y-124460000D03*
X163195000Y-127000000D03*
X163195000Y-124460000D03*
M02*
