%FSLAX45Y45*%
G04 Gerber Fmt 4.5, Leading zero omitted, Abs format (unit mm)*
G04 Created by KiCad (PCBNEW 5.1.10-88a1d61d58~88~ubuntu20.10.1) date 2021-05-21 17:46:08*
%MOMM*%
%LPD*%
G01*
G04 APERTURE LIST*
%TA.AperFunction,Profile*%
%ADD10C,0.200000*%
%TD*%
%ADD11C,0.200000*%
%ADD12C,0.300000*%
G04 APERTURE END LIST*
D10*
X19456400Y-13447984D02*
G75*
G02*
X19171800Y-13741400I-289577J-3856D01*
G01*
X19450049Y-9163048D02*
G75*
G03*
X19165687Y-8883752I-289340J-10179D01*
G01*
X12172950Y-8883650D02*
G75*
G03*
X11880849Y-9170772I-2541J-289559D01*
G01*
X12178677Y-13743856D02*
G75*
G02*
X11854687Y-13406269I-15230J309647D01*
G01*
X19165687Y-8883752D02*
X12172950Y-8883650D01*
X19456400Y-13447984D02*
X19450049Y-9163048D01*
X12178677Y-13743856D02*
X19171800Y-13741400D01*
X11880849Y-9170772D02*
X11854687Y-13406269D01*
D11*
X12380280Y-12593640D02*
X12420280Y-12633640D01*
X12420280Y-12593640D02*
X12380280Y-12633640D01*
X12553000Y-12761280D02*
X12593000Y-12801280D01*
X12593000Y-12761280D02*
X12553000Y-12801280D01*
X13110276Y-13066588D02*
X13150276Y-13106588D01*
X13150276Y-13066588D02*
X13110276Y-13106588D01*
X13255564Y-9177848D02*
X13295564Y-9217848D01*
X13295564Y-9177848D02*
X13255564Y-9217848D01*
X13340400Y-13289600D02*
X13380400Y-13329600D01*
X13380400Y-13289600D02*
X13340400Y-13329600D01*
X13434380Y-10612440D02*
X13474380Y-10652440D01*
X13474380Y-10612440D02*
X13434380Y-10652440D01*
X13487720Y-12326940D02*
X13527720Y-12366940D01*
X13527720Y-12326940D02*
X13487720Y-12366940D01*
X13576620Y-10475280D02*
X13616620Y-10515280D01*
X13616620Y-10475280D02*
X13576620Y-10515280D01*
X13576620Y-10747060D02*
X13616620Y-10787060D01*
X13616620Y-10747060D02*
X13576620Y-10787060D01*
X13657900Y-12169460D02*
X13697900Y-12209460D01*
X13697900Y-12169460D02*
X13657900Y-12209460D01*
X13696000Y-9134160D02*
X13736000Y-9174160D01*
X13736000Y-9134160D02*
X13696000Y-9174160D01*
X13721400Y-11378250D02*
X13761400Y-11418250D01*
X13761400Y-11378250D02*
X13721400Y-11418250D01*
X13812840Y-9865680D02*
X13852840Y-9905680D01*
X13852840Y-9865680D02*
X13812840Y-9905680D01*
X13817920Y-10175560D02*
X13857920Y-10215560D01*
X13857920Y-10175560D02*
X13817920Y-10215560D01*
X13856020Y-12324400D02*
X13896020Y-12364400D01*
X13896020Y-12324400D02*
X13856020Y-12364400D01*
X13873800Y-11556050D02*
X13913800Y-11596050D01*
X13913800Y-11556050D02*
X13873800Y-11596050D01*
X13878880Y-8971600D02*
X13918880Y-9011600D01*
X13918880Y-8971600D02*
X13878880Y-9011600D01*
X13878880Y-9764080D02*
X13918880Y-9804080D01*
X13918880Y-9764080D02*
X13878880Y-9804080D01*
X14026200Y-9764080D02*
X14066200Y-9804080D01*
X14066200Y-9764080D02*
X14026200Y-9804080D01*
X14071920Y-10358440D02*
X14111920Y-10398440D01*
X14111920Y-10358440D02*
X14071920Y-10398440D01*
X14071920Y-10637840D02*
X14111920Y-10677840D01*
X14111920Y-10637840D02*
X14071920Y-10677840D01*
X14188760Y-9764080D02*
X14228760Y-9804080D01*
X14228760Y-9764080D02*
X14188760Y-9804080D01*
X14204000Y-13035600D02*
X14244000Y-13075600D01*
X14244000Y-13035600D02*
X14204000Y-13075600D01*
X14204000Y-13403900D02*
X14244000Y-13443900D01*
X14244000Y-13403900D02*
X14204000Y-13443900D01*
X14311950Y-11257600D02*
X14351950Y-11297600D01*
X14351950Y-11257600D02*
X14311950Y-11297600D01*
X14432600Y-13213400D02*
X14472600Y-13253400D01*
X14472600Y-13213400D02*
X14432600Y-13253400D01*
X14518960Y-9418640D02*
X14558960Y-9458640D01*
X14558960Y-9418640D02*
X14518960Y-9458640D01*
X14531660Y-12474768D02*
X14571660Y-12514768D01*
X14571660Y-12474768D02*
X14531660Y-12514768D01*
X14546900Y-13372150D02*
X14586900Y-13412150D01*
X14586900Y-13372150D02*
X14546900Y-13412150D01*
X14654850Y-11257600D02*
X14694850Y-11297600D01*
X14694850Y-11257600D02*
X14654850Y-11297600D01*
X14661200Y-12095800D02*
X14701200Y-12135800D01*
X14701200Y-12095800D02*
X14661200Y-12135800D01*
X14691680Y-9581200D02*
X14731680Y-9621200D01*
X14731680Y-9581200D02*
X14691680Y-9621200D01*
X14712000Y-11562400D02*
X14752000Y-11602400D01*
X14752000Y-11562400D02*
X14712000Y-11602400D01*
X14889800Y-11435400D02*
X14929800Y-11475400D01*
X14929800Y-11435400D02*
X14889800Y-11475400D01*
X14915200Y-12095800D02*
X14955200Y-12135800D01*
X14955200Y-12095800D02*
X14915200Y-12135800D01*
X14934250Y-13378500D02*
X14974250Y-13418500D01*
X14974250Y-13378500D02*
X14934250Y-13418500D01*
X15131100Y-13175300D02*
X15171100Y-13215300D01*
X15171100Y-13175300D02*
X15131100Y-13215300D01*
X15143800Y-11420160D02*
X15183800Y-11460160D01*
X15183800Y-11420160D02*
X15143800Y-11460160D01*
X15461300Y-13175300D02*
X15501300Y-13215300D01*
X15501300Y-13175300D02*
X15461300Y-13215300D01*
X15534960Y-11415080D02*
X15574960Y-11455080D01*
X15574960Y-11415080D02*
X15534960Y-11455080D01*
X16477300Y-13105450D02*
X16517300Y-13145450D01*
X16517300Y-13105450D02*
X16477300Y-13145450D01*
X16521750Y-12406950D02*
X16561750Y-12446950D01*
X16561750Y-12406950D02*
X16521750Y-12446950D01*
X16611920Y-12060240D02*
X16651920Y-12100240D01*
X16651920Y-12060240D02*
X16611920Y-12100240D01*
X16647480Y-10731820D02*
X16687480Y-10771820D01*
X16687480Y-10731820D02*
X16647480Y-10771820D01*
X16648750Y-13257850D02*
X16688750Y-13297850D01*
X16688750Y-13257850D02*
X16648750Y-13297850D01*
X16657640Y-12276140D02*
X16697640Y-12316140D01*
X16697640Y-12276140D02*
X16657640Y-12316140D01*
X16766860Y-11971340D02*
X16806860Y-12011340D01*
X16806860Y-11971340D02*
X16766860Y-12011340D01*
X16816390Y-10554020D02*
X16856390Y-10594020D01*
X16856390Y-10554020D02*
X16816390Y-10594020D01*
X16934500Y-12743500D02*
X16974500Y-12783500D01*
X16974500Y-12743500D02*
X16934500Y-12783500D01*
X17046260Y-12039920D02*
X17086260Y-12079920D01*
X17086260Y-12039920D02*
X17046260Y-12079920D01*
X17061500Y-12738420D02*
X17101500Y-12778420D01*
X17101500Y-12738420D02*
X17061500Y-12778420D01*
X17125000Y-13442000D02*
X17165000Y-13482000D01*
X17165000Y-13442000D02*
X17125000Y-13482000D01*
X17315500Y-12733340D02*
X17355500Y-12773340D01*
X17355500Y-12733340D02*
X17315500Y-12773340D01*
X17480600Y-13442000D02*
X17520600Y-13482000D01*
X17520600Y-13442000D02*
X17480600Y-13482000D01*
X17709200Y-9886000D02*
X17749200Y-9926000D01*
X17749200Y-9886000D02*
X17709200Y-9926000D01*
X17836200Y-9886000D02*
X17876200Y-9926000D01*
X17876200Y-9886000D02*
X17836200Y-9926000D01*
X17836200Y-13442000D02*
X17876200Y-13482000D01*
X17876200Y-13442000D02*
X17836200Y-13482000D01*
X17988600Y-13213908D02*
X18028600Y-13253908D01*
X18028600Y-13213908D02*
X17988600Y-13253908D01*
X18050068Y-9124000D02*
X18090068Y-9164000D01*
X18090068Y-9124000D02*
X18050068Y-9164000D01*
X18179608Y-12520996D02*
X18219608Y-12560996D01*
X18219608Y-12520996D02*
X18179608Y-12560996D01*
X18536732Y-10141524D02*
X18576732Y-10181524D01*
X18576732Y-10141524D02*
X18536732Y-10181524D01*
X18581436Y-9922068D02*
X18621436Y-9962068D01*
X18621436Y-9922068D02*
X18581436Y-9962068D01*
X18649000Y-12121200D02*
X18689000Y-12161200D01*
X18689000Y-12121200D02*
X18649000Y-12161200D01*
X18877600Y-12375200D02*
X18917600Y-12415200D01*
X18917600Y-12375200D02*
X18877600Y-12415200D01*
X19106200Y-12121200D02*
X19146200Y-12161200D01*
X19146200Y-12121200D02*
X19106200Y-12161200D01*
X16860000Y-12509500D02*
G75*
G03*
X16860000Y-12509500I-32500J0D01*
G01*
X16860000Y-12636500D02*
G75*
G03*
X16860000Y-12636500I-32500J0D01*
G01*
X16987000Y-12509500D02*
G75*
G03*
X16987000Y-12509500I-32500J0D01*
G01*
X16987000Y-12636500D02*
G75*
G03*
X16987000Y-12636500I-32500J0D01*
G01*
X17114000Y-12509500D02*
G75*
G03*
X17114000Y-12509500I-32500J0D01*
G01*
X17114000Y-12636500D02*
G75*
G03*
X17114000Y-12636500I-32500J0D01*
G01*
X17241000Y-12509500D02*
G75*
G03*
X17241000Y-12509500I-32500J0D01*
G01*
X17241000Y-12636500D02*
G75*
G03*
X17241000Y-12636500I-32500J0D01*
G01*
X17368000Y-12509500D02*
G75*
G03*
X17368000Y-12509500I-32500J0D01*
G01*
X17368000Y-12636500D02*
G75*
G03*
X17368000Y-12636500I-32500J0D01*
G01*
X13246100Y-11656700D02*
X13246100Y-11736700D01*
X13206100Y-11696700D02*
X13286100Y-11696700D01*
X13246100Y-12672700D02*
X13246100Y-12752700D01*
X13206100Y-12712700D02*
X13286100Y-12712700D01*
X13329920Y-10358760D02*
X13329920Y-10438760D01*
X13289920Y-10398760D02*
X13369920Y-10398760D01*
X13329920Y-11374760D02*
X13329920Y-11454760D01*
X13289920Y-11414760D02*
X13369920Y-11414760D01*
X12236956Y-11744756D02*
X12236956Y-11674044D01*
X12166244Y-11674044D01*
X12166244Y-11744756D01*
X12236956Y-11744756D01*
X12161600Y-11609400D02*
X12161600Y-11809400D01*
X12241600Y-11609400D02*
X12241600Y-11809400D01*
X12161600Y-11809400D02*
G75*
G03*
X12241600Y-11809400I40000J0D01*
G01*
X12241600Y-11609400D02*
G75*
G03*
X12161600Y-11609400I-40000J0D01*
G01*
X12536956Y-12214756D02*
X12536956Y-12144044D01*
X12466244Y-12144044D01*
X12466244Y-12214756D01*
X12536956Y-12214756D01*
X12401600Y-12219400D02*
X12601600Y-12219400D01*
X12401600Y-12139400D02*
X12601600Y-12139400D01*
X12601600Y-12219400D02*
G75*
G03*
X12601600Y-12139400I0J40000D01*
G01*
X12401600Y-12139400D02*
G75*
G03*
X12401600Y-12219400I0J-40000D01*
G01*
X12608356Y-12646456D02*
X12608356Y-12575744D01*
X12537644Y-12575744D01*
X12537644Y-12646456D01*
X12608356Y-12646456D01*
X12836956Y-11744756D02*
X12836956Y-11674044D01*
X12766244Y-11674044D01*
X12766244Y-11744756D01*
X12836956Y-11744756D01*
X12761600Y-11609400D02*
X12761600Y-11809400D01*
X12841600Y-11609400D02*
X12841600Y-11809400D01*
X12761600Y-11809400D02*
G75*
G03*
X12841600Y-11809400I40000J0D01*
G01*
X12841600Y-11609400D02*
G75*
G03*
X12761600Y-11609400I-40000J0D01*
G01*
X12862356Y-12646456D02*
X12862356Y-12575744D01*
X12791644Y-12575744D01*
X12791644Y-12646456D01*
X12862356Y-12646456D01*
X13776756Y-11611406D02*
X13776756Y-11540694D01*
X13706044Y-11540694D01*
X13706044Y-11611406D01*
X13776756Y-11611406D01*
X13776756Y-11865406D02*
X13776756Y-11794694D01*
X13706044Y-11794694D01*
X13706044Y-11865406D01*
X13776756Y-11865406D01*
X13934236Y-9189516D02*
X13934236Y-9118804D01*
X13863524Y-9118804D01*
X13863524Y-9189516D01*
X13934236Y-9189516D01*
X14188236Y-9189516D02*
X14188236Y-9118804D01*
X14117524Y-9118804D01*
X14117524Y-9189516D01*
X14188236Y-9189516D01*
X14550306Y-10290606D02*
X14550306Y-10219894D01*
X14479594Y-10219894D01*
X14479594Y-10290606D01*
X14550306Y-10290606D01*
X14550306Y-10544606D02*
X14550306Y-10473894D01*
X14479594Y-10473894D01*
X14479594Y-10544606D01*
X14550306Y-10544606D01*
X14550306Y-10798606D02*
X14550306Y-10727894D01*
X14479594Y-10727894D01*
X14479594Y-10798606D01*
X14550306Y-10798606D01*
X14550306Y-11052606D02*
X14550306Y-10981894D01*
X14479594Y-10981894D01*
X14479594Y-11052606D01*
X14550306Y-11052606D01*
X14550306Y-11306606D02*
X14550306Y-11235894D01*
X14479594Y-11235894D01*
X14479594Y-11306606D01*
X14550306Y-11306606D01*
X14550306Y-11560606D02*
X14550306Y-11489894D01*
X14479594Y-11489894D01*
X14479594Y-11560606D01*
X14550306Y-11560606D01*
X15846856Y-12481356D02*
X15846856Y-12410644D01*
X15776144Y-12410644D01*
X15776144Y-12481356D01*
X15846856Y-12481356D01*
X15846856Y-12735356D02*
X15846856Y-12664644D01*
X15776144Y-12664644D01*
X15776144Y-12735356D01*
X15846856Y-12735356D01*
X16100856Y-12481356D02*
X16100856Y-12410644D01*
X16030144Y-12410644D01*
X16030144Y-12481356D01*
X16100856Y-12481356D01*
X16100856Y-12735356D02*
X16100856Y-12664644D01*
X16030144Y-12664644D01*
X16030144Y-12735356D01*
X16100856Y-12735356D01*
X16354856Y-12481356D02*
X16354856Y-12410644D01*
X16284144Y-12410644D01*
X16284144Y-12481356D01*
X16354856Y-12481356D01*
X16354856Y-12735356D02*
X16354856Y-12664644D01*
X16284144Y-12664644D01*
X16284144Y-12735356D01*
X16354856Y-12735356D01*
X18069356Y-10290606D02*
X18069356Y-10219894D01*
X17998644Y-10219894D01*
X17998644Y-10290606D01*
X18069356Y-10290606D01*
X18069356Y-10544606D02*
X18069356Y-10473894D01*
X17998644Y-10473894D01*
X17998644Y-10544606D01*
X18069356Y-10544606D01*
X18069356Y-10798606D02*
X18069356Y-10727894D01*
X17998644Y-10727894D01*
X17998644Y-10798606D01*
X18069356Y-10798606D01*
X18069356Y-11052606D02*
X18069356Y-10981894D01*
X17998644Y-10981894D01*
X17998644Y-11052606D01*
X18069356Y-11052606D01*
X18069356Y-11306606D02*
X18069356Y-11235894D01*
X17998644Y-11235894D01*
X17998644Y-11306606D01*
X18069356Y-11306606D01*
X18069356Y-11560606D02*
X18069356Y-11489894D01*
X17998644Y-11489894D01*
X17998644Y-11560606D01*
X18069356Y-11560606D01*
X18069356Y-11814606D02*
X18069356Y-11743894D01*
X17998644Y-11743894D01*
X17998644Y-11814606D01*
X18069356Y-11814606D01*
X18069356Y-12068606D02*
X18069356Y-11997894D01*
X17998644Y-11997894D01*
X17998644Y-12068606D01*
X18069356Y-12068606D01*
X18069356Y-12322606D02*
X18069356Y-12251894D01*
X17998644Y-12251894D01*
X17998644Y-12322606D01*
X18069356Y-12322606D01*
X18069356Y-12576606D02*
X18069356Y-12505894D01*
X17998644Y-12505894D01*
X17998644Y-12576606D01*
X18069356Y-12576606D01*
X17462500Y-9516500D02*
X17517500Y-9461500D01*
X17462500Y-9406500D01*
X17407500Y-9461500D01*
X17462500Y-9516500D01*
X17462500Y-9966500D02*
X17517500Y-9911500D01*
X17462500Y-9856500D01*
X17407500Y-9911500D01*
X17462500Y-9966500D01*
X18112500Y-9516500D02*
X18167500Y-9461500D01*
X18112500Y-9406500D01*
X18057500Y-9461500D01*
X18112500Y-9516500D01*
X18112500Y-9966500D02*
X18167500Y-9911500D01*
X18112500Y-9856500D01*
X18057500Y-9911500D01*
X18112500Y-9966500D01*
X12406400Y-10323600D02*
X12536400Y-10453600D01*
X12536400Y-10323600D02*
X12406400Y-10453600D01*
X12536400Y-10388600D02*
G75*
G03*
X12536400Y-10388600I-65000J0D01*
G01*
X12406400Y-10823600D02*
X12536400Y-10953600D01*
X12536400Y-10823600D02*
X12406400Y-10953600D01*
X12536400Y-10888600D02*
G75*
G03*
X12536400Y-10888600I-65000J0D01*
G01*
X18832600Y-10576200D02*
X18962600Y-10706200D01*
X18962600Y-10576200D02*
X18832600Y-10706200D01*
X18962600Y-10641200D02*
G75*
G03*
X18962600Y-10641200I-65000J0D01*
G01*
X18832600Y-11076200D02*
X18962600Y-11206200D01*
X18962600Y-11076200D02*
X18832600Y-11206200D01*
X18962600Y-11141200D02*
G75*
G03*
X18962600Y-11141200I-65000J0D01*
G01*
X18832600Y-11576200D02*
X18962600Y-11706200D01*
X18962600Y-11576200D02*
X18832600Y-11706200D01*
X18962600Y-11641200D02*
G75*
G03*
X18962600Y-11641200I-65000J0D01*
G01*
X18832600Y-12076200D02*
X18962600Y-12206200D01*
X18962600Y-12076200D02*
X18832600Y-12206200D01*
X18962600Y-12141200D02*
G75*
G03*
X18962600Y-12141200I-65000J0D01*
G01*
X12220200Y-9258400D02*
X12570200Y-9608400D01*
X12570200Y-9258400D02*
X12220200Y-9608400D01*
X12395200Y-9258400D02*
X12395200Y-9608400D01*
X12220200Y-9433400D02*
X12570200Y-9433400D01*
X12220200Y-13058400D02*
X12570200Y-13408400D01*
X12570200Y-13058400D02*
X12220200Y-13408400D01*
X12395200Y-13058400D02*
X12395200Y-13408400D01*
X12220200Y-13233400D02*
X12570200Y-13233400D01*
X18720200Y-9258400D02*
X19070200Y-9608400D01*
X19070200Y-9258400D02*
X18720200Y-9608400D01*
X18895200Y-9258400D02*
X18895200Y-9608400D01*
X18720200Y-9433400D02*
X19070200Y-9433400D01*
X18720200Y-13058400D02*
X19070200Y-13408400D01*
X19070200Y-13058400D02*
X18720200Y-13408400D01*
X18895200Y-13058400D02*
X18895200Y-13408400D01*
X18720200Y-13233400D02*
X19070200Y-13233400D01*
D12*
X12129854Y-14219944D02*
X12129854Y-13919944D01*
X12201282Y-13919944D01*
X12244139Y-13934230D01*
X12272711Y-13962802D01*
X12286997Y-13991373D01*
X12301282Y-14048516D01*
X12301282Y-14091373D01*
X12286997Y-14148516D01*
X12272711Y-14177087D01*
X12244139Y-14205659D01*
X12201282Y-14219944D01*
X12129854Y-14219944D01*
X12429854Y-14219944D02*
X12429854Y-14019944D01*
X12429854Y-14077087D02*
X12444139Y-14048516D01*
X12458425Y-14034230D01*
X12486997Y-14019944D01*
X12515568Y-14019944D01*
X12615568Y-14219944D02*
X12615568Y-14019944D01*
X12615568Y-13919944D02*
X12601282Y-13934230D01*
X12615568Y-13948516D01*
X12629854Y-13934230D01*
X12615568Y-13919944D01*
X12615568Y-13948516D01*
X12801282Y-14219944D02*
X12772711Y-14205659D01*
X12758425Y-14177087D01*
X12758425Y-13919944D01*
X12958425Y-14219944D02*
X12929854Y-14205659D01*
X12915568Y-14177087D01*
X12915568Y-13919944D01*
X13301282Y-14219944D02*
X13301282Y-13919944D01*
X13401282Y-14134230D01*
X13501282Y-13919944D01*
X13501282Y-14219944D01*
X13772711Y-14219944D02*
X13772711Y-14062802D01*
X13758425Y-14034230D01*
X13729854Y-14019944D01*
X13672711Y-14019944D01*
X13644139Y-14034230D01*
X13772711Y-14205659D02*
X13744139Y-14219944D01*
X13672711Y-14219944D01*
X13644139Y-14205659D01*
X13629854Y-14177087D01*
X13629854Y-14148516D01*
X13644139Y-14119944D01*
X13672711Y-14105659D01*
X13744139Y-14105659D01*
X13772711Y-14091373D01*
X13915568Y-14019944D02*
X13915568Y-14319944D01*
X13915568Y-14034230D02*
X13944139Y-14019944D01*
X14001282Y-14019944D01*
X14029854Y-14034230D01*
X14044139Y-14048516D01*
X14058425Y-14077087D01*
X14058425Y-14162802D01*
X14044139Y-14191373D01*
X14029854Y-14205659D01*
X14001282Y-14219944D01*
X13944139Y-14219944D01*
X13915568Y-14205659D01*
X14186997Y-14191373D02*
X14201282Y-14205659D01*
X14186997Y-14219944D01*
X14172711Y-14205659D01*
X14186997Y-14191373D01*
X14186997Y-14219944D01*
X14186997Y-14034230D02*
X14201282Y-14048516D01*
X14186997Y-14062802D01*
X14172711Y-14048516D01*
X14186997Y-14034230D01*
X14186997Y-14062802D01*
X11803425Y-14694230D02*
X11843425Y-14734230D01*
X11843425Y-14694230D02*
X11803425Y-14734230D01*
X12186997Y-14549944D02*
X12215568Y-14549944D01*
X12244139Y-14564230D01*
X12258425Y-14578516D01*
X12272711Y-14607087D01*
X12286997Y-14664230D01*
X12286997Y-14735659D01*
X12272711Y-14792802D01*
X12258425Y-14821373D01*
X12244139Y-14835659D01*
X12215568Y-14849944D01*
X12186997Y-14849944D01*
X12158425Y-14835659D01*
X12144139Y-14821373D01*
X12129854Y-14792802D01*
X12115568Y-14735659D01*
X12115568Y-14664230D01*
X12129854Y-14607087D01*
X12144139Y-14578516D01*
X12158425Y-14564230D01*
X12186997Y-14549944D01*
X12415568Y-14821373D02*
X12429854Y-14835659D01*
X12415568Y-14849944D01*
X12401282Y-14835659D01*
X12415568Y-14821373D01*
X12415568Y-14849944D01*
X12686997Y-14649944D02*
X12686997Y-14849944D01*
X12615568Y-14535659D02*
X12544139Y-14749944D01*
X12729854Y-14749944D01*
X12901282Y-14549944D02*
X12929854Y-14549944D01*
X12958425Y-14564230D01*
X12972711Y-14578516D01*
X12986997Y-14607087D01*
X13001282Y-14664230D01*
X13001282Y-14735659D01*
X12986997Y-14792802D01*
X12972711Y-14821373D01*
X12958425Y-14835659D01*
X12929854Y-14849944D01*
X12901282Y-14849944D01*
X12872711Y-14835659D01*
X12858425Y-14821373D01*
X12844139Y-14792802D01*
X12829854Y-14735659D01*
X12829854Y-14664230D01*
X12844139Y-14607087D01*
X12858425Y-14578516D01*
X12872711Y-14564230D01*
X12901282Y-14549944D01*
X13186997Y-14549944D02*
X13215568Y-14549944D01*
X13244139Y-14564230D01*
X13258425Y-14578516D01*
X13272711Y-14607087D01*
X13286997Y-14664230D01*
X13286997Y-14735659D01*
X13272711Y-14792802D01*
X13258425Y-14821373D01*
X13244139Y-14835659D01*
X13215568Y-14849944D01*
X13186997Y-14849944D01*
X13158425Y-14835659D01*
X13144139Y-14821373D01*
X13129854Y-14792802D01*
X13115568Y-14735659D01*
X13115568Y-14664230D01*
X13129854Y-14607087D01*
X13144139Y-14578516D01*
X13158425Y-14564230D01*
X13186997Y-14549944D01*
X13415568Y-14849944D02*
X13415568Y-14649944D01*
X13415568Y-14678516D02*
X13429854Y-14664230D01*
X13458425Y-14649944D01*
X13501282Y-14649944D01*
X13529854Y-14664230D01*
X13544139Y-14692802D01*
X13544139Y-14849944D01*
X13544139Y-14692802D02*
X13558425Y-14664230D01*
X13586997Y-14649944D01*
X13629854Y-14649944D01*
X13658425Y-14664230D01*
X13672711Y-14692802D01*
X13672711Y-14849944D01*
X13815568Y-14849944D02*
X13815568Y-14649944D01*
X13815568Y-14678516D02*
X13829854Y-14664230D01*
X13858425Y-14649944D01*
X13901282Y-14649944D01*
X13929854Y-14664230D01*
X13944139Y-14692802D01*
X13944139Y-14849944D01*
X13944139Y-14692802D02*
X13958425Y-14664230D01*
X13986997Y-14649944D01*
X14029854Y-14649944D01*
X14058425Y-14664230D01*
X14072711Y-14692802D01*
X14072711Y-14849944D01*
X14658425Y-14535659D02*
X14401282Y-14921373D01*
X15044139Y-14549944D02*
X15072711Y-14549944D01*
X15101282Y-14564230D01*
X15115568Y-14578516D01*
X15129854Y-14607087D01*
X15144139Y-14664230D01*
X15144139Y-14735659D01*
X15129854Y-14792802D01*
X15115568Y-14821373D01*
X15101282Y-14835659D01*
X15072711Y-14849944D01*
X15044139Y-14849944D01*
X15015568Y-14835659D01*
X15001282Y-14821373D01*
X14986997Y-14792802D01*
X14972711Y-14735659D01*
X14972711Y-14664230D01*
X14986997Y-14607087D01*
X15001282Y-14578516D01*
X15015568Y-14564230D01*
X15044139Y-14549944D01*
X15272711Y-14821373D02*
X15286997Y-14835659D01*
X15272711Y-14849944D01*
X15258425Y-14835659D01*
X15272711Y-14821373D01*
X15272711Y-14849944D01*
X15472711Y-14549944D02*
X15501282Y-14549944D01*
X15529854Y-14564230D01*
X15544139Y-14578516D01*
X15558425Y-14607087D01*
X15572711Y-14664230D01*
X15572711Y-14735659D01*
X15558425Y-14792802D01*
X15544139Y-14821373D01*
X15529854Y-14835659D01*
X15501282Y-14849944D01*
X15472711Y-14849944D01*
X15444139Y-14835659D01*
X15429854Y-14821373D01*
X15415568Y-14792802D01*
X15401282Y-14735659D01*
X15401282Y-14664230D01*
X15415568Y-14607087D01*
X15429854Y-14578516D01*
X15444139Y-14564230D01*
X15472711Y-14549944D01*
X15858425Y-14849944D02*
X15686997Y-14849944D01*
X15772711Y-14849944D02*
X15772711Y-14549944D01*
X15744139Y-14592802D01*
X15715568Y-14621373D01*
X15686997Y-14635659D01*
X16129854Y-14549944D02*
X15986997Y-14549944D01*
X15972711Y-14692802D01*
X15986997Y-14678516D01*
X16015568Y-14664230D01*
X16086997Y-14664230D01*
X16115568Y-14678516D01*
X16129854Y-14692802D01*
X16144139Y-14721373D01*
X16144139Y-14792802D01*
X16129854Y-14821373D01*
X16115568Y-14835659D01*
X16086997Y-14849944D01*
X16015568Y-14849944D01*
X15986997Y-14835659D01*
X15972711Y-14821373D01*
X16244139Y-14549944D02*
X16444139Y-14549944D01*
X16315568Y-14849944D01*
X16544139Y-14549944D02*
X16544139Y-14607087D01*
X16658425Y-14549944D02*
X16658425Y-14607087D01*
X17101282Y-14964230D02*
X17086997Y-14949944D01*
X17058425Y-14907087D01*
X17044140Y-14878516D01*
X17029854Y-14835659D01*
X17015568Y-14764230D01*
X17015568Y-14707087D01*
X17029854Y-14635659D01*
X17044140Y-14592802D01*
X17058425Y-14564230D01*
X17086997Y-14521373D01*
X17101282Y-14507087D01*
X17344140Y-14549944D02*
X17286997Y-14549944D01*
X17258425Y-14564230D01*
X17244140Y-14578516D01*
X17215568Y-14621373D01*
X17201282Y-14678516D01*
X17201282Y-14792802D01*
X17215568Y-14821373D01*
X17229854Y-14835659D01*
X17258425Y-14849944D01*
X17315568Y-14849944D01*
X17344140Y-14835659D01*
X17358425Y-14821373D01*
X17372711Y-14792802D01*
X17372711Y-14721373D01*
X17358425Y-14692802D01*
X17344140Y-14678516D01*
X17315568Y-14664230D01*
X17258425Y-14664230D01*
X17229854Y-14678516D01*
X17215568Y-14692802D01*
X17201282Y-14721373D01*
X17644140Y-14549944D02*
X17501282Y-14549944D01*
X17486997Y-14692802D01*
X17501282Y-14678516D01*
X17529854Y-14664230D01*
X17601282Y-14664230D01*
X17629854Y-14678516D01*
X17644140Y-14692802D01*
X17658425Y-14721373D01*
X17658425Y-14792802D01*
X17644140Y-14821373D01*
X17629854Y-14835659D01*
X17601282Y-14849944D01*
X17529854Y-14849944D01*
X17501282Y-14835659D01*
X17486997Y-14821373D01*
X18015568Y-14849944D02*
X18015568Y-14549944D01*
X18144140Y-14849944D02*
X18144140Y-14692802D01*
X18129854Y-14664230D01*
X18101282Y-14649944D01*
X18058425Y-14649944D01*
X18029854Y-14664230D01*
X18015568Y-14678516D01*
X18329854Y-14849944D02*
X18301282Y-14835659D01*
X18286997Y-14821373D01*
X18272711Y-14792802D01*
X18272711Y-14707087D01*
X18286997Y-14678516D01*
X18301282Y-14664230D01*
X18329854Y-14649944D01*
X18372711Y-14649944D01*
X18401282Y-14664230D01*
X18415568Y-14678516D01*
X18429854Y-14707087D01*
X18429854Y-14792802D01*
X18415568Y-14821373D01*
X18401282Y-14835659D01*
X18372711Y-14849944D01*
X18329854Y-14849944D01*
X18601282Y-14849944D02*
X18572711Y-14835659D01*
X18558425Y-14807087D01*
X18558425Y-14549944D01*
X18829854Y-14835659D02*
X18801282Y-14849944D01*
X18744140Y-14849944D01*
X18715568Y-14835659D01*
X18701282Y-14807087D01*
X18701282Y-14692802D01*
X18715568Y-14664230D01*
X18744140Y-14649944D01*
X18801282Y-14649944D01*
X18829854Y-14664230D01*
X18844140Y-14692802D01*
X18844140Y-14721373D01*
X18701282Y-14749944D01*
X18958425Y-14835659D02*
X18986997Y-14849944D01*
X19044140Y-14849944D01*
X19072711Y-14835659D01*
X19086997Y-14807087D01*
X19086997Y-14792802D01*
X19072711Y-14764230D01*
X19044140Y-14749944D01*
X19001282Y-14749944D01*
X18972711Y-14735659D01*
X18958425Y-14707087D01*
X18958425Y-14692802D01*
X18972711Y-14664230D01*
X19001282Y-14649944D01*
X19044140Y-14649944D01*
X19072711Y-14664230D01*
X19186997Y-14964230D02*
X19201282Y-14949944D01*
X19229854Y-14907087D01*
X19244140Y-14878516D01*
X19258425Y-14835659D01*
X19272711Y-14764230D01*
X19272711Y-14707087D01*
X19258425Y-14635659D01*
X19244140Y-14592802D01*
X19229854Y-14564230D01*
X19201282Y-14521373D01*
X19186997Y-14507087D01*
X11843425Y-15110230D02*
G75*
G03*
X11843425Y-15110230I-32500J0D01*
G01*
X12186997Y-14945944D02*
X12215568Y-14945944D01*
X12244139Y-14960230D01*
X12258425Y-14974516D01*
X12272711Y-15003087D01*
X12286997Y-15060230D01*
X12286997Y-15131659D01*
X12272711Y-15188802D01*
X12258425Y-15217373D01*
X12244139Y-15231659D01*
X12215568Y-15245944D01*
X12186997Y-15245944D01*
X12158425Y-15231659D01*
X12144139Y-15217373D01*
X12129854Y-15188802D01*
X12115568Y-15131659D01*
X12115568Y-15060230D01*
X12129854Y-15003087D01*
X12144139Y-14974516D01*
X12158425Y-14960230D01*
X12186997Y-14945944D01*
X12415568Y-15217373D02*
X12429854Y-15231659D01*
X12415568Y-15245944D01*
X12401282Y-15231659D01*
X12415568Y-15217373D01*
X12415568Y-15245944D01*
X12686997Y-14945944D02*
X12629854Y-14945944D01*
X12601282Y-14960230D01*
X12586997Y-14974516D01*
X12558425Y-15017373D01*
X12544139Y-15074516D01*
X12544139Y-15188802D01*
X12558425Y-15217373D01*
X12572711Y-15231659D01*
X12601282Y-15245944D01*
X12658425Y-15245944D01*
X12686997Y-15231659D01*
X12701282Y-15217373D01*
X12715568Y-15188802D01*
X12715568Y-15117373D01*
X12701282Y-15088802D01*
X12686997Y-15074516D01*
X12658425Y-15060230D01*
X12601282Y-15060230D01*
X12572711Y-15074516D01*
X12558425Y-15088802D01*
X12544139Y-15117373D01*
X12986997Y-14945944D02*
X12844139Y-14945944D01*
X12829854Y-15088802D01*
X12844139Y-15074516D01*
X12872711Y-15060230D01*
X12944139Y-15060230D01*
X12972711Y-15074516D01*
X12986997Y-15088802D01*
X13001282Y-15117373D01*
X13001282Y-15188802D01*
X12986997Y-15217373D01*
X12972711Y-15231659D01*
X12944139Y-15245944D01*
X12872711Y-15245944D01*
X12844139Y-15231659D01*
X12829854Y-15217373D01*
X13186997Y-14945944D02*
X13215568Y-14945944D01*
X13244139Y-14960230D01*
X13258425Y-14974516D01*
X13272711Y-15003087D01*
X13286997Y-15060230D01*
X13286997Y-15131659D01*
X13272711Y-15188802D01*
X13258425Y-15217373D01*
X13244139Y-15231659D01*
X13215568Y-15245944D01*
X13186997Y-15245944D01*
X13158425Y-15231659D01*
X13144139Y-15217373D01*
X13129854Y-15188802D01*
X13115568Y-15131659D01*
X13115568Y-15060230D01*
X13129854Y-15003087D01*
X13144139Y-14974516D01*
X13158425Y-14960230D01*
X13186997Y-14945944D01*
X13415568Y-15245944D02*
X13415568Y-15045944D01*
X13415568Y-15074516D02*
X13429854Y-15060230D01*
X13458425Y-15045944D01*
X13501282Y-15045944D01*
X13529854Y-15060230D01*
X13544139Y-15088802D01*
X13544139Y-15245944D01*
X13544139Y-15088802D02*
X13558425Y-15060230D01*
X13586997Y-15045944D01*
X13629854Y-15045944D01*
X13658425Y-15060230D01*
X13672711Y-15088802D01*
X13672711Y-15245944D01*
X13815568Y-15245944D02*
X13815568Y-15045944D01*
X13815568Y-15074516D02*
X13829854Y-15060230D01*
X13858425Y-15045944D01*
X13901282Y-15045944D01*
X13929854Y-15060230D01*
X13944139Y-15088802D01*
X13944139Y-15245944D01*
X13944139Y-15088802D02*
X13958425Y-15060230D01*
X13986997Y-15045944D01*
X14029854Y-15045944D01*
X14058425Y-15060230D01*
X14072711Y-15088802D01*
X14072711Y-15245944D01*
X14658425Y-14931659D02*
X14401282Y-15317373D01*
X15044139Y-14945944D02*
X15072711Y-14945944D01*
X15101282Y-14960230D01*
X15115568Y-14974516D01*
X15129854Y-15003087D01*
X15144139Y-15060230D01*
X15144139Y-15131659D01*
X15129854Y-15188802D01*
X15115568Y-15217373D01*
X15101282Y-15231659D01*
X15072711Y-15245944D01*
X15044139Y-15245944D01*
X15015568Y-15231659D01*
X15001282Y-15217373D01*
X14986997Y-15188802D01*
X14972711Y-15131659D01*
X14972711Y-15060230D01*
X14986997Y-15003087D01*
X15001282Y-14974516D01*
X15015568Y-14960230D01*
X15044139Y-14945944D01*
X15272711Y-15217373D02*
X15286997Y-15231659D01*
X15272711Y-15245944D01*
X15258425Y-15231659D01*
X15272711Y-15217373D01*
X15272711Y-15245944D01*
X15472711Y-14945944D02*
X15501282Y-14945944D01*
X15529854Y-14960230D01*
X15544139Y-14974516D01*
X15558425Y-15003087D01*
X15572711Y-15060230D01*
X15572711Y-15131659D01*
X15558425Y-15188802D01*
X15544139Y-15217373D01*
X15529854Y-15231659D01*
X15501282Y-15245944D01*
X15472711Y-15245944D01*
X15444139Y-15231659D01*
X15429854Y-15217373D01*
X15415568Y-15188802D01*
X15401282Y-15131659D01*
X15401282Y-15060230D01*
X15415568Y-15003087D01*
X15429854Y-14974516D01*
X15444139Y-14960230D01*
X15472711Y-14945944D01*
X15686997Y-14974516D02*
X15701282Y-14960230D01*
X15729854Y-14945944D01*
X15801282Y-14945944D01*
X15829854Y-14960230D01*
X15844139Y-14974516D01*
X15858425Y-15003087D01*
X15858425Y-15031659D01*
X15844139Y-15074516D01*
X15672711Y-15245944D01*
X15858425Y-15245944D01*
X16129854Y-14945944D02*
X15986997Y-14945944D01*
X15972711Y-15088802D01*
X15986997Y-15074516D01*
X16015568Y-15060230D01*
X16086997Y-15060230D01*
X16115568Y-15074516D01*
X16129854Y-15088802D01*
X16144139Y-15117373D01*
X16144139Y-15188802D01*
X16129854Y-15217373D01*
X16115568Y-15231659D01*
X16086997Y-15245944D01*
X16015568Y-15245944D01*
X15986997Y-15231659D01*
X15972711Y-15217373D01*
X16401282Y-14945944D02*
X16344139Y-14945944D01*
X16315568Y-14960230D01*
X16301282Y-14974516D01*
X16272711Y-15017373D01*
X16258425Y-15074516D01*
X16258425Y-15188802D01*
X16272711Y-15217373D01*
X16286997Y-15231659D01*
X16315568Y-15245944D01*
X16372711Y-15245944D01*
X16401282Y-15231659D01*
X16415568Y-15217373D01*
X16429854Y-15188802D01*
X16429854Y-15117373D01*
X16415568Y-15088802D01*
X16401282Y-15074516D01*
X16372711Y-15060230D01*
X16315568Y-15060230D01*
X16286997Y-15074516D01*
X16272711Y-15088802D01*
X16258425Y-15117373D01*
X16544139Y-14945944D02*
X16544139Y-15003087D01*
X16658425Y-14945944D02*
X16658425Y-15003087D01*
X17101282Y-15360230D02*
X17086997Y-15345944D01*
X17058425Y-15303087D01*
X17044140Y-15274516D01*
X17029854Y-15231659D01*
X17015568Y-15160230D01*
X17015568Y-15103087D01*
X17029854Y-15031659D01*
X17044140Y-14988802D01*
X17058425Y-14960230D01*
X17086997Y-14917373D01*
X17101282Y-14903087D01*
X17372711Y-15245944D02*
X17201282Y-15245944D01*
X17286997Y-15245944D02*
X17286997Y-14945944D01*
X17258425Y-14988802D01*
X17229854Y-15017373D01*
X17201282Y-15031659D01*
X17558425Y-14945944D02*
X17586997Y-14945944D01*
X17615568Y-14960230D01*
X17629854Y-14974516D01*
X17644140Y-15003087D01*
X17658425Y-15060230D01*
X17658425Y-15131659D01*
X17644140Y-15188802D01*
X17629854Y-15217373D01*
X17615568Y-15231659D01*
X17586997Y-15245944D01*
X17558425Y-15245944D01*
X17529854Y-15231659D01*
X17515568Y-15217373D01*
X17501282Y-15188802D01*
X17486997Y-15131659D01*
X17486997Y-15060230D01*
X17501282Y-15003087D01*
X17515568Y-14974516D01*
X17529854Y-14960230D01*
X17558425Y-14945944D01*
X18015568Y-15245944D02*
X18015568Y-14945944D01*
X18144140Y-15245944D02*
X18144140Y-15088802D01*
X18129854Y-15060230D01*
X18101282Y-15045944D01*
X18058425Y-15045944D01*
X18029854Y-15060230D01*
X18015568Y-15074516D01*
X18329854Y-15245944D02*
X18301282Y-15231659D01*
X18286997Y-15217373D01*
X18272711Y-15188802D01*
X18272711Y-15103087D01*
X18286997Y-15074516D01*
X18301282Y-15060230D01*
X18329854Y-15045944D01*
X18372711Y-15045944D01*
X18401282Y-15060230D01*
X18415568Y-15074516D01*
X18429854Y-15103087D01*
X18429854Y-15188802D01*
X18415568Y-15217373D01*
X18401282Y-15231659D01*
X18372711Y-15245944D01*
X18329854Y-15245944D01*
X18601282Y-15245944D02*
X18572711Y-15231659D01*
X18558425Y-15203087D01*
X18558425Y-14945944D01*
X18829854Y-15231659D02*
X18801282Y-15245944D01*
X18744140Y-15245944D01*
X18715568Y-15231659D01*
X18701282Y-15203087D01*
X18701282Y-15088802D01*
X18715568Y-15060230D01*
X18744140Y-15045944D01*
X18801282Y-15045944D01*
X18829854Y-15060230D01*
X18844140Y-15088802D01*
X18844140Y-15117373D01*
X18701282Y-15145944D01*
X18958425Y-15231659D02*
X18986997Y-15245944D01*
X19044140Y-15245944D01*
X19072711Y-15231659D01*
X19086997Y-15203087D01*
X19086997Y-15188802D01*
X19072711Y-15160230D01*
X19044140Y-15145944D01*
X19001282Y-15145944D01*
X18972711Y-15131659D01*
X18958425Y-15103087D01*
X18958425Y-15088802D01*
X18972711Y-15060230D01*
X19001282Y-15045944D01*
X19044140Y-15045944D01*
X19072711Y-15060230D01*
X19186997Y-15360230D02*
X19201282Y-15345944D01*
X19229854Y-15303087D01*
X19244140Y-15274516D01*
X19258425Y-15231659D01*
X19272711Y-15160230D01*
X19272711Y-15103087D01*
X19258425Y-15031659D01*
X19244140Y-14988802D01*
X19229854Y-14960230D01*
X19201282Y-14917373D01*
X19186997Y-14903087D01*
X11803425Y-15466230D02*
X11803425Y-15546230D01*
X11763425Y-15506230D02*
X11843425Y-15506230D01*
X12186997Y-15341944D02*
X12215568Y-15341944D01*
X12244139Y-15356230D01*
X12258425Y-15370516D01*
X12272711Y-15399087D01*
X12286997Y-15456230D01*
X12286997Y-15527659D01*
X12272711Y-15584802D01*
X12258425Y-15613373D01*
X12244139Y-15627659D01*
X12215568Y-15641944D01*
X12186997Y-15641944D01*
X12158425Y-15627659D01*
X12144139Y-15613373D01*
X12129854Y-15584802D01*
X12115568Y-15527659D01*
X12115568Y-15456230D01*
X12129854Y-15399087D01*
X12144139Y-15370516D01*
X12158425Y-15356230D01*
X12186997Y-15341944D01*
X12415568Y-15613373D02*
X12429854Y-15627659D01*
X12415568Y-15641944D01*
X12401282Y-15627659D01*
X12415568Y-15613373D01*
X12415568Y-15641944D01*
X12601282Y-15470516D02*
X12572711Y-15456230D01*
X12558425Y-15441944D01*
X12544139Y-15413373D01*
X12544139Y-15399087D01*
X12558425Y-15370516D01*
X12572711Y-15356230D01*
X12601282Y-15341944D01*
X12658425Y-15341944D01*
X12686997Y-15356230D01*
X12701282Y-15370516D01*
X12715568Y-15399087D01*
X12715568Y-15413373D01*
X12701282Y-15441944D01*
X12686997Y-15456230D01*
X12658425Y-15470516D01*
X12601282Y-15470516D01*
X12572711Y-15484802D01*
X12558425Y-15499087D01*
X12544139Y-15527659D01*
X12544139Y-15584802D01*
X12558425Y-15613373D01*
X12572711Y-15627659D01*
X12601282Y-15641944D01*
X12658425Y-15641944D01*
X12686997Y-15627659D01*
X12701282Y-15613373D01*
X12715568Y-15584802D01*
X12715568Y-15527659D01*
X12701282Y-15499087D01*
X12686997Y-15484802D01*
X12658425Y-15470516D01*
X12901282Y-15341944D02*
X12929854Y-15341944D01*
X12958425Y-15356230D01*
X12972711Y-15370516D01*
X12986997Y-15399087D01*
X13001282Y-15456230D01*
X13001282Y-15527659D01*
X12986997Y-15584802D01*
X12972711Y-15613373D01*
X12958425Y-15627659D01*
X12929854Y-15641944D01*
X12901282Y-15641944D01*
X12872711Y-15627659D01*
X12858425Y-15613373D01*
X12844139Y-15584802D01*
X12829854Y-15527659D01*
X12829854Y-15456230D01*
X12844139Y-15399087D01*
X12858425Y-15370516D01*
X12872711Y-15356230D01*
X12901282Y-15341944D01*
X13186997Y-15341944D02*
X13215568Y-15341944D01*
X13244139Y-15356230D01*
X13258425Y-15370516D01*
X13272711Y-15399087D01*
X13286997Y-15456230D01*
X13286997Y-15527659D01*
X13272711Y-15584802D01*
X13258425Y-15613373D01*
X13244139Y-15627659D01*
X13215568Y-15641944D01*
X13186997Y-15641944D01*
X13158425Y-15627659D01*
X13144139Y-15613373D01*
X13129854Y-15584802D01*
X13115568Y-15527659D01*
X13115568Y-15456230D01*
X13129854Y-15399087D01*
X13144139Y-15370516D01*
X13158425Y-15356230D01*
X13186997Y-15341944D01*
X13415568Y-15641944D02*
X13415568Y-15441944D01*
X13415568Y-15470516D02*
X13429854Y-15456230D01*
X13458425Y-15441944D01*
X13501282Y-15441944D01*
X13529854Y-15456230D01*
X13544139Y-15484802D01*
X13544139Y-15641944D01*
X13544139Y-15484802D02*
X13558425Y-15456230D01*
X13586997Y-15441944D01*
X13629854Y-15441944D01*
X13658425Y-15456230D01*
X13672711Y-15484802D01*
X13672711Y-15641944D01*
X13815568Y-15641944D02*
X13815568Y-15441944D01*
X13815568Y-15470516D02*
X13829854Y-15456230D01*
X13858425Y-15441944D01*
X13901282Y-15441944D01*
X13929854Y-15456230D01*
X13944139Y-15484802D01*
X13944139Y-15641944D01*
X13944139Y-15484802D02*
X13958425Y-15456230D01*
X13986997Y-15441944D01*
X14029854Y-15441944D01*
X14058425Y-15456230D01*
X14072711Y-15484802D01*
X14072711Y-15641944D01*
X14658425Y-15327659D02*
X14401282Y-15713373D01*
X15044139Y-15341944D02*
X15072711Y-15341944D01*
X15101282Y-15356230D01*
X15115568Y-15370516D01*
X15129854Y-15399087D01*
X15144139Y-15456230D01*
X15144139Y-15527659D01*
X15129854Y-15584802D01*
X15115568Y-15613373D01*
X15101282Y-15627659D01*
X15072711Y-15641944D01*
X15044139Y-15641944D01*
X15015568Y-15627659D01*
X15001282Y-15613373D01*
X14986997Y-15584802D01*
X14972711Y-15527659D01*
X14972711Y-15456230D01*
X14986997Y-15399087D01*
X15001282Y-15370516D01*
X15015568Y-15356230D01*
X15044139Y-15341944D01*
X15272711Y-15613373D02*
X15286997Y-15627659D01*
X15272711Y-15641944D01*
X15258425Y-15627659D01*
X15272711Y-15613373D01*
X15272711Y-15641944D01*
X15472711Y-15341944D02*
X15501282Y-15341944D01*
X15529854Y-15356230D01*
X15544139Y-15370516D01*
X15558425Y-15399087D01*
X15572711Y-15456230D01*
X15572711Y-15527659D01*
X15558425Y-15584802D01*
X15544139Y-15613373D01*
X15529854Y-15627659D01*
X15501282Y-15641944D01*
X15472711Y-15641944D01*
X15444139Y-15627659D01*
X15429854Y-15613373D01*
X15415568Y-15584802D01*
X15401282Y-15527659D01*
X15401282Y-15456230D01*
X15415568Y-15399087D01*
X15429854Y-15370516D01*
X15444139Y-15356230D01*
X15472711Y-15341944D01*
X15672711Y-15341944D02*
X15858425Y-15341944D01*
X15758425Y-15456230D01*
X15801282Y-15456230D01*
X15829854Y-15470516D01*
X15844139Y-15484802D01*
X15858425Y-15513373D01*
X15858425Y-15584802D01*
X15844139Y-15613373D01*
X15829854Y-15627659D01*
X15801282Y-15641944D01*
X15715568Y-15641944D01*
X15686997Y-15627659D01*
X15672711Y-15613373D01*
X16144139Y-15641944D02*
X15972711Y-15641944D01*
X16058425Y-15641944D02*
X16058425Y-15341944D01*
X16029854Y-15384802D01*
X16001282Y-15413373D01*
X15972711Y-15427659D01*
X16415568Y-15341944D02*
X16272711Y-15341944D01*
X16258425Y-15484802D01*
X16272711Y-15470516D01*
X16301282Y-15456230D01*
X16372711Y-15456230D01*
X16401282Y-15470516D01*
X16415568Y-15484802D01*
X16429854Y-15513373D01*
X16429854Y-15584802D01*
X16415568Y-15613373D01*
X16401282Y-15627659D01*
X16372711Y-15641944D01*
X16301282Y-15641944D01*
X16272711Y-15627659D01*
X16258425Y-15613373D01*
X16544139Y-15341944D02*
X16544139Y-15399087D01*
X16658425Y-15341944D02*
X16658425Y-15399087D01*
X17101282Y-15756230D02*
X17086997Y-15741944D01*
X17058425Y-15699087D01*
X17044140Y-15670516D01*
X17029854Y-15627659D01*
X17015568Y-15556230D01*
X17015568Y-15499087D01*
X17029854Y-15427659D01*
X17044140Y-15384802D01*
X17058425Y-15356230D01*
X17086997Y-15313373D01*
X17101282Y-15299087D01*
X17344140Y-15441944D02*
X17344140Y-15641944D01*
X17272711Y-15327659D02*
X17201282Y-15541944D01*
X17386997Y-15541944D01*
X17729854Y-15641944D02*
X17729854Y-15341944D01*
X17858425Y-15641944D02*
X17858425Y-15484802D01*
X17844140Y-15456230D01*
X17815568Y-15441944D01*
X17772711Y-15441944D01*
X17744140Y-15456230D01*
X17729854Y-15470516D01*
X18044140Y-15641944D02*
X18015568Y-15627659D01*
X18001282Y-15613373D01*
X17986997Y-15584802D01*
X17986997Y-15499087D01*
X18001282Y-15470516D01*
X18015568Y-15456230D01*
X18044140Y-15441944D01*
X18086997Y-15441944D01*
X18115568Y-15456230D01*
X18129854Y-15470516D01*
X18144140Y-15499087D01*
X18144140Y-15584802D01*
X18129854Y-15613373D01*
X18115568Y-15627659D01*
X18086997Y-15641944D01*
X18044140Y-15641944D01*
X18315568Y-15641944D02*
X18286997Y-15627659D01*
X18272711Y-15599087D01*
X18272711Y-15341944D01*
X18544140Y-15627659D02*
X18515568Y-15641944D01*
X18458425Y-15641944D01*
X18429854Y-15627659D01*
X18415568Y-15599087D01*
X18415568Y-15484802D01*
X18429854Y-15456230D01*
X18458425Y-15441944D01*
X18515568Y-15441944D01*
X18544140Y-15456230D01*
X18558425Y-15484802D01*
X18558425Y-15513373D01*
X18415568Y-15541944D01*
X18672711Y-15627659D02*
X18701282Y-15641944D01*
X18758425Y-15641944D01*
X18786997Y-15627659D01*
X18801282Y-15599087D01*
X18801282Y-15584802D01*
X18786997Y-15556230D01*
X18758425Y-15541944D01*
X18715568Y-15541944D01*
X18686997Y-15527659D01*
X18672711Y-15499087D01*
X18672711Y-15484802D01*
X18686997Y-15456230D01*
X18715568Y-15441944D01*
X18758425Y-15441944D01*
X18786997Y-15456230D01*
X18901282Y-15756230D02*
X18915568Y-15741944D01*
X18944140Y-15699087D01*
X18958425Y-15670516D01*
X18972711Y-15627659D01*
X18986997Y-15556230D01*
X18986997Y-15499087D01*
X18972711Y-15427659D01*
X18958425Y-15384802D01*
X18944140Y-15356230D01*
X18915568Y-15313373D01*
X18901282Y-15299087D01*
X11828781Y-15937586D02*
X11828781Y-15866875D01*
X11758070Y-15866875D01*
X11758070Y-15937586D01*
X11828781Y-15937586D01*
X12286997Y-16037944D02*
X12115568Y-16037944D01*
X12201282Y-16037944D02*
X12201282Y-15737944D01*
X12172711Y-15780802D01*
X12144139Y-15809373D01*
X12115568Y-15823659D01*
X12415568Y-16009373D02*
X12429854Y-16023659D01*
X12415568Y-16037944D01*
X12401282Y-16023659D01*
X12415568Y-16009373D01*
X12415568Y-16037944D01*
X12615568Y-15737944D02*
X12644139Y-15737944D01*
X12672711Y-15752230D01*
X12686997Y-15766516D01*
X12701282Y-15795087D01*
X12715568Y-15852230D01*
X12715568Y-15923659D01*
X12701282Y-15980802D01*
X12686997Y-16009373D01*
X12672711Y-16023659D01*
X12644139Y-16037944D01*
X12615568Y-16037944D01*
X12586997Y-16023659D01*
X12572711Y-16009373D01*
X12558425Y-15980802D01*
X12544139Y-15923659D01*
X12544139Y-15852230D01*
X12558425Y-15795087D01*
X12572711Y-15766516D01*
X12586997Y-15752230D01*
X12615568Y-15737944D01*
X12901282Y-15737944D02*
X12929854Y-15737944D01*
X12958425Y-15752230D01*
X12972711Y-15766516D01*
X12986997Y-15795087D01*
X13001282Y-15852230D01*
X13001282Y-15923659D01*
X12986997Y-15980802D01*
X12972711Y-16009373D01*
X12958425Y-16023659D01*
X12929854Y-16037944D01*
X12901282Y-16037944D01*
X12872711Y-16023659D01*
X12858425Y-16009373D01*
X12844139Y-15980802D01*
X12829854Y-15923659D01*
X12829854Y-15852230D01*
X12844139Y-15795087D01*
X12858425Y-15766516D01*
X12872711Y-15752230D01*
X12901282Y-15737944D01*
X13186997Y-15737944D02*
X13215568Y-15737944D01*
X13244139Y-15752230D01*
X13258425Y-15766516D01*
X13272711Y-15795087D01*
X13286997Y-15852230D01*
X13286997Y-15923659D01*
X13272711Y-15980802D01*
X13258425Y-16009373D01*
X13244139Y-16023659D01*
X13215568Y-16037944D01*
X13186997Y-16037944D01*
X13158425Y-16023659D01*
X13144139Y-16009373D01*
X13129854Y-15980802D01*
X13115568Y-15923659D01*
X13115568Y-15852230D01*
X13129854Y-15795087D01*
X13144139Y-15766516D01*
X13158425Y-15752230D01*
X13186997Y-15737944D01*
X13415568Y-16037944D02*
X13415568Y-15837944D01*
X13415568Y-15866516D02*
X13429854Y-15852230D01*
X13458425Y-15837944D01*
X13501282Y-15837944D01*
X13529854Y-15852230D01*
X13544139Y-15880802D01*
X13544139Y-16037944D01*
X13544139Y-15880802D02*
X13558425Y-15852230D01*
X13586997Y-15837944D01*
X13629854Y-15837944D01*
X13658425Y-15852230D01*
X13672711Y-15880802D01*
X13672711Y-16037944D01*
X13815568Y-16037944D02*
X13815568Y-15837944D01*
X13815568Y-15866516D02*
X13829854Y-15852230D01*
X13858425Y-15837944D01*
X13901282Y-15837944D01*
X13929854Y-15852230D01*
X13944139Y-15880802D01*
X13944139Y-16037944D01*
X13944139Y-15880802D02*
X13958425Y-15852230D01*
X13986997Y-15837944D01*
X14029854Y-15837944D01*
X14058425Y-15852230D01*
X14072711Y-15880802D01*
X14072711Y-16037944D01*
X14658425Y-15723659D02*
X14401282Y-16109373D01*
X15044139Y-15737944D02*
X15072711Y-15737944D01*
X15101282Y-15752230D01*
X15115568Y-15766516D01*
X15129854Y-15795087D01*
X15144139Y-15852230D01*
X15144139Y-15923659D01*
X15129854Y-15980802D01*
X15115568Y-16009373D01*
X15101282Y-16023659D01*
X15072711Y-16037944D01*
X15044139Y-16037944D01*
X15015568Y-16023659D01*
X15001282Y-16009373D01*
X14986997Y-15980802D01*
X14972711Y-15923659D01*
X14972711Y-15852230D01*
X14986997Y-15795087D01*
X15001282Y-15766516D01*
X15015568Y-15752230D01*
X15044139Y-15737944D01*
X15272711Y-16009373D02*
X15286997Y-16023659D01*
X15272711Y-16037944D01*
X15258425Y-16023659D01*
X15272711Y-16009373D01*
X15272711Y-16037944D01*
X15472711Y-15737944D02*
X15501282Y-15737944D01*
X15529854Y-15752230D01*
X15544139Y-15766516D01*
X15558425Y-15795087D01*
X15572711Y-15852230D01*
X15572711Y-15923659D01*
X15558425Y-15980802D01*
X15544139Y-16009373D01*
X15529854Y-16023659D01*
X15501282Y-16037944D01*
X15472711Y-16037944D01*
X15444139Y-16023659D01*
X15429854Y-16009373D01*
X15415568Y-15980802D01*
X15401282Y-15923659D01*
X15401282Y-15852230D01*
X15415568Y-15795087D01*
X15429854Y-15766516D01*
X15444139Y-15752230D01*
X15472711Y-15737944D01*
X15672711Y-15737944D02*
X15858425Y-15737944D01*
X15758425Y-15852230D01*
X15801282Y-15852230D01*
X15829854Y-15866516D01*
X15844139Y-15880802D01*
X15858425Y-15909373D01*
X15858425Y-15980802D01*
X15844139Y-16009373D01*
X15829854Y-16023659D01*
X15801282Y-16037944D01*
X15715568Y-16037944D01*
X15686997Y-16023659D01*
X15672711Y-16009373D01*
X16001282Y-16037944D02*
X16058425Y-16037944D01*
X16086997Y-16023659D01*
X16101282Y-16009373D01*
X16129854Y-15966516D01*
X16144139Y-15909373D01*
X16144139Y-15795087D01*
X16129854Y-15766516D01*
X16115568Y-15752230D01*
X16086997Y-15737944D01*
X16029854Y-15737944D01*
X16001282Y-15752230D01*
X15986997Y-15766516D01*
X15972711Y-15795087D01*
X15972711Y-15866516D01*
X15986997Y-15895087D01*
X16001282Y-15909373D01*
X16029854Y-15923659D01*
X16086997Y-15923659D01*
X16115568Y-15909373D01*
X16129854Y-15895087D01*
X16144139Y-15866516D01*
X16401282Y-15837944D02*
X16401282Y-16037944D01*
X16329854Y-15723659D02*
X16258425Y-15937944D01*
X16444139Y-15937944D01*
X16544139Y-15737944D02*
X16544139Y-15795087D01*
X16658425Y-15737944D02*
X16658425Y-15795087D01*
X17101282Y-16152230D02*
X17086997Y-16137944D01*
X17058425Y-16095087D01*
X17044140Y-16066516D01*
X17029854Y-16023659D01*
X17015568Y-15952230D01*
X17015568Y-15895087D01*
X17029854Y-15823659D01*
X17044140Y-15780802D01*
X17058425Y-15752230D01*
X17086997Y-15709373D01*
X17101282Y-15695087D01*
X17201282Y-15766516D02*
X17215568Y-15752230D01*
X17244140Y-15737944D01*
X17315568Y-15737944D01*
X17344140Y-15752230D01*
X17358425Y-15766516D01*
X17372711Y-15795087D01*
X17372711Y-15823659D01*
X17358425Y-15866516D01*
X17186997Y-16037944D01*
X17372711Y-16037944D01*
X17544140Y-15866516D02*
X17515568Y-15852230D01*
X17501282Y-15837944D01*
X17486997Y-15809373D01*
X17486997Y-15795087D01*
X17501282Y-15766516D01*
X17515568Y-15752230D01*
X17544140Y-15737944D01*
X17601282Y-15737944D01*
X17629854Y-15752230D01*
X17644140Y-15766516D01*
X17658425Y-15795087D01*
X17658425Y-15809373D01*
X17644140Y-15837944D01*
X17629854Y-15852230D01*
X17601282Y-15866516D01*
X17544140Y-15866516D01*
X17515568Y-15880802D01*
X17501282Y-15895087D01*
X17486997Y-15923659D01*
X17486997Y-15980802D01*
X17501282Y-16009373D01*
X17515568Y-16023659D01*
X17544140Y-16037944D01*
X17601282Y-16037944D01*
X17629854Y-16023659D01*
X17644140Y-16009373D01*
X17658425Y-15980802D01*
X17658425Y-15923659D01*
X17644140Y-15895087D01*
X17629854Y-15880802D01*
X17601282Y-15866516D01*
X18015568Y-16037944D02*
X18015568Y-15737944D01*
X18144140Y-16037944D02*
X18144140Y-15880802D01*
X18129854Y-15852230D01*
X18101282Y-15837944D01*
X18058425Y-15837944D01*
X18029854Y-15852230D01*
X18015568Y-15866516D01*
X18329854Y-16037944D02*
X18301282Y-16023659D01*
X18286997Y-16009373D01*
X18272711Y-15980802D01*
X18272711Y-15895087D01*
X18286997Y-15866516D01*
X18301282Y-15852230D01*
X18329854Y-15837944D01*
X18372711Y-15837944D01*
X18401282Y-15852230D01*
X18415568Y-15866516D01*
X18429854Y-15895087D01*
X18429854Y-15980802D01*
X18415568Y-16009373D01*
X18401282Y-16023659D01*
X18372711Y-16037944D01*
X18329854Y-16037944D01*
X18601282Y-16037944D02*
X18572711Y-16023659D01*
X18558425Y-15995087D01*
X18558425Y-15737944D01*
X18829854Y-16023659D02*
X18801282Y-16037944D01*
X18744140Y-16037944D01*
X18715568Y-16023659D01*
X18701282Y-15995087D01*
X18701282Y-15880802D01*
X18715568Y-15852230D01*
X18744140Y-15837944D01*
X18801282Y-15837944D01*
X18829854Y-15852230D01*
X18844140Y-15880802D01*
X18844140Y-15909373D01*
X18701282Y-15937944D01*
X18958425Y-16023659D02*
X18986997Y-16037944D01*
X19044140Y-16037944D01*
X19072711Y-16023659D01*
X19086997Y-15995087D01*
X19086997Y-15980802D01*
X19072711Y-15952230D01*
X19044140Y-15937944D01*
X19001282Y-15937944D01*
X18972711Y-15923659D01*
X18958425Y-15895087D01*
X18958425Y-15880802D01*
X18972711Y-15852230D01*
X19001282Y-15837944D01*
X19044140Y-15837944D01*
X19072711Y-15852230D01*
X19444140Y-15923659D02*
X19672711Y-15923659D01*
X19558425Y-16037944D02*
X19558425Y-15809373D01*
X20015568Y-15737944D02*
X20201282Y-15737944D01*
X20101282Y-15852230D01*
X20144140Y-15852230D01*
X20172711Y-15866516D01*
X20186997Y-15880802D01*
X20201282Y-15909373D01*
X20201282Y-15980802D01*
X20186997Y-16009373D01*
X20172711Y-16023659D01*
X20144140Y-16037944D01*
X20058425Y-16037944D01*
X20029854Y-16023659D01*
X20015568Y-16009373D01*
X20544140Y-16023659D02*
X20572711Y-16037944D01*
X20629854Y-16037944D01*
X20658425Y-16023659D01*
X20672711Y-15995087D01*
X20672711Y-15980802D01*
X20658425Y-15952230D01*
X20629854Y-15937944D01*
X20586997Y-15937944D01*
X20558425Y-15923659D01*
X20544140Y-15895087D01*
X20544140Y-15880802D01*
X20558425Y-15852230D01*
X20586997Y-15837944D01*
X20629854Y-15837944D01*
X20658425Y-15852230D01*
X20844140Y-16037944D02*
X20815568Y-16023659D01*
X20801282Y-15995087D01*
X20801282Y-15737944D01*
X21001282Y-16037944D02*
X20972711Y-16023659D01*
X20958425Y-16009373D01*
X20944140Y-15980802D01*
X20944140Y-15895087D01*
X20958425Y-15866516D01*
X20972711Y-15852230D01*
X21001282Y-15837944D01*
X21044140Y-15837944D01*
X21072711Y-15852230D01*
X21086997Y-15866516D01*
X21101282Y-15895087D01*
X21101282Y-15980802D01*
X21086997Y-16009373D01*
X21072711Y-16023659D01*
X21044140Y-16037944D01*
X21001282Y-16037944D01*
X21186997Y-15837944D02*
X21301282Y-15837944D01*
X21229854Y-15737944D02*
X21229854Y-15995087D01*
X21244140Y-16023659D01*
X21272711Y-16037944D01*
X21301282Y-16037944D01*
X21386997Y-16023659D02*
X21415568Y-16037944D01*
X21472711Y-16037944D01*
X21501282Y-16023659D01*
X21515568Y-15995087D01*
X21515568Y-15980802D01*
X21501282Y-15952230D01*
X21472711Y-15937944D01*
X21429854Y-15937944D01*
X21401282Y-15923659D01*
X21386997Y-15895087D01*
X21386997Y-15880802D01*
X21401282Y-15852230D01*
X21429854Y-15837944D01*
X21472711Y-15837944D01*
X21501282Y-15852230D01*
X21615568Y-16152230D02*
X21629854Y-16137944D01*
X21658425Y-16095087D01*
X21672711Y-16066516D01*
X21686997Y-16023659D01*
X21701282Y-15952230D01*
X21701282Y-15895087D01*
X21686997Y-15823659D01*
X21672711Y-15780802D01*
X21658425Y-15752230D01*
X21629854Y-15709373D01*
X21615568Y-15695087D01*
X11788425Y-16353230D02*
X11843425Y-16298230D01*
X11788425Y-16243230D01*
X11733425Y-16298230D01*
X11788425Y-16353230D01*
X12286997Y-16433944D02*
X12115568Y-16433944D01*
X12201282Y-16433944D02*
X12201282Y-16133944D01*
X12172711Y-16176802D01*
X12144139Y-16205373D01*
X12115568Y-16219659D01*
X12415568Y-16405373D02*
X12429854Y-16419659D01*
X12415568Y-16433944D01*
X12401282Y-16419659D01*
X12415568Y-16405373D01*
X12415568Y-16433944D01*
X12715568Y-16433944D02*
X12544139Y-16433944D01*
X12629854Y-16433944D02*
X12629854Y-16133944D01*
X12601282Y-16176802D01*
X12572711Y-16205373D01*
X12544139Y-16219659D01*
X12901282Y-16133944D02*
X12929854Y-16133944D01*
X12958425Y-16148230D01*
X12972711Y-16162516D01*
X12986997Y-16191087D01*
X13001282Y-16248230D01*
X13001282Y-16319659D01*
X12986997Y-16376802D01*
X12972711Y-16405373D01*
X12958425Y-16419659D01*
X12929854Y-16433944D01*
X12901282Y-16433944D01*
X12872711Y-16419659D01*
X12858425Y-16405373D01*
X12844139Y-16376802D01*
X12829854Y-16319659D01*
X12829854Y-16248230D01*
X12844139Y-16191087D01*
X12858425Y-16162516D01*
X12872711Y-16148230D01*
X12901282Y-16133944D01*
X13186997Y-16133944D02*
X13215568Y-16133944D01*
X13244139Y-16148230D01*
X13258425Y-16162516D01*
X13272711Y-16191087D01*
X13286997Y-16248230D01*
X13286997Y-16319659D01*
X13272711Y-16376802D01*
X13258425Y-16405373D01*
X13244139Y-16419659D01*
X13215568Y-16433944D01*
X13186997Y-16433944D01*
X13158425Y-16419659D01*
X13144139Y-16405373D01*
X13129854Y-16376802D01*
X13115568Y-16319659D01*
X13115568Y-16248230D01*
X13129854Y-16191087D01*
X13144139Y-16162516D01*
X13158425Y-16148230D01*
X13186997Y-16133944D01*
X13415568Y-16433944D02*
X13415568Y-16233944D01*
X13415568Y-16262516D02*
X13429854Y-16248230D01*
X13458425Y-16233944D01*
X13501282Y-16233944D01*
X13529854Y-16248230D01*
X13544139Y-16276802D01*
X13544139Y-16433944D01*
X13544139Y-16276802D02*
X13558425Y-16248230D01*
X13586997Y-16233944D01*
X13629854Y-16233944D01*
X13658425Y-16248230D01*
X13672711Y-16276802D01*
X13672711Y-16433944D01*
X13815568Y-16433944D02*
X13815568Y-16233944D01*
X13815568Y-16262516D02*
X13829854Y-16248230D01*
X13858425Y-16233944D01*
X13901282Y-16233944D01*
X13929854Y-16248230D01*
X13944139Y-16276802D01*
X13944139Y-16433944D01*
X13944139Y-16276802D02*
X13958425Y-16248230D01*
X13986997Y-16233944D01*
X14029854Y-16233944D01*
X14058425Y-16248230D01*
X14072711Y-16276802D01*
X14072711Y-16433944D01*
X14658425Y-16119659D02*
X14401282Y-16505373D01*
X15044139Y-16133944D02*
X15072711Y-16133944D01*
X15101282Y-16148230D01*
X15115568Y-16162516D01*
X15129854Y-16191087D01*
X15144139Y-16248230D01*
X15144139Y-16319659D01*
X15129854Y-16376802D01*
X15115568Y-16405373D01*
X15101282Y-16419659D01*
X15072711Y-16433944D01*
X15044139Y-16433944D01*
X15015568Y-16419659D01*
X15001282Y-16405373D01*
X14986997Y-16376802D01*
X14972711Y-16319659D01*
X14972711Y-16248230D01*
X14986997Y-16191087D01*
X15001282Y-16162516D01*
X15015568Y-16148230D01*
X15044139Y-16133944D01*
X15272711Y-16405373D02*
X15286997Y-16419659D01*
X15272711Y-16433944D01*
X15258425Y-16419659D01*
X15272711Y-16405373D01*
X15272711Y-16433944D01*
X15472711Y-16133944D02*
X15501282Y-16133944D01*
X15529854Y-16148230D01*
X15544139Y-16162516D01*
X15558425Y-16191087D01*
X15572711Y-16248230D01*
X15572711Y-16319659D01*
X15558425Y-16376802D01*
X15544139Y-16405373D01*
X15529854Y-16419659D01*
X15501282Y-16433944D01*
X15472711Y-16433944D01*
X15444139Y-16419659D01*
X15429854Y-16405373D01*
X15415568Y-16376802D01*
X15401282Y-16319659D01*
X15401282Y-16248230D01*
X15415568Y-16191087D01*
X15429854Y-16162516D01*
X15444139Y-16148230D01*
X15472711Y-16133944D01*
X15829854Y-16233944D02*
X15829854Y-16433944D01*
X15758425Y-16119659D02*
X15686997Y-16333944D01*
X15872711Y-16333944D01*
X15958425Y-16133944D02*
X16144139Y-16133944D01*
X16044139Y-16248230D01*
X16086997Y-16248230D01*
X16115568Y-16262516D01*
X16129854Y-16276802D01*
X16144139Y-16305373D01*
X16144139Y-16376802D01*
X16129854Y-16405373D01*
X16115568Y-16419659D01*
X16086997Y-16433944D01*
X16001282Y-16433944D01*
X15972711Y-16419659D01*
X15958425Y-16405373D01*
X16244139Y-16133944D02*
X16429854Y-16133944D01*
X16329854Y-16248230D01*
X16372711Y-16248230D01*
X16401282Y-16262516D01*
X16415568Y-16276802D01*
X16429854Y-16305373D01*
X16429854Y-16376802D01*
X16415568Y-16405373D01*
X16401282Y-16419659D01*
X16372711Y-16433944D01*
X16286997Y-16433944D01*
X16258425Y-16419659D01*
X16244139Y-16405373D01*
X16544139Y-16133944D02*
X16544139Y-16191087D01*
X16658425Y-16133944D02*
X16658425Y-16191087D01*
X17101282Y-16548230D02*
X17086997Y-16533944D01*
X17058425Y-16491087D01*
X17044140Y-16462516D01*
X17029854Y-16419659D01*
X17015568Y-16348230D01*
X17015568Y-16291087D01*
X17029854Y-16219659D01*
X17044140Y-16176802D01*
X17058425Y-16148230D01*
X17086997Y-16105373D01*
X17101282Y-16091087D01*
X17344140Y-16233944D02*
X17344140Y-16433944D01*
X17272711Y-16119659D02*
X17201282Y-16333944D01*
X17386997Y-16333944D01*
X17729854Y-16433944D02*
X17729854Y-16133944D01*
X17858425Y-16433944D02*
X17858425Y-16276802D01*
X17844140Y-16248230D01*
X17815568Y-16233944D01*
X17772711Y-16233944D01*
X17744140Y-16248230D01*
X17729854Y-16262516D01*
X18044140Y-16433944D02*
X18015568Y-16419659D01*
X18001282Y-16405373D01*
X17986997Y-16376802D01*
X17986997Y-16291087D01*
X18001282Y-16262516D01*
X18015568Y-16248230D01*
X18044140Y-16233944D01*
X18086997Y-16233944D01*
X18115568Y-16248230D01*
X18129854Y-16262516D01*
X18144140Y-16291087D01*
X18144140Y-16376802D01*
X18129854Y-16405373D01*
X18115568Y-16419659D01*
X18086997Y-16433944D01*
X18044140Y-16433944D01*
X18315568Y-16433944D02*
X18286997Y-16419659D01*
X18272711Y-16391087D01*
X18272711Y-16133944D01*
X18544140Y-16419659D02*
X18515568Y-16433944D01*
X18458425Y-16433944D01*
X18429854Y-16419659D01*
X18415568Y-16391087D01*
X18415568Y-16276802D01*
X18429854Y-16248230D01*
X18458425Y-16233944D01*
X18515568Y-16233944D01*
X18544140Y-16248230D01*
X18558425Y-16276802D01*
X18558425Y-16305373D01*
X18415568Y-16333944D01*
X18672711Y-16419659D02*
X18701282Y-16433944D01*
X18758425Y-16433944D01*
X18786997Y-16419659D01*
X18801282Y-16391087D01*
X18801282Y-16376802D01*
X18786997Y-16348230D01*
X18758425Y-16333944D01*
X18715568Y-16333944D01*
X18686997Y-16319659D01*
X18672711Y-16291087D01*
X18672711Y-16276802D01*
X18686997Y-16248230D01*
X18715568Y-16233944D01*
X18758425Y-16233944D01*
X18786997Y-16248230D01*
X18901282Y-16548230D02*
X18915568Y-16533944D01*
X18944140Y-16491087D01*
X18958425Y-16462516D01*
X18972711Y-16419659D01*
X18986997Y-16348230D01*
X18986997Y-16291087D01*
X18972711Y-16219659D01*
X18958425Y-16176802D01*
X18944140Y-16148230D01*
X18915568Y-16105373D01*
X18901282Y-16091087D01*
X11713425Y-16629230D02*
X11843425Y-16759230D01*
X11843425Y-16629230D02*
X11713425Y-16759230D01*
X11843425Y-16694230D02*
G75*
G03*
X11843425Y-16694230I-65000J0D01*
G01*
X12286997Y-16829945D02*
X12115568Y-16829945D01*
X12201282Y-16829945D02*
X12201282Y-16529944D01*
X12172711Y-16572802D01*
X12144139Y-16601373D01*
X12115568Y-16615659D01*
X12415568Y-16801373D02*
X12429854Y-16815659D01*
X12415568Y-16829945D01*
X12401282Y-16815659D01*
X12415568Y-16801373D01*
X12415568Y-16829945D01*
X12529854Y-16529944D02*
X12715568Y-16529944D01*
X12615568Y-16644230D01*
X12658425Y-16644230D01*
X12686997Y-16658516D01*
X12701282Y-16672802D01*
X12715568Y-16701373D01*
X12715568Y-16772802D01*
X12701282Y-16801373D01*
X12686997Y-16815659D01*
X12658425Y-16829945D01*
X12572711Y-16829945D01*
X12544139Y-16815659D01*
X12529854Y-16801373D01*
X12901282Y-16529944D02*
X12929854Y-16529944D01*
X12958425Y-16544230D01*
X12972711Y-16558516D01*
X12986997Y-16587087D01*
X13001282Y-16644230D01*
X13001282Y-16715659D01*
X12986997Y-16772802D01*
X12972711Y-16801373D01*
X12958425Y-16815659D01*
X12929854Y-16829945D01*
X12901282Y-16829945D01*
X12872711Y-16815659D01*
X12858425Y-16801373D01*
X12844139Y-16772802D01*
X12829854Y-16715659D01*
X12829854Y-16644230D01*
X12844139Y-16587087D01*
X12858425Y-16558516D01*
X12872711Y-16544230D01*
X12901282Y-16529944D01*
X13186997Y-16529944D02*
X13215568Y-16529944D01*
X13244139Y-16544230D01*
X13258425Y-16558516D01*
X13272711Y-16587087D01*
X13286997Y-16644230D01*
X13286997Y-16715659D01*
X13272711Y-16772802D01*
X13258425Y-16801373D01*
X13244139Y-16815659D01*
X13215568Y-16829945D01*
X13186997Y-16829945D01*
X13158425Y-16815659D01*
X13144139Y-16801373D01*
X13129854Y-16772802D01*
X13115568Y-16715659D01*
X13115568Y-16644230D01*
X13129854Y-16587087D01*
X13144139Y-16558516D01*
X13158425Y-16544230D01*
X13186997Y-16529944D01*
X13415568Y-16829945D02*
X13415568Y-16629944D01*
X13415568Y-16658516D02*
X13429854Y-16644230D01*
X13458425Y-16629944D01*
X13501282Y-16629944D01*
X13529854Y-16644230D01*
X13544139Y-16672802D01*
X13544139Y-16829945D01*
X13544139Y-16672802D02*
X13558425Y-16644230D01*
X13586997Y-16629944D01*
X13629854Y-16629944D01*
X13658425Y-16644230D01*
X13672711Y-16672802D01*
X13672711Y-16829945D01*
X13815568Y-16829945D02*
X13815568Y-16629944D01*
X13815568Y-16658516D02*
X13829854Y-16644230D01*
X13858425Y-16629944D01*
X13901282Y-16629944D01*
X13929854Y-16644230D01*
X13944139Y-16672802D01*
X13944139Y-16829945D01*
X13944139Y-16672802D02*
X13958425Y-16644230D01*
X13986997Y-16629944D01*
X14029854Y-16629944D01*
X14058425Y-16644230D01*
X14072711Y-16672802D01*
X14072711Y-16829945D01*
X14658425Y-16515659D02*
X14401282Y-16901373D01*
X15044139Y-16529944D02*
X15072711Y-16529944D01*
X15101282Y-16544230D01*
X15115568Y-16558516D01*
X15129854Y-16587087D01*
X15144139Y-16644230D01*
X15144139Y-16715659D01*
X15129854Y-16772802D01*
X15115568Y-16801373D01*
X15101282Y-16815659D01*
X15072711Y-16829945D01*
X15044139Y-16829945D01*
X15015568Y-16815659D01*
X15001282Y-16801373D01*
X14986997Y-16772802D01*
X14972711Y-16715659D01*
X14972711Y-16644230D01*
X14986997Y-16587087D01*
X15001282Y-16558516D01*
X15015568Y-16544230D01*
X15044139Y-16529944D01*
X15272711Y-16801373D02*
X15286997Y-16815659D01*
X15272711Y-16829945D01*
X15258425Y-16815659D01*
X15272711Y-16801373D01*
X15272711Y-16829945D01*
X15472711Y-16529944D02*
X15501282Y-16529944D01*
X15529854Y-16544230D01*
X15544139Y-16558516D01*
X15558425Y-16587087D01*
X15572711Y-16644230D01*
X15572711Y-16715659D01*
X15558425Y-16772802D01*
X15544139Y-16801373D01*
X15529854Y-16815659D01*
X15501282Y-16829945D01*
X15472711Y-16829945D01*
X15444139Y-16815659D01*
X15429854Y-16801373D01*
X15415568Y-16772802D01*
X15401282Y-16715659D01*
X15401282Y-16644230D01*
X15415568Y-16587087D01*
X15429854Y-16558516D01*
X15444139Y-16544230D01*
X15472711Y-16529944D01*
X15844139Y-16529944D02*
X15701282Y-16529944D01*
X15686997Y-16672802D01*
X15701282Y-16658516D01*
X15729854Y-16644230D01*
X15801282Y-16644230D01*
X15829854Y-16658516D01*
X15844139Y-16672802D01*
X15858425Y-16701373D01*
X15858425Y-16772802D01*
X15844139Y-16801373D01*
X15829854Y-16815659D01*
X15801282Y-16829945D01*
X15729854Y-16829945D01*
X15701282Y-16815659D01*
X15686997Y-16801373D01*
X16144139Y-16829945D02*
X15972711Y-16829945D01*
X16058425Y-16829945D02*
X16058425Y-16529944D01*
X16029854Y-16572802D01*
X16001282Y-16601373D01*
X15972711Y-16615659D01*
X16258425Y-16558516D02*
X16272711Y-16544230D01*
X16301282Y-16529944D01*
X16372711Y-16529944D01*
X16401282Y-16544230D01*
X16415568Y-16558516D01*
X16429854Y-16587087D01*
X16429854Y-16615659D01*
X16415568Y-16658516D01*
X16244139Y-16829945D01*
X16429854Y-16829945D01*
X16544139Y-16529944D02*
X16544139Y-16587087D01*
X16658425Y-16529944D02*
X16658425Y-16587087D01*
X17101282Y-16944230D02*
X17086997Y-16929945D01*
X17058425Y-16887087D01*
X17044140Y-16858516D01*
X17029854Y-16815659D01*
X17015568Y-16744230D01*
X17015568Y-16687087D01*
X17029854Y-16615659D01*
X17044140Y-16572802D01*
X17058425Y-16544230D01*
X17086997Y-16501373D01*
X17101282Y-16487087D01*
X17344140Y-16529944D02*
X17286997Y-16529944D01*
X17258425Y-16544230D01*
X17244140Y-16558516D01*
X17215568Y-16601373D01*
X17201282Y-16658516D01*
X17201282Y-16772802D01*
X17215568Y-16801373D01*
X17229854Y-16815659D01*
X17258425Y-16829945D01*
X17315568Y-16829945D01*
X17344140Y-16815659D01*
X17358425Y-16801373D01*
X17372711Y-16772802D01*
X17372711Y-16701373D01*
X17358425Y-16672802D01*
X17344140Y-16658516D01*
X17315568Y-16644230D01*
X17258425Y-16644230D01*
X17229854Y-16658516D01*
X17215568Y-16672802D01*
X17201282Y-16701373D01*
X17729854Y-16829945D02*
X17729854Y-16529944D01*
X17858425Y-16829945D02*
X17858425Y-16672802D01*
X17844140Y-16644230D01*
X17815568Y-16629944D01*
X17772711Y-16629944D01*
X17744140Y-16644230D01*
X17729854Y-16658516D01*
X18044140Y-16829945D02*
X18015568Y-16815659D01*
X18001282Y-16801373D01*
X17986997Y-16772802D01*
X17986997Y-16687087D01*
X18001282Y-16658516D01*
X18015568Y-16644230D01*
X18044140Y-16629944D01*
X18086997Y-16629944D01*
X18115568Y-16644230D01*
X18129854Y-16658516D01*
X18144140Y-16687087D01*
X18144140Y-16772802D01*
X18129854Y-16801373D01*
X18115568Y-16815659D01*
X18086997Y-16829945D01*
X18044140Y-16829945D01*
X18315568Y-16829945D02*
X18286997Y-16815659D01*
X18272711Y-16787087D01*
X18272711Y-16529944D01*
X18544140Y-16815659D02*
X18515568Y-16829945D01*
X18458425Y-16829945D01*
X18429854Y-16815659D01*
X18415568Y-16787087D01*
X18415568Y-16672802D01*
X18429854Y-16644230D01*
X18458425Y-16629944D01*
X18515568Y-16629944D01*
X18544140Y-16644230D01*
X18558425Y-16672802D01*
X18558425Y-16701373D01*
X18415568Y-16729944D01*
X18672711Y-16815659D02*
X18701282Y-16829945D01*
X18758425Y-16829945D01*
X18786997Y-16815659D01*
X18801282Y-16787087D01*
X18801282Y-16772802D01*
X18786997Y-16744230D01*
X18758425Y-16729944D01*
X18715568Y-16729944D01*
X18686997Y-16715659D01*
X18672711Y-16687087D01*
X18672711Y-16672802D01*
X18686997Y-16644230D01*
X18715568Y-16629944D01*
X18758425Y-16629944D01*
X18786997Y-16644230D01*
X18901282Y-16944230D02*
X18915568Y-16929945D01*
X18944140Y-16887087D01*
X18958425Y-16858516D01*
X18972711Y-16815659D01*
X18986997Y-16744230D01*
X18986997Y-16687087D01*
X18972711Y-16615659D01*
X18958425Y-16572802D01*
X18944140Y-16544230D01*
X18915568Y-16501373D01*
X18901282Y-16487087D01*
X11493425Y-16915230D02*
X11843425Y-17265230D01*
X11843425Y-16915230D02*
X11493425Y-17265230D01*
X11668425Y-16915230D02*
X11668425Y-17265230D01*
X11493425Y-17090230D02*
X11843425Y-17090230D01*
X12101282Y-16925945D02*
X12286997Y-16925945D01*
X12186997Y-17040230D01*
X12229854Y-17040230D01*
X12258425Y-17054516D01*
X12272711Y-17068802D01*
X12286997Y-17097373D01*
X12286997Y-17168802D01*
X12272711Y-17197373D01*
X12258425Y-17211659D01*
X12229854Y-17225945D01*
X12144139Y-17225945D01*
X12115568Y-17211659D01*
X12101282Y-17197373D01*
X12415568Y-17197373D02*
X12429854Y-17211659D01*
X12415568Y-17225945D01*
X12401282Y-17211659D01*
X12415568Y-17197373D01*
X12415568Y-17225945D01*
X12701282Y-16925945D02*
X12558425Y-16925945D01*
X12544139Y-17068802D01*
X12558425Y-17054516D01*
X12586997Y-17040230D01*
X12658425Y-17040230D01*
X12686997Y-17054516D01*
X12701282Y-17068802D01*
X12715568Y-17097373D01*
X12715568Y-17168802D01*
X12701282Y-17197373D01*
X12686997Y-17211659D01*
X12658425Y-17225945D01*
X12586997Y-17225945D01*
X12558425Y-17211659D01*
X12544139Y-17197373D01*
X12901282Y-16925945D02*
X12929854Y-16925945D01*
X12958425Y-16940230D01*
X12972711Y-16954516D01*
X12986997Y-16983087D01*
X13001282Y-17040230D01*
X13001282Y-17111659D01*
X12986997Y-17168802D01*
X12972711Y-17197373D01*
X12958425Y-17211659D01*
X12929854Y-17225945D01*
X12901282Y-17225945D01*
X12872711Y-17211659D01*
X12858425Y-17197373D01*
X12844139Y-17168802D01*
X12829854Y-17111659D01*
X12829854Y-17040230D01*
X12844139Y-16983087D01*
X12858425Y-16954516D01*
X12872711Y-16940230D01*
X12901282Y-16925945D01*
X13186997Y-16925945D02*
X13215568Y-16925945D01*
X13244139Y-16940230D01*
X13258425Y-16954516D01*
X13272711Y-16983087D01*
X13286997Y-17040230D01*
X13286997Y-17111659D01*
X13272711Y-17168802D01*
X13258425Y-17197373D01*
X13244139Y-17211659D01*
X13215568Y-17225945D01*
X13186997Y-17225945D01*
X13158425Y-17211659D01*
X13144139Y-17197373D01*
X13129854Y-17168802D01*
X13115568Y-17111659D01*
X13115568Y-17040230D01*
X13129854Y-16983087D01*
X13144139Y-16954516D01*
X13158425Y-16940230D01*
X13186997Y-16925945D01*
X13415568Y-17225945D02*
X13415568Y-17025945D01*
X13415568Y-17054516D02*
X13429854Y-17040230D01*
X13458425Y-17025945D01*
X13501282Y-17025945D01*
X13529854Y-17040230D01*
X13544139Y-17068802D01*
X13544139Y-17225945D01*
X13544139Y-17068802D02*
X13558425Y-17040230D01*
X13586997Y-17025945D01*
X13629854Y-17025945D01*
X13658425Y-17040230D01*
X13672711Y-17068802D01*
X13672711Y-17225945D01*
X13815568Y-17225945D02*
X13815568Y-17025945D01*
X13815568Y-17054516D02*
X13829854Y-17040230D01*
X13858425Y-17025945D01*
X13901282Y-17025945D01*
X13929854Y-17040230D01*
X13944139Y-17068802D01*
X13944139Y-17225945D01*
X13944139Y-17068802D02*
X13958425Y-17040230D01*
X13986997Y-17025945D01*
X14029854Y-17025945D01*
X14058425Y-17040230D01*
X14072711Y-17068802D01*
X14072711Y-17225945D01*
X14658425Y-16911659D02*
X14401282Y-17297373D01*
X15044139Y-16925945D02*
X15072711Y-16925945D01*
X15101282Y-16940230D01*
X15115568Y-16954516D01*
X15129854Y-16983087D01*
X15144139Y-17040230D01*
X15144139Y-17111659D01*
X15129854Y-17168802D01*
X15115568Y-17197373D01*
X15101282Y-17211659D01*
X15072711Y-17225945D01*
X15044139Y-17225945D01*
X15015568Y-17211659D01*
X15001282Y-17197373D01*
X14986997Y-17168802D01*
X14972711Y-17111659D01*
X14972711Y-17040230D01*
X14986997Y-16983087D01*
X15001282Y-16954516D01*
X15015568Y-16940230D01*
X15044139Y-16925945D01*
X15272711Y-17197373D02*
X15286997Y-17211659D01*
X15272711Y-17225945D01*
X15258425Y-17211659D01*
X15272711Y-17197373D01*
X15272711Y-17225945D01*
X15572711Y-17225945D02*
X15401282Y-17225945D01*
X15486997Y-17225945D02*
X15486997Y-16925945D01*
X15458425Y-16968802D01*
X15429854Y-16997373D01*
X15401282Y-17011659D01*
X15672711Y-16925945D02*
X15858425Y-16925945D01*
X15758425Y-17040230D01*
X15801282Y-17040230D01*
X15829854Y-17054516D01*
X15844139Y-17068802D01*
X15858425Y-17097373D01*
X15858425Y-17168802D01*
X15844139Y-17197373D01*
X15829854Y-17211659D01*
X15801282Y-17225945D01*
X15715568Y-17225945D01*
X15686997Y-17211659D01*
X15672711Y-17197373D01*
X15958425Y-16925945D02*
X16158425Y-16925945D01*
X16029854Y-17225945D01*
X16315568Y-17054516D02*
X16286997Y-17040230D01*
X16272711Y-17025945D01*
X16258425Y-16997373D01*
X16258425Y-16983087D01*
X16272711Y-16954516D01*
X16286997Y-16940230D01*
X16315568Y-16925945D01*
X16372711Y-16925945D01*
X16401282Y-16940230D01*
X16415568Y-16954516D01*
X16429854Y-16983087D01*
X16429854Y-16997373D01*
X16415568Y-17025945D01*
X16401282Y-17040230D01*
X16372711Y-17054516D01*
X16315568Y-17054516D01*
X16286997Y-17068802D01*
X16272711Y-17083087D01*
X16258425Y-17111659D01*
X16258425Y-17168802D01*
X16272711Y-17197373D01*
X16286997Y-17211659D01*
X16315568Y-17225945D01*
X16372711Y-17225945D01*
X16401282Y-17211659D01*
X16415568Y-17197373D01*
X16429854Y-17168802D01*
X16429854Y-17111659D01*
X16415568Y-17083087D01*
X16401282Y-17068802D01*
X16372711Y-17054516D01*
X16544139Y-16925945D02*
X16544139Y-16983087D01*
X16658425Y-16925945D02*
X16658425Y-16983087D01*
X17101282Y-17340230D02*
X17086997Y-17325945D01*
X17058425Y-17283087D01*
X17044140Y-17254516D01*
X17029854Y-17211659D01*
X17015568Y-17140230D01*
X17015568Y-17083087D01*
X17029854Y-17011659D01*
X17044140Y-16968802D01*
X17058425Y-16940230D01*
X17086997Y-16897373D01*
X17101282Y-16883087D01*
X17344140Y-17025945D02*
X17344140Y-17225945D01*
X17272711Y-16911659D02*
X17201282Y-17125945D01*
X17386997Y-17125945D01*
X17729854Y-17225945D02*
X17729854Y-16925945D01*
X17858425Y-17225945D02*
X17858425Y-17068802D01*
X17844140Y-17040230D01*
X17815568Y-17025945D01*
X17772711Y-17025945D01*
X17744140Y-17040230D01*
X17729854Y-17054516D01*
X18044140Y-17225945D02*
X18015568Y-17211659D01*
X18001282Y-17197373D01*
X17986997Y-17168802D01*
X17986997Y-17083087D01*
X18001282Y-17054516D01*
X18015568Y-17040230D01*
X18044140Y-17025945D01*
X18086997Y-17025945D01*
X18115568Y-17040230D01*
X18129854Y-17054516D01*
X18144140Y-17083087D01*
X18144140Y-17168802D01*
X18129854Y-17197373D01*
X18115568Y-17211659D01*
X18086997Y-17225945D01*
X18044140Y-17225945D01*
X18315568Y-17225945D02*
X18286997Y-17211659D01*
X18272711Y-17183087D01*
X18272711Y-16925945D01*
X18544140Y-17211659D02*
X18515568Y-17225945D01*
X18458425Y-17225945D01*
X18429854Y-17211659D01*
X18415568Y-17183087D01*
X18415568Y-17068802D01*
X18429854Y-17040230D01*
X18458425Y-17025945D01*
X18515568Y-17025945D01*
X18544140Y-17040230D01*
X18558425Y-17068802D01*
X18558425Y-17097373D01*
X18415568Y-17125945D01*
X18672711Y-17211659D02*
X18701282Y-17225945D01*
X18758425Y-17225945D01*
X18786997Y-17211659D01*
X18801282Y-17183087D01*
X18801282Y-17168802D01*
X18786997Y-17140230D01*
X18758425Y-17125945D01*
X18715568Y-17125945D01*
X18686997Y-17111659D01*
X18672711Y-17083087D01*
X18672711Y-17068802D01*
X18686997Y-17040230D01*
X18715568Y-17025945D01*
X18758425Y-17025945D01*
X18786997Y-17040230D01*
X18901282Y-17340230D02*
X18915568Y-17325945D01*
X18944140Y-17283087D01*
X18958425Y-17254516D01*
X18972711Y-17211659D01*
X18986997Y-17140230D01*
X18986997Y-17083087D01*
X18972711Y-17011659D01*
X18958425Y-16968802D01*
X18944140Y-16940230D01*
X18915568Y-16897373D01*
X18901282Y-16883087D01*
M02*
