G04 #@! TF.GenerationSoftware,KiCad,Pcbnew,5.1.10-88a1d61d58~88~ubuntu20.10.1*
G04 #@! TF.CreationDate,2021-05-21T17:46:03+03:00*
G04 #@! TF.ProjectId,Devboard,44657662-6f61-4726-942e-6b696361645f,rev?*
G04 #@! TF.SameCoordinates,Original*
G04 #@! TF.FileFunction,Legend,Bot*
G04 #@! TF.FilePolarity,Positive*
%FSLAX46Y46*%
G04 Gerber Fmt 4.6, Leading zero omitted, Abs format (unit mm)*
G04 Created by KiCad (PCBNEW 5.1.10-88a1d61d58~88~ubuntu20.10.1) date 2021-05-21 17:46:03*
%MOMM*%
%LPD*%
G01*
G04 APERTURE LIST*
%ADD10C,0.250000*%
%ADD11C,0.010000*%
%ADD12C,2.600000*%
%ADD13R,2.600000X2.600000*%
%ADD14O,1.700000X1.700000*%
%ADD15R,1.700000X1.700000*%
%ADD16O,1.600000X1.600000*%
%ADD17C,1.600000*%
%ADD18R,3.500000X3.500000*%
%ADD19C,7.000000*%
%ADD20C,3.900000*%
%ADD21C,2.000000*%
%ADD22R,1.000000X1.000000*%
%ADD23O,1.000000X1.000000*%
G04 APERTURE END LIST*
D10*
X167669195Y-113328171D02*
X167335861Y-113328171D01*
X167193004Y-113851980D02*
X167669195Y-113851980D01*
X167669195Y-112851980D01*
X167193004Y-112851980D01*
X166812052Y-113804361D02*
X166669195Y-113851980D01*
X166431100Y-113851980D01*
X166335861Y-113804361D01*
X166288242Y-113756742D01*
X166240623Y-113661504D01*
X166240623Y-113566266D01*
X166288242Y-113471028D01*
X166335861Y-113423409D01*
X166431100Y-113375790D01*
X166621576Y-113328171D01*
X166716814Y-113280552D01*
X166764433Y-113232933D01*
X166812052Y-113137695D01*
X166812052Y-113042457D01*
X166764433Y-112947219D01*
X166716814Y-112899600D01*
X166621576Y-112851980D01*
X166383480Y-112851980D01*
X166240623Y-112899600D01*
X165812052Y-113851980D02*
X165812052Y-112851980D01*
X165573957Y-112851980D01*
X165431100Y-112899600D01*
X165335861Y-112994838D01*
X165288242Y-113090076D01*
X165240623Y-113280552D01*
X165240623Y-113423409D01*
X165288242Y-113613885D01*
X165335861Y-113709123D01*
X165431100Y-113804361D01*
X165573957Y-113851980D01*
X165812052Y-113851980D01*
X164097766Y-113804361D02*
X164002528Y-113851980D01*
X163812052Y-113851980D01*
X163716814Y-113804361D01*
X163669195Y-113709123D01*
X163669195Y-113661504D01*
X163716814Y-113566266D01*
X163812052Y-113518647D01*
X163954909Y-113518647D01*
X164050147Y-113471028D01*
X164097766Y-113375790D01*
X164097766Y-113328171D01*
X164050147Y-113232933D01*
X163954909Y-113185314D01*
X163812052Y-113185314D01*
X163716814Y-113232933D01*
X162859671Y-113804361D02*
X162954909Y-113851980D01*
X163145385Y-113851980D01*
X163240623Y-113804361D01*
X163288242Y-113709123D01*
X163288242Y-113328171D01*
X163240623Y-113232933D01*
X163145385Y-113185314D01*
X162954909Y-113185314D01*
X162859671Y-113232933D01*
X162812052Y-113328171D01*
X162812052Y-113423409D01*
X163288242Y-113518647D01*
X162383480Y-113185314D02*
X162383480Y-113851980D01*
X162383480Y-113280552D02*
X162335861Y-113232933D01*
X162240623Y-113185314D01*
X162097766Y-113185314D01*
X162002528Y-113232933D01*
X161954909Y-113328171D01*
X161954909Y-113851980D01*
X161526338Y-113804361D02*
X161431100Y-113851980D01*
X161240623Y-113851980D01*
X161145385Y-113804361D01*
X161097766Y-113709123D01*
X161097766Y-113661504D01*
X161145385Y-113566266D01*
X161240623Y-113518647D01*
X161383480Y-113518647D01*
X161478719Y-113471028D01*
X161526338Y-113375790D01*
X161526338Y-113328171D01*
X161478719Y-113232933D01*
X161383480Y-113185314D01*
X161240623Y-113185314D01*
X161145385Y-113232933D01*
X160669195Y-113851980D02*
X160669195Y-113185314D01*
X160669195Y-112851980D02*
X160716814Y-112899600D01*
X160669195Y-112947219D01*
X160621576Y-112899600D01*
X160669195Y-112851980D01*
X160669195Y-112947219D01*
X160335861Y-113185314D02*
X159954909Y-113185314D01*
X160193004Y-112851980D02*
X160193004Y-113709123D01*
X160145385Y-113804361D01*
X160050147Y-113851980D01*
X159954909Y-113851980D01*
X159621576Y-113851980D02*
X159621576Y-113185314D01*
X159621576Y-112851980D02*
X159669195Y-112899600D01*
X159621576Y-112947219D01*
X159573957Y-112899600D01*
X159621576Y-112851980D01*
X159621576Y-112947219D01*
X159240623Y-113185314D02*
X159002528Y-113851980D01*
X158764433Y-113185314D01*
X158002528Y-113804361D02*
X158097766Y-113851980D01*
X158288242Y-113851980D01*
X158383480Y-113804361D01*
X158431100Y-113709123D01*
X158431100Y-113328171D01*
X158383480Y-113232933D01*
X158288242Y-113185314D01*
X158097766Y-113185314D01*
X158002528Y-113232933D01*
X157954909Y-113328171D01*
X157954909Y-113423409D01*
X158431100Y-113518647D01*
X156764433Y-113185314D02*
X156764433Y-114185314D01*
X156764433Y-113232933D02*
X156669195Y-113185314D01*
X156478719Y-113185314D01*
X156383480Y-113232933D01*
X156335861Y-113280552D01*
X156288242Y-113375790D01*
X156288242Y-113661504D01*
X156335861Y-113756742D01*
X156383480Y-113804361D01*
X156478719Y-113851980D01*
X156669195Y-113851980D01*
X156764433Y-113804361D01*
X155431100Y-113851980D02*
X155431100Y-113328171D01*
X155478719Y-113232933D01*
X155573957Y-113185314D01*
X155764433Y-113185314D01*
X155859671Y-113232933D01*
X155431100Y-113804361D02*
X155526338Y-113851980D01*
X155764433Y-113851980D01*
X155859671Y-113804361D01*
X155907290Y-113709123D01*
X155907290Y-113613885D01*
X155859671Y-113518647D01*
X155764433Y-113471028D01*
X155526338Y-113471028D01*
X155431100Y-113423409D01*
X154954909Y-113851980D02*
X154954909Y-113185314D01*
X154954909Y-113375790D02*
X154907290Y-113280552D01*
X154859671Y-113232933D01*
X154764433Y-113185314D01*
X154669195Y-113185314D01*
X154478719Y-113185314D02*
X154097766Y-113185314D01*
X154335861Y-112851980D02*
X154335861Y-113709123D01*
X154288242Y-113804361D01*
X154193004Y-113851980D01*
X154097766Y-113851980D01*
X153812052Y-113804361D02*
X153716814Y-113851980D01*
X153526338Y-113851980D01*
X153431100Y-113804361D01*
X153383480Y-113709123D01*
X153383480Y-113661504D01*
X153431100Y-113566266D01*
X153526338Y-113518647D01*
X153669195Y-113518647D01*
X153764433Y-113471028D01*
X153812052Y-113375790D01*
X153812052Y-113328171D01*
X153764433Y-113232933D01*
X153669195Y-113185314D01*
X153526338Y-113185314D01*
X153431100Y-113232933D01*
X152954909Y-113756742D02*
X152907290Y-113804361D01*
X152954909Y-113851980D01*
X153002528Y-113804361D01*
X152954909Y-113756742D01*
X152954909Y-113851980D01*
X166383480Y-115601980D02*
X166383480Y-114601980D01*
X166383480Y-115078171D02*
X165812052Y-115078171D01*
X165812052Y-115601980D02*
X165812052Y-114601980D01*
X164907290Y-115601980D02*
X164907290Y-115078171D01*
X164954909Y-114982933D01*
X165050147Y-114935314D01*
X165240623Y-114935314D01*
X165335861Y-114982933D01*
X164907290Y-115554361D02*
X165002528Y-115601980D01*
X165240623Y-115601980D01*
X165335861Y-115554361D01*
X165383480Y-115459123D01*
X165383480Y-115363885D01*
X165335861Y-115268647D01*
X165240623Y-115221028D01*
X165002528Y-115221028D01*
X164907290Y-115173409D01*
X164431100Y-114935314D02*
X164431100Y-115601980D01*
X164431100Y-115030552D02*
X164383480Y-114982933D01*
X164288242Y-114935314D01*
X164145385Y-114935314D01*
X164050147Y-114982933D01*
X164002528Y-115078171D01*
X164002528Y-115601980D01*
X163097766Y-115601980D02*
X163097766Y-114601980D01*
X163097766Y-115554361D02*
X163193004Y-115601980D01*
X163383480Y-115601980D01*
X163478719Y-115554361D01*
X163526338Y-115506742D01*
X163573957Y-115411504D01*
X163573957Y-115125790D01*
X163526338Y-115030552D01*
X163478719Y-114982933D01*
X163383480Y-114935314D01*
X163193004Y-114935314D01*
X163097766Y-114982933D01*
X162478719Y-115601980D02*
X162573957Y-115554361D01*
X162621576Y-115459123D01*
X162621576Y-114601980D01*
X161716814Y-115554361D02*
X161812052Y-115601980D01*
X162002528Y-115601980D01*
X162097766Y-115554361D01*
X162145385Y-115459123D01*
X162145385Y-115078171D01*
X162097766Y-114982933D01*
X162002528Y-114935314D01*
X161812052Y-114935314D01*
X161716814Y-114982933D01*
X161669195Y-115078171D01*
X161669195Y-115173409D01*
X162145385Y-115268647D01*
X160573957Y-114935314D02*
X160383480Y-115601980D01*
X160193004Y-115125790D01*
X160002528Y-115601980D01*
X159812052Y-114935314D01*
X159431100Y-115601980D02*
X159431100Y-114935314D01*
X159431100Y-114601980D02*
X159478719Y-114649600D01*
X159431100Y-114697219D01*
X159383480Y-114649600D01*
X159431100Y-114601980D01*
X159431100Y-114697219D01*
X159097766Y-114935314D02*
X158716814Y-114935314D01*
X158954909Y-114601980D02*
X158954909Y-115459123D01*
X158907290Y-115554361D01*
X158812052Y-115601980D01*
X158716814Y-115601980D01*
X158383480Y-115601980D02*
X158383480Y-114601980D01*
X157954909Y-115601980D02*
X157954909Y-115078171D01*
X158002528Y-114982933D01*
X158097766Y-114935314D01*
X158240623Y-114935314D01*
X158335861Y-114982933D01*
X158383480Y-115030552D01*
X156288242Y-115554361D02*
X156383480Y-115601980D01*
X156573957Y-115601980D01*
X156669195Y-115554361D01*
X156716814Y-115506742D01*
X156764433Y-115411504D01*
X156764433Y-115125790D01*
X156716814Y-115030552D01*
X156669195Y-114982933D01*
X156573957Y-114935314D01*
X156383480Y-114935314D01*
X156288242Y-114982933D01*
X155431100Y-115601980D02*
X155431100Y-115078171D01*
X155478719Y-114982933D01*
X155573957Y-114935314D01*
X155764433Y-114935314D01*
X155859671Y-114982933D01*
X155431100Y-115554361D02*
X155526338Y-115601980D01*
X155764433Y-115601980D01*
X155859671Y-115554361D01*
X155907290Y-115459123D01*
X155907290Y-115363885D01*
X155859671Y-115268647D01*
X155764433Y-115221028D01*
X155526338Y-115221028D01*
X155431100Y-115173409D01*
X154954909Y-115601980D02*
X154954909Y-114935314D01*
X154954909Y-115125790D02*
X154907290Y-115030552D01*
X154859671Y-114982933D01*
X154764433Y-114935314D01*
X154669195Y-114935314D01*
X153954909Y-115554361D02*
X154050147Y-115601980D01*
X154240623Y-115601980D01*
X154335861Y-115554361D01*
X154383480Y-115459123D01*
X154383480Y-115078171D01*
X154335861Y-114982933D01*
X154240623Y-114935314D01*
X154050147Y-114935314D01*
X153954909Y-114982933D01*
X153907290Y-115078171D01*
X153907290Y-115173409D01*
X154383480Y-115268647D01*
X153478719Y-115506742D02*
X153431100Y-115554361D01*
X153478719Y-115601980D01*
X153526338Y-115554361D01*
X153478719Y-115506742D01*
X153478719Y-115601980D01*
X153874952Y-133689380D02*
X154351142Y-133689380D01*
X154351142Y-132689380D01*
X153541619Y-133689380D02*
X153541619Y-132689380D01*
X152636857Y-133641761D02*
X152732095Y-133689380D01*
X152922571Y-133689380D01*
X153017809Y-133641761D01*
X153065428Y-133594142D01*
X153113047Y-133498904D01*
X153113047Y-133213190D01*
X153065428Y-133117952D01*
X153017809Y-133070333D01*
X152922571Y-133022714D01*
X152732095Y-133022714D01*
X152636857Y-133070333D01*
X151827333Y-133641761D02*
X151922571Y-133689380D01*
X152113047Y-133689380D01*
X152208285Y-133641761D01*
X152255904Y-133546523D01*
X152255904Y-133165571D01*
X152208285Y-133070333D01*
X152113047Y-133022714D01*
X151922571Y-133022714D01*
X151827333Y-133070333D01*
X151779714Y-133165571D01*
X151779714Y-133260809D01*
X152255904Y-133356047D01*
X151351142Y-133022714D02*
X151351142Y-133689380D01*
X151351142Y-133117952D02*
X151303523Y-133070333D01*
X151208285Y-133022714D01*
X151065428Y-133022714D01*
X150970190Y-133070333D01*
X150922571Y-133165571D01*
X150922571Y-133689380D01*
X150494000Y-133641761D02*
X150398761Y-133689380D01*
X150208285Y-133689380D01*
X150113047Y-133641761D01*
X150065428Y-133546523D01*
X150065428Y-133498904D01*
X150113047Y-133403666D01*
X150208285Y-133356047D01*
X150351142Y-133356047D01*
X150446380Y-133308428D01*
X150494000Y-133213190D01*
X150494000Y-133165571D01*
X150446380Y-133070333D01*
X150351142Y-133022714D01*
X150208285Y-133022714D01*
X150113047Y-133070333D01*
X149255904Y-133641761D02*
X149351142Y-133689380D01*
X149541619Y-133689380D01*
X149636857Y-133641761D01*
X149684476Y-133546523D01*
X149684476Y-133165571D01*
X149636857Y-133070333D01*
X149541619Y-133022714D01*
X149351142Y-133022714D01*
X149255904Y-133070333D01*
X149208285Y-133165571D01*
X149208285Y-133260809D01*
X149684476Y-133356047D01*
X148779714Y-133594142D02*
X148732095Y-133641761D01*
X148779714Y-133689380D01*
X148827333Y-133641761D01*
X148779714Y-133594142D01*
X148779714Y-133689380D01*
X148779714Y-133070333D02*
X148732095Y-133117952D01*
X148779714Y-133165571D01*
X148827333Y-133117952D01*
X148779714Y-133070333D01*
X148779714Y-133165571D01*
X146970190Y-133594142D02*
X147017809Y-133641761D01*
X147160666Y-133689380D01*
X147255904Y-133689380D01*
X147398761Y-133641761D01*
X147494000Y-133546523D01*
X147541619Y-133451285D01*
X147589238Y-133260809D01*
X147589238Y-133117952D01*
X147541619Y-132927476D01*
X147494000Y-132832238D01*
X147398761Y-132737000D01*
X147255904Y-132689380D01*
X147160666Y-132689380D01*
X147017809Y-132737000D01*
X146970190Y-132784619D01*
X146541619Y-133689380D02*
X146541619Y-133022714D01*
X146541619Y-133213190D02*
X146494000Y-133117952D01*
X146446380Y-133070333D01*
X146351142Y-133022714D01*
X146255904Y-133022714D01*
X145541619Y-133641761D02*
X145636857Y-133689380D01*
X145827333Y-133689380D01*
X145922571Y-133641761D01*
X145970190Y-133546523D01*
X145970190Y-133165571D01*
X145922571Y-133070333D01*
X145827333Y-133022714D01*
X145636857Y-133022714D01*
X145541619Y-133070333D01*
X145494000Y-133165571D01*
X145494000Y-133260809D01*
X145970190Y-133356047D01*
X144636857Y-133689380D02*
X144636857Y-133165571D01*
X144684476Y-133070333D01*
X144779714Y-133022714D01*
X144970190Y-133022714D01*
X145065428Y-133070333D01*
X144636857Y-133641761D02*
X144732095Y-133689380D01*
X144970190Y-133689380D01*
X145065428Y-133641761D01*
X145113047Y-133546523D01*
X145113047Y-133451285D01*
X145065428Y-133356047D01*
X144970190Y-133308428D01*
X144732095Y-133308428D01*
X144636857Y-133260809D01*
X144303523Y-133022714D02*
X143922571Y-133022714D01*
X144160666Y-132689380D02*
X144160666Y-133546523D01*
X144113047Y-133641761D01*
X144017809Y-133689380D01*
X143922571Y-133689380D01*
X143589238Y-133689380D02*
X143589238Y-133022714D01*
X143589238Y-132689380D02*
X143636857Y-132737000D01*
X143589238Y-132784619D01*
X143541619Y-132737000D01*
X143589238Y-132689380D01*
X143589238Y-132784619D01*
X143208285Y-133022714D02*
X142970190Y-133689380D01*
X142732095Y-133022714D01*
X141970190Y-133641761D02*
X142065428Y-133689380D01*
X142255904Y-133689380D01*
X142351142Y-133641761D01*
X142398761Y-133546523D01*
X142398761Y-133165571D01*
X142351142Y-133070333D01*
X142255904Y-133022714D01*
X142065428Y-133022714D01*
X141970190Y-133070333D01*
X141922571Y-133165571D01*
X141922571Y-133260809D01*
X142398761Y-133356047D01*
X140160666Y-133594142D02*
X140208285Y-133641761D01*
X140351142Y-133689380D01*
X140446380Y-133689380D01*
X140589238Y-133641761D01*
X140684476Y-133546523D01*
X140732095Y-133451285D01*
X140779714Y-133260809D01*
X140779714Y-133117952D01*
X140732095Y-132927476D01*
X140684476Y-132832238D01*
X140589238Y-132737000D01*
X140446380Y-132689380D01*
X140351142Y-132689380D01*
X140208285Y-132737000D01*
X140160666Y-132784619D01*
X139589238Y-133689380D02*
X139684476Y-133641761D01*
X139732095Y-133594142D01*
X139779714Y-133498904D01*
X139779714Y-133213190D01*
X139732095Y-133117952D01*
X139684476Y-133070333D01*
X139589238Y-133022714D01*
X139446380Y-133022714D01*
X139351142Y-133070333D01*
X139303523Y-133117952D01*
X139255904Y-133213190D01*
X139255904Y-133498904D01*
X139303523Y-133594142D01*
X139351142Y-133641761D01*
X139446380Y-133689380D01*
X139589238Y-133689380D01*
X138827333Y-133689380D02*
X138827333Y-133022714D01*
X138827333Y-133117952D02*
X138779714Y-133070333D01*
X138684476Y-133022714D01*
X138541619Y-133022714D01*
X138446380Y-133070333D01*
X138398761Y-133165571D01*
X138398761Y-133689380D01*
X138398761Y-133165571D02*
X138351142Y-133070333D01*
X138255904Y-133022714D01*
X138113047Y-133022714D01*
X138017809Y-133070333D01*
X137970190Y-133165571D01*
X137970190Y-133689380D01*
X137494000Y-133689380D02*
X137494000Y-133022714D01*
X137494000Y-133117952D02*
X137446380Y-133070333D01*
X137351142Y-133022714D01*
X137208285Y-133022714D01*
X137113047Y-133070333D01*
X137065428Y-133165571D01*
X137065428Y-133689380D01*
X137065428Y-133165571D02*
X137017809Y-133070333D01*
X136922571Y-133022714D01*
X136779714Y-133022714D01*
X136684476Y-133070333D01*
X136636857Y-133165571D01*
X136636857Y-133689380D01*
X136017809Y-133689380D02*
X136113047Y-133641761D01*
X136160666Y-133594142D01*
X136208285Y-133498904D01*
X136208285Y-133213190D01*
X136160666Y-133117952D01*
X136113047Y-133070333D01*
X136017809Y-133022714D01*
X135874952Y-133022714D01*
X135779714Y-133070333D01*
X135732095Y-133117952D01*
X135684476Y-133213190D01*
X135684476Y-133498904D01*
X135732095Y-133594142D01*
X135779714Y-133641761D01*
X135874952Y-133689380D01*
X136017809Y-133689380D01*
X135255904Y-133022714D02*
X135255904Y-133689380D01*
X135255904Y-133117952D02*
X135208285Y-133070333D01*
X135113047Y-133022714D01*
X134970190Y-133022714D01*
X134874952Y-133070333D01*
X134827333Y-133165571D01*
X134827333Y-133689380D01*
X134398761Y-133641761D02*
X134303523Y-133689380D01*
X134113047Y-133689380D01*
X134017809Y-133641761D01*
X133970190Y-133546523D01*
X133970190Y-133498904D01*
X134017809Y-133403666D01*
X134113047Y-133356047D01*
X134255904Y-133356047D01*
X134351142Y-133308428D01*
X134398761Y-133213190D01*
X134398761Y-133165571D01*
X134351142Y-133070333D01*
X134255904Y-133022714D01*
X134113047Y-133022714D01*
X134017809Y-133070333D01*
X132446380Y-133165571D02*
X132303523Y-133213190D01*
X132255904Y-133260809D01*
X132208285Y-133356047D01*
X132208285Y-133498904D01*
X132255904Y-133594142D01*
X132303523Y-133641761D01*
X132398761Y-133689380D01*
X132779714Y-133689380D01*
X132779714Y-132689380D01*
X132446380Y-132689380D01*
X132351142Y-132737000D01*
X132303523Y-132784619D01*
X132255904Y-132879857D01*
X132255904Y-132975095D01*
X132303523Y-133070333D01*
X132351142Y-133117952D01*
X132446380Y-133165571D01*
X132779714Y-133165571D01*
X131589238Y-133213190D02*
X131589238Y-133689380D01*
X131922571Y-132689380D02*
X131589238Y-133213190D01*
X131255904Y-132689380D01*
X152898761Y-135153666D02*
X152422571Y-135153666D01*
X152994000Y-135439380D02*
X152660666Y-134439380D01*
X152327333Y-135439380D01*
X152136857Y-134772714D02*
X151755904Y-134772714D01*
X151994000Y-134439380D02*
X151994000Y-135296523D01*
X151946380Y-135391761D01*
X151851142Y-135439380D01*
X151755904Y-135439380D01*
X151565428Y-134772714D02*
X151184476Y-134772714D01*
X151422571Y-134439380D02*
X151422571Y-135296523D01*
X151374952Y-135391761D01*
X151279714Y-135439380D01*
X151184476Y-135439380D01*
X150851142Y-135439380D02*
X150851142Y-134772714D01*
X150851142Y-134963190D02*
X150803523Y-134867952D01*
X150755904Y-134820333D01*
X150660666Y-134772714D01*
X150565428Y-134772714D01*
X150232095Y-135439380D02*
X150232095Y-134772714D01*
X150232095Y-134439380D02*
X150279714Y-134487000D01*
X150232095Y-134534619D01*
X150184476Y-134487000D01*
X150232095Y-134439380D01*
X150232095Y-134534619D01*
X149755904Y-135439380D02*
X149755904Y-134439380D01*
X149755904Y-134820333D02*
X149660666Y-134772714D01*
X149470190Y-134772714D01*
X149374952Y-134820333D01*
X149327333Y-134867952D01*
X149279714Y-134963190D01*
X149279714Y-135248904D01*
X149327333Y-135344142D01*
X149374952Y-135391761D01*
X149470190Y-135439380D01*
X149660666Y-135439380D01*
X149755904Y-135391761D01*
X148422571Y-134772714D02*
X148422571Y-135439380D01*
X148851142Y-134772714D02*
X148851142Y-135296523D01*
X148803523Y-135391761D01*
X148708285Y-135439380D01*
X148565428Y-135439380D01*
X148470190Y-135391761D01*
X148422571Y-135344142D01*
X148089238Y-134772714D02*
X147708285Y-134772714D01*
X147946380Y-134439380D02*
X147946380Y-135296523D01*
X147898761Y-135391761D01*
X147803523Y-135439380D01*
X147708285Y-135439380D01*
X147374952Y-135439380D02*
X147374952Y-134772714D01*
X147374952Y-134439380D02*
X147422571Y-134487000D01*
X147374952Y-134534619D01*
X147327333Y-134487000D01*
X147374952Y-134439380D01*
X147374952Y-134534619D01*
X146755904Y-135439380D02*
X146851142Y-135391761D01*
X146898761Y-135344142D01*
X146946380Y-135248904D01*
X146946380Y-134963190D01*
X146898761Y-134867952D01*
X146851142Y-134820333D01*
X146755904Y-134772714D01*
X146613047Y-134772714D01*
X146517809Y-134820333D01*
X146470190Y-134867952D01*
X146422571Y-134963190D01*
X146422571Y-135248904D01*
X146470190Y-135344142D01*
X146517809Y-135391761D01*
X146613047Y-135439380D01*
X146755904Y-135439380D01*
X145994000Y-134772714D02*
X145994000Y-135439380D01*
X145994000Y-134867952D02*
X145946380Y-134820333D01*
X145851142Y-134772714D01*
X145708285Y-134772714D01*
X145613047Y-134820333D01*
X145565428Y-134915571D01*
X145565428Y-135439380D01*
X143898761Y-134772714D02*
X143898761Y-135439380D01*
X144136857Y-134391761D02*
X144374952Y-135106047D01*
X143755904Y-135106047D01*
X143374952Y-135344142D02*
X143327333Y-135391761D01*
X143374952Y-135439380D01*
X143422571Y-135391761D01*
X143374952Y-135344142D01*
X143374952Y-135439380D01*
X142708285Y-134439380D02*
X142613047Y-134439380D01*
X142517809Y-134487000D01*
X142470190Y-134534619D01*
X142422571Y-134629857D01*
X142374952Y-134820333D01*
X142374952Y-135058428D01*
X142422571Y-135248904D01*
X142470190Y-135344142D01*
X142517809Y-135391761D01*
X142613047Y-135439380D01*
X142708285Y-135439380D01*
X142803523Y-135391761D01*
X142851142Y-135344142D01*
X142898761Y-135248904D01*
X142946380Y-135058428D01*
X142946380Y-134820333D01*
X142898761Y-134629857D01*
X142851142Y-134534619D01*
X142803523Y-134487000D01*
X142708285Y-134439380D01*
X141184476Y-135439380D02*
X141184476Y-134439380D01*
X140708285Y-134772714D02*
X140708285Y-135439380D01*
X140708285Y-134867952D02*
X140660666Y-134820333D01*
X140565428Y-134772714D01*
X140422571Y-134772714D01*
X140327333Y-134820333D01*
X140279714Y-134915571D01*
X140279714Y-135439380D01*
X139946380Y-134772714D02*
X139565428Y-134772714D01*
X139803523Y-134439380D02*
X139803523Y-135296523D01*
X139755904Y-135391761D01*
X139660666Y-135439380D01*
X139565428Y-135439380D01*
X138851142Y-135391761D02*
X138946380Y-135439380D01*
X139136857Y-135439380D01*
X139232095Y-135391761D01*
X139279714Y-135296523D01*
X139279714Y-134915571D01*
X139232095Y-134820333D01*
X139136857Y-134772714D01*
X138946380Y-134772714D01*
X138851142Y-134820333D01*
X138803523Y-134915571D01*
X138803523Y-135010809D01*
X139279714Y-135106047D01*
X138374952Y-135439380D02*
X138374952Y-134772714D01*
X138374952Y-134963190D02*
X138327333Y-134867952D01*
X138279714Y-134820333D01*
X138184476Y-134772714D01*
X138089238Y-134772714D01*
X137755904Y-134772714D02*
X137755904Y-135439380D01*
X137755904Y-134867952D02*
X137708285Y-134820333D01*
X137613047Y-134772714D01*
X137470190Y-134772714D01*
X137374952Y-134820333D01*
X137327333Y-134915571D01*
X137327333Y-135439380D01*
X136422571Y-135439380D02*
X136422571Y-134915571D01*
X136470190Y-134820333D01*
X136565428Y-134772714D01*
X136755904Y-134772714D01*
X136851142Y-134820333D01*
X136422571Y-135391761D02*
X136517809Y-135439380D01*
X136755904Y-135439380D01*
X136851142Y-135391761D01*
X136898761Y-135296523D01*
X136898761Y-135201285D01*
X136851142Y-135106047D01*
X136755904Y-135058428D01*
X136517809Y-135058428D01*
X136422571Y-135010809D01*
X136089238Y-134772714D02*
X135708285Y-134772714D01*
X135946380Y-134439380D02*
X135946380Y-135296523D01*
X135898761Y-135391761D01*
X135803523Y-135439380D01*
X135708285Y-135439380D01*
X135374952Y-135439380D02*
X135374952Y-134772714D01*
X135374952Y-134439380D02*
X135422571Y-134487000D01*
X135374952Y-134534619D01*
X135327333Y-134487000D01*
X135374952Y-134439380D01*
X135374952Y-134534619D01*
X134755904Y-135439380D02*
X134851142Y-135391761D01*
X134898761Y-135344142D01*
X134946380Y-135248904D01*
X134946380Y-134963190D01*
X134898761Y-134867952D01*
X134851142Y-134820333D01*
X134755904Y-134772714D01*
X134613047Y-134772714D01*
X134517809Y-134820333D01*
X134470190Y-134867952D01*
X134422571Y-134963190D01*
X134422571Y-135248904D01*
X134470190Y-135344142D01*
X134517809Y-135391761D01*
X134613047Y-135439380D01*
X134755904Y-135439380D01*
X133994000Y-134772714D02*
X133994000Y-135439380D01*
X133994000Y-134867952D02*
X133946380Y-134820333D01*
X133851142Y-134772714D01*
X133708285Y-134772714D01*
X133613047Y-134820333D01*
X133565428Y-134915571D01*
X133565428Y-135439380D01*
X132660666Y-135439380D02*
X132660666Y-134915571D01*
X132708285Y-134820333D01*
X132803523Y-134772714D01*
X132994000Y-134772714D01*
X133089238Y-134820333D01*
X132660666Y-135391761D02*
X132755904Y-135439380D01*
X132994000Y-135439380D01*
X133089238Y-135391761D01*
X133136857Y-135296523D01*
X133136857Y-135201285D01*
X133089238Y-135106047D01*
X132994000Y-135058428D01*
X132755904Y-135058428D01*
X132660666Y-135010809D01*
X132041619Y-135439380D02*
X132136857Y-135391761D01*
X132184476Y-135296523D01*
X132184476Y-134439380D01*
X183226480Y-134497771D02*
X182893147Y-134497771D01*
X182750290Y-135021580D02*
X183226480Y-135021580D01*
X183226480Y-134021580D01*
X182750290Y-134021580D01*
X181988385Y-134497771D02*
X182321719Y-134497771D01*
X182321719Y-135021580D02*
X182321719Y-134021580D01*
X181845528Y-134021580D01*
X180893147Y-135021580D02*
X181226480Y-134545390D01*
X181464576Y-135021580D02*
X181464576Y-134021580D01*
X181083623Y-134021580D01*
X180988385Y-134069200D01*
X180940766Y-134116819D01*
X180893147Y-134212057D01*
X180893147Y-134354914D01*
X180940766Y-134450152D01*
X180988385Y-134497771D01*
X181083623Y-134545390D01*
X181464576Y-134545390D01*
X180559814Y-134021580D02*
X179940766Y-134021580D01*
X180274100Y-134402533D01*
X180131242Y-134402533D01*
X180036004Y-134450152D01*
X179988385Y-134497771D01*
X179940766Y-134593009D01*
X179940766Y-134831104D01*
X179988385Y-134926342D01*
X180036004Y-134973961D01*
X180131242Y-135021580D01*
X180416957Y-135021580D01*
X180512195Y-134973961D01*
X180559814Y-134926342D01*
X179559814Y-134116819D02*
X179512195Y-134069200D01*
X179416957Y-134021580D01*
X179178861Y-134021580D01*
X179083623Y-134069200D01*
X179036004Y-134116819D01*
X178988385Y-134212057D01*
X178988385Y-134307295D01*
X179036004Y-134450152D01*
X179607433Y-135021580D01*
X178988385Y-135021580D01*
X178559814Y-135021580D02*
X178559814Y-134021580D01*
X178226480Y-134735866D01*
X177893147Y-134021580D01*
X177893147Y-135021580D01*
X176893147Y-134069200D02*
X176988385Y-134021580D01*
X177131242Y-134021580D01*
X177274100Y-134069200D01*
X177369338Y-134164438D01*
X177416957Y-134259676D01*
X177464576Y-134450152D01*
X177464576Y-134593009D01*
X177416957Y-134783485D01*
X177369338Y-134878723D01*
X177274100Y-134973961D01*
X177131242Y-135021580D01*
X177036004Y-135021580D01*
X176893147Y-134973961D01*
X176845528Y-134926342D01*
X176845528Y-134593009D01*
X177036004Y-134593009D01*
X175893147Y-135021580D02*
X176464576Y-135021580D01*
X176178861Y-135021580D02*
X176178861Y-134021580D01*
X176274100Y-134164438D01*
X176369338Y-134259676D01*
X176464576Y-134307295D01*
X175464576Y-135021580D02*
X175464576Y-134021580D01*
X175083623Y-134021580D01*
X174988385Y-134069200D01*
X174940766Y-134116819D01*
X174893147Y-134212057D01*
X174893147Y-134354914D01*
X174940766Y-134450152D01*
X174988385Y-134497771D01*
X175083623Y-134545390D01*
X175464576Y-134545390D01*
X173940766Y-135021580D02*
X174512195Y-135021580D01*
X174226480Y-135021580D02*
X174226480Y-134021580D01*
X174321719Y-134164438D01*
X174416957Y-134259676D01*
X174512195Y-134307295D01*
X173607433Y-134021580D02*
X172988385Y-134021580D01*
X173321719Y-134402533D01*
X173178861Y-134402533D01*
X173083623Y-134450152D01*
X173036004Y-134497771D01*
X172988385Y-134593009D01*
X172988385Y-134831104D01*
X173036004Y-134926342D01*
X173083623Y-134973961D01*
X173178861Y-135021580D01*
X173464576Y-135021580D01*
X173559814Y-134973961D01*
X173607433Y-134926342D01*
X172607433Y-134116819D02*
X172559814Y-134069200D01*
X172464576Y-134021580D01*
X172226480Y-134021580D01*
X172131242Y-134069200D01*
X172083623Y-134116819D01*
X172036004Y-134212057D01*
X172036004Y-134307295D01*
X172083623Y-134450152D01*
X172655052Y-135021580D01*
X172036004Y-135021580D01*
X171274100Y-134497771D02*
X171607433Y-134497771D01*
X171607433Y-135021580D02*
X171607433Y-134021580D01*
X171131242Y-134021580D01*
X170797909Y-134116819D02*
X170750290Y-134069200D01*
X170655052Y-134021580D01*
X170416957Y-134021580D01*
X170321719Y-134069200D01*
X170274100Y-134116819D01*
X170226480Y-134212057D01*
X170226480Y-134307295D01*
X170274100Y-134450152D01*
X170845528Y-135021580D01*
X170226480Y-135021580D01*
X169321719Y-134021580D02*
X169797909Y-134021580D01*
X169845528Y-134497771D01*
X169797909Y-134450152D01*
X169702671Y-134402533D01*
X169464576Y-134402533D01*
X169369338Y-134450152D01*
X169321719Y-134497771D01*
X169274100Y-134593009D01*
X169274100Y-134831104D01*
X169321719Y-134926342D01*
X169369338Y-134973961D01*
X169464576Y-135021580D01*
X169702671Y-135021580D01*
X169797909Y-134973961D01*
X169845528Y-134926342D01*
X168416957Y-134021580D02*
X168607433Y-134021580D01*
X168702671Y-134069200D01*
X168750290Y-134116819D01*
X168845528Y-134259676D01*
X168893147Y-134450152D01*
X168893147Y-134831104D01*
X168845528Y-134926342D01*
X168797909Y-134973961D01*
X168702671Y-135021580D01*
X168512195Y-135021580D01*
X168416957Y-134973961D01*
X168369338Y-134926342D01*
X168321719Y-134831104D01*
X168321719Y-134593009D01*
X168369338Y-134497771D01*
X168416957Y-134450152D01*
X168512195Y-134402533D01*
X168702671Y-134402533D01*
X168797909Y-134450152D01*
X168845528Y-134497771D01*
X168893147Y-134593009D01*
X167369338Y-134069200D02*
X167464576Y-134021580D01*
X167607433Y-134021580D01*
X167750290Y-134069200D01*
X167845528Y-134164438D01*
X167893147Y-134259676D01*
X167940766Y-134450152D01*
X167940766Y-134593009D01*
X167893147Y-134783485D01*
X167845528Y-134878723D01*
X167750290Y-134973961D01*
X167607433Y-135021580D01*
X167512195Y-135021580D01*
X167369338Y-134973961D01*
X167321719Y-134926342D01*
X167321719Y-134593009D01*
X167512195Y-134593009D01*
X166893147Y-135021580D02*
X166893147Y-134021580D01*
X166559814Y-134735866D01*
X166226480Y-134021580D01*
X166226480Y-135021580D01*
X165845528Y-134021580D02*
X165226480Y-134021580D01*
X165559814Y-134402533D01*
X165416957Y-134402533D01*
X165321719Y-134450152D01*
X165274100Y-134497771D01*
X165226480Y-134593009D01*
X165226480Y-134831104D01*
X165274100Y-134926342D01*
X165321719Y-134973961D01*
X165416957Y-135021580D01*
X165702671Y-135021580D01*
X165797909Y-134973961D01*
X165845528Y-134926342D01*
X164845528Y-134116819D02*
X164797909Y-134069200D01*
X164702671Y-134021580D01*
X164464576Y-134021580D01*
X164369338Y-134069200D01*
X164321719Y-134116819D01*
X164274100Y-134212057D01*
X164274100Y-134307295D01*
X164321719Y-134450152D01*
X164893147Y-135021580D01*
X164274100Y-135021580D01*
X152723003Y-126988380D02*
X152151575Y-126988380D01*
X152437289Y-127988380D02*
X152437289Y-126988380D01*
X151818241Y-127988380D02*
X151818241Y-126988380D01*
X151389670Y-127988380D02*
X151389670Y-127464571D01*
X151437289Y-127369333D01*
X151532527Y-127321714D01*
X151675384Y-127321714D01*
X151770622Y-127369333D01*
X151818241Y-127416952D01*
X150913480Y-127988380D02*
X150913480Y-127321714D01*
X150913480Y-126988380D02*
X150961099Y-127036000D01*
X150913480Y-127083619D01*
X150865860Y-127036000D01*
X150913480Y-126988380D01*
X150913480Y-127083619D01*
X150484908Y-127940761D02*
X150389670Y-127988380D01*
X150199194Y-127988380D01*
X150103956Y-127940761D01*
X150056337Y-127845523D01*
X150056337Y-127797904D01*
X150103956Y-127702666D01*
X150199194Y-127655047D01*
X150342051Y-127655047D01*
X150437289Y-127607428D01*
X150484908Y-127512190D01*
X150484908Y-127464571D01*
X150437289Y-127369333D01*
X150342051Y-127321714D01*
X150199194Y-127321714D01*
X150103956Y-127369333D01*
X148437289Y-127988380D02*
X148437289Y-126988380D01*
X148437289Y-127940761D02*
X148532527Y-127988380D01*
X148723003Y-127988380D01*
X148818241Y-127940761D01*
X148865860Y-127893142D01*
X148913480Y-127797904D01*
X148913480Y-127512190D01*
X148865860Y-127416952D01*
X148818241Y-127369333D01*
X148723003Y-127321714D01*
X148532527Y-127321714D01*
X148437289Y-127369333D01*
X147580146Y-127940761D02*
X147675384Y-127988380D01*
X147865860Y-127988380D01*
X147961099Y-127940761D01*
X148008718Y-127845523D01*
X148008718Y-127464571D01*
X147961099Y-127369333D01*
X147865860Y-127321714D01*
X147675384Y-127321714D01*
X147580146Y-127369333D01*
X147532527Y-127464571D01*
X147532527Y-127559809D01*
X148008718Y-127655047D01*
X147151575Y-127940761D02*
X147056337Y-127988380D01*
X146865860Y-127988380D01*
X146770622Y-127940761D01*
X146723003Y-127845523D01*
X146723003Y-127797904D01*
X146770622Y-127702666D01*
X146865860Y-127655047D01*
X147008718Y-127655047D01*
X147103956Y-127607428D01*
X147151575Y-127512190D01*
X147151575Y-127464571D01*
X147103956Y-127369333D01*
X147008718Y-127321714D01*
X146865860Y-127321714D01*
X146770622Y-127369333D01*
X146294432Y-127988380D02*
X146294432Y-127321714D01*
X146294432Y-126988380D02*
X146342051Y-127036000D01*
X146294432Y-127083619D01*
X146246813Y-127036000D01*
X146294432Y-126988380D01*
X146294432Y-127083619D01*
X145389670Y-127321714D02*
X145389670Y-128131238D01*
X145437289Y-128226476D01*
X145484908Y-128274095D01*
X145580146Y-128321714D01*
X145723003Y-128321714D01*
X145818241Y-128274095D01*
X145389670Y-127940761D02*
X145484908Y-127988380D01*
X145675384Y-127988380D01*
X145770622Y-127940761D01*
X145818241Y-127893142D01*
X145865860Y-127797904D01*
X145865860Y-127512190D01*
X145818241Y-127416952D01*
X145770622Y-127369333D01*
X145675384Y-127321714D01*
X145484908Y-127321714D01*
X145389670Y-127369333D01*
X144913480Y-127321714D02*
X144913480Y-127988380D01*
X144913480Y-127416952D02*
X144865860Y-127369333D01*
X144770622Y-127321714D01*
X144627765Y-127321714D01*
X144532527Y-127369333D01*
X144484908Y-127464571D01*
X144484908Y-127988380D01*
X143246813Y-127988380D02*
X143246813Y-127321714D01*
X143246813Y-126988380D02*
X143294432Y-127036000D01*
X143246813Y-127083619D01*
X143199194Y-127036000D01*
X143246813Y-126988380D01*
X143246813Y-127083619D01*
X142818241Y-127940761D02*
X142723003Y-127988380D01*
X142532527Y-127988380D01*
X142437289Y-127940761D01*
X142389670Y-127845523D01*
X142389670Y-127797904D01*
X142437289Y-127702666D01*
X142532527Y-127655047D01*
X142675384Y-127655047D01*
X142770622Y-127607428D01*
X142818241Y-127512190D01*
X142818241Y-127464571D01*
X142770622Y-127369333D01*
X142675384Y-127321714D01*
X142532527Y-127321714D01*
X142437289Y-127369333D01*
X141199194Y-127988380D02*
X141199194Y-126988380D01*
X141199194Y-127369333D02*
X141103956Y-127321714D01*
X140913480Y-127321714D01*
X140818241Y-127369333D01*
X140770622Y-127416952D01*
X140723003Y-127512190D01*
X140723003Y-127797904D01*
X140770622Y-127893142D01*
X140818241Y-127940761D01*
X140913480Y-127988380D01*
X141103956Y-127988380D01*
X141199194Y-127940761D01*
X139865860Y-127988380D02*
X139865860Y-127464571D01*
X139913480Y-127369333D01*
X140008718Y-127321714D01*
X140199194Y-127321714D01*
X140294432Y-127369333D01*
X139865860Y-127940761D02*
X139961099Y-127988380D01*
X140199194Y-127988380D01*
X140294432Y-127940761D01*
X140342051Y-127845523D01*
X140342051Y-127750285D01*
X140294432Y-127655047D01*
X140199194Y-127607428D01*
X139961099Y-127607428D01*
X139865860Y-127559809D01*
X139437289Y-127940761D02*
X139342051Y-127988380D01*
X139151575Y-127988380D01*
X139056337Y-127940761D01*
X139008718Y-127845523D01*
X139008718Y-127797904D01*
X139056337Y-127702666D01*
X139151575Y-127655047D01*
X139294432Y-127655047D01*
X139389670Y-127607428D01*
X139437289Y-127512190D01*
X139437289Y-127464571D01*
X139389670Y-127369333D01*
X139294432Y-127321714D01*
X139151575Y-127321714D01*
X139056337Y-127369333D01*
X138199194Y-127940761D02*
X138294432Y-127988380D01*
X138484908Y-127988380D01*
X138580146Y-127940761D01*
X138627765Y-127845523D01*
X138627765Y-127464571D01*
X138580146Y-127369333D01*
X138484908Y-127321714D01*
X138294432Y-127321714D01*
X138199194Y-127369333D01*
X138151575Y-127464571D01*
X138151575Y-127559809D01*
X138627765Y-127655047D01*
X137294432Y-127988380D02*
X137294432Y-126988380D01*
X137294432Y-127940761D02*
X137389670Y-127988380D01*
X137580146Y-127988380D01*
X137675384Y-127940761D01*
X137723003Y-127893142D01*
X137770622Y-127797904D01*
X137770622Y-127512190D01*
X137723003Y-127416952D01*
X137675384Y-127369333D01*
X137580146Y-127321714D01*
X137389670Y-127321714D01*
X137294432Y-127369333D01*
X135913480Y-127988380D02*
X136008718Y-127940761D01*
X136056337Y-127893142D01*
X136103956Y-127797904D01*
X136103956Y-127512190D01*
X136056337Y-127416952D01*
X136008718Y-127369333D01*
X135913480Y-127321714D01*
X135770622Y-127321714D01*
X135675384Y-127369333D01*
X135627765Y-127416952D01*
X135580146Y-127512190D01*
X135580146Y-127797904D01*
X135627765Y-127893142D01*
X135675384Y-127940761D01*
X135770622Y-127988380D01*
X135913480Y-127988380D01*
X135151575Y-127321714D02*
X135151575Y-127988380D01*
X135151575Y-127416952D02*
X135103956Y-127369333D01*
X135008718Y-127321714D01*
X134865860Y-127321714D01*
X134770622Y-127369333D01*
X134723003Y-127464571D01*
X134723003Y-127988380D01*
X134246813Y-127893142D02*
X134199194Y-127940761D01*
X134246813Y-127988380D01*
X134294432Y-127940761D01*
X134246813Y-127893142D01*
X134246813Y-127988380D01*
X134246813Y-127369333D02*
X134199194Y-127416952D01*
X134246813Y-127464571D01*
X134294432Y-127416952D01*
X134246813Y-127369333D01*
X134246813Y-127464571D01*
X154008718Y-129738380D02*
X154008718Y-128738380D01*
X153580146Y-129738380D02*
X153580146Y-129214571D01*
X153627765Y-129119333D01*
X153723003Y-129071714D01*
X153865860Y-129071714D01*
X153961099Y-129119333D01*
X154008718Y-129166952D01*
X153246813Y-129071714D02*
X152865860Y-129071714D01*
X153103956Y-128738380D02*
X153103956Y-129595523D01*
X153056337Y-129690761D01*
X152961099Y-129738380D01*
X152865860Y-129738380D01*
X152675384Y-129071714D02*
X152294432Y-129071714D01*
X152532527Y-128738380D02*
X152532527Y-129595523D01*
X152484908Y-129690761D01*
X152389670Y-129738380D01*
X152294432Y-129738380D01*
X151961099Y-129071714D02*
X151961099Y-130071714D01*
X151961099Y-129119333D02*
X151865860Y-129071714D01*
X151675384Y-129071714D01*
X151580146Y-129119333D01*
X151532527Y-129166952D01*
X151484908Y-129262190D01*
X151484908Y-129547904D01*
X151532527Y-129643142D01*
X151580146Y-129690761D01*
X151675384Y-129738380D01*
X151865860Y-129738380D01*
X151961099Y-129690761D01*
X151103956Y-129690761D02*
X151008718Y-129738380D01*
X150818241Y-129738380D01*
X150723003Y-129690761D01*
X150675384Y-129595523D01*
X150675384Y-129547904D01*
X150723003Y-129452666D01*
X150818241Y-129405047D01*
X150961099Y-129405047D01*
X151056337Y-129357428D01*
X151103956Y-129262190D01*
X151103956Y-129214571D01*
X151056337Y-129119333D01*
X150961099Y-129071714D01*
X150818241Y-129071714D01*
X150723003Y-129119333D01*
X150246813Y-129643142D02*
X150199194Y-129690761D01*
X150246813Y-129738380D01*
X150294432Y-129690761D01*
X150246813Y-129643142D01*
X150246813Y-129738380D01*
X150246813Y-129119333D02*
X150199194Y-129166952D01*
X150246813Y-129214571D01*
X150294432Y-129166952D01*
X150246813Y-129119333D01*
X150246813Y-129214571D01*
X149056337Y-128690761D02*
X149913480Y-129976476D01*
X148008718Y-128690761D02*
X148865860Y-129976476D01*
X147246813Y-129071714D02*
X147246813Y-129881238D01*
X147294432Y-129976476D01*
X147342051Y-130024095D01*
X147437289Y-130071714D01*
X147580146Y-130071714D01*
X147675384Y-130024095D01*
X147246813Y-129690761D02*
X147342051Y-129738380D01*
X147532527Y-129738380D01*
X147627765Y-129690761D01*
X147675384Y-129643142D01*
X147723003Y-129547904D01*
X147723003Y-129262190D01*
X147675384Y-129166952D01*
X147627765Y-129119333D01*
X147532527Y-129071714D01*
X147342051Y-129071714D01*
X147246813Y-129119333D01*
X146770622Y-129738380D02*
X146770622Y-129071714D01*
X146770622Y-128738380D02*
X146818241Y-128786000D01*
X146770622Y-128833619D01*
X146723003Y-128786000D01*
X146770622Y-128738380D01*
X146770622Y-128833619D01*
X146437289Y-129071714D02*
X146056337Y-129071714D01*
X146294432Y-128738380D02*
X146294432Y-129595523D01*
X146246813Y-129690761D01*
X146151575Y-129738380D01*
X146056337Y-129738380D01*
X145723003Y-129738380D02*
X145723003Y-128738380D01*
X145294432Y-129738380D02*
X145294432Y-129214571D01*
X145342051Y-129119333D01*
X145437289Y-129071714D01*
X145580146Y-129071714D01*
X145675384Y-129119333D01*
X145723003Y-129166952D01*
X144389670Y-129071714D02*
X144389670Y-129738380D01*
X144818241Y-129071714D02*
X144818241Y-129595523D01*
X144770622Y-129690761D01*
X144675384Y-129738380D01*
X144532527Y-129738380D01*
X144437289Y-129690761D01*
X144389670Y-129643142D01*
X143913480Y-129738380D02*
X143913480Y-128738380D01*
X143913480Y-129119333D02*
X143818241Y-129071714D01*
X143627765Y-129071714D01*
X143532527Y-129119333D01*
X143484908Y-129166952D01*
X143437289Y-129262190D01*
X143437289Y-129547904D01*
X143484908Y-129643142D01*
X143532527Y-129690761D01*
X143627765Y-129738380D01*
X143818241Y-129738380D01*
X143913480Y-129690761D01*
X143008718Y-129643142D02*
X142961099Y-129690761D01*
X143008718Y-129738380D01*
X143056337Y-129690761D01*
X143008718Y-129643142D01*
X143008718Y-129738380D01*
X142103956Y-129690761D02*
X142199194Y-129738380D01*
X142389670Y-129738380D01*
X142484908Y-129690761D01*
X142532527Y-129643142D01*
X142580146Y-129547904D01*
X142580146Y-129262190D01*
X142532527Y-129166952D01*
X142484908Y-129119333D01*
X142389670Y-129071714D01*
X142199194Y-129071714D01*
X142103956Y-129119333D01*
X141532527Y-129738380D02*
X141627765Y-129690761D01*
X141675384Y-129643142D01*
X141723003Y-129547904D01*
X141723003Y-129262190D01*
X141675384Y-129166952D01*
X141627765Y-129119333D01*
X141532527Y-129071714D01*
X141389670Y-129071714D01*
X141294432Y-129119333D01*
X141246813Y-129166952D01*
X141199194Y-129262190D01*
X141199194Y-129547904D01*
X141246813Y-129643142D01*
X141294432Y-129690761D01*
X141389670Y-129738380D01*
X141532527Y-129738380D01*
X140770622Y-129738380D02*
X140770622Y-129071714D01*
X140770622Y-129166952D02*
X140723003Y-129119333D01*
X140627765Y-129071714D01*
X140484908Y-129071714D01*
X140389670Y-129119333D01*
X140342051Y-129214571D01*
X140342051Y-129738380D01*
X140342051Y-129214571D02*
X140294432Y-129119333D01*
X140199194Y-129071714D01*
X140056337Y-129071714D01*
X139961099Y-129119333D01*
X139913480Y-129214571D01*
X139913480Y-129738380D01*
X138723003Y-128690761D02*
X139580146Y-129976476D01*
X138389670Y-129738380D02*
X138389670Y-128738380D01*
X138389670Y-129119333D02*
X138294432Y-129071714D01*
X138103956Y-129071714D01*
X138008718Y-129119333D01*
X137961099Y-129166952D01*
X137913480Y-129262190D01*
X137913480Y-129547904D01*
X137961099Y-129643142D01*
X138008718Y-129690761D01*
X138103956Y-129738380D01*
X138294432Y-129738380D01*
X138389670Y-129690761D01*
X137056337Y-129738380D02*
X137056337Y-129214571D01*
X137103956Y-129119333D01*
X137199194Y-129071714D01*
X137389670Y-129071714D01*
X137484908Y-129119333D01*
X137056337Y-129690761D02*
X137151575Y-129738380D01*
X137389670Y-129738380D01*
X137484908Y-129690761D01*
X137532527Y-129595523D01*
X137532527Y-129500285D01*
X137484908Y-129405047D01*
X137389670Y-129357428D01*
X137151575Y-129357428D01*
X137056337Y-129309809D01*
X136627765Y-129690761D02*
X136532527Y-129738380D01*
X136342051Y-129738380D01*
X136246813Y-129690761D01*
X136199194Y-129595523D01*
X136199194Y-129547904D01*
X136246813Y-129452666D01*
X136342051Y-129405047D01*
X136484908Y-129405047D01*
X136580146Y-129357428D01*
X136627765Y-129262190D01*
X136627765Y-129214571D01*
X136580146Y-129119333D01*
X136484908Y-129071714D01*
X136342051Y-129071714D01*
X136246813Y-129119333D01*
X135770622Y-129738380D02*
X135770622Y-129071714D01*
X135770622Y-128738380D02*
X135818241Y-128786000D01*
X135770622Y-128833619D01*
X135723003Y-128786000D01*
X135770622Y-128738380D01*
X135770622Y-128833619D01*
X135151575Y-129738380D02*
X135246813Y-129690761D01*
X135294432Y-129595523D01*
X135294432Y-128738380D01*
X134913480Y-129071714D02*
X134532527Y-129071714D01*
X134770622Y-129738380D02*
X134770622Y-128881238D01*
X134723003Y-128786000D01*
X134627765Y-128738380D01*
X134532527Y-128738380D01*
X134294432Y-129738380D02*
X133770622Y-129071714D01*
X134294432Y-129071714D02*
X133770622Y-129738380D01*
X132675384Y-128690761D02*
X133532527Y-129976476D01*
X149865860Y-130488380D02*
X149294432Y-130488380D01*
X149580146Y-131488380D02*
X149580146Y-130488380D01*
X148389670Y-131488380D02*
X148723003Y-131012190D01*
X148961099Y-131488380D02*
X148961099Y-130488380D01*
X148580146Y-130488380D01*
X148484908Y-130536000D01*
X148437289Y-130583619D01*
X148389670Y-130678857D01*
X148389670Y-130821714D01*
X148437289Y-130916952D01*
X148484908Y-130964571D01*
X148580146Y-131012190D01*
X148961099Y-131012190D01*
X148008718Y-131202666D02*
X147532527Y-131202666D01*
X148103956Y-131488380D02*
X147770622Y-130488380D01*
X147437289Y-131488380D01*
X147103956Y-131488380D02*
X147103956Y-130488380D01*
X146865860Y-130488380D01*
X146723003Y-130536000D01*
X146627765Y-130631238D01*
X146580146Y-130726476D01*
X146532527Y-130916952D01*
X146532527Y-131059809D01*
X146580146Y-131250285D01*
X146627765Y-131345523D01*
X146723003Y-131440761D01*
X146865860Y-131488380D01*
X147103956Y-131488380D01*
X145770622Y-130964571D02*
X146103956Y-130964571D01*
X146103956Y-131488380D02*
X146103956Y-130488380D01*
X145627765Y-130488380D01*
X144675384Y-131488380D02*
X145008718Y-131012190D01*
X145246813Y-131488380D02*
X145246813Y-130488380D01*
X144865860Y-130488380D01*
X144770622Y-130536000D01*
X144723003Y-130583619D01*
X144675384Y-130678857D01*
X144675384Y-130821714D01*
X144723003Y-130916952D01*
X144770622Y-130964571D01*
X144865860Y-131012190D01*
X145246813Y-131012190D01*
X144246813Y-131488380D02*
X144246813Y-130488380D01*
X143770622Y-131107428D02*
X143008718Y-131107428D01*
X142532527Y-131488380D02*
X142532527Y-130488380D01*
X142532527Y-130964571D02*
X141961099Y-130964571D01*
X141961099Y-131488380D02*
X141961099Y-130488380D01*
X141056337Y-131488380D02*
X141056337Y-130964571D01*
X141103956Y-130869333D01*
X141199194Y-130821714D01*
X141389670Y-130821714D01*
X141484908Y-130869333D01*
X141056337Y-131440761D02*
X141151575Y-131488380D01*
X141389670Y-131488380D01*
X141484908Y-131440761D01*
X141532527Y-131345523D01*
X141532527Y-131250285D01*
X141484908Y-131155047D01*
X141389670Y-131107428D01*
X141151575Y-131107428D01*
X141056337Y-131059809D01*
X140151575Y-131440761D02*
X140246813Y-131488380D01*
X140437289Y-131488380D01*
X140532527Y-131440761D01*
X140580146Y-131393142D01*
X140627765Y-131297904D01*
X140627765Y-131012190D01*
X140580146Y-130916952D01*
X140532527Y-130869333D01*
X140437289Y-130821714D01*
X140246813Y-130821714D01*
X140151575Y-130869333D01*
X139723003Y-131488380D02*
X139723003Y-130488380D01*
X139627765Y-131107428D02*
X139342051Y-131488380D01*
X139342051Y-130821714D02*
X139723003Y-131202666D01*
X138913480Y-131488380D02*
X138913480Y-130821714D01*
X138913480Y-130488380D02*
X138961099Y-130536000D01*
X138913480Y-130583619D01*
X138865860Y-130536000D01*
X138913480Y-130488380D01*
X138913480Y-130583619D01*
X138437289Y-130821714D02*
X138437289Y-131488380D01*
X138437289Y-130916952D02*
X138389670Y-130869333D01*
X138294432Y-130821714D01*
X138151575Y-130821714D01*
X138056337Y-130869333D01*
X138008718Y-130964571D01*
X138008718Y-131488380D01*
X137103956Y-130821714D02*
X137103956Y-131631238D01*
X137151575Y-131726476D01*
X137199194Y-131774095D01*
X137294432Y-131821714D01*
X137437289Y-131821714D01*
X137532527Y-131774095D01*
X137103956Y-131440761D02*
X137199194Y-131488380D01*
X137389670Y-131488380D01*
X137484908Y-131440761D01*
X137532527Y-131393142D01*
X137580146Y-131297904D01*
X137580146Y-131012190D01*
X137532527Y-130916952D01*
X137484908Y-130869333D01*
X137389670Y-130821714D01*
X137199194Y-130821714D01*
X137103956Y-130869333D01*
D11*
G36*
X160078522Y-103949966D02*
G01*
X160047524Y-104000338D01*
X159999766Y-104080141D01*
X159937206Y-104185980D01*
X159861803Y-104314459D01*
X159775515Y-104462184D01*
X159680299Y-104625758D01*
X159578115Y-104801787D01*
X159470919Y-104986875D01*
X159360671Y-105177627D01*
X159249329Y-105370647D01*
X159138850Y-105562541D01*
X159031193Y-105749911D01*
X158928316Y-105929365D01*
X158832177Y-106097505D01*
X158744735Y-106250937D01*
X158667947Y-106386265D01*
X158603772Y-106500094D01*
X158554167Y-106589029D01*
X158521091Y-106649674D01*
X158506503Y-106678633D01*
X158505969Y-106680444D01*
X158524079Y-106705017D01*
X158574420Y-106742607D01*
X158651005Y-106789522D01*
X158747848Y-106842074D01*
X158849233Y-106892013D01*
X158987185Y-106952569D01*
X159132258Y-107006979D01*
X159289450Y-107056451D01*
X159463757Y-107102195D01*
X159660178Y-107145420D01*
X159883711Y-107187334D01*
X160139352Y-107229147D01*
X160403794Y-107268084D01*
X160633548Y-107302628D01*
X160826483Y-107336826D01*
X160987436Y-107372377D01*
X161121245Y-107410982D01*
X161232750Y-107454339D01*
X161326786Y-107504148D01*
X161408194Y-107562109D01*
X161481810Y-107629920D01*
X161505549Y-107655112D01*
X161557003Y-107713758D01*
X161595066Y-107761615D01*
X161612723Y-107789758D01*
X161613194Y-107792065D01*
X161619372Y-107806216D01*
X161640810Y-107806375D01*
X161681867Y-107790661D01*
X161746899Y-107757191D01*
X161840263Y-107704081D01*
X161905148Y-107665888D01*
X162001899Y-107606185D01*
X162077088Y-107555063D01*
X162125661Y-107516199D01*
X162142565Y-107493272D01*
X162142555Y-107493105D01*
X162132072Y-107471256D01*
X162102469Y-107416539D01*
X162055462Y-107331936D01*
X161992771Y-107220429D01*
X161916114Y-107085001D01*
X161827209Y-106928633D01*
X161727774Y-106754307D01*
X161619528Y-106565006D01*
X161504189Y-106363711D01*
X161383476Y-106153405D01*
X161259106Y-105937071D01*
X161132799Y-105717689D01*
X161006273Y-105498242D01*
X160881245Y-105281712D01*
X160759435Y-105071081D01*
X160642561Y-104869332D01*
X160532340Y-104679447D01*
X160430492Y-104504406D01*
X160338735Y-104347194D01*
X160258787Y-104210791D01*
X160192366Y-104098180D01*
X160141191Y-104012343D01*
X160106980Y-103956262D01*
X160091452Y-103932919D01*
X160090802Y-103932421D01*
X160078522Y-103949966D01*
G37*
X160078522Y-103949966D02*
X160047524Y-104000338D01*
X159999766Y-104080141D01*
X159937206Y-104185980D01*
X159861803Y-104314459D01*
X159775515Y-104462184D01*
X159680299Y-104625758D01*
X159578115Y-104801787D01*
X159470919Y-104986875D01*
X159360671Y-105177627D01*
X159249329Y-105370647D01*
X159138850Y-105562541D01*
X159031193Y-105749911D01*
X158928316Y-105929365D01*
X158832177Y-106097505D01*
X158744735Y-106250937D01*
X158667947Y-106386265D01*
X158603772Y-106500094D01*
X158554167Y-106589029D01*
X158521091Y-106649674D01*
X158506503Y-106678633D01*
X158505969Y-106680444D01*
X158524079Y-106705017D01*
X158574420Y-106742607D01*
X158651005Y-106789522D01*
X158747848Y-106842074D01*
X158849233Y-106892013D01*
X158987185Y-106952569D01*
X159132258Y-107006979D01*
X159289450Y-107056451D01*
X159463757Y-107102195D01*
X159660178Y-107145420D01*
X159883711Y-107187334D01*
X160139352Y-107229147D01*
X160403794Y-107268084D01*
X160633548Y-107302628D01*
X160826483Y-107336826D01*
X160987436Y-107372377D01*
X161121245Y-107410982D01*
X161232750Y-107454339D01*
X161326786Y-107504148D01*
X161408194Y-107562109D01*
X161481810Y-107629920D01*
X161505549Y-107655112D01*
X161557003Y-107713758D01*
X161595066Y-107761615D01*
X161612723Y-107789758D01*
X161613194Y-107792065D01*
X161619372Y-107806216D01*
X161640810Y-107806375D01*
X161681867Y-107790661D01*
X161746899Y-107757191D01*
X161840263Y-107704081D01*
X161905148Y-107665888D01*
X162001899Y-107606185D01*
X162077088Y-107555063D01*
X162125661Y-107516199D01*
X162142565Y-107493272D01*
X162142555Y-107493105D01*
X162132072Y-107471256D01*
X162102469Y-107416539D01*
X162055462Y-107331936D01*
X161992771Y-107220429D01*
X161916114Y-107085001D01*
X161827209Y-106928633D01*
X161727774Y-106754307D01*
X161619528Y-106565006D01*
X161504189Y-106363711D01*
X161383476Y-106153405D01*
X161259106Y-105937071D01*
X161132799Y-105717689D01*
X161006273Y-105498242D01*
X160881245Y-105281712D01*
X160759435Y-105071081D01*
X160642561Y-104869332D01*
X160532340Y-104679447D01*
X160430492Y-104504406D01*
X160338735Y-104347194D01*
X160258787Y-104210791D01*
X160192366Y-104098180D01*
X160141191Y-104012343D01*
X160106980Y-103956262D01*
X160091452Y-103932919D01*
X160090802Y-103932421D01*
X160078522Y-103949966D01*
G36*
X157623254Y-108189708D02*
G01*
X157607931Y-108215390D01*
X157573489Y-108274269D01*
X157521631Y-108363402D01*
X157454060Y-108479849D01*
X157372479Y-108620667D01*
X157278591Y-108782914D01*
X157174101Y-108963649D01*
X157060710Y-109159930D01*
X156940122Y-109368816D01*
X156816087Y-109583817D01*
X156689413Y-109803449D01*
X156567792Y-110014295D01*
X156452988Y-110213299D01*
X156346762Y-110397407D01*
X156250877Y-110563565D01*
X156167098Y-110708717D01*
X156097186Y-110829809D01*
X156042904Y-110923788D01*
X156006015Y-110987597D01*
X155988669Y-111017519D01*
X155960393Y-111068071D01*
X155945018Y-111099714D01*
X155944176Y-111105220D01*
X155962912Y-111094882D01*
X156015014Y-111065207D01*
X156097760Y-111017768D01*
X156208425Y-110954133D01*
X156344286Y-110875874D01*
X156502619Y-110784559D01*
X156680702Y-110681760D01*
X156875810Y-110569047D01*
X157085220Y-110447989D01*
X157306209Y-110320157D01*
X157390287Y-110271502D01*
X157615230Y-110141367D01*
X157829876Y-110017297D01*
X158031468Y-109900877D01*
X158217252Y-109793693D01*
X158384472Y-109697331D01*
X158530373Y-109613378D01*
X158652199Y-109543420D01*
X158747196Y-109489043D01*
X158812608Y-109451834D01*
X158845680Y-109433378D01*
X158849138Y-109431630D01*
X158839061Y-109415805D01*
X158803993Y-109373492D01*
X158747515Y-109308590D01*
X158673207Y-109224996D01*
X158584648Y-109126609D01*
X158485420Y-109017325D01*
X158379102Y-108901044D01*
X158269275Y-108781662D01*
X158159518Y-108663077D01*
X158053412Y-108549188D01*
X157954538Y-108443892D01*
X157866474Y-108351087D01*
X157792801Y-108274670D01*
X157737100Y-108218540D01*
X157717997Y-108200135D01*
X157654692Y-108140672D01*
X157623254Y-108189708D01*
G37*
X157623254Y-108189708D02*
X157607931Y-108215390D01*
X157573489Y-108274269D01*
X157521631Y-108363402D01*
X157454060Y-108479849D01*
X157372479Y-108620667D01*
X157278591Y-108782914D01*
X157174101Y-108963649D01*
X157060710Y-109159930D01*
X156940122Y-109368816D01*
X156816087Y-109583817D01*
X156689413Y-109803449D01*
X156567792Y-110014295D01*
X156452988Y-110213299D01*
X156346762Y-110397407D01*
X156250877Y-110563565D01*
X156167098Y-110708717D01*
X156097186Y-110829809D01*
X156042904Y-110923788D01*
X156006015Y-110987597D01*
X155988669Y-111017519D01*
X155960393Y-111068071D01*
X155945018Y-111099714D01*
X155944176Y-111105220D01*
X155962912Y-111094882D01*
X156015014Y-111065207D01*
X156097760Y-111017768D01*
X156208425Y-110954133D01*
X156344286Y-110875874D01*
X156502619Y-110784559D01*
X156680702Y-110681760D01*
X156875810Y-110569047D01*
X157085220Y-110447989D01*
X157306209Y-110320157D01*
X157390287Y-110271502D01*
X157615230Y-110141367D01*
X157829876Y-110017297D01*
X158031468Y-109900877D01*
X158217252Y-109793693D01*
X158384472Y-109697331D01*
X158530373Y-109613378D01*
X158652199Y-109543420D01*
X158747196Y-109489043D01*
X158812608Y-109451834D01*
X158845680Y-109433378D01*
X158849138Y-109431630D01*
X158839061Y-109415805D01*
X158803993Y-109373492D01*
X158747515Y-109308590D01*
X158673207Y-109224996D01*
X158584648Y-109126609D01*
X158485420Y-109017325D01*
X158379102Y-108901044D01*
X158269275Y-108781662D01*
X158159518Y-108663077D01*
X158053412Y-108549188D01*
X157954538Y-108443892D01*
X157866474Y-108351087D01*
X157792801Y-108274670D01*
X157737100Y-108218540D01*
X157717997Y-108200135D01*
X157654692Y-108140672D01*
X157623254Y-108189708D01*
G36*
X162558651Y-108265836D02*
G01*
X162514856Y-108282772D01*
X162448107Y-108316401D01*
X162352263Y-108369134D01*
X162344801Y-108373325D01*
X162256529Y-108423801D01*
X162182037Y-108468023D01*
X162128640Y-108501531D01*
X162103654Y-108519864D01*
X162102955Y-108520762D01*
X162108991Y-108546214D01*
X162136677Y-108603055D01*
X162184212Y-108688189D01*
X162249789Y-108798517D01*
X162331603Y-108930944D01*
X162427852Y-109082371D01*
X162451806Y-109119507D01*
X162514217Y-109222557D01*
X162559663Y-109311232D01*
X162584154Y-109377514D01*
X162586667Y-109390607D01*
X162585552Y-109448243D01*
X162573057Y-109539665D01*
X162550740Y-109659008D01*
X162520160Y-109800409D01*
X162482872Y-109958003D01*
X162440435Y-110125926D01*
X162394406Y-110298314D01*
X162346343Y-110469301D01*
X162297803Y-110633024D01*
X162250343Y-110783618D01*
X162205522Y-110915220D01*
X162164897Y-111021963D01*
X162136577Y-111085294D01*
X162103217Y-111152757D01*
X162071718Y-111217311D01*
X162070013Y-111220845D01*
X162017902Y-111286050D01*
X161941846Y-111329956D01*
X161853308Y-111350997D01*
X161763752Y-111347607D01*
X161684642Y-111318223D01*
X161640136Y-111279536D01*
X161576044Y-111173436D01*
X161529078Y-111041205D01*
X161503310Y-110896327D01*
X161499659Y-110814194D01*
X161514361Y-110660905D01*
X161557510Y-110533966D01*
X161631428Y-110427218D01*
X161654479Y-110403457D01*
X161723075Y-110336809D01*
X161727786Y-109865716D01*
X161732497Y-109394622D01*
X161612454Y-109212906D01*
X161556123Y-109130656D01*
X161501872Y-109056665D01*
X161457441Y-109001248D01*
X161438344Y-108980856D01*
X161384276Y-108930523D01*
X161311050Y-108969958D01*
X161264767Y-108998215D01*
X161239443Y-109020154D01*
X161237824Y-109024099D01*
X161220516Y-109040823D01*
X161190903Y-109053276D01*
X161162286Y-109064500D01*
X161118466Y-109085824D01*
X161055682Y-109119329D01*
X160970172Y-109167096D01*
X160858174Y-109231207D01*
X160715927Y-109313744D01*
X160638627Y-109358865D01*
X160547698Y-109412911D01*
X160488061Y-109451404D01*
X160454439Y-109478844D01*
X160441556Y-109499734D01*
X160444135Y-109518575D01*
X160446285Y-109522952D01*
X160467203Y-109550514D01*
X160511960Y-109602216D01*
X160575343Y-109672275D01*
X160652138Y-109754907D01*
X160718556Y-109824956D01*
X160871610Y-109991214D01*
X160991344Y-110135319D01*
X161078827Y-110258721D01*
X161135126Y-110362868D01*
X161154116Y-110415754D01*
X161161960Y-110462050D01*
X161170062Y-110541021D01*
X161177709Y-110643646D01*
X161184188Y-110760903D01*
X161187237Y-110835048D01*
X161191492Y-110963227D01*
X161193364Y-111056938D01*
X161192301Y-111123383D01*
X161187754Y-111169761D01*
X161179173Y-111203274D01*
X161166006Y-111231121D01*
X161155665Y-111248124D01*
X161095944Y-111313662D01*
X161018989Y-111359332D01*
X160938020Y-111379250D01*
X160877342Y-111372044D01*
X160822401Y-111340866D01*
X160753533Y-111285030D01*
X160680395Y-111214274D01*
X160612648Y-111138337D01*
X160559950Y-111066959D01*
X160540547Y-111032468D01*
X160511481Y-110985241D01*
X160458617Y-110913306D01*
X160386784Y-110822285D01*
X160300812Y-110717800D01*
X160205532Y-110605475D01*
X160105773Y-110490930D01*
X160006366Y-110379790D01*
X159912141Y-110277675D01*
X159827927Y-110190208D01*
X159761809Y-110125998D01*
X159688401Y-110061857D01*
X159626647Y-110014563D01*
X159583334Y-109989035D01*
X159568955Y-109986229D01*
X159546921Y-109997552D01*
X159491962Y-110027944D01*
X159407248Y-110075580D01*
X159295952Y-110138635D01*
X159161244Y-110215285D01*
X159006297Y-110303705D01*
X158834281Y-110402070D01*
X158648368Y-110508556D01*
X158451730Y-110621337D01*
X158247537Y-110738589D01*
X158038961Y-110858487D01*
X157829175Y-110979207D01*
X157621348Y-111098923D01*
X157418653Y-111215811D01*
X157224260Y-111328046D01*
X157041342Y-111433804D01*
X156873070Y-111531260D01*
X156722615Y-111618588D01*
X156593149Y-111693965D01*
X156487843Y-111755565D01*
X156409868Y-111801564D01*
X156362396Y-111830137D01*
X156348637Y-111839104D01*
X156367169Y-111840876D01*
X156425467Y-111842599D01*
X156521591Y-111844264D01*
X156653601Y-111845863D01*
X156819554Y-111847387D01*
X157017511Y-111848829D01*
X157245530Y-111850180D01*
X157501671Y-111851432D01*
X157783992Y-111852576D01*
X158090553Y-111853604D01*
X158419413Y-111854508D01*
X158768631Y-111855279D01*
X159136265Y-111855909D01*
X159520376Y-111856390D01*
X159919023Y-111856714D01*
X160330263Y-111856872D01*
X160502820Y-111856887D01*
X164676814Y-111856887D01*
X164379132Y-111340754D01*
X164316114Y-111231465D01*
X164234994Y-111090740D01*
X164138484Y-110923286D01*
X164029297Y-110733812D01*
X163910145Y-110527023D01*
X163783740Y-110307628D01*
X163652795Y-110080333D01*
X163520021Y-109849846D01*
X163388131Y-109620873D01*
X163354776Y-109562963D01*
X163233153Y-109352032D01*
X163117172Y-109151335D01*
X163008575Y-108963859D01*
X162909106Y-108792592D01*
X162820508Y-108640523D01*
X162744522Y-108510638D01*
X162682893Y-108405925D01*
X162637363Y-108329373D01*
X162609675Y-108283969D01*
X162601928Y-108272409D01*
X162585628Y-108263185D01*
X162558651Y-108265836D01*
G37*
X162558651Y-108265836D02*
X162514856Y-108282772D01*
X162448107Y-108316401D01*
X162352263Y-108369134D01*
X162344801Y-108373325D01*
X162256529Y-108423801D01*
X162182037Y-108468023D01*
X162128640Y-108501531D01*
X162103654Y-108519864D01*
X162102955Y-108520762D01*
X162108991Y-108546214D01*
X162136677Y-108603055D01*
X162184212Y-108688189D01*
X162249789Y-108798517D01*
X162331603Y-108930944D01*
X162427852Y-109082371D01*
X162451806Y-109119507D01*
X162514217Y-109222557D01*
X162559663Y-109311232D01*
X162584154Y-109377514D01*
X162586667Y-109390607D01*
X162585552Y-109448243D01*
X162573057Y-109539665D01*
X162550740Y-109659008D01*
X162520160Y-109800409D01*
X162482872Y-109958003D01*
X162440435Y-110125926D01*
X162394406Y-110298314D01*
X162346343Y-110469301D01*
X162297803Y-110633024D01*
X162250343Y-110783618D01*
X162205522Y-110915220D01*
X162164897Y-111021963D01*
X162136577Y-111085294D01*
X162103217Y-111152757D01*
X162071718Y-111217311D01*
X162070013Y-111220845D01*
X162017902Y-111286050D01*
X161941846Y-111329956D01*
X161853308Y-111350997D01*
X161763752Y-111347607D01*
X161684642Y-111318223D01*
X161640136Y-111279536D01*
X161576044Y-111173436D01*
X161529078Y-111041205D01*
X161503310Y-110896327D01*
X161499659Y-110814194D01*
X161514361Y-110660905D01*
X161557510Y-110533966D01*
X161631428Y-110427218D01*
X161654479Y-110403457D01*
X161723075Y-110336809D01*
X161727786Y-109865716D01*
X161732497Y-109394622D01*
X161612454Y-109212906D01*
X161556123Y-109130656D01*
X161501872Y-109056665D01*
X161457441Y-109001248D01*
X161438344Y-108980856D01*
X161384276Y-108930523D01*
X161311050Y-108969958D01*
X161264767Y-108998215D01*
X161239443Y-109020154D01*
X161237824Y-109024099D01*
X161220516Y-109040823D01*
X161190903Y-109053276D01*
X161162286Y-109064500D01*
X161118466Y-109085824D01*
X161055682Y-109119329D01*
X160970172Y-109167096D01*
X160858174Y-109231207D01*
X160715927Y-109313744D01*
X160638627Y-109358865D01*
X160547698Y-109412911D01*
X160488061Y-109451404D01*
X160454439Y-109478844D01*
X160441556Y-109499734D01*
X160444135Y-109518575D01*
X160446285Y-109522952D01*
X160467203Y-109550514D01*
X160511960Y-109602216D01*
X160575343Y-109672275D01*
X160652138Y-109754907D01*
X160718556Y-109824956D01*
X160871610Y-109991214D01*
X160991344Y-110135319D01*
X161078827Y-110258721D01*
X161135126Y-110362868D01*
X161154116Y-110415754D01*
X161161960Y-110462050D01*
X161170062Y-110541021D01*
X161177709Y-110643646D01*
X161184188Y-110760903D01*
X161187237Y-110835048D01*
X161191492Y-110963227D01*
X161193364Y-111056938D01*
X161192301Y-111123383D01*
X161187754Y-111169761D01*
X161179173Y-111203274D01*
X161166006Y-111231121D01*
X161155665Y-111248124D01*
X161095944Y-111313662D01*
X161018989Y-111359332D01*
X160938020Y-111379250D01*
X160877342Y-111372044D01*
X160822401Y-111340866D01*
X160753533Y-111285030D01*
X160680395Y-111214274D01*
X160612648Y-111138337D01*
X160559950Y-111066959D01*
X160540547Y-111032468D01*
X160511481Y-110985241D01*
X160458617Y-110913306D01*
X160386784Y-110822285D01*
X160300812Y-110717800D01*
X160205532Y-110605475D01*
X160105773Y-110490930D01*
X160006366Y-110379790D01*
X159912141Y-110277675D01*
X159827927Y-110190208D01*
X159761809Y-110125998D01*
X159688401Y-110061857D01*
X159626647Y-110014563D01*
X159583334Y-109989035D01*
X159568955Y-109986229D01*
X159546921Y-109997552D01*
X159491962Y-110027944D01*
X159407248Y-110075580D01*
X159295952Y-110138635D01*
X159161244Y-110215285D01*
X159006297Y-110303705D01*
X158834281Y-110402070D01*
X158648368Y-110508556D01*
X158451730Y-110621337D01*
X158247537Y-110738589D01*
X158038961Y-110858487D01*
X157829175Y-110979207D01*
X157621348Y-111098923D01*
X157418653Y-111215811D01*
X157224260Y-111328046D01*
X157041342Y-111433804D01*
X156873070Y-111531260D01*
X156722615Y-111618588D01*
X156593149Y-111693965D01*
X156487843Y-111755565D01*
X156409868Y-111801564D01*
X156362396Y-111830137D01*
X156348637Y-111839104D01*
X156367169Y-111840876D01*
X156425467Y-111842599D01*
X156521591Y-111844264D01*
X156653601Y-111845863D01*
X156819554Y-111847387D01*
X157017511Y-111848829D01*
X157245530Y-111850180D01*
X157501671Y-111851432D01*
X157783992Y-111852576D01*
X158090553Y-111853604D01*
X158419413Y-111854508D01*
X158768631Y-111855279D01*
X159136265Y-111855909D01*
X159520376Y-111856390D01*
X159919023Y-111856714D01*
X160330263Y-111856872D01*
X160502820Y-111856887D01*
X164676814Y-111856887D01*
X164379132Y-111340754D01*
X164316114Y-111231465D01*
X164234994Y-111090740D01*
X164138484Y-110923286D01*
X164029297Y-110733812D01*
X163910145Y-110527023D01*
X163783740Y-110307628D01*
X163652795Y-110080333D01*
X163520021Y-109849846D01*
X163388131Y-109620873D01*
X163354776Y-109562963D01*
X163233153Y-109352032D01*
X163117172Y-109151335D01*
X163008575Y-108963859D01*
X162909106Y-108792592D01*
X162820508Y-108640523D01*
X162744522Y-108510638D01*
X162682893Y-108405925D01*
X162637363Y-108329373D01*
X162609675Y-108283969D01*
X162601928Y-108272409D01*
X162585628Y-108263185D01*
X162558651Y-108265836D01*
%LPC*%
D12*
X188976000Y-106412000D03*
X188976000Y-111412000D03*
X188976000Y-116412000D03*
D13*
X188976000Y-121412000D03*
D14*
X138988800Y-91541600D03*
D15*
X141528800Y-91541600D03*
D14*
X125730000Y-126111000D03*
D15*
X128270000Y-126111000D03*
D16*
X133299200Y-114147600D03*
D17*
X133299200Y-103987600D03*
D16*
X132461000Y-116967000D03*
D17*
X132461000Y-127127000D03*
G36*
G01*
X123266000Y-122669000D02*
X123266000Y-120919000D01*
G75*
G02*
X124141000Y-120044000I875000J0D01*
G01*
X125891000Y-120044000D01*
G75*
G02*
X126766000Y-120919000I0J-875000D01*
G01*
X126766000Y-122669000D01*
G75*
G02*
X125891000Y-123544000I-875000J0D01*
G01*
X124141000Y-123544000D01*
G75*
G02*
X123266000Y-122669000I0J875000D01*
G01*
G37*
G36*
G01*
X120516000Y-118094000D02*
X120516000Y-116094000D01*
G75*
G02*
X121266000Y-115344000I750000J0D01*
G01*
X122766000Y-115344000D01*
G75*
G02*
X123516000Y-116094000I0J-750000D01*
G01*
X123516000Y-118094000D01*
G75*
G02*
X122766000Y-118844000I-750000J0D01*
G01*
X121266000Y-118844000D01*
G75*
G02*
X120516000Y-118094000I0J750000D01*
G01*
G37*
D18*
X128016000Y-117094000D03*
D12*
X124714000Y-108886000D03*
D13*
X124714000Y-103886000D03*
D19*
X188952000Y-132334000D03*
D20*
X188952000Y-132334000D03*
D19*
X123952000Y-132334000D03*
D20*
X123952000Y-132334000D03*
D19*
X188952000Y-94334000D03*
D20*
X188952000Y-94334000D03*
D19*
X123952000Y-94334000D03*
D20*
X123952000Y-94334000D03*
D15*
X137414000Y-115760500D03*
D14*
X137414000Y-118300500D03*
D15*
X145149500Y-102552500D03*
D14*
X145149500Y-105092500D03*
X145149500Y-107632500D03*
X145149500Y-110172500D03*
X145149500Y-112712500D03*
X145149500Y-115252500D03*
D15*
X180340000Y-102552500D03*
D14*
X180340000Y-105092500D03*
X180340000Y-107632500D03*
X180340000Y-110172500D03*
X180340000Y-112712500D03*
X180340000Y-115252500D03*
X180340000Y-117792500D03*
X180340000Y-120332500D03*
X180340000Y-122872500D03*
X180340000Y-125412500D03*
D21*
X174625000Y-99115000D03*
X174625000Y-94615000D03*
X181125000Y-99115000D03*
X181125000Y-94615000D03*
D22*
X168275000Y-126365000D03*
D23*
X168275000Y-125095000D03*
X169545000Y-126365000D03*
X169545000Y-125095000D03*
X170815000Y-126365000D03*
X170815000Y-125095000D03*
X172085000Y-126365000D03*
X172085000Y-125095000D03*
X173355000Y-126365000D03*
X173355000Y-125095000D03*
D15*
X158115000Y-127000000D03*
D14*
X158115000Y-124460000D03*
X160655000Y-127000000D03*
X160655000Y-124460000D03*
X163195000Y-127000000D03*
X163195000Y-124460000D03*
M02*
