G04 #@! TF.GenerationSoftware,KiCad,Pcbnew,5.1.10-88a1d61d58~88~ubuntu20.10.1*
G04 #@! TF.CreationDate,2021-05-21T17:46:03+03:00*
G04 #@! TF.ProjectId,Devboard,44657662-6f61-4726-942e-6b696361645f,rev?*
G04 #@! TF.SameCoordinates,Original*
G04 #@! TF.FileFunction,Soldermask,Top*
G04 #@! TF.FilePolarity,Negative*
%FSLAX46Y46*%
G04 Gerber Fmt 4.6, Leading zero omitted, Abs format (unit mm)*
G04 Created by KiCad (PCBNEW 5.1.10-88a1d61d58~88~ubuntu20.10.1) date 2021-05-21 17:46:03*
%MOMM*%
%LPD*%
G01*
G04 APERTURE LIST*
%ADD10C,2.600000*%
%ADD11R,2.600000X2.600000*%
%ADD12C,0.100000*%
%ADD13O,1.700000X1.700000*%
%ADD14R,1.700000X1.700000*%
%ADD15O,1.600000X1.600000*%
%ADD16C,1.600000*%
%ADD17R,2.300000X3.500000*%
%ADD18R,3.500000X3.500000*%
%ADD19R,2.000000X1.500000*%
%ADD20R,2.000000X3.800000*%
%ADD21C,7.000000*%
%ADD22C,3.900000*%
%ADD23R,1.500000X1.300000*%
%ADD24R,1.300000X1.500000*%
%ADD25C,2.000000*%
%ADD26R,1.000000X1.000000*%
%ADD27O,1.000000X1.000000*%
%ADD28R,2.000000X1.000000*%
G04 APERTURE END LIST*
D10*
X188976000Y-106412000D03*
X188976000Y-111412000D03*
X188976000Y-116412000D03*
D11*
X188976000Y-121412000D03*
D12*
G36*
X182768000Y-131584602D02*
G01*
X182792534Y-131584602D01*
X182841365Y-131589412D01*
X182889490Y-131598984D01*
X182936445Y-131613228D01*
X182981778Y-131632005D01*
X183025051Y-131655136D01*
X183065850Y-131682396D01*
X183103779Y-131713524D01*
X183138476Y-131748221D01*
X183169604Y-131786150D01*
X183196864Y-131826949D01*
X183219995Y-131870222D01*
X183238772Y-131915555D01*
X183253016Y-131962510D01*
X183262588Y-132010635D01*
X183267398Y-132059466D01*
X183267398Y-132084000D01*
X183268000Y-132084000D01*
X183268000Y-132584000D01*
X183267398Y-132584000D01*
X183267398Y-132608534D01*
X183262588Y-132657365D01*
X183253016Y-132705490D01*
X183238772Y-132752445D01*
X183219995Y-132797778D01*
X183196864Y-132841051D01*
X183169604Y-132881850D01*
X183138476Y-132919779D01*
X183103779Y-132954476D01*
X183065850Y-132985604D01*
X183025051Y-133012864D01*
X182981778Y-133035995D01*
X182936445Y-133054772D01*
X182889490Y-133069016D01*
X182841365Y-133078588D01*
X182792534Y-133083398D01*
X182768000Y-133083398D01*
X182768000Y-133084000D01*
X182268000Y-133084000D01*
X182268000Y-131584000D01*
X182768000Y-131584000D01*
X182768000Y-131584602D01*
G37*
G36*
X181968000Y-133084000D02*
G01*
X181468000Y-133084000D01*
X181468000Y-133083398D01*
X181443466Y-133083398D01*
X181394635Y-133078588D01*
X181346510Y-133069016D01*
X181299555Y-133054772D01*
X181254222Y-133035995D01*
X181210949Y-133012864D01*
X181170150Y-132985604D01*
X181132221Y-132954476D01*
X181097524Y-132919779D01*
X181066396Y-132881850D01*
X181039136Y-132841051D01*
X181016005Y-132797778D01*
X180997228Y-132752445D01*
X180982984Y-132705490D01*
X180973412Y-132657365D01*
X180968602Y-132608534D01*
X180968602Y-132584000D01*
X180968000Y-132584000D01*
X180968000Y-132084000D01*
X180968602Y-132084000D01*
X180968602Y-132059466D01*
X180973412Y-132010635D01*
X180982984Y-131962510D01*
X180997228Y-131915555D01*
X181016005Y-131870222D01*
X181039136Y-131826949D01*
X181066396Y-131786150D01*
X181097524Y-131748221D01*
X181132221Y-131713524D01*
X181170150Y-131682396D01*
X181210949Y-131655136D01*
X181254222Y-131632005D01*
X181299555Y-131613228D01*
X181346510Y-131598984D01*
X181394635Y-131589412D01*
X181443466Y-131584602D01*
X181468000Y-131584602D01*
X181468000Y-131584000D01*
X181968000Y-131584000D01*
X181968000Y-133084000D01*
G37*
G36*
X129510000Y-133083398D02*
G01*
X129485466Y-133083398D01*
X129436635Y-133078588D01*
X129388510Y-133069016D01*
X129341555Y-133054772D01*
X129296222Y-133035995D01*
X129252949Y-133012864D01*
X129212150Y-132985604D01*
X129174221Y-132954476D01*
X129139524Y-132919779D01*
X129108396Y-132881850D01*
X129081136Y-132841051D01*
X129058005Y-132797778D01*
X129039228Y-132752445D01*
X129024984Y-132705490D01*
X129015412Y-132657365D01*
X129010602Y-132608534D01*
X129010602Y-132584000D01*
X129010000Y-132584000D01*
X129010000Y-132084000D01*
X129010602Y-132084000D01*
X129010602Y-132059466D01*
X129015412Y-132010635D01*
X129024984Y-131962510D01*
X129039228Y-131915555D01*
X129058005Y-131870222D01*
X129081136Y-131826949D01*
X129108396Y-131786150D01*
X129139524Y-131748221D01*
X129174221Y-131713524D01*
X129212150Y-131682396D01*
X129252949Y-131655136D01*
X129296222Y-131632005D01*
X129341555Y-131613228D01*
X129388510Y-131598984D01*
X129436635Y-131589412D01*
X129485466Y-131584602D01*
X129510000Y-131584602D01*
X129510000Y-131584000D01*
X130010000Y-131584000D01*
X130010000Y-133084000D01*
X129510000Y-133084000D01*
X129510000Y-133083398D01*
G37*
G36*
X130310000Y-131584000D02*
G01*
X130810000Y-131584000D01*
X130810000Y-131584602D01*
X130834534Y-131584602D01*
X130883365Y-131589412D01*
X130931490Y-131598984D01*
X130978445Y-131613228D01*
X131023778Y-131632005D01*
X131067051Y-131655136D01*
X131107850Y-131682396D01*
X131145779Y-131713524D01*
X131180476Y-131748221D01*
X131211604Y-131786150D01*
X131238864Y-131826949D01*
X131261995Y-131870222D01*
X131280772Y-131915555D01*
X131295016Y-131962510D01*
X131304588Y-132010635D01*
X131309398Y-132059466D01*
X131309398Y-132084000D01*
X131310000Y-132084000D01*
X131310000Y-132584000D01*
X131309398Y-132584000D01*
X131309398Y-132608534D01*
X131304588Y-132657365D01*
X131295016Y-132705490D01*
X131280772Y-132752445D01*
X131261995Y-132797778D01*
X131238864Y-132841051D01*
X131211604Y-132881850D01*
X131180476Y-132919779D01*
X131145779Y-132954476D01*
X131107850Y-132985604D01*
X131067051Y-133012864D01*
X131023778Y-133035995D01*
X130978445Y-133054772D01*
X130931490Y-133069016D01*
X130883365Y-133078588D01*
X130834534Y-133083398D01*
X130810000Y-133083398D01*
X130810000Y-133084000D01*
X130310000Y-133084000D01*
X130310000Y-131584000D01*
G37*
G36*
X183530000Y-90690602D02*
G01*
X183554534Y-90690602D01*
X183603365Y-90695412D01*
X183651490Y-90704984D01*
X183698445Y-90719228D01*
X183743778Y-90738005D01*
X183787051Y-90761136D01*
X183827850Y-90788396D01*
X183865779Y-90819524D01*
X183900476Y-90854221D01*
X183931604Y-90892150D01*
X183958864Y-90932949D01*
X183981995Y-90976222D01*
X184000772Y-91021555D01*
X184015016Y-91068510D01*
X184024588Y-91116635D01*
X184029398Y-91165466D01*
X184029398Y-91190000D01*
X184030000Y-91190000D01*
X184030000Y-91690000D01*
X184029398Y-91690000D01*
X184029398Y-91714534D01*
X184024588Y-91763365D01*
X184015016Y-91811490D01*
X184000772Y-91858445D01*
X183981995Y-91903778D01*
X183958864Y-91947051D01*
X183931604Y-91987850D01*
X183900476Y-92025779D01*
X183865779Y-92060476D01*
X183827850Y-92091604D01*
X183787051Y-92118864D01*
X183743778Y-92141995D01*
X183698445Y-92160772D01*
X183651490Y-92175016D01*
X183603365Y-92184588D01*
X183554534Y-92189398D01*
X183530000Y-92189398D01*
X183530000Y-92190000D01*
X183030000Y-92190000D01*
X183030000Y-90690000D01*
X183530000Y-90690000D01*
X183530000Y-90690602D01*
G37*
G36*
X182730000Y-92190000D02*
G01*
X182230000Y-92190000D01*
X182230000Y-92189398D01*
X182205466Y-92189398D01*
X182156635Y-92184588D01*
X182108510Y-92175016D01*
X182061555Y-92160772D01*
X182016222Y-92141995D01*
X181972949Y-92118864D01*
X181932150Y-92091604D01*
X181894221Y-92060476D01*
X181859524Y-92025779D01*
X181828396Y-91987850D01*
X181801136Y-91947051D01*
X181778005Y-91903778D01*
X181759228Y-91858445D01*
X181744984Y-91811490D01*
X181735412Y-91763365D01*
X181730602Y-91714534D01*
X181730602Y-91690000D01*
X181730000Y-91690000D01*
X181730000Y-91190000D01*
X181730602Y-91190000D01*
X181730602Y-91165466D01*
X181735412Y-91116635D01*
X181744984Y-91068510D01*
X181759228Y-91021555D01*
X181778005Y-90976222D01*
X181801136Y-90932949D01*
X181828396Y-90892150D01*
X181859524Y-90854221D01*
X181894221Y-90819524D01*
X181932150Y-90788396D01*
X181972949Y-90761136D01*
X182016222Y-90738005D01*
X182061555Y-90719228D01*
X182108510Y-90704984D01*
X182156635Y-90695412D01*
X182205466Y-90690602D01*
X182230000Y-90690602D01*
X182230000Y-90690000D01*
X182730000Y-90690000D01*
X182730000Y-92190000D01*
G37*
G36*
X130160000Y-92697398D02*
G01*
X130135466Y-92697398D01*
X130086635Y-92692588D01*
X130038510Y-92683016D01*
X129991555Y-92668772D01*
X129946222Y-92649995D01*
X129902949Y-92626864D01*
X129862150Y-92599604D01*
X129824221Y-92568476D01*
X129789524Y-92533779D01*
X129758396Y-92495850D01*
X129731136Y-92455051D01*
X129708005Y-92411778D01*
X129689228Y-92366445D01*
X129674984Y-92319490D01*
X129665412Y-92271365D01*
X129660602Y-92222534D01*
X129660602Y-92198000D01*
X129660000Y-92198000D01*
X129660000Y-91698000D01*
X129660602Y-91698000D01*
X129660602Y-91673466D01*
X129665412Y-91624635D01*
X129674984Y-91576510D01*
X129689228Y-91529555D01*
X129708005Y-91484222D01*
X129731136Y-91440949D01*
X129758396Y-91400150D01*
X129789524Y-91362221D01*
X129824221Y-91327524D01*
X129862150Y-91296396D01*
X129902949Y-91269136D01*
X129946222Y-91246005D01*
X129991555Y-91227228D01*
X130038510Y-91212984D01*
X130086635Y-91203412D01*
X130135466Y-91198602D01*
X130160000Y-91198602D01*
X130160000Y-91198000D01*
X130660000Y-91198000D01*
X130660000Y-92698000D01*
X130160000Y-92698000D01*
X130160000Y-92697398D01*
G37*
G36*
X130960000Y-91198000D02*
G01*
X131460000Y-91198000D01*
X131460000Y-91198602D01*
X131484534Y-91198602D01*
X131533365Y-91203412D01*
X131581490Y-91212984D01*
X131628445Y-91227228D01*
X131673778Y-91246005D01*
X131717051Y-91269136D01*
X131757850Y-91296396D01*
X131795779Y-91327524D01*
X131830476Y-91362221D01*
X131861604Y-91400150D01*
X131888864Y-91440949D01*
X131911995Y-91484222D01*
X131930772Y-91529555D01*
X131945016Y-91576510D01*
X131954588Y-91624635D01*
X131959398Y-91673466D01*
X131959398Y-91698000D01*
X131960000Y-91698000D01*
X131960000Y-92198000D01*
X131959398Y-92198000D01*
X131959398Y-92222534D01*
X131954588Y-92271365D01*
X131945016Y-92319490D01*
X131930772Y-92366445D01*
X131911995Y-92411778D01*
X131888864Y-92455051D01*
X131861604Y-92495850D01*
X131830476Y-92533779D01*
X131795779Y-92568476D01*
X131757850Y-92599604D01*
X131717051Y-92626864D01*
X131673778Y-92649995D01*
X131628445Y-92668772D01*
X131581490Y-92683016D01*
X131533365Y-92692588D01*
X131484534Y-92697398D01*
X131460000Y-92697398D01*
X131460000Y-92698000D01*
X130960000Y-92698000D01*
X130960000Y-91198000D01*
G37*
D13*
X138988800Y-91541600D03*
D14*
X141528800Y-91541600D03*
G36*
G01*
X132623400Y-101179200D02*
X133873400Y-101179200D01*
G75*
G02*
X134123400Y-101429200I0J-250000D01*
G01*
X134123400Y-102229200D01*
G75*
G02*
X133873400Y-102479200I-250000J0D01*
G01*
X132623400Y-102479200D01*
G75*
G02*
X132373400Y-102229200I0J250000D01*
G01*
X132373400Y-101429200D01*
G75*
G02*
X132623400Y-101179200I250000J0D01*
G01*
G37*
G36*
G01*
X132623400Y-98079200D02*
X133873400Y-98079200D01*
G75*
G02*
X134123400Y-98329200I0J-250000D01*
G01*
X134123400Y-99129200D01*
G75*
G02*
X133873400Y-99379200I-250000J0D01*
G01*
X132623400Y-99379200D01*
G75*
G02*
X132373400Y-99129200I0J250000D01*
G01*
X132373400Y-98329200D01*
G75*
G02*
X132623400Y-98079200I250000J0D01*
G01*
G37*
D13*
X125730000Y-126111000D03*
D14*
X128270000Y-126111000D03*
G36*
G01*
X138503800Y-96191600D02*
X138203800Y-96191600D01*
G75*
G02*
X138053800Y-96041600I0J150000D01*
G01*
X138053800Y-94591600D01*
G75*
G02*
X138203800Y-94441600I150000J0D01*
G01*
X138503800Y-94441600D01*
G75*
G02*
X138653800Y-94591600I0J-150000D01*
G01*
X138653800Y-96041600D01*
G75*
G02*
X138503800Y-96191600I-150000J0D01*
G01*
G37*
G36*
G01*
X139773800Y-96191600D02*
X139473800Y-96191600D01*
G75*
G02*
X139323800Y-96041600I0J150000D01*
G01*
X139323800Y-94591600D01*
G75*
G02*
X139473800Y-94441600I150000J0D01*
G01*
X139773800Y-94441600D01*
G75*
G02*
X139923800Y-94591600I0J-150000D01*
G01*
X139923800Y-96041600D01*
G75*
G02*
X139773800Y-96191600I-150000J0D01*
G01*
G37*
G36*
G01*
X141043800Y-96191600D02*
X140743800Y-96191600D01*
G75*
G02*
X140593800Y-96041600I0J150000D01*
G01*
X140593800Y-94591600D01*
G75*
G02*
X140743800Y-94441600I150000J0D01*
G01*
X141043800Y-94441600D01*
G75*
G02*
X141193800Y-94591600I0J-150000D01*
G01*
X141193800Y-96041600D01*
G75*
G02*
X141043800Y-96191600I-150000J0D01*
G01*
G37*
G36*
G01*
X142313800Y-96191600D02*
X142013800Y-96191600D01*
G75*
G02*
X141863800Y-96041600I0J150000D01*
G01*
X141863800Y-94591600D01*
G75*
G02*
X142013800Y-94441600I150000J0D01*
G01*
X142313800Y-94441600D01*
G75*
G02*
X142463800Y-94591600I0J-150000D01*
G01*
X142463800Y-96041600D01*
G75*
G02*
X142313800Y-96191600I-150000J0D01*
G01*
G37*
G36*
G01*
X142313800Y-101341600D02*
X142013800Y-101341600D01*
G75*
G02*
X141863800Y-101191600I0J150000D01*
G01*
X141863800Y-99741600D01*
G75*
G02*
X142013800Y-99591600I150000J0D01*
G01*
X142313800Y-99591600D01*
G75*
G02*
X142463800Y-99741600I0J-150000D01*
G01*
X142463800Y-101191600D01*
G75*
G02*
X142313800Y-101341600I-150000J0D01*
G01*
G37*
G36*
G01*
X141043800Y-101341600D02*
X140743800Y-101341600D01*
G75*
G02*
X140593800Y-101191600I0J150000D01*
G01*
X140593800Y-99741600D01*
G75*
G02*
X140743800Y-99591600I150000J0D01*
G01*
X141043800Y-99591600D01*
G75*
G02*
X141193800Y-99741600I0J-150000D01*
G01*
X141193800Y-101191600D01*
G75*
G02*
X141043800Y-101341600I-150000J0D01*
G01*
G37*
G36*
G01*
X139773800Y-101341600D02*
X139473800Y-101341600D01*
G75*
G02*
X139323800Y-101191600I0J150000D01*
G01*
X139323800Y-99741600D01*
G75*
G02*
X139473800Y-99591600I150000J0D01*
G01*
X139773800Y-99591600D01*
G75*
G02*
X139923800Y-99741600I0J-150000D01*
G01*
X139923800Y-101191600D01*
G75*
G02*
X139773800Y-101341600I-150000J0D01*
G01*
G37*
G36*
G01*
X138503800Y-101341600D02*
X138203800Y-101341600D01*
G75*
G02*
X138053800Y-101191600I0J150000D01*
G01*
X138053800Y-99741600D01*
G75*
G02*
X138203800Y-99591600I150000J0D01*
G01*
X138503800Y-99591600D01*
G75*
G02*
X138653800Y-99741600I0J-150000D01*
G01*
X138653800Y-101191600D01*
G75*
G02*
X138503800Y-101341600I-150000J0D01*
G01*
G37*
G36*
G01*
X146014600Y-96636000D02*
X144764600Y-96636000D01*
G75*
G02*
X144514600Y-96386000I0J250000D01*
G01*
X144514600Y-95586000D01*
G75*
G02*
X144764600Y-95336000I250000J0D01*
G01*
X146014600Y-95336000D01*
G75*
G02*
X146264600Y-95586000I0J-250000D01*
G01*
X146264600Y-96386000D01*
G75*
G02*
X146014600Y-96636000I-250000J0D01*
G01*
G37*
G36*
G01*
X146014600Y-99736000D02*
X144764600Y-99736000D01*
G75*
G02*
X144514600Y-99486000I0J250000D01*
G01*
X144514600Y-98686000D01*
G75*
G02*
X144764600Y-98436000I250000J0D01*
G01*
X146014600Y-98436000D01*
G75*
G02*
X146264600Y-98686000I0J-250000D01*
G01*
X146264600Y-99486000D01*
G75*
G02*
X146014600Y-99736000I-250000J0D01*
G01*
G37*
G36*
G01*
X138415600Y-106949400D02*
X138415600Y-105699400D01*
G75*
G02*
X138665600Y-105449400I250000J0D01*
G01*
X139465600Y-105449400D01*
G75*
G02*
X139715600Y-105699400I0J-250000D01*
G01*
X139715600Y-106949400D01*
G75*
G02*
X139465600Y-107199400I-250000J0D01*
G01*
X138665600Y-107199400D01*
G75*
G02*
X138415600Y-106949400I0J250000D01*
G01*
G37*
G36*
G01*
X135315600Y-106949400D02*
X135315600Y-105699400D01*
G75*
G02*
X135565600Y-105449400I250000J0D01*
G01*
X136365600Y-105449400D01*
G75*
G02*
X136615600Y-105699400I0J-250000D01*
G01*
X136615600Y-106949400D01*
G75*
G02*
X136365600Y-107199400I-250000J0D01*
G01*
X135565600Y-107199400D01*
G75*
G02*
X135315600Y-106949400I0J250000D01*
G01*
G37*
D15*
X133299200Y-114147600D03*
D16*
X133299200Y-103987600D03*
D17*
X147637500Y-133954500D03*
X147637500Y-128554500D03*
D15*
X132461000Y-116967000D03*
D16*
X132461000Y-127127000D03*
G36*
G01*
X140781000Y-132884000D02*
X140781000Y-131784000D01*
G75*
G02*
X141031000Y-131534000I250000J0D01*
G01*
X143531000Y-131534000D01*
G75*
G02*
X143781000Y-131784000I0J-250000D01*
G01*
X143781000Y-132884000D01*
G75*
G02*
X143531000Y-133134000I-250000J0D01*
G01*
X141031000Y-133134000D01*
G75*
G02*
X140781000Y-132884000I0J250000D01*
G01*
G37*
G36*
G01*
X136381000Y-132884000D02*
X136381000Y-131784000D01*
G75*
G02*
X136631000Y-131534000I250000J0D01*
G01*
X139131000Y-131534000D01*
G75*
G02*
X139381000Y-131784000I0J-250000D01*
G01*
X139381000Y-132884000D01*
G75*
G02*
X139131000Y-133134000I-250000J0D01*
G01*
X136631000Y-133134000D01*
G75*
G02*
X136381000Y-132884000I0J250000D01*
G01*
G37*
G36*
G01*
X123266000Y-122669000D02*
X123266000Y-120919000D01*
G75*
G02*
X124141000Y-120044000I875000J0D01*
G01*
X125891000Y-120044000D01*
G75*
G02*
X126766000Y-120919000I0J-875000D01*
G01*
X126766000Y-122669000D01*
G75*
G02*
X125891000Y-123544000I-875000J0D01*
G01*
X124141000Y-123544000D01*
G75*
G02*
X123266000Y-122669000I0J875000D01*
G01*
G37*
G36*
G01*
X120516000Y-118094000D02*
X120516000Y-116094000D01*
G75*
G02*
X121266000Y-115344000I750000J0D01*
G01*
X122766000Y-115344000D01*
G75*
G02*
X123516000Y-116094000I0J-750000D01*
G01*
X123516000Y-118094000D01*
G75*
G02*
X122766000Y-118844000I-750000J0D01*
G01*
X121266000Y-118844000D01*
G75*
G02*
X120516000Y-118094000I0J750000D01*
G01*
G37*
D18*
X128016000Y-117094000D03*
D10*
X124714000Y-108886000D03*
D11*
X124714000Y-103886000D03*
D19*
X136804000Y-123430000D03*
X136804000Y-128030000D03*
X136804000Y-125730000D03*
D20*
X143104000Y-125730000D03*
G36*
G01*
X144849000Y-121569500D02*
X144849000Y-120619500D01*
G75*
G02*
X145099000Y-120369500I250000J0D01*
G01*
X145774000Y-120369500D01*
G75*
G02*
X146024000Y-120619500I0J-250000D01*
G01*
X146024000Y-121569500D01*
G75*
G02*
X145774000Y-121819500I-250000J0D01*
G01*
X145099000Y-121819500D01*
G75*
G02*
X144849000Y-121569500I0J250000D01*
G01*
G37*
G36*
G01*
X142774000Y-121569500D02*
X142774000Y-120619500D01*
G75*
G02*
X143024000Y-120369500I250000J0D01*
G01*
X143699000Y-120369500D01*
G75*
G02*
X143949000Y-120619500I0J-250000D01*
G01*
X143949000Y-121569500D01*
G75*
G02*
X143699000Y-121819500I-250000J0D01*
G01*
X143024000Y-121819500D01*
G75*
G02*
X142774000Y-121569500I0J250000D01*
G01*
G37*
G36*
G01*
X133129000Y-131133000D02*
X134079000Y-131133000D01*
G75*
G02*
X134329000Y-131383000I0J-250000D01*
G01*
X134329000Y-132058000D01*
G75*
G02*
X134079000Y-132308000I-250000J0D01*
G01*
X133129000Y-132308000D01*
G75*
G02*
X132879000Y-132058000I0J250000D01*
G01*
X132879000Y-131383000D01*
G75*
G02*
X133129000Y-131133000I250000J0D01*
G01*
G37*
G36*
G01*
X133129000Y-129058000D02*
X134079000Y-129058000D01*
G75*
G02*
X134329000Y-129308000I0J-250000D01*
G01*
X134329000Y-129983000D01*
G75*
G02*
X134079000Y-130233000I-250000J0D01*
G01*
X133129000Y-130233000D01*
G75*
G02*
X132879000Y-129983000I0J250000D01*
G01*
X132879000Y-129308000D01*
G75*
G02*
X133129000Y-129058000I250000J0D01*
G01*
G37*
D21*
X188952000Y-132334000D03*
D22*
X188952000Y-132334000D03*
D21*
X123952000Y-132334000D03*
D22*
X123952000Y-132334000D03*
D21*
X188952000Y-94334000D03*
D22*
X188952000Y-94334000D03*
D21*
X123952000Y-94334000D03*
D22*
X123952000Y-94334000D03*
G36*
G01*
X148877000Y-119322000D02*
X149827000Y-119322000D01*
G75*
G02*
X150077000Y-119572000I0J-250000D01*
G01*
X150077000Y-120247000D01*
G75*
G02*
X149827000Y-120497000I-250000J0D01*
G01*
X148877000Y-120497000D01*
G75*
G02*
X148627000Y-120247000I0J250000D01*
G01*
X148627000Y-119572000D01*
G75*
G02*
X148877000Y-119322000I250000J0D01*
G01*
G37*
G36*
G01*
X148877000Y-117247000D02*
X149827000Y-117247000D01*
G75*
G02*
X150077000Y-117497000I0J-250000D01*
G01*
X150077000Y-118172000D01*
G75*
G02*
X149827000Y-118422000I-250000J0D01*
G01*
X148877000Y-118422000D01*
G75*
G02*
X148627000Y-118172000I0J250000D01*
G01*
X148627000Y-117497000D01*
G75*
G02*
X148877000Y-117247000I250000J0D01*
G01*
G37*
G36*
G01*
X152612000Y-130430500D02*
X153712000Y-130430500D01*
G75*
G02*
X153962000Y-130680500I0J-250000D01*
G01*
X153962000Y-133180500D01*
G75*
G02*
X153712000Y-133430500I-250000J0D01*
G01*
X152612000Y-133430500D01*
G75*
G02*
X152362000Y-133180500I0J250000D01*
G01*
X152362000Y-130680500D01*
G75*
G02*
X152612000Y-130430500I250000J0D01*
G01*
G37*
G36*
G01*
X152612000Y-126030500D02*
X153712000Y-126030500D01*
G75*
G02*
X153962000Y-126280500I0J-250000D01*
G01*
X153962000Y-128780500D01*
G75*
G02*
X153712000Y-129030500I-250000J0D01*
G01*
X152612000Y-129030500D01*
G75*
G02*
X152362000Y-128780500I0J250000D01*
G01*
X152362000Y-126280500D01*
G75*
G02*
X152612000Y-126030500I250000J0D01*
G01*
G37*
D23*
X164989500Y-132778500D03*
X162289500Y-132778500D03*
D14*
X137414000Y-115760500D03*
D13*
X137414000Y-118300500D03*
D14*
X145149500Y-102552500D03*
D13*
X145149500Y-105092500D03*
X145149500Y-107632500D03*
X145149500Y-110172500D03*
X145149500Y-112712500D03*
X145149500Y-115252500D03*
D14*
X180340000Y-102552500D03*
D13*
X180340000Y-105092500D03*
X180340000Y-107632500D03*
X180340000Y-110172500D03*
X180340000Y-112712500D03*
X180340000Y-115252500D03*
X180340000Y-117792500D03*
X180340000Y-120332500D03*
X180340000Y-122872500D03*
X180340000Y-125412500D03*
D24*
X157988000Y-134636500D03*
X157988000Y-131936500D03*
D25*
X174625000Y-99115000D03*
X174625000Y-94615000D03*
X181125000Y-99115000D03*
X181125000Y-94615000D03*
D26*
X168275000Y-126365000D03*
D27*
X168275000Y-125095000D03*
X169545000Y-126365000D03*
X169545000Y-125095000D03*
X170815000Y-126365000D03*
X170815000Y-125095000D03*
X172085000Y-126365000D03*
X172085000Y-125095000D03*
X173355000Y-126365000D03*
X173355000Y-125095000D03*
D14*
X158115000Y-127000000D03*
D13*
X158115000Y-124460000D03*
X160655000Y-127000000D03*
X160655000Y-124460000D03*
X163195000Y-127000000D03*
X163195000Y-124460000D03*
D28*
X153670000Y-106391000D03*
X153670000Y-108341000D03*
X153670000Y-110341000D03*
X153670000Y-112395000D03*
X153670000Y-114391000D03*
X153670000Y-116391000D03*
X170670000Y-119291000D03*
X170670000Y-117541000D03*
X170670000Y-115791000D03*
X170670000Y-114041000D03*
X170670000Y-112291000D03*
X170670000Y-110491000D03*
X170670000Y-108741000D03*
X170670000Y-106991000D03*
X170670000Y-105241000D03*
X170670000Y-103491000D03*
M02*
