G04 #@! TF.GenerationSoftware,KiCad,Pcbnew,5.1.10-88a1d61d58~88~ubuntu20.10.1*
G04 #@! TF.CreationDate,2021-05-21T17:46:03+03:00*
G04 #@! TF.ProjectId,Devboard,44657662-6f61-4726-942e-6b696361645f,rev?*
G04 #@! TF.SameCoordinates,Original*
G04 #@! TF.FileFunction,Paste,Top*
G04 #@! TF.FilePolarity,Positive*
%FSLAX46Y46*%
G04 Gerber Fmt 4.6, Leading zero omitted, Abs format (unit mm)*
G04 Created by KiCad (PCBNEW 5.1.10-88a1d61d58~88~ubuntu20.10.1) date 2021-05-21 17:46:03*
%MOMM*%
%LPD*%
G01*
G04 APERTURE LIST*
%ADD10R,2.300000X3.500000*%
%ADD11R,2.000000X1.500000*%
%ADD12R,2.000000X3.800000*%
%ADD13R,1.500000X1.300000*%
%ADD14R,1.300000X1.500000*%
%ADD15R,2.000000X1.000000*%
G04 APERTURE END LIST*
G36*
G01*
X132623400Y-101179200D02*
X133873400Y-101179200D01*
G75*
G02*
X134123400Y-101429200I0J-250000D01*
G01*
X134123400Y-102229200D01*
G75*
G02*
X133873400Y-102479200I-250000J0D01*
G01*
X132623400Y-102479200D01*
G75*
G02*
X132373400Y-102229200I0J250000D01*
G01*
X132373400Y-101429200D01*
G75*
G02*
X132623400Y-101179200I250000J0D01*
G01*
G37*
G36*
G01*
X132623400Y-98079200D02*
X133873400Y-98079200D01*
G75*
G02*
X134123400Y-98329200I0J-250000D01*
G01*
X134123400Y-99129200D01*
G75*
G02*
X133873400Y-99379200I-250000J0D01*
G01*
X132623400Y-99379200D01*
G75*
G02*
X132373400Y-99129200I0J250000D01*
G01*
X132373400Y-98329200D01*
G75*
G02*
X132623400Y-98079200I250000J0D01*
G01*
G37*
G36*
G01*
X138503800Y-96191600D02*
X138203800Y-96191600D01*
G75*
G02*
X138053800Y-96041600I0J150000D01*
G01*
X138053800Y-94591600D01*
G75*
G02*
X138203800Y-94441600I150000J0D01*
G01*
X138503800Y-94441600D01*
G75*
G02*
X138653800Y-94591600I0J-150000D01*
G01*
X138653800Y-96041600D01*
G75*
G02*
X138503800Y-96191600I-150000J0D01*
G01*
G37*
G36*
G01*
X139773800Y-96191600D02*
X139473800Y-96191600D01*
G75*
G02*
X139323800Y-96041600I0J150000D01*
G01*
X139323800Y-94591600D01*
G75*
G02*
X139473800Y-94441600I150000J0D01*
G01*
X139773800Y-94441600D01*
G75*
G02*
X139923800Y-94591600I0J-150000D01*
G01*
X139923800Y-96041600D01*
G75*
G02*
X139773800Y-96191600I-150000J0D01*
G01*
G37*
G36*
G01*
X141043800Y-96191600D02*
X140743800Y-96191600D01*
G75*
G02*
X140593800Y-96041600I0J150000D01*
G01*
X140593800Y-94591600D01*
G75*
G02*
X140743800Y-94441600I150000J0D01*
G01*
X141043800Y-94441600D01*
G75*
G02*
X141193800Y-94591600I0J-150000D01*
G01*
X141193800Y-96041600D01*
G75*
G02*
X141043800Y-96191600I-150000J0D01*
G01*
G37*
G36*
G01*
X142313800Y-96191600D02*
X142013800Y-96191600D01*
G75*
G02*
X141863800Y-96041600I0J150000D01*
G01*
X141863800Y-94591600D01*
G75*
G02*
X142013800Y-94441600I150000J0D01*
G01*
X142313800Y-94441600D01*
G75*
G02*
X142463800Y-94591600I0J-150000D01*
G01*
X142463800Y-96041600D01*
G75*
G02*
X142313800Y-96191600I-150000J0D01*
G01*
G37*
G36*
G01*
X142313800Y-101341600D02*
X142013800Y-101341600D01*
G75*
G02*
X141863800Y-101191600I0J150000D01*
G01*
X141863800Y-99741600D01*
G75*
G02*
X142013800Y-99591600I150000J0D01*
G01*
X142313800Y-99591600D01*
G75*
G02*
X142463800Y-99741600I0J-150000D01*
G01*
X142463800Y-101191600D01*
G75*
G02*
X142313800Y-101341600I-150000J0D01*
G01*
G37*
G36*
G01*
X141043800Y-101341600D02*
X140743800Y-101341600D01*
G75*
G02*
X140593800Y-101191600I0J150000D01*
G01*
X140593800Y-99741600D01*
G75*
G02*
X140743800Y-99591600I150000J0D01*
G01*
X141043800Y-99591600D01*
G75*
G02*
X141193800Y-99741600I0J-150000D01*
G01*
X141193800Y-101191600D01*
G75*
G02*
X141043800Y-101341600I-150000J0D01*
G01*
G37*
G36*
G01*
X139773800Y-101341600D02*
X139473800Y-101341600D01*
G75*
G02*
X139323800Y-101191600I0J150000D01*
G01*
X139323800Y-99741600D01*
G75*
G02*
X139473800Y-99591600I150000J0D01*
G01*
X139773800Y-99591600D01*
G75*
G02*
X139923800Y-99741600I0J-150000D01*
G01*
X139923800Y-101191600D01*
G75*
G02*
X139773800Y-101341600I-150000J0D01*
G01*
G37*
G36*
G01*
X138503800Y-101341600D02*
X138203800Y-101341600D01*
G75*
G02*
X138053800Y-101191600I0J150000D01*
G01*
X138053800Y-99741600D01*
G75*
G02*
X138203800Y-99591600I150000J0D01*
G01*
X138503800Y-99591600D01*
G75*
G02*
X138653800Y-99741600I0J-150000D01*
G01*
X138653800Y-101191600D01*
G75*
G02*
X138503800Y-101341600I-150000J0D01*
G01*
G37*
G36*
G01*
X146014600Y-96636000D02*
X144764600Y-96636000D01*
G75*
G02*
X144514600Y-96386000I0J250000D01*
G01*
X144514600Y-95586000D01*
G75*
G02*
X144764600Y-95336000I250000J0D01*
G01*
X146014600Y-95336000D01*
G75*
G02*
X146264600Y-95586000I0J-250000D01*
G01*
X146264600Y-96386000D01*
G75*
G02*
X146014600Y-96636000I-250000J0D01*
G01*
G37*
G36*
G01*
X146014600Y-99736000D02*
X144764600Y-99736000D01*
G75*
G02*
X144514600Y-99486000I0J250000D01*
G01*
X144514600Y-98686000D01*
G75*
G02*
X144764600Y-98436000I250000J0D01*
G01*
X146014600Y-98436000D01*
G75*
G02*
X146264600Y-98686000I0J-250000D01*
G01*
X146264600Y-99486000D01*
G75*
G02*
X146014600Y-99736000I-250000J0D01*
G01*
G37*
G36*
G01*
X138415600Y-106949400D02*
X138415600Y-105699400D01*
G75*
G02*
X138665600Y-105449400I250000J0D01*
G01*
X139465600Y-105449400D01*
G75*
G02*
X139715600Y-105699400I0J-250000D01*
G01*
X139715600Y-106949400D01*
G75*
G02*
X139465600Y-107199400I-250000J0D01*
G01*
X138665600Y-107199400D01*
G75*
G02*
X138415600Y-106949400I0J250000D01*
G01*
G37*
G36*
G01*
X135315600Y-106949400D02*
X135315600Y-105699400D01*
G75*
G02*
X135565600Y-105449400I250000J0D01*
G01*
X136365600Y-105449400D01*
G75*
G02*
X136615600Y-105699400I0J-250000D01*
G01*
X136615600Y-106949400D01*
G75*
G02*
X136365600Y-107199400I-250000J0D01*
G01*
X135565600Y-107199400D01*
G75*
G02*
X135315600Y-106949400I0J250000D01*
G01*
G37*
D10*
X147637500Y-133954500D03*
X147637500Y-128554500D03*
G36*
G01*
X140781000Y-132884000D02*
X140781000Y-131784000D01*
G75*
G02*
X141031000Y-131534000I250000J0D01*
G01*
X143531000Y-131534000D01*
G75*
G02*
X143781000Y-131784000I0J-250000D01*
G01*
X143781000Y-132884000D01*
G75*
G02*
X143531000Y-133134000I-250000J0D01*
G01*
X141031000Y-133134000D01*
G75*
G02*
X140781000Y-132884000I0J250000D01*
G01*
G37*
G36*
G01*
X136381000Y-132884000D02*
X136381000Y-131784000D01*
G75*
G02*
X136631000Y-131534000I250000J0D01*
G01*
X139131000Y-131534000D01*
G75*
G02*
X139381000Y-131784000I0J-250000D01*
G01*
X139381000Y-132884000D01*
G75*
G02*
X139131000Y-133134000I-250000J0D01*
G01*
X136631000Y-133134000D01*
G75*
G02*
X136381000Y-132884000I0J250000D01*
G01*
G37*
D11*
X136804000Y-123430000D03*
X136804000Y-128030000D03*
X136804000Y-125730000D03*
D12*
X143104000Y-125730000D03*
G36*
G01*
X144849000Y-121569500D02*
X144849000Y-120619500D01*
G75*
G02*
X145099000Y-120369500I250000J0D01*
G01*
X145774000Y-120369500D01*
G75*
G02*
X146024000Y-120619500I0J-250000D01*
G01*
X146024000Y-121569500D01*
G75*
G02*
X145774000Y-121819500I-250000J0D01*
G01*
X145099000Y-121819500D01*
G75*
G02*
X144849000Y-121569500I0J250000D01*
G01*
G37*
G36*
G01*
X142774000Y-121569500D02*
X142774000Y-120619500D01*
G75*
G02*
X143024000Y-120369500I250000J0D01*
G01*
X143699000Y-120369500D01*
G75*
G02*
X143949000Y-120619500I0J-250000D01*
G01*
X143949000Y-121569500D01*
G75*
G02*
X143699000Y-121819500I-250000J0D01*
G01*
X143024000Y-121819500D01*
G75*
G02*
X142774000Y-121569500I0J250000D01*
G01*
G37*
G36*
G01*
X133129000Y-131133000D02*
X134079000Y-131133000D01*
G75*
G02*
X134329000Y-131383000I0J-250000D01*
G01*
X134329000Y-132058000D01*
G75*
G02*
X134079000Y-132308000I-250000J0D01*
G01*
X133129000Y-132308000D01*
G75*
G02*
X132879000Y-132058000I0J250000D01*
G01*
X132879000Y-131383000D01*
G75*
G02*
X133129000Y-131133000I250000J0D01*
G01*
G37*
G36*
G01*
X133129000Y-129058000D02*
X134079000Y-129058000D01*
G75*
G02*
X134329000Y-129308000I0J-250000D01*
G01*
X134329000Y-129983000D01*
G75*
G02*
X134079000Y-130233000I-250000J0D01*
G01*
X133129000Y-130233000D01*
G75*
G02*
X132879000Y-129983000I0J250000D01*
G01*
X132879000Y-129308000D01*
G75*
G02*
X133129000Y-129058000I250000J0D01*
G01*
G37*
G36*
G01*
X148877000Y-119322000D02*
X149827000Y-119322000D01*
G75*
G02*
X150077000Y-119572000I0J-250000D01*
G01*
X150077000Y-120247000D01*
G75*
G02*
X149827000Y-120497000I-250000J0D01*
G01*
X148877000Y-120497000D01*
G75*
G02*
X148627000Y-120247000I0J250000D01*
G01*
X148627000Y-119572000D01*
G75*
G02*
X148877000Y-119322000I250000J0D01*
G01*
G37*
G36*
G01*
X148877000Y-117247000D02*
X149827000Y-117247000D01*
G75*
G02*
X150077000Y-117497000I0J-250000D01*
G01*
X150077000Y-118172000D01*
G75*
G02*
X149827000Y-118422000I-250000J0D01*
G01*
X148877000Y-118422000D01*
G75*
G02*
X148627000Y-118172000I0J250000D01*
G01*
X148627000Y-117497000D01*
G75*
G02*
X148877000Y-117247000I250000J0D01*
G01*
G37*
G36*
G01*
X152612000Y-130430500D02*
X153712000Y-130430500D01*
G75*
G02*
X153962000Y-130680500I0J-250000D01*
G01*
X153962000Y-133180500D01*
G75*
G02*
X153712000Y-133430500I-250000J0D01*
G01*
X152612000Y-133430500D01*
G75*
G02*
X152362000Y-133180500I0J250000D01*
G01*
X152362000Y-130680500D01*
G75*
G02*
X152612000Y-130430500I250000J0D01*
G01*
G37*
G36*
G01*
X152612000Y-126030500D02*
X153712000Y-126030500D01*
G75*
G02*
X153962000Y-126280500I0J-250000D01*
G01*
X153962000Y-128780500D01*
G75*
G02*
X153712000Y-129030500I-250000J0D01*
G01*
X152612000Y-129030500D01*
G75*
G02*
X152362000Y-128780500I0J250000D01*
G01*
X152362000Y-126280500D01*
G75*
G02*
X152612000Y-126030500I250000J0D01*
G01*
G37*
D13*
X164989500Y-132778500D03*
X162289500Y-132778500D03*
D14*
X157988000Y-134636500D03*
X157988000Y-131936500D03*
D15*
X153670000Y-106391000D03*
X153670000Y-108341000D03*
X153670000Y-110341000D03*
X153670000Y-112395000D03*
X153670000Y-114391000D03*
X153670000Y-116391000D03*
X170670000Y-119291000D03*
X170670000Y-117541000D03*
X170670000Y-115791000D03*
X170670000Y-114041000D03*
X170670000Y-112291000D03*
X170670000Y-110491000D03*
X170670000Y-108741000D03*
X170670000Y-106991000D03*
X170670000Y-105241000D03*
X170670000Y-103491000D03*
M02*
