G04 #@! TF.GenerationSoftware,KiCad,Pcbnew,5.1.10-88a1d61d58~88~ubuntu20.10.1*
G04 #@! TF.CreationDate,2021-05-21T17:46:03+03:00*
G04 #@! TF.ProjectId,Devboard,44657662-6f61-4726-942e-6b696361645f,rev?*
G04 #@! TF.SameCoordinates,Original*
G04 #@! TF.FileFunction,Copper,L2,Bot*
G04 #@! TF.FilePolarity,Positive*
%FSLAX46Y46*%
G04 Gerber Fmt 4.6, Leading zero omitted, Abs format (unit mm)*
G04 Created by KiCad (PCBNEW 5.1.10-88a1d61d58~88~ubuntu20.10.1) date 2021-05-21 17:46:03*
%MOMM*%
%LPD*%
G01*
G04 APERTURE LIST*
G04 #@! TA.AperFunction,NonConductor*
%ADD10C,0.250000*%
G04 #@! TD*
G04 #@! TA.AperFunction,ComponentPad*
%ADD11C,2.600000*%
G04 #@! TD*
G04 #@! TA.AperFunction,ComponentPad*
%ADD12R,2.600000X2.600000*%
G04 #@! TD*
G04 #@! TA.AperFunction,ComponentPad*
%ADD13O,1.700000X1.700000*%
G04 #@! TD*
G04 #@! TA.AperFunction,ComponentPad*
%ADD14R,1.700000X1.700000*%
G04 #@! TD*
G04 #@! TA.AperFunction,ComponentPad*
%ADD15O,1.600000X1.600000*%
G04 #@! TD*
G04 #@! TA.AperFunction,ComponentPad*
%ADD16C,1.600000*%
G04 #@! TD*
G04 #@! TA.AperFunction,ComponentPad*
%ADD17R,3.500000X3.500000*%
G04 #@! TD*
G04 #@! TA.AperFunction,ConnectorPad*
%ADD18C,7.000000*%
G04 #@! TD*
G04 #@! TA.AperFunction,ComponentPad*
%ADD19C,3.900000*%
G04 #@! TD*
G04 #@! TA.AperFunction,ComponentPad*
%ADD20C,2.000000*%
G04 #@! TD*
G04 #@! TA.AperFunction,ComponentPad*
%ADD21R,1.000000X1.000000*%
G04 #@! TD*
G04 #@! TA.AperFunction,ComponentPad*
%ADD22O,1.000000X1.000000*%
G04 #@! TD*
G04 #@! TA.AperFunction,ViaPad*
%ADD23C,0.600000*%
G04 #@! TD*
G04 #@! TA.AperFunction,Conductor*
%ADD24C,0.250000*%
G04 #@! TD*
G04 #@! TA.AperFunction,Conductor*
%ADD25C,0.500000*%
G04 #@! TD*
G04 #@! TA.AperFunction,Conductor*
%ADD26C,1.000000*%
G04 #@! TD*
G04 #@! TA.AperFunction,Conductor*
%ADD27C,0.254000*%
G04 #@! TD*
G04 #@! TA.AperFunction,Conductor*
%ADD28C,0.100000*%
G04 #@! TD*
G04 APERTURE END LIST*
D10*
X161968843Y-133705291D02*
X161825986Y-133752910D01*
X161778367Y-133800529D01*
X161730748Y-133895767D01*
X161730748Y-134038624D01*
X161778367Y-134133862D01*
X161825986Y-134181481D01*
X161921224Y-134229100D01*
X162302177Y-134229100D01*
X162302177Y-133229100D01*
X161968843Y-133229100D01*
X161873605Y-133276720D01*
X161825986Y-133324339D01*
X161778367Y-133419577D01*
X161778367Y-133514815D01*
X161825986Y-133610053D01*
X161873605Y-133657672D01*
X161968843Y-133705291D01*
X162302177Y-133705291D01*
X161111700Y-133229100D02*
X160921224Y-133229100D01*
X160825986Y-133276720D01*
X160730748Y-133371958D01*
X160683129Y-133562434D01*
X160683129Y-133895767D01*
X160730748Y-134086243D01*
X160825986Y-134181481D01*
X160921224Y-134229100D01*
X161111700Y-134229100D01*
X161206939Y-134181481D01*
X161302177Y-134086243D01*
X161349796Y-133895767D01*
X161349796Y-133562434D01*
X161302177Y-133371958D01*
X161206939Y-133276720D01*
X161111700Y-133229100D01*
X160397415Y-133229100D02*
X159825986Y-133229100D01*
X160111700Y-134229100D02*
X160111700Y-133229100D01*
X159635510Y-133229100D02*
X159064081Y-133229100D01*
X159349796Y-134229100D02*
X159349796Y-133229100D01*
X158540272Y-133229100D02*
X158349796Y-133229100D01*
X158254558Y-133276720D01*
X158159320Y-133371958D01*
X158111700Y-133562434D01*
X158111700Y-133895767D01*
X158159320Y-134086243D01*
X158254558Y-134181481D01*
X158349796Y-134229100D01*
X158540272Y-134229100D01*
X158635510Y-134181481D01*
X158730748Y-134086243D01*
X158778367Y-133895767D01*
X158778367Y-133562434D01*
X158730748Y-133371958D01*
X158635510Y-133276720D01*
X158540272Y-133229100D01*
X157683129Y-134229100D02*
X157683129Y-133229100D01*
X157349796Y-133943386D01*
X157016462Y-133229100D01*
X157016462Y-134229100D01*
D11*
X188976000Y-106412000D03*
X188976000Y-111412000D03*
X188976000Y-116412000D03*
D12*
X188976000Y-121412000D03*
D13*
X138988800Y-91541600D03*
D14*
X141528800Y-91541600D03*
D13*
X125730000Y-126111000D03*
D14*
X128270000Y-126111000D03*
D15*
X133299200Y-114147600D03*
D16*
X133299200Y-103987600D03*
D15*
X132461000Y-116967000D03*
D16*
X132461000Y-127127000D03*
G04 #@! TA.AperFunction,ComponentPad*
G36*
G01*
X123266000Y-122669000D02*
X123266000Y-120919000D01*
G75*
G02*
X124141000Y-120044000I875000J0D01*
G01*
X125891000Y-120044000D01*
G75*
G02*
X126766000Y-120919000I0J-875000D01*
G01*
X126766000Y-122669000D01*
G75*
G02*
X125891000Y-123544000I-875000J0D01*
G01*
X124141000Y-123544000D01*
G75*
G02*
X123266000Y-122669000I0J875000D01*
G01*
G37*
G04 #@! TD.AperFunction*
G04 #@! TA.AperFunction,ComponentPad*
G36*
G01*
X120516000Y-118094000D02*
X120516000Y-116094000D01*
G75*
G02*
X121266000Y-115344000I750000J0D01*
G01*
X122766000Y-115344000D01*
G75*
G02*
X123516000Y-116094000I0J-750000D01*
G01*
X123516000Y-118094000D01*
G75*
G02*
X122766000Y-118844000I-750000J0D01*
G01*
X121266000Y-118844000D01*
G75*
G02*
X120516000Y-118094000I0J750000D01*
G01*
G37*
G04 #@! TD.AperFunction*
D17*
X128016000Y-117094000D03*
D11*
X124714000Y-108886000D03*
D12*
X124714000Y-103886000D03*
D18*
X188952000Y-132334000D03*
D19*
X188952000Y-132334000D03*
D18*
X123952000Y-132334000D03*
D19*
X123952000Y-132334000D03*
D18*
X188952000Y-94334000D03*
D19*
X188952000Y-94334000D03*
D18*
X123952000Y-94334000D03*
D19*
X123952000Y-94334000D03*
D14*
X137414000Y-115760500D03*
D13*
X137414000Y-118300500D03*
D14*
X145149500Y-102552500D03*
D13*
X145149500Y-105092500D03*
X145149500Y-107632500D03*
X145149500Y-110172500D03*
X145149500Y-112712500D03*
X145149500Y-115252500D03*
D14*
X180340000Y-102552500D03*
D13*
X180340000Y-105092500D03*
X180340000Y-107632500D03*
X180340000Y-110172500D03*
X180340000Y-112712500D03*
X180340000Y-115252500D03*
X180340000Y-117792500D03*
X180340000Y-120332500D03*
X180340000Y-122872500D03*
X180340000Y-125412500D03*
D20*
X174625000Y-99115000D03*
X174625000Y-94615000D03*
X181125000Y-99115000D03*
X181125000Y-94615000D03*
D21*
X168275000Y-126365000D03*
D22*
X168275000Y-125095000D03*
X169545000Y-126365000D03*
X169545000Y-125095000D03*
X170815000Y-126365000D03*
X170815000Y-125095000D03*
X172085000Y-126365000D03*
X172085000Y-125095000D03*
X173355000Y-126365000D03*
X173355000Y-125095000D03*
D14*
X158115000Y-127000000D03*
D13*
X158115000Y-124460000D03*
X160655000Y-127000000D03*
X160655000Y-124460000D03*
X163195000Y-127000000D03*
X163195000Y-124460000D03*
D23*
X151638000Y-114401600D03*
X149352000Y-121158000D03*
X155549600Y-114350800D03*
X177292000Y-99060000D03*
X178562000Y-99060000D03*
X133604000Y-133096000D03*
X142240000Y-130556000D03*
X181996080Y-125409960D03*
X135077200Y-123469400D03*
X138760200Y-123444000D03*
X136779000Y-121894600D03*
X168363900Y-105740200D03*
X170662600Y-120599200D03*
X169545000Y-127635000D03*
X170815000Y-127584200D03*
X173355000Y-127533400D03*
X166674800Y-107518200D03*
X146748500Y-112776000D03*
X137414000Y-113982500D03*
X138938000Y-115760500D03*
X142240000Y-134239000D03*
X149542500Y-133985000D03*
X145669000Y-133921500D03*
X144526000Y-132334000D03*
X154813000Y-131953000D03*
X151511000Y-131953000D03*
X125730000Y-127812800D03*
X166687500Y-132778500D03*
X164973000Y-131254500D03*
X146812000Y-121158000D03*
X165417500Y-124269500D03*
X143319500Y-112776000D03*
X124002800Y-126136400D03*
X138988800Y-89916000D03*
X137160000Y-91541600D03*
X138328400Y-98856800D03*
X138379200Y-101955600D03*
X140462000Y-97840800D03*
X142087600Y-97840800D03*
X140919200Y-103784400D03*
X140919200Y-106578400D03*
X135966200Y-104952800D03*
X145389600Y-94386400D03*
X138988800Y-97840800D03*
X147116800Y-96012000D03*
X135966200Y-107670600D03*
X134543800Y-106324400D03*
X131302760Y-130865880D03*
X180700680Y-91440000D03*
X132755640Y-91978480D03*
X180086000Y-132339080D03*
X188976000Y-123952000D03*
X186690000Y-121412000D03*
X191262000Y-121412000D03*
X186014360Y-99420680D03*
X185567320Y-101615240D03*
X171450000Y-134620000D03*
X175006000Y-134620000D03*
X178562000Y-134620000D03*
X149098000Y-114554000D03*
X147320000Y-115824000D03*
X145516600Y-124947680D03*
X167868600Y-119913400D03*
X166776398Y-122961400D03*
X166319200Y-120802400D03*
D24*
X142334700Y-122109400D02*
X143510000Y-123284700D01*
X142334700Y-117553300D02*
X142334700Y-122109400D01*
X143142700Y-116745300D02*
X142334700Y-117553300D01*
X143510000Y-116745300D02*
X143142700Y-116745300D01*
X143510000Y-115570000D02*
X143510000Y-116745300D01*
X143510000Y-124460000D02*
X143510000Y-123284700D01*
D25*
X168402000Y-126492000D02*
X168402000Y-126238000D01*
X160274000Y-129794000D02*
X165100000Y-129794000D01*
X165100000Y-129794000D02*
X168402000Y-126492000D01*
X145516600Y-124947680D02*
X145516600Y-124947680D01*
D26*
X145516600Y-124947680D02*
X151109678Y-124947680D01*
X151109678Y-124947680D02*
X153497280Y-124947680D01*
X153497280Y-124947680D02*
X155600400Y-127050800D01*
X155600400Y-127050800D02*
X158038800Y-127050800D01*
X158115000Y-127635000D02*
X160274000Y-129794000D01*
X158115000Y-127000000D02*
X158115000Y-127635000D01*
X165201600Y-129794000D02*
X168249600Y-126746000D01*
X160274000Y-129794000D02*
X165201600Y-129794000D01*
X168249600Y-126746000D02*
X168249600Y-126441200D01*
D24*
X168275000Y-125095000D02*
X168275000Y-124269700D01*
D25*
X162052000Y-119888000D02*
X157988000Y-123952000D01*
X157988000Y-123952000D02*
X157988000Y-124460000D01*
X167868600Y-119913400D02*
X167843200Y-119888000D01*
D26*
X163474400Y-118973600D02*
X158038800Y-124409200D01*
X166928800Y-118973600D02*
X163474400Y-118973600D01*
X168275000Y-125095000D02*
X168275000Y-122910600D01*
X168275000Y-122910600D02*
X168452800Y-122732800D01*
X168452800Y-122732800D02*
X168452800Y-120497600D01*
X168452800Y-120497600D02*
X167868600Y-119913400D01*
X167568601Y-119613401D02*
X166928800Y-118973600D01*
D25*
X179971700Y-112763300D02*
X179832000Y-112903000D01*
X174117000Y-112763300D02*
X179971700Y-112763300D01*
D26*
X174117000Y-112763300D02*
X180301900Y-112763300D01*
X180301900Y-112763300D02*
X180390800Y-112674400D01*
D25*
X172487306Y-121035094D02*
X169519600Y-124002800D01*
X169519600Y-124002800D02*
X169519600Y-125120400D01*
D26*
X172487306Y-121035094D02*
X169614999Y-123907401D01*
X169614999Y-123907401D02*
X169614999Y-124518999D01*
X169614999Y-124518999D02*
X169614999Y-125069600D01*
X172897800Y-113982500D02*
X174117000Y-112763300D01*
X172897800Y-120624600D02*
X172897800Y-113982500D01*
X172313600Y-121208800D02*
X172897800Y-120624600D01*
X166776398Y-122961400D02*
X166776398Y-121259598D01*
X166776398Y-121259598D02*
X166319200Y-120802400D01*
X181150400Y-94589600D02*
X181125000Y-94615000D01*
X181203600Y-94589600D02*
X181150400Y-94589600D01*
X183921400Y-97307400D02*
X181203600Y-94589600D01*
X183540400Y-102641400D02*
X183921400Y-102260400D01*
X180416200Y-102641400D02*
X183540400Y-102641400D01*
X183921400Y-102260400D02*
X183921400Y-97307400D01*
X180390800Y-102616000D02*
X180416200Y-102641400D01*
D27*
X191614576Y-89572515D02*
X192062304Y-89624200D01*
X192463093Y-89752765D01*
X192831281Y-89956729D01*
X193152838Y-90228324D01*
X193415517Y-90557200D01*
X193609318Y-90930842D01*
X193729200Y-91343078D01*
X193765553Y-91671573D01*
X193828955Y-134449333D01*
X193790035Y-134909244D01*
X193673711Y-135313927D01*
X193480997Y-135688312D01*
X193219237Y-136018132D01*
X192898402Y-136290826D01*
X192530699Y-136496016D01*
X192130160Y-136625872D01*
X191682039Y-136679013D01*
X121804499Y-136703553D01*
X121290113Y-136678538D01*
X120842850Y-136567153D01*
X120425741Y-136371017D01*
X120054677Y-136097604D01*
X119743780Y-135757317D01*
X119504903Y-135363128D01*
X119347138Y-134930046D01*
X119275103Y-134465577D01*
X119281216Y-134107306D01*
X119281632Y-134103330D01*
X119295076Y-131926738D01*
X119817000Y-131926738D01*
X119817000Y-132741262D01*
X119975906Y-133540135D01*
X120287611Y-134292657D01*
X120740136Y-134969909D01*
X121316091Y-135545864D01*
X121993343Y-135998389D01*
X122745865Y-136310094D01*
X123544738Y-136469000D01*
X124359262Y-136469000D01*
X125158135Y-136310094D01*
X125910657Y-135998389D01*
X126587909Y-135545864D01*
X127163864Y-134969909D01*
X127616389Y-134292657D01*
X127928094Y-133540135D01*
X128087000Y-132741262D01*
X128087000Y-132359220D01*
X156018368Y-132359220D01*
X156018368Y-135379220D01*
X163300273Y-135379220D01*
X163300273Y-132359220D01*
X156018368Y-132359220D01*
X128087000Y-132359220D01*
X128087000Y-131926738D01*
X184817000Y-131926738D01*
X184817000Y-132741262D01*
X184975906Y-133540135D01*
X185287611Y-134292657D01*
X185740136Y-134969909D01*
X186316091Y-135545864D01*
X186993343Y-135998389D01*
X187745865Y-136310094D01*
X188544738Y-136469000D01*
X189359262Y-136469000D01*
X190158135Y-136310094D01*
X190910657Y-135998389D01*
X191587909Y-135545864D01*
X192163864Y-134969909D01*
X192616389Y-134292657D01*
X192928094Y-133540135D01*
X193087000Y-132741262D01*
X193087000Y-131926738D01*
X192928094Y-131127865D01*
X192616389Y-130375343D01*
X192163864Y-129698091D01*
X191587909Y-129122136D01*
X190910657Y-128669611D01*
X190158135Y-128357906D01*
X189359262Y-128199000D01*
X188544738Y-128199000D01*
X187745865Y-128357906D01*
X186993343Y-128669611D01*
X186316091Y-129122136D01*
X185740136Y-129698091D01*
X185287611Y-130375343D01*
X184975906Y-131127865D01*
X184817000Y-131926738D01*
X128087000Y-131926738D01*
X127928094Y-131127865D01*
X127616389Y-130375343D01*
X127163864Y-129698091D01*
X126587909Y-129122136D01*
X125910657Y-128669611D01*
X125158135Y-128357906D01*
X124359262Y-128199000D01*
X123544738Y-128199000D01*
X122745865Y-128357906D01*
X121993343Y-128669611D01*
X121316091Y-129122136D01*
X120740136Y-129698091D01*
X120287611Y-130375343D01*
X119975906Y-131127865D01*
X119817000Y-131926738D01*
X119295076Y-131926738D01*
X119328794Y-126467891D01*
X124288519Y-126467891D01*
X124385843Y-126742252D01*
X124534822Y-126992355D01*
X124729731Y-127208588D01*
X124963080Y-127382641D01*
X125225901Y-127507825D01*
X125373110Y-127552476D01*
X125603000Y-127431155D01*
X125603000Y-126238000D01*
X124409186Y-126238000D01*
X124288519Y-126467891D01*
X119328794Y-126467891D01*
X119333202Y-125754109D01*
X124288519Y-125754109D01*
X124409186Y-125984000D01*
X125603000Y-125984000D01*
X125603000Y-124790845D01*
X125857000Y-124790845D01*
X125857000Y-125984000D01*
X125877000Y-125984000D01*
X125877000Y-126238000D01*
X125857000Y-126238000D01*
X125857000Y-127431155D01*
X126086890Y-127552476D01*
X126234099Y-127507825D01*
X126496920Y-127382641D01*
X126730269Y-127208588D01*
X126806034Y-127124534D01*
X126830498Y-127205180D01*
X126889463Y-127315494D01*
X126968815Y-127412185D01*
X127065506Y-127491537D01*
X127175820Y-127550502D01*
X127295518Y-127586812D01*
X127420000Y-127599072D01*
X129120000Y-127599072D01*
X129244482Y-127586812D01*
X129364180Y-127550502D01*
X129474494Y-127491537D01*
X129571185Y-127412185D01*
X129650537Y-127315494D01*
X129709502Y-127205180D01*
X129745812Y-127085482D01*
X129755642Y-126985665D01*
X131026000Y-126985665D01*
X131026000Y-127268335D01*
X131081147Y-127545574D01*
X131189320Y-127806727D01*
X131346363Y-128041759D01*
X131546241Y-128241637D01*
X131781273Y-128398680D01*
X132042426Y-128506853D01*
X132319665Y-128562000D01*
X132602335Y-128562000D01*
X132879574Y-128506853D01*
X133140727Y-128398680D01*
X133375759Y-128241637D01*
X133575637Y-128041759D01*
X133732680Y-127806727D01*
X133840853Y-127545574D01*
X133896000Y-127268335D01*
X133896000Y-126985665D01*
X133840853Y-126708426D01*
X133732680Y-126447273D01*
X133575637Y-126212241D01*
X133375759Y-126012363D01*
X133140727Y-125855320D01*
X132879574Y-125747147D01*
X132602335Y-125692000D01*
X132319665Y-125692000D01*
X132042426Y-125747147D01*
X131781273Y-125855320D01*
X131546241Y-126012363D01*
X131346363Y-126212241D01*
X131189320Y-126447273D01*
X131081147Y-126708426D01*
X131026000Y-126985665D01*
X129755642Y-126985665D01*
X129758072Y-126961000D01*
X129758072Y-125261000D01*
X129745812Y-125136518D01*
X129709502Y-125016820D01*
X129672546Y-124947680D01*
X144376109Y-124947680D01*
X144398023Y-125170179D01*
X144462924Y-125384127D01*
X144568316Y-125581303D01*
X144710151Y-125754129D01*
X144882977Y-125895964D01*
X145080153Y-126001356D01*
X145294101Y-126066257D01*
X145460848Y-126082680D01*
X153027149Y-126082680D01*
X154758409Y-127813941D01*
X154793951Y-127857249D01*
X154966777Y-127999084D01*
X155163953Y-128104476D01*
X155377901Y-128169377D01*
X155600400Y-128191291D01*
X155656152Y-128185800D01*
X156724471Y-128185800D01*
X156734463Y-128204494D01*
X156813815Y-128301185D01*
X156910506Y-128380537D01*
X157020820Y-128439502D01*
X157140518Y-128475812D01*
X157265000Y-128488072D01*
X157362941Y-128488072D01*
X159432009Y-130557141D01*
X159467551Y-130600449D01*
X159640377Y-130742284D01*
X159837553Y-130847676D01*
X160051501Y-130912577D01*
X160273999Y-130934491D01*
X160329751Y-130929000D01*
X165145849Y-130929000D01*
X165201600Y-130934491D01*
X165257351Y-130929000D01*
X165257352Y-130929000D01*
X165424099Y-130912577D01*
X165638047Y-130847676D01*
X165835223Y-130742284D01*
X166008049Y-130600449D01*
X166043596Y-130557135D01*
X169012741Y-127587991D01*
X169056049Y-127552449D01*
X169157496Y-127428836D01*
X169188136Y-127442446D01*
X169243126Y-127459119D01*
X169418000Y-127332954D01*
X169418000Y-126492000D01*
X169672000Y-126492000D01*
X169672000Y-127332954D01*
X169846874Y-127459119D01*
X169901864Y-127442446D01*
X170105206Y-127352123D01*
X170180000Y-127299361D01*
X170254794Y-127352123D01*
X170458136Y-127442446D01*
X170513126Y-127459119D01*
X170688000Y-127332954D01*
X170688000Y-126492000D01*
X169672000Y-126492000D01*
X169418000Y-126492000D01*
X169413072Y-126492000D01*
X169413072Y-126238000D01*
X169418000Y-126238000D01*
X169418000Y-126226974D01*
X169433212Y-126230000D01*
X169656788Y-126230000D01*
X169672000Y-126226974D01*
X169672000Y-126238000D01*
X170688000Y-126238000D01*
X170688000Y-126226974D01*
X170703212Y-126230000D01*
X170926788Y-126230000D01*
X170942000Y-126226974D01*
X170942000Y-126238000D01*
X170953026Y-126238000D01*
X170950000Y-126253212D01*
X170950000Y-126476788D01*
X170953026Y-126492000D01*
X170942000Y-126492000D01*
X170942000Y-127332954D01*
X171116874Y-127459119D01*
X171171864Y-127442446D01*
X171375206Y-127352123D01*
X171445342Y-127302647D01*
X171547376Y-127370824D01*
X171753933Y-127456383D01*
X171973212Y-127500000D01*
X172196788Y-127500000D01*
X172416067Y-127456383D01*
X172622624Y-127370824D01*
X172724658Y-127302647D01*
X172794794Y-127352123D01*
X172998136Y-127442446D01*
X173053126Y-127459119D01*
X173228000Y-127332954D01*
X173228000Y-126492000D01*
X173482000Y-126492000D01*
X173482000Y-127332954D01*
X173656874Y-127459119D01*
X173711864Y-127442446D01*
X173915206Y-127352123D01*
X174097020Y-127223865D01*
X174250318Y-127062601D01*
X174369210Y-126874529D01*
X174449126Y-126666876D01*
X174324129Y-126492000D01*
X173482000Y-126492000D01*
X173228000Y-126492000D01*
X173216974Y-126492000D01*
X173220000Y-126476788D01*
X173220000Y-126253212D01*
X173216974Y-126238000D01*
X173228000Y-126238000D01*
X173228000Y-126226974D01*
X173243212Y-126230000D01*
X173466788Y-126230000D01*
X173482000Y-126226974D01*
X173482000Y-126238000D01*
X174324129Y-126238000D01*
X174449126Y-126063124D01*
X174369210Y-125855471D01*
X174314793Y-125769390D01*
X178898524Y-125769390D01*
X178943175Y-125916599D01*
X179068359Y-126179420D01*
X179242412Y-126412769D01*
X179458645Y-126607678D01*
X179708748Y-126756657D01*
X179983109Y-126853981D01*
X180213000Y-126733314D01*
X180213000Y-125539500D01*
X180467000Y-125539500D01*
X180467000Y-126733314D01*
X180696891Y-126853981D01*
X180971252Y-126756657D01*
X181221355Y-126607678D01*
X181437588Y-126412769D01*
X181611641Y-126179420D01*
X181736825Y-125916599D01*
X181781476Y-125769390D01*
X181660155Y-125539500D01*
X180467000Y-125539500D01*
X180213000Y-125539500D01*
X179019845Y-125539500D01*
X178898524Y-125769390D01*
X174314793Y-125769390D01*
X174292744Y-125734512D01*
X174360824Y-125632624D01*
X174446383Y-125426067D01*
X174490000Y-125206788D01*
X174490000Y-124983212D01*
X174446383Y-124763933D01*
X174360824Y-124557376D01*
X174236612Y-124371480D01*
X174078520Y-124213388D01*
X173892624Y-124089176D01*
X173686067Y-124003617D01*
X173466788Y-123960000D01*
X173243212Y-123960000D01*
X173023933Y-124003617D01*
X172817376Y-124089176D01*
X172720000Y-124154241D01*
X172622624Y-124089176D01*
X172416067Y-124003617D01*
X172196788Y-123960000D01*
X171973212Y-123960000D01*
X171753933Y-124003617D01*
X171547376Y-124089176D01*
X171450000Y-124154241D01*
X171352624Y-124089176D01*
X171146067Y-124003617D01*
X171127590Y-123999942D01*
X173329295Y-121798238D01*
X173329302Y-121798229D01*
X173660940Y-121466592D01*
X173704249Y-121431049D01*
X173846084Y-121258223D01*
X173951476Y-121061047D01*
X174016377Y-120847099D01*
X174032800Y-120680352D01*
X174032800Y-120680351D01*
X174038291Y-120624600D01*
X174032800Y-120568848D01*
X174032800Y-114452631D01*
X174587132Y-113898300D01*
X179441746Y-113898300D01*
X179567760Y-113982500D01*
X179393368Y-114099025D01*
X179186525Y-114305868D01*
X179024010Y-114549089D01*
X178912068Y-114819342D01*
X178855000Y-115106240D01*
X178855000Y-115398760D01*
X178912068Y-115685658D01*
X179024010Y-115955911D01*
X179186525Y-116199132D01*
X179393368Y-116405975D01*
X179567760Y-116522500D01*
X179393368Y-116639025D01*
X179186525Y-116845868D01*
X179024010Y-117089089D01*
X178912068Y-117359342D01*
X178855000Y-117646240D01*
X178855000Y-117938760D01*
X178912068Y-118225658D01*
X179024010Y-118495911D01*
X179186525Y-118739132D01*
X179393368Y-118945975D01*
X179567760Y-119062500D01*
X179393368Y-119179025D01*
X179186525Y-119385868D01*
X179024010Y-119629089D01*
X178912068Y-119899342D01*
X178855000Y-120186240D01*
X178855000Y-120478760D01*
X178912068Y-120765658D01*
X179024010Y-121035911D01*
X179186525Y-121279132D01*
X179393368Y-121485975D01*
X179567760Y-121602500D01*
X179393368Y-121719025D01*
X179186525Y-121925868D01*
X179024010Y-122169089D01*
X178912068Y-122439342D01*
X178855000Y-122726240D01*
X178855000Y-123018760D01*
X178912068Y-123305658D01*
X179024010Y-123575911D01*
X179186525Y-123819132D01*
X179393368Y-124025975D01*
X179575534Y-124147695D01*
X179458645Y-124217322D01*
X179242412Y-124412231D01*
X179068359Y-124645580D01*
X178943175Y-124908401D01*
X178898524Y-125055610D01*
X179019845Y-125285500D01*
X180213000Y-125285500D01*
X180213000Y-125265500D01*
X180467000Y-125265500D01*
X180467000Y-125285500D01*
X181660155Y-125285500D01*
X181781476Y-125055610D01*
X181736825Y-124908401D01*
X181611641Y-124645580D01*
X181437588Y-124412231D01*
X181221355Y-124217322D01*
X181104466Y-124147695D01*
X181286632Y-124025975D01*
X181493475Y-123819132D01*
X181655990Y-123575911D01*
X181767932Y-123305658D01*
X181825000Y-123018760D01*
X181825000Y-122726240D01*
X181822168Y-122712000D01*
X187037928Y-122712000D01*
X187050188Y-122836482D01*
X187086498Y-122956180D01*
X187145463Y-123066494D01*
X187224815Y-123163185D01*
X187321506Y-123242537D01*
X187431820Y-123301502D01*
X187551518Y-123337812D01*
X187676000Y-123350072D01*
X188690250Y-123347000D01*
X188849000Y-123188250D01*
X188849000Y-121539000D01*
X189103000Y-121539000D01*
X189103000Y-123188250D01*
X189261750Y-123347000D01*
X190276000Y-123350072D01*
X190400482Y-123337812D01*
X190520180Y-123301502D01*
X190630494Y-123242537D01*
X190727185Y-123163185D01*
X190806537Y-123066494D01*
X190865502Y-122956180D01*
X190901812Y-122836482D01*
X190914072Y-122712000D01*
X190911000Y-121697750D01*
X190752250Y-121539000D01*
X189103000Y-121539000D01*
X188849000Y-121539000D01*
X187199750Y-121539000D01*
X187041000Y-121697750D01*
X187037928Y-122712000D01*
X181822168Y-122712000D01*
X181767932Y-122439342D01*
X181655990Y-122169089D01*
X181493475Y-121925868D01*
X181286632Y-121719025D01*
X181112240Y-121602500D01*
X181286632Y-121485975D01*
X181493475Y-121279132D01*
X181655990Y-121035911D01*
X181767932Y-120765658D01*
X181825000Y-120478760D01*
X181825000Y-120186240D01*
X181810233Y-120112000D01*
X187037928Y-120112000D01*
X187041000Y-121126250D01*
X187199750Y-121285000D01*
X188849000Y-121285000D01*
X188849000Y-119635750D01*
X189103000Y-119635750D01*
X189103000Y-121285000D01*
X190752250Y-121285000D01*
X190911000Y-121126250D01*
X190914072Y-120112000D01*
X190901812Y-119987518D01*
X190865502Y-119867820D01*
X190806537Y-119757506D01*
X190727185Y-119660815D01*
X190630494Y-119581463D01*
X190520180Y-119522498D01*
X190400482Y-119486188D01*
X190276000Y-119473928D01*
X189261750Y-119477000D01*
X189103000Y-119635750D01*
X188849000Y-119635750D01*
X188690250Y-119477000D01*
X187676000Y-119473928D01*
X187551518Y-119486188D01*
X187431820Y-119522498D01*
X187321506Y-119581463D01*
X187224815Y-119660815D01*
X187145463Y-119757506D01*
X187086498Y-119867820D01*
X187050188Y-119987518D01*
X187037928Y-120112000D01*
X181810233Y-120112000D01*
X181767932Y-119899342D01*
X181655990Y-119629089D01*
X181493475Y-119385868D01*
X181286632Y-119179025D01*
X181112240Y-119062500D01*
X181286632Y-118945975D01*
X181493475Y-118739132D01*
X181655990Y-118495911D01*
X181767932Y-118225658D01*
X181825000Y-117938760D01*
X181825000Y-117646240D01*
X181767932Y-117359342D01*
X181655990Y-117089089D01*
X181493475Y-116845868D01*
X181286632Y-116639025D01*
X181112240Y-116522500D01*
X181286632Y-116405975D01*
X181471188Y-116221419D01*
X187041000Y-116221419D01*
X187041000Y-116602581D01*
X187115361Y-116976419D01*
X187261225Y-117328566D01*
X187472987Y-117645491D01*
X187742509Y-117915013D01*
X188059434Y-118126775D01*
X188411581Y-118272639D01*
X188785419Y-118347000D01*
X189166581Y-118347000D01*
X189540419Y-118272639D01*
X189892566Y-118126775D01*
X190209491Y-117915013D01*
X190479013Y-117645491D01*
X190690775Y-117328566D01*
X190836639Y-116976419D01*
X190911000Y-116602581D01*
X190911000Y-116221419D01*
X190836639Y-115847581D01*
X190690775Y-115495434D01*
X190479013Y-115178509D01*
X190209491Y-114908987D01*
X189892566Y-114697225D01*
X189540419Y-114551361D01*
X189166581Y-114477000D01*
X188785419Y-114477000D01*
X188411581Y-114551361D01*
X188059434Y-114697225D01*
X187742509Y-114908987D01*
X187472987Y-115178509D01*
X187261225Y-115495434D01*
X187115361Y-115847581D01*
X187041000Y-116221419D01*
X181471188Y-116221419D01*
X181493475Y-116199132D01*
X181655990Y-115955911D01*
X181767932Y-115685658D01*
X181825000Y-115398760D01*
X181825000Y-115106240D01*
X181767932Y-114819342D01*
X181655990Y-114549089D01*
X181493475Y-114305868D01*
X181286632Y-114099025D01*
X181112240Y-113982500D01*
X181286632Y-113865975D01*
X181493475Y-113659132D01*
X181655990Y-113415911D01*
X181767932Y-113145658D01*
X181825000Y-112858760D01*
X181825000Y-112566240D01*
X181767932Y-112279342D01*
X181655990Y-112009089D01*
X181493475Y-111765868D01*
X181286632Y-111559025D01*
X181112240Y-111442500D01*
X181286632Y-111325975D01*
X181391188Y-111221419D01*
X187041000Y-111221419D01*
X187041000Y-111602581D01*
X187115361Y-111976419D01*
X187261225Y-112328566D01*
X187472987Y-112645491D01*
X187742509Y-112915013D01*
X188059434Y-113126775D01*
X188411581Y-113272639D01*
X188785419Y-113347000D01*
X189166581Y-113347000D01*
X189540419Y-113272639D01*
X189892566Y-113126775D01*
X190209491Y-112915013D01*
X190479013Y-112645491D01*
X190690775Y-112328566D01*
X190836639Y-111976419D01*
X190911000Y-111602581D01*
X190911000Y-111221419D01*
X190836639Y-110847581D01*
X190690775Y-110495434D01*
X190479013Y-110178509D01*
X190209491Y-109908987D01*
X189892566Y-109697225D01*
X189540419Y-109551361D01*
X189166581Y-109477000D01*
X188785419Y-109477000D01*
X188411581Y-109551361D01*
X188059434Y-109697225D01*
X187742509Y-109908987D01*
X187472987Y-110178509D01*
X187261225Y-110495434D01*
X187115361Y-110847581D01*
X187041000Y-111221419D01*
X181391188Y-111221419D01*
X181493475Y-111119132D01*
X181655990Y-110875911D01*
X181767932Y-110605658D01*
X181825000Y-110318760D01*
X181825000Y-110026240D01*
X181767932Y-109739342D01*
X181655990Y-109469089D01*
X181493475Y-109225868D01*
X181286632Y-109019025D01*
X181112240Y-108902500D01*
X181286632Y-108785975D01*
X181493475Y-108579132D01*
X181655990Y-108335911D01*
X181767932Y-108065658D01*
X181825000Y-107778760D01*
X181825000Y-107486240D01*
X181767932Y-107199342D01*
X181655990Y-106929089D01*
X181493475Y-106685868D01*
X181286632Y-106479025D01*
X181112240Y-106362500D01*
X181286632Y-106245975D01*
X181311188Y-106221419D01*
X187041000Y-106221419D01*
X187041000Y-106602581D01*
X187115361Y-106976419D01*
X187261225Y-107328566D01*
X187472987Y-107645491D01*
X187742509Y-107915013D01*
X188059434Y-108126775D01*
X188411581Y-108272639D01*
X188785419Y-108347000D01*
X189166581Y-108347000D01*
X189540419Y-108272639D01*
X189892566Y-108126775D01*
X190209491Y-107915013D01*
X190479013Y-107645491D01*
X190690775Y-107328566D01*
X190836639Y-106976419D01*
X190911000Y-106602581D01*
X190911000Y-106221419D01*
X190836639Y-105847581D01*
X190690775Y-105495434D01*
X190479013Y-105178509D01*
X190209491Y-104908987D01*
X189892566Y-104697225D01*
X189540419Y-104551361D01*
X189166581Y-104477000D01*
X188785419Y-104477000D01*
X188411581Y-104551361D01*
X188059434Y-104697225D01*
X187742509Y-104908987D01*
X187472987Y-105178509D01*
X187261225Y-105495434D01*
X187115361Y-105847581D01*
X187041000Y-106221419D01*
X181311188Y-106221419D01*
X181493475Y-106039132D01*
X181655990Y-105795911D01*
X181767932Y-105525658D01*
X181825000Y-105238760D01*
X181825000Y-104946240D01*
X181767932Y-104659342D01*
X181655990Y-104389089D01*
X181493475Y-104145868D01*
X181361620Y-104014013D01*
X181434180Y-103992002D01*
X181544494Y-103933037D01*
X181641185Y-103853685D01*
X181704611Y-103776400D01*
X183484649Y-103776400D01*
X183540400Y-103781891D01*
X183596151Y-103776400D01*
X183596152Y-103776400D01*
X183762899Y-103759977D01*
X183976847Y-103695076D01*
X184174023Y-103589684D01*
X184346849Y-103447849D01*
X184382396Y-103404535D01*
X184684535Y-103102396D01*
X184727849Y-103066849D01*
X184869684Y-102894023D01*
X184975076Y-102696847D01*
X185039977Y-102482899D01*
X185056400Y-102316152D01*
X185056400Y-102316143D01*
X185061890Y-102260401D01*
X185056400Y-102204659D01*
X185056400Y-97363152D01*
X185061891Y-97307400D01*
X185039977Y-97084901D01*
X184975076Y-96870953D01*
X184869684Y-96673777D01*
X184763389Y-96544256D01*
X184763387Y-96544254D01*
X184727849Y-96500951D01*
X184684546Y-96465413D01*
X182760000Y-94540868D01*
X182760000Y-94453967D01*
X182697168Y-94138088D01*
X182609624Y-93926738D01*
X184817000Y-93926738D01*
X184817000Y-94741262D01*
X184975906Y-95540135D01*
X185287611Y-96292657D01*
X185740136Y-96969909D01*
X186316091Y-97545864D01*
X186993343Y-97998389D01*
X187745865Y-98310094D01*
X188544738Y-98469000D01*
X189359262Y-98469000D01*
X190158135Y-98310094D01*
X190910657Y-97998389D01*
X191587909Y-97545864D01*
X192163864Y-96969909D01*
X192616389Y-96292657D01*
X192928094Y-95540135D01*
X193087000Y-94741262D01*
X193087000Y-93926738D01*
X192928094Y-93127865D01*
X192616389Y-92375343D01*
X192163864Y-91698091D01*
X191587909Y-91122136D01*
X190910657Y-90669611D01*
X190158135Y-90357906D01*
X189359262Y-90199000D01*
X188544738Y-90199000D01*
X187745865Y-90357906D01*
X186993343Y-90669611D01*
X186316091Y-91122136D01*
X185740136Y-91698091D01*
X185287611Y-92375343D01*
X184975906Y-93127865D01*
X184817000Y-93926738D01*
X182609624Y-93926738D01*
X182573918Y-93840537D01*
X182394987Y-93572748D01*
X182167252Y-93345013D01*
X181899463Y-93166082D01*
X181601912Y-93042832D01*
X181286033Y-92980000D01*
X180963967Y-92980000D01*
X180648088Y-93042832D01*
X180350537Y-93166082D01*
X180082748Y-93345013D01*
X179855013Y-93572748D01*
X179676082Y-93840537D01*
X179552832Y-94138088D01*
X179490000Y-94453967D01*
X179490000Y-94776033D01*
X179552832Y-95091912D01*
X179676082Y-95389463D01*
X179855013Y-95657252D01*
X180082748Y-95884987D01*
X180350537Y-96063918D01*
X180648088Y-96187168D01*
X180963967Y-96250000D01*
X181258868Y-96250000D01*
X182786401Y-97777534D01*
X182786400Y-101506400D01*
X181794087Y-101506400D01*
X181779502Y-101458320D01*
X181720537Y-101348006D01*
X181641185Y-101251315D01*
X181544494Y-101171963D01*
X181434180Y-101112998D01*
X181314482Y-101076688D01*
X181190000Y-101064428D01*
X179490000Y-101064428D01*
X179365518Y-101076688D01*
X179245820Y-101112998D01*
X179135506Y-101171963D01*
X179038815Y-101251315D01*
X178959463Y-101348006D01*
X178900498Y-101458320D01*
X178864188Y-101578018D01*
X178851928Y-101702500D01*
X178851928Y-103402500D01*
X178864188Y-103526982D01*
X178900498Y-103646680D01*
X178959463Y-103756994D01*
X179038815Y-103853685D01*
X179135506Y-103933037D01*
X179245820Y-103992002D01*
X179318380Y-104014013D01*
X179186525Y-104145868D01*
X179024010Y-104389089D01*
X178912068Y-104659342D01*
X178855000Y-104946240D01*
X178855000Y-105238760D01*
X178912068Y-105525658D01*
X179024010Y-105795911D01*
X179186525Y-106039132D01*
X179393368Y-106245975D01*
X179567760Y-106362500D01*
X179393368Y-106479025D01*
X179186525Y-106685868D01*
X179024010Y-106929089D01*
X178912068Y-107199342D01*
X178855000Y-107486240D01*
X178855000Y-107778760D01*
X178912068Y-108065658D01*
X179024010Y-108335911D01*
X179186525Y-108579132D01*
X179393368Y-108785975D01*
X179567760Y-108902500D01*
X179393368Y-109019025D01*
X179186525Y-109225868D01*
X179024010Y-109469089D01*
X178912068Y-109739342D01*
X178855000Y-110026240D01*
X178855000Y-110318760D01*
X178912068Y-110605658D01*
X179024010Y-110875911D01*
X179186525Y-111119132D01*
X179393368Y-111325975D01*
X179567760Y-111442500D01*
X179393368Y-111559025D01*
X179324093Y-111628300D01*
X174172743Y-111628300D01*
X174116999Y-111622810D01*
X174061255Y-111628300D01*
X174061248Y-111628300D01*
X173915493Y-111642656D01*
X173894500Y-111644723D01*
X173852381Y-111657500D01*
X173680553Y-111709624D01*
X173483377Y-111815016D01*
X173310551Y-111956851D01*
X173275011Y-112000157D01*
X172134660Y-113140509D01*
X172091352Y-113176051D01*
X171949517Y-113348877D01*
X171913687Y-113415911D01*
X171844124Y-113546054D01*
X171779223Y-113760002D01*
X171757309Y-113982500D01*
X171762801Y-114038261D01*
X171762800Y-120154468D01*
X171724171Y-120193098D01*
X171724162Y-120193105D01*
X169587800Y-122329468D01*
X169587800Y-120553352D01*
X169593291Y-120497600D01*
X169571377Y-120275101D01*
X169506476Y-120061153D01*
X169476723Y-120005489D01*
X169401084Y-119863977D01*
X169259249Y-119691151D01*
X169215940Y-119655608D01*
X168631743Y-119071412D01*
X168510280Y-118971730D01*
X168410589Y-118850258D01*
X167770796Y-118210465D01*
X167735249Y-118167151D01*
X167562423Y-118025316D01*
X167365247Y-117919924D01*
X167151299Y-117855023D01*
X166984552Y-117838600D01*
X166984551Y-117838600D01*
X166928800Y-117833109D01*
X166873049Y-117838600D01*
X163530141Y-117838600D01*
X163474399Y-117833110D01*
X163418657Y-117838600D01*
X163418648Y-117838600D01*
X163251901Y-117855023D01*
X163037953Y-117919924D01*
X162840777Y-118025316D01*
X162667951Y-118167151D01*
X162632409Y-118210459D01*
X161804661Y-119038207D01*
X161711686Y-119066412D01*
X161557941Y-119148589D01*
X161456953Y-119231468D01*
X157638331Y-123050091D01*
X157411589Y-123144010D01*
X157168368Y-123306525D01*
X156961525Y-123513368D01*
X156799010Y-123756589D01*
X156687068Y-124026842D01*
X156630000Y-124313740D01*
X156630000Y-124606260D01*
X156687068Y-124893158D01*
X156799010Y-125163411D01*
X156961525Y-125406632D01*
X157093380Y-125538487D01*
X157020820Y-125560498D01*
X156910506Y-125619463D01*
X156813815Y-125698815D01*
X156734463Y-125795506D01*
X156675498Y-125905820D01*
X156672471Y-125915800D01*
X156070532Y-125915800D01*
X154339276Y-124184545D01*
X154303729Y-124141231D01*
X154130903Y-123999396D01*
X153933727Y-123894004D01*
X153719779Y-123829103D01*
X153553032Y-123812680D01*
X153553031Y-123812680D01*
X153497280Y-123807189D01*
X153441529Y-123812680D01*
X145460848Y-123812680D01*
X145294101Y-123829103D01*
X145080153Y-123894004D01*
X144882977Y-123999396D01*
X144710151Y-124141231D01*
X144568316Y-124314057D01*
X144462924Y-124511233D01*
X144398023Y-124725181D01*
X144376109Y-124947680D01*
X129672546Y-124947680D01*
X129650537Y-124906506D01*
X129571185Y-124809815D01*
X129474494Y-124730463D01*
X129364180Y-124671498D01*
X129244482Y-124635188D01*
X129120000Y-124622928D01*
X127420000Y-124622928D01*
X127295518Y-124635188D01*
X127175820Y-124671498D01*
X127065506Y-124730463D01*
X126968815Y-124809815D01*
X126889463Y-124906506D01*
X126830498Y-125016820D01*
X126806034Y-125097466D01*
X126730269Y-125013412D01*
X126496920Y-124839359D01*
X126234099Y-124714175D01*
X126086890Y-124669524D01*
X125857000Y-124790845D01*
X125603000Y-124790845D01*
X125373110Y-124669524D01*
X125225901Y-124714175D01*
X124963080Y-124839359D01*
X124729731Y-125013412D01*
X124534822Y-125229645D01*
X124385843Y-125479748D01*
X124288519Y-125754109D01*
X119333202Y-125754109D01*
X119363069Y-120919000D01*
X122627928Y-120919000D01*
X122627928Y-122669000D01*
X122657001Y-122964186D01*
X122743104Y-123248028D01*
X122882927Y-123509618D01*
X123071097Y-123738903D01*
X123300382Y-123927073D01*
X123561972Y-124066896D01*
X123845814Y-124152999D01*
X124141000Y-124182072D01*
X125891000Y-124182072D01*
X126186186Y-124152999D01*
X126470028Y-124066896D01*
X126731618Y-123927073D01*
X126960903Y-123738903D01*
X127149073Y-123509618D01*
X127288896Y-123248028D01*
X127374999Y-122964186D01*
X127404072Y-122669000D01*
X127404072Y-120919000D01*
X127374999Y-120623814D01*
X127288896Y-120339972D01*
X127149073Y-120078382D01*
X126960903Y-119849097D01*
X126731618Y-119660927D01*
X126470028Y-119521104D01*
X126341357Y-119482072D01*
X129766000Y-119482072D01*
X129890482Y-119469812D01*
X130010180Y-119433502D01*
X130120494Y-119374537D01*
X130217185Y-119295185D01*
X130296537Y-119198494D01*
X130355502Y-119088180D01*
X130391812Y-118968482D01*
X130404072Y-118844000D01*
X130404072Y-116825665D01*
X131026000Y-116825665D01*
X131026000Y-117108335D01*
X131081147Y-117385574D01*
X131189320Y-117646727D01*
X131346363Y-117881759D01*
X131546241Y-118081637D01*
X131781273Y-118238680D01*
X132042426Y-118346853D01*
X132319665Y-118402000D01*
X132602335Y-118402000D01*
X132879574Y-118346853D01*
X133140727Y-118238680D01*
X133375759Y-118081637D01*
X133575637Y-117881759D01*
X133732680Y-117646727D01*
X133840853Y-117385574D01*
X133896000Y-117108335D01*
X133896000Y-116825665D01*
X133853201Y-116610500D01*
X135925928Y-116610500D01*
X135938188Y-116734982D01*
X135974498Y-116854680D01*
X136033463Y-116964994D01*
X136112815Y-117061685D01*
X136209506Y-117141037D01*
X136319820Y-117200002D01*
X136392380Y-117222013D01*
X136260525Y-117353868D01*
X136098010Y-117597089D01*
X135986068Y-117867342D01*
X135929000Y-118154240D01*
X135929000Y-118446760D01*
X135986068Y-118733658D01*
X136098010Y-119003911D01*
X136260525Y-119247132D01*
X136467368Y-119453975D01*
X136710589Y-119616490D01*
X136980842Y-119728432D01*
X137267740Y-119785500D01*
X137560260Y-119785500D01*
X137847158Y-119728432D01*
X138117411Y-119616490D01*
X138360632Y-119453975D01*
X138567475Y-119247132D01*
X138729990Y-119003911D01*
X138841932Y-118733658D01*
X138899000Y-118446760D01*
X138899000Y-118154240D01*
X138841932Y-117867342D01*
X138729990Y-117597089D01*
X138567475Y-117353868D01*
X138435620Y-117222013D01*
X138508180Y-117200002D01*
X138618494Y-117141037D01*
X138715185Y-117061685D01*
X138794537Y-116964994D01*
X138853502Y-116854680D01*
X138889812Y-116734982D01*
X138902072Y-116610500D01*
X138899000Y-116046250D01*
X138740250Y-115887500D01*
X137541000Y-115887500D01*
X137541000Y-115907500D01*
X137287000Y-115907500D01*
X137287000Y-115887500D01*
X136087750Y-115887500D01*
X135929000Y-116046250D01*
X135925928Y-116610500D01*
X133853201Y-116610500D01*
X133840853Y-116548426D01*
X133732680Y-116287273D01*
X133575637Y-116052241D01*
X133375759Y-115852363D01*
X133140727Y-115695320D01*
X132879574Y-115587147D01*
X132602335Y-115532000D01*
X132319665Y-115532000D01*
X132042426Y-115587147D01*
X131781273Y-115695320D01*
X131546241Y-115852363D01*
X131346363Y-116052241D01*
X131189320Y-116287273D01*
X131081147Y-116548426D01*
X131026000Y-116825665D01*
X130404072Y-116825665D01*
X130404072Y-115344000D01*
X130391812Y-115219518D01*
X130355502Y-115099820D01*
X130296537Y-114989506D01*
X130217185Y-114892815D01*
X130120494Y-114813463D01*
X130010180Y-114754498D01*
X129890482Y-114718188D01*
X129766000Y-114705928D01*
X126266000Y-114705928D01*
X126141518Y-114718188D01*
X126021820Y-114754498D01*
X125911506Y-114813463D01*
X125814815Y-114892815D01*
X125735463Y-114989506D01*
X125676498Y-115099820D01*
X125640188Y-115219518D01*
X125627928Y-115344000D01*
X125627928Y-118844000D01*
X125640188Y-118968482D01*
X125676498Y-119088180D01*
X125735463Y-119198494D01*
X125814815Y-119295185D01*
X125911506Y-119374537D01*
X125988131Y-119415494D01*
X125891000Y-119405928D01*
X124141000Y-119405928D01*
X123845814Y-119435001D01*
X123561972Y-119521104D01*
X123300382Y-119660927D01*
X123071097Y-119849097D01*
X122882927Y-120078382D01*
X122743104Y-120339972D01*
X122657001Y-120623814D01*
X122627928Y-120919000D01*
X119363069Y-120919000D01*
X119375886Y-118844000D01*
X119877928Y-118844000D01*
X119890188Y-118968482D01*
X119926498Y-119088180D01*
X119985463Y-119198494D01*
X120064815Y-119295185D01*
X120161506Y-119374537D01*
X120271820Y-119433502D01*
X120391518Y-119469812D01*
X120516000Y-119482072D01*
X121730250Y-119479000D01*
X121889000Y-119320250D01*
X121889000Y-117221000D01*
X122143000Y-117221000D01*
X122143000Y-119320250D01*
X122301750Y-119479000D01*
X123516000Y-119482072D01*
X123640482Y-119469812D01*
X123760180Y-119433502D01*
X123870494Y-119374537D01*
X123967185Y-119295185D01*
X124046537Y-119198494D01*
X124105502Y-119088180D01*
X124141812Y-118968482D01*
X124154072Y-118844000D01*
X124151000Y-117379750D01*
X123992250Y-117221000D01*
X122143000Y-117221000D01*
X121889000Y-117221000D01*
X120039750Y-117221000D01*
X119881000Y-117379750D01*
X119877928Y-118844000D01*
X119375886Y-118844000D01*
X119397505Y-115344000D01*
X119877928Y-115344000D01*
X119881000Y-116808250D01*
X120039750Y-116967000D01*
X121889000Y-116967000D01*
X121889000Y-114867750D01*
X122143000Y-114867750D01*
X122143000Y-116967000D01*
X123992250Y-116967000D01*
X124151000Y-116808250D01*
X124154072Y-115344000D01*
X124141812Y-115219518D01*
X124105502Y-115099820D01*
X124046537Y-114989506D01*
X123967185Y-114892815D01*
X123870494Y-114813463D01*
X123760180Y-114754498D01*
X123640482Y-114718188D01*
X123516000Y-114705928D01*
X122301750Y-114709000D01*
X122143000Y-114867750D01*
X121889000Y-114867750D01*
X121730250Y-114709000D01*
X120516000Y-114705928D01*
X120391518Y-114718188D01*
X120271820Y-114754498D01*
X120161506Y-114813463D01*
X120064815Y-114892815D01*
X119985463Y-114989506D01*
X119926498Y-115099820D01*
X119890188Y-115219518D01*
X119877928Y-115344000D01*
X119397505Y-115344000D01*
X119405767Y-114006265D01*
X131864200Y-114006265D01*
X131864200Y-114288935D01*
X131919347Y-114566174D01*
X132027520Y-114827327D01*
X132184563Y-115062359D01*
X132384441Y-115262237D01*
X132619473Y-115419280D01*
X132880626Y-115527453D01*
X133157865Y-115582600D01*
X133440535Y-115582600D01*
X133717774Y-115527453D01*
X133978927Y-115419280D01*
X134213959Y-115262237D01*
X134413837Y-115062359D01*
X134515305Y-114910500D01*
X135925928Y-114910500D01*
X135929000Y-115474750D01*
X136087750Y-115633500D01*
X137287000Y-115633500D01*
X137287000Y-114434250D01*
X137541000Y-114434250D01*
X137541000Y-115633500D01*
X138740250Y-115633500D01*
X138899000Y-115474750D01*
X138901006Y-115106240D01*
X143664500Y-115106240D01*
X143664500Y-115398760D01*
X143721568Y-115685658D01*
X143833510Y-115955911D01*
X143996025Y-116199132D01*
X144202868Y-116405975D01*
X144446089Y-116568490D01*
X144716342Y-116680432D01*
X145003240Y-116737500D01*
X145295760Y-116737500D01*
X145582658Y-116680432D01*
X145852911Y-116568490D01*
X146096132Y-116405975D01*
X146302975Y-116199132D01*
X146465490Y-115955911D01*
X146577432Y-115685658D01*
X146634500Y-115398760D01*
X146634500Y-115106240D01*
X146577432Y-114819342D01*
X146465490Y-114549089D01*
X146302975Y-114305868D01*
X146096132Y-114099025D01*
X145913966Y-113977305D01*
X146030855Y-113907678D01*
X146247088Y-113712769D01*
X146421141Y-113479420D01*
X146546325Y-113216599D01*
X146590976Y-113069390D01*
X146469655Y-112839500D01*
X145276500Y-112839500D01*
X145276500Y-112859500D01*
X145022500Y-112859500D01*
X145022500Y-112839500D01*
X143829345Y-112839500D01*
X143708024Y-113069390D01*
X143752675Y-113216599D01*
X143877859Y-113479420D01*
X144051912Y-113712769D01*
X144268145Y-113907678D01*
X144385034Y-113977305D01*
X144202868Y-114099025D01*
X143996025Y-114305868D01*
X143833510Y-114549089D01*
X143721568Y-114819342D01*
X143664500Y-115106240D01*
X138901006Y-115106240D01*
X138902072Y-114910500D01*
X138889812Y-114786018D01*
X138853502Y-114666320D01*
X138794537Y-114556006D01*
X138715185Y-114459315D01*
X138618494Y-114379963D01*
X138508180Y-114320998D01*
X138388482Y-114284688D01*
X138264000Y-114272428D01*
X137699750Y-114275500D01*
X137541000Y-114434250D01*
X137287000Y-114434250D01*
X137128250Y-114275500D01*
X136564000Y-114272428D01*
X136439518Y-114284688D01*
X136319820Y-114320998D01*
X136209506Y-114379963D01*
X136112815Y-114459315D01*
X136033463Y-114556006D01*
X135974498Y-114666320D01*
X135938188Y-114786018D01*
X135925928Y-114910500D01*
X134515305Y-114910500D01*
X134570880Y-114827327D01*
X134679053Y-114566174D01*
X134734200Y-114288935D01*
X134734200Y-114006265D01*
X134679053Y-113729026D01*
X134570880Y-113467873D01*
X134413837Y-113232841D01*
X134213959Y-113032963D01*
X133978927Y-112875920D01*
X133717774Y-112767747D01*
X133440535Y-112712600D01*
X133157865Y-112712600D01*
X132880626Y-112767747D01*
X132619473Y-112875920D01*
X132384441Y-113032963D01*
X132184563Y-113232841D01*
X132027520Y-113467873D01*
X131919347Y-113729026D01*
X131864200Y-114006265D01*
X119405767Y-114006265D01*
X119438572Y-108695419D01*
X122779000Y-108695419D01*
X122779000Y-109076581D01*
X122853361Y-109450419D01*
X122999225Y-109802566D01*
X123210987Y-110119491D01*
X123480509Y-110389013D01*
X123797434Y-110600775D01*
X124149581Y-110746639D01*
X124523419Y-110821000D01*
X124904581Y-110821000D01*
X125278419Y-110746639D01*
X125630566Y-110600775D01*
X125947491Y-110389013D01*
X126217013Y-110119491D01*
X126428775Y-109802566D01*
X126574639Y-109450419D01*
X126649000Y-109076581D01*
X126649000Y-108695419D01*
X126574639Y-108321581D01*
X126428775Y-107969434D01*
X126217013Y-107652509D01*
X125947491Y-107382987D01*
X125630566Y-107171225D01*
X125278419Y-107025361D01*
X124904581Y-106951000D01*
X124523419Y-106951000D01*
X124149581Y-107025361D01*
X123797434Y-107171225D01*
X123480509Y-107382987D01*
X123210987Y-107652509D01*
X122999225Y-107969434D01*
X122853361Y-108321581D01*
X122779000Y-108695419D01*
X119438572Y-108695419D01*
X119476310Y-102586000D01*
X122775928Y-102586000D01*
X122775928Y-105186000D01*
X122788188Y-105310482D01*
X122824498Y-105430180D01*
X122883463Y-105540494D01*
X122962815Y-105637185D01*
X123059506Y-105716537D01*
X123169820Y-105775502D01*
X123289518Y-105811812D01*
X123414000Y-105824072D01*
X126014000Y-105824072D01*
X126138482Y-105811812D01*
X126258180Y-105775502D01*
X126368494Y-105716537D01*
X126465185Y-105637185D01*
X126544537Y-105540494D01*
X126603502Y-105430180D01*
X126639812Y-105310482D01*
X126652072Y-105186000D01*
X126652072Y-103846265D01*
X131864200Y-103846265D01*
X131864200Y-104128935D01*
X131919347Y-104406174D01*
X132027520Y-104667327D01*
X132184563Y-104902359D01*
X132384441Y-105102237D01*
X132619473Y-105259280D01*
X132880626Y-105367453D01*
X133157865Y-105422600D01*
X133440535Y-105422600D01*
X133717774Y-105367453D01*
X133978927Y-105259280D01*
X134213959Y-105102237D01*
X134413837Y-104902359D01*
X134570880Y-104667327D01*
X134679053Y-104406174D01*
X134734200Y-104128935D01*
X134734200Y-103846265D01*
X134679053Y-103569026D01*
X134570880Y-103307873D01*
X134413837Y-103072841D01*
X134213959Y-102872963D01*
X133978927Y-102715920D01*
X133717774Y-102607747D01*
X133440535Y-102552600D01*
X133157865Y-102552600D01*
X132880626Y-102607747D01*
X132619473Y-102715920D01*
X132384441Y-102872963D01*
X132184563Y-103072841D01*
X132027520Y-103307873D01*
X131919347Y-103569026D01*
X131864200Y-103846265D01*
X126652072Y-103846265D01*
X126652072Y-102586000D01*
X126639812Y-102461518D01*
X126603502Y-102341820D01*
X126544537Y-102231506D01*
X126465185Y-102134815D01*
X126368494Y-102055463D01*
X126258180Y-101996498D01*
X126138482Y-101960188D01*
X126014000Y-101947928D01*
X123414000Y-101947928D01*
X123289518Y-101960188D01*
X123169820Y-101996498D01*
X123059506Y-102055463D01*
X122962815Y-102134815D01*
X122883463Y-102231506D01*
X122824498Y-102341820D01*
X122788188Y-102461518D01*
X122775928Y-102586000D01*
X119476310Y-102586000D01*
X119481767Y-101702500D01*
X143661428Y-101702500D01*
X143661428Y-103402500D01*
X143673688Y-103526982D01*
X143709998Y-103646680D01*
X143768963Y-103756994D01*
X143848315Y-103853685D01*
X143945006Y-103933037D01*
X144055320Y-103992002D01*
X144127880Y-104014013D01*
X143996025Y-104145868D01*
X143833510Y-104389089D01*
X143721568Y-104659342D01*
X143664500Y-104946240D01*
X143664500Y-105238760D01*
X143721568Y-105525658D01*
X143833510Y-105795911D01*
X143996025Y-106039132D01*
X144202868Y-106245975D01*
X144377260Y-106362500D01*
X144202868Y-106479025D01*
X143996025Y-106685868D01*
X143833510Y-106929089D01*
X143721568Y-107199342D01*
X143664500Y-107486240D01*
X143664500Y-107778760D01*
X143721568Y-108065658D01*
X143833510Y-108335911D01*
X143996025Y-108579132D01*
X144202868Y-108785975D01*
X144377260Y-108902500D01*
X144202868Y-109019025D01*
X143996025Y-109225868D01*
X143833510Y-109469089D01*
X143721568Y-109739342D01*
X143664500Y-110026240D01*
X143664500Y-110318760D01*
X143721568Y-110605658D01*
X143833510Y-110875911D01*
X143996025Y-111119132D01*
X144202868Y-111325975D01*
X144385034Y-111447695D01*
X144268145Y-111517322D01*
X144051912Y-111712231D01*
X143877859Y-111945580D01*
X143752675Y-112208401D01*
X143708024Y-112355610D01*
X143829345Y-112585500D01*
X145022500Y-112585500D01*
X145022500Y-112565500D01*
X145276500Y-112565500D01*
X145276500Y-112585500D01*
X146469655Y-112585500D01*
X146590976Y-112355610D01*
X146546325Y-112208401D01*
X146421141Y-111945580D01*
X146247088Y-111712231D01*
X146030855Y-111517322D01*
X145913966Y-111447695D01*
X146096132Y-111325975D01*
X146302975Y-111119132D01*
X146465490Y-110875911D01*
X146577432Y-110605658D01*
X146634500Y-110318760D01*
X146634500Y-110026240D01*
X146577432Y-109739342D01*
X146465490Y-109469089D01*
X146302975Y-109225868D01*
X146096132Y-109019025D01*
X145921740Y-108902500D01*
X146096132Y-108785975D01*
X146302975Y-108579132D01*
X146465490Y-108335911D01*
X146577432Y-108065658D01*
X146634500Y-107778760D01*
X146634500Y-107486240D01*
X146577432Y-107199342D01*
X146465490Y-106929089D01*
X146302975Y-106685868D01*
X146096132Y-106479025D01*
X145921740Y-106362500D01*
X146096132Y-106245975D01*
X146302975Y-106039132D01*
X146465490Y-105795911D01*
X146577432Y-105525658D01*
X146634500Y-105238760D01*
X146634500Y-104946240D01*
X146577432Y-104659342D01*
X146465490Y-104389089D01*
X146302975Y-104145868D01*
X146171120Y-104014013D01*
X146243680Y-103992002D01*
X146353994Y-103933037D01*
X146450685Y-103853685D01*
X146530037Y-103756994D01*
X146589002Y-103646680D01*
X146625312Y-103526982D01*
X146637572Y-103402500D01*
X146637572Y-101702500D01*
X146625312Y-101578018D01*
X146589002Y-101458320D01*
X146530037Y-101348006D01*
X146450685Y-101251315D01*
X146353994Y-101171963D01*
X146243680Y-101112998D01*
X146123982Y-101076688D01*
X145999500Y-101064428D01*
X144299500Y-101064428D01*
X144175018Y-101076688D01*
X144055320Y-101112998D01*
X143945006Y-101171963D01*
X143848315Y-101251315D01*
X143768963Y-101348006D01*
X143709998Y-101458320D01*
X143673688Y-101578018D01*
X143661428Y-101702500D01*
X119481767Y-101702500D01*
X119529798Y-93926738D01*
X119817000Y-93926738D01*
X119817000Y-94741262D01*
X119975906Y-95540135D01*
X120287611Y-96292657D01*
X120740136Y-96969909D01*
X121316091Y-97545864D01*
X121993343Y-97998389D01*
X122745865Y-98310094D01*
X123544738Y-98469000D01*
X124359262Y-98469000D01*
X125158135Y-98310094D01*
X125910657Y-97998389D01*
X126587909Y-97545864D01*
X127163864Y-96969909D01*
X127616389Y-96292657D01*
X127928094Y-95540135D01*
X128087000Y-94741262D01*
X128087000Y-93926738D01*
X127928094Y-93127865D01*
X127616389Y-92375343D01*
X127297767Y-91898491D01*
X137547319Y-91898491D01*
X137644643Y-92172852D01*
X137793622Y-92422955D01*
X137988531Y-92639188D01*
X138221880Y-92813241D01*
X138484701Y-92938425D01*
X138631910Y-92983076D01*
X138861800Y-92861755D01*
X138861800Y-91668600D01*
X137667986Y-91668600D01*
X137547319Y-91898491D01*
X127297767Y-91898491D01*
X127163864Y-91698091D01*
X126650482Y-91184709D01*
X137547319Y-91184709D01*
X137667986Y-91414600D01*
X138861800Y-91414600D01*
X138861800Y-90221445D01*
X139115800Y-90221445D01*
X139115800Y-91414600D01*
X139135800Y-91414600D01*
X139135800Y-91668600D01*
X139115800Y-91668600D01*
X139115800Y-92861755D01*
X139345690Y-92983076D01*
X139492899Y-92938425D01*
X139755720Y-92813241D01*
X139989069Y-92639188D01*
X140064834Y-92555134D01*
X140089298Y-92635780D01*
X140148263Y-92746094D01*
X140227615Y-92842785D01*
X140324306Y-92922137D01*
X140434620Y-92981102D01*
X140554318Y-93017412D01*
X140678800Y-93029672D01*
X142378800Y-93029672D01*
X142503282Y-93017412D01*
X142622980Y-92981102D01*
X142733294Y-92922137D01*
X142829985Y-92842785D01*
X142909337Y-92746094D01*
X142928629Y-92710000D01*
X149733000Y-92710000D01*
X149733000Y-101854000D01*
X149735440Y-101878776D01*
X149742667Y-101902601D01*
X149754403Y-101924557D01*
X149770197Y-101943803D01*
X149789443Y-101959597D01*
X149811399Y-101971333D01*
X149835224Y-101978560D01*
X149860000Y-101981000D01*
X169418000Y-101981000D01*
X169442776Y-101978560D01*
X169466601Y-101971333D01*
X169488557Y-101959597D01*
X169507803Y-101943803D01*
X169523597Y-101924557D01*
X169535333Y-101902601D01*
X169542560Y-101878776D01*
X169545000Y-101854000D01*
X169545000Y-100250413D01*
X173669192Y-100250413D01*
X173764956Y-100514814D01*
X174054571Y-100655704D01*
X174366108Y-100737384D01*
X174687595Y-100756718D01*
X175006675Y-100712961D01*
X175311088Y-100607795D01*
X175485044Y-100514814D01*
X175580808Y-100250413D01*
X180169192Y-100250413D01*
X180264956Y-100514814D01*
X180554571Y-100655704D01*
X180866108Y-100737384D01*
X181187595Y-100756718D01*
X181506675Y-100712961D01*
X181811088Y-100607795D01*
X181985044Y-100514814D01*
X182080808Y-100250413D01*
X181125000Y-99294605D01*
X180169192Y-100250413D01*
X175580808Y-100250413D01*
X174625000Y-99294605D01*
X173669192Y-100250413D01*
X169545000Y-100250413D01*
X169545000Y-99177595D01*
X172983282Y-99177595D01*
X173027039Y-99496675D01*
X173132205Y-99801088D01*
X173225186Y-99975044D01*
X173489587Y-100070808D01*
X174445395Y-99115000D01*
X174804605Y-99115000D01*
X175760413Y-100070808D01*
X176024814Y-99975044D01*
X176165704Y-99685429D01*
X176247384Y-99373892D01*
X176259189Y-99177595D01*
X179483282Y-99177595D01*
X179527039Y-99496675D01*
X179632205Y-99801088D01*
X179725186Y-99975044D01*
X179989587Y-100070808D01*
X180945395Y-99115000D01*
X181304605Y-99115000D01*
X182260413Y-100070808D01*
X182524814Y-99975044D01*
X182665704Y-99685429D01*
X182747384Y-99373892D01*
X182766718Y-99052405D01*
X182722961Y-98733325D01*
X182617795Y-98428912D01*
X182524814Y-98254956D01*
X182260413Y-98159192D01*
X181304605Y-99115000D01*
X180945395Y-99115000D01*
X179989587Y-98159192D01*
X179725186Y-98254956D01*
X179584296Y-98544571D01*
X179502616Y-98856108D01*
X179483282Y-99177595D01*
X176259189Y-99177595D01*
X176266718Y-99052405D01*
X176222961Y-98733325D01*
X176117795Y-98428912D01*
X176024814Y-98254956D01*
X175760413Y-98159192D01*
X174804605Y-99115000D01*
X174445395Y-99115000D01*
X173489587Y-98159192D01*
X173225186Y-98254956D01*
X173084296Y-98544571D01*
X173002616Y-98856108D01*
X172983282Y-99177595D01*
X169545000Y-99177595D01*
X169545000Y-97979587D01*
X173669192Y-97979587D01*
X174625000Y-98935395D01*
X175580808Y-97979587D01*
X180169192Y-97979587D01*
X181125000Y-98935395D01*
X182080808Y-97979587D01*
X181985044Y-97715186D01*
X181695429Y-97574296D01*
X181383892Y-97492616D01*
X181062405Y-97473282D01*
X180743325Y-97517039D01*
X180438912Y-97622205D01*
X180264956Y-97715186D01*
X180169192Y-97979587D01*
X175580808Y-97979587D01*
X175485044Y-97715186D01*
X175195429Y-97574296D01*
X174883892Y-97492616D01*
X174562405Y-97473282D01*
X174243325Y-97517039D01*
X173938912Y-97622205D01*
X173764956Y-97715186D01*
X173669192Y-97979587D01*
X169545000Y-97979587D01*
X169545000Y-94453967D01*
X172990000Y-94453967D01*
X172990000Y-94776033D01*
X173052832Y-95091912D01*
X173176082Y-95389463D01*
X173355013Y-95657252D01*
X173582748Y-95884987D01*
X173850537Y-96063918D01*
X174148088Y-96187168D01*
X174463967Y-96250000D01*
X174786033Y-96250000D01*
X175101912Y-96187168D01*
X175399463Y-96063918D01*
X175667252Y-95884987D01*
X175894987Y-95657252D01*
X176073918Y-95389463D01*
X176197168Y-95091912D01*
X176260000Y-94776033D01*
X176260000Y-94453967D01*
X176197168Y-94138088D01*
X176073918Y-93840537D01*
X175894987Y-93572748D01*
X175667252Y-93345013D01*
X175399463Y-93166082D01*
X175101912Y-93042832D01*
X174786033Y-92980000D01*
X174463967Y-92980000D01*
X174148088Y-93042832D01*
X173850537Y-93166082D01*
X173582748Y-93345013D01*
X173355013Y-93572748D01*
X173176082Y-93840537D01*
X173052832Y-94138088D01*
X172990000Y-94453967D01*
X169545000Y-94453967D01*
X169545000Y-92710000D01*
X169542560Y-92685224D01*
X169535333Y-92661399D01*
X169523597Y-92639443D01*
X169507803Y-92620197D01*
X169488557Y-92604403D01*
X169466601Y-92592667D01*
X169442776Y-92585440D01*
X169418000Y-92583000D01*
X149860000Y-92583000D01*
X149835224Y-92585440D01*
X149811399Y-92592667D01*
X149789443Y-92604403D01*
X149770197Y-92620197D01*
X149754403Y-92639443D01*
X149742667Y-92661399D01*
X149735440Y-92685224D01*
X149733000Y-92710000D01*
X142928629Y-92710000D01*
X142968302Y-92635780D01*
X143004612Y-92516082D01*
X143016872Y-92391600D01*
X143016872Y-90691600D01*
X143004612Y-90567118D01*
X142968302Y-90447420D01*
X142909337Y-90337106D01*
X142829985Y-90240415D01*
X142733294Y-90161063D01*
X142622980Y-90102098D01*
X142503282Y-90065788D01*
X142378800Y-90053528D01*
X140678800Y-90053528D01*
X140554318Y-90065788D01*
X140434620Y-90102098D01*
X140324306Y-90161063D01*
X140227615Y-90240415D01*
X140148263Y-90337106D01*
X140089298Y-90447420D01*
X140064834Y-90528066D01*
X139989069Y-90444012D01*
X139755720Y-90269959D01*
X139492899Y-90144775D01*
X139345690Y-90100124D01*
X139115800Y-90221445D01*
X138861800Y-90221445D01*
X138631910Y-90100124D01*
X138484701Y-90144775D01*
X138221880Y-90269959D01*
X137988531Y-90444012D01*
X137793622Y-90660245D01*
X137644643Y-90910348D01*
X137547319Y-91184709D01*
X126650482Y-91184709D01*
X126587909Y-91122136D01*
X125910657Y-90669611D01*
X125158135Y-90357906D01*
X124359262Y-90199000D01*
X123544738Y-90199000D01*
X122745865Y-90357906D01*
X121993343Y-90669611D01*
X121316091Y-91122136D01*
X120740136Y-91698091D01*
X120287611Y-92375343D01*
X119975906Y-93127865D01*
X119817000Y-93926738D01*
X119529798Y-93926738D01*
X119543250Y-91749034D01*
X119591599Y-91295297D01*
X119716672Y-90893295D01*
X119917446Y-90523244D01*
X120186269Y-90199240D01*
X120512913Y-89933617D01*
X120884917Y-89736503D01*
X121288137Y-89615396D01*
X121742542Y-89571500D01*
X191614576Y-89572515D01*
G04 #@! TA.AperFunction,Conductor*
D28*
G36*
X191614576Y-89572515D02*
G01*
X192062304Y-89624200D01*
X192463093Y-89752765D01*
X192831281Y-89956729D01*
X193152838Y-90228324D01*
X193415517Y-90557200D01*
X193609318Y-90930842D01*
X193729200Y-91343078D01*
X193765553Y-91671573D01*
X193828955Y-134449333D01*
X193790035Y-134909244D01*
X193673711Y-135313927D01*
X193480997Y-135688312D01*
X193219237Y-136018132D01*
X192898402Y-136290826D01*
X192530699Y-136496016D01*
X192130160Y-136625872D01*
X191682039Y-136679013D01*
X121804499Y-136703553D01*
X121290113Y-136678538D01*
X120842850Y-136567153D01*
X120425741Y-136371017D01*
X120054677Y-136097604D01*
X119743780Y-135757317D01*
X119504903Y-135363128D01*
X119347138Y-134930046D01*
X119275103Y-134465577D01*
X119281216Y-134107306D01*
X119281632Y-134103330D01*
X119295076Y-131926738D01*
X119817000Y-131926738D01*
X119817000Y-132741262D01*
X119975906Y-133540135D01*
X120287611Y-134292657D01*
X120740136Y-134969909D01*
X121316091Y-135545864D01*
X121993343Y-135998389D01*
X122745865Y-136310094D01*
X123544738Y-136469000D01*
X124359262Y-136469000D01*
X125158135Y-136310094D01*
X125910657Y-135998389D01*
X126587909Y-135545864D01*
X127163864Y-134969909D01*
X127616389Y-134292657D01*
X127928094Y-133540135D01*
X128087000Y-132741262D01*
X128087000Y-132359220D01*
X156018368Y-132359220D01*
X156018368Y-135379220D01*
X163300273Y-135379220D01*
X163300273Y-132359220D01*
X156018368Y-132359220D01*
X128087000Y-132359220D01*
X128087000Y-131926738D01*
X184817000Y-131926738D01*
X184817000Y-132741262D01*
X184975906Y-133540135D01*
X185287611Y-134292657D01*
X185740136Y-134969909D01*
X186316091Y-135545864D01*
X186993343Y-135998389D01*
X187745865Y-136310094D01*
X188544738Y-136469000D01*
X189359262Y-136469000D01*
X190158135Y-136310094D01*
X190910657Y-135998389D01*
X191587909Y-135545864D01*
X192163864Y-134969909D01*
X192616389Y-134292657D01*
X192928094Y-133540135D01*
X193087000Y-132741262D01*
X193087000Y-131926738D01*
X192928094Y-131127865D01*
X192616389Y-130375343D01*
X192163864Y-129698091D01*
X191587909Y-129122136D01*
X190910657Y-128669611D01*
X190158135Y-128357906D01*
X189359262Y-128199000D01*
X188544738Y-128199000D01*
X187745865Y-128357906D01*
X186993343Y-128669611D01*
X186316091Y-129122136D01*
X185740136Y-129698091D01*
X185287611Y-130375343D01*
X184975906Y-131127865D01*
X184817000Y-131926738D01*
X128087000Y-131926738D01*
X127928094Y-131127865D01*
X127616389Y-130375343D01*
X127163864Y-129698091D01*
X126587909Y-129122136D01*
X125910657Y-128669611D01*
X125158135Y-128357906D01*
X124359262Y-128199000D01*
X123544738Y-128199000D01*
X122745865Y-128357906D01*
X121993343Y-128669611D01*
X121316091Y-129122136D01*
X120740136Y-129698091D01*
X120287611Y-130375343D01*
X119975906Y-131127865D01*
X119817000Y-131926738D01*
X119295076Y-131926738D01*
X119328794Y-126467891D01*
X124288519Y-126467891D01*
X124385843Y-126742252D01*
X124534822Y-126992355D01*
X124729731Y-127208588D01*
X124963080Y-127382641D01*
X125225901Y-127507825D01*
X125373110Y-127552476D01*
X125603000Y-127431155D01*
X125603000Y-126238000D01*
X124409186Y-126238000D01*
X124288519Y-126467891D01*
X119328794Y-126467891D01*
X119333202Y-125754109D01*
X124288519Y-125754109D01*
X124409186Y-125984000D01*
X125603000Y-125984000D01*
X125603000Y-124790845D01*
X125857000Y-124790845D01*
X125857000Y-125984000D01*
X125877000Y-125984000D01*
X125877000Y-126238000D01*
X125857000Y-126238000D01*
X125857000Y-127431155D01*
X126086890Y-127552476D01*
X126234099Y-127507825D01*
X126496920Y-127382641D01*
X126730269Y-127208588D01*
X126806034Y-127124534D01*
X126830498Y-127205180D01*
X126889463Y-127315494D01*
X126968815Y-127412185D01*
X127065506Y-127491537D01*
X127175820Y-127550502D01*
X127295518Y-127586812D01*
X127420000Y-127599072D01*
X129120000Y-127599072D01*
X129244482Y-127586812D01*
X129364180Y-127550502D01*
X129474494Y-127491537D01*
X129571185Y-127412185D01*
X129650537Y-127315494D01*
X129709502Y-127205180D01*
X129745812Y-127085482D01*
X129755642Y-126985665D01*
X131026000Y-126985665D01*
X131026000Y-127268335D01*
X131081147Y-127545574D01*
X131189320Y-127806727D01*
X131346363Y-128041759D01*
X131546241Y-128241637D01*
X131781273Y-128398680D01*
X132042426Y-128506853D01*
X132319665Y-128562000D01*
X132602335Y-128562000D01*
X132879574Y-128506853D01*
X133140727Y-128398680D01*
X133375759Y-128241637D01*
X133575637Y-128041759D01*
X133732680Y-127806727D01*
X133840853Y-127545574D01*
X133896000Y-127268335D01*
X133896000Y-126985665D01*
X133840853Y-126708426D01*
X133732680Y-126447273D01*
X133575637Y-126212241D01*
X133375759Y-126012363D01*
X133140727Y-125855320D01*
X132879574Y-125747147D01*
X132602335Y-125692000D01*
X132319665Y-125692000D01*
X132042426Y-125747147D01*
X131781273Y-125855320D01*
X131546241Y-126012363D01*
X131346363Y-126212241D01*
X131189320Y-126447273D01*
X131081147Y-126708426D01*
X131026000Y-126985665D01*
X129755642Y-126985665D01*
X129758072Y-126961000D01*
X129758072Y-125261000D01*
X129745812Y-125136518D01*
X129709502Y-125016820D01*
X129672546Y-124947680D01*
X144376109Y-124947680D01*
X144398023Y-125170179D01*
X144462924Y-125384127D01*
X144568316Y-125581303D01*
X144710151Y-125754129D01*
X144882977Y-125895964D01*
X145080153Y-126001356D01*
X145294101Y-126066257D01*
X145460848Y-126082680D01*
X153027149Y-126082680D01*
X154758409Y-127813941D01*
X154793951Y-127857249D01*
X154966777Y-127999084D01*
X155163953Y-128104476D01*
X155377901Y-128169377D01*
X155600400Y-128191291D01*
X155656152Y-128185800D01*
X156724471Y-128185800D01*
X156734463Y-128204494D01*
X156813815Y-128301185D01*
X156910506Y-128380537D01*
X157020820Y-128439502D01*
X157140518Y-128475812D01*
X157265000Y-128488072D01*
X157362941Y-128488072D01*
X159432009Y-130557141D01*
X159467551Y-130600449D01*
X159640377Y-130742284D01*
X159837553Y-130847676D01*
X160051501Y-130912577D01*
X160273999Y-130934491D01*
X160329751Y-130929000D01*
X165145849Y-130929000D01*
X165201600Y-130934491D01*
X165257351Y-130929000D01*
X165257352Y-130929000D01*
X165424099Y-130912577D01*
X165638047Y-130847676D01*
X165835223Y-130742284D01*
X166008049Y-130600449D01*
X166043596Y-130557135D01*
X169012741Y-127587991D01*
X169056049Y-127552449D01*
X169157496Y-127428836D01*
X169188136Y-127442446D01*
X169243126Y-127459119D01*
X169418000Y-127332954D01*
X169418000Y-126492000D01*
X169672000Y-126492000D01*
X169672000Y-127332954D01*
X169846874Y-127459119D01*
X169901864Y-127442446D01*
X170105206Y-127352123D01*
X170180000Y-127299361D01*
X170254794Y-127352123D01*
X170458136Y-127442446D01*
X170513126Y-127459119D01*
X170688000Y-127332954D01*
X170688000Y-126492000D01*
X169672000Y-126492000D01*
X169418000Y-126492000D01*
X169413072Y-126492000D01*
X169413072Y-126238000D01*
X169418000Y-126238000D01*
X169418000Y-126226974D01*
X169433212Y-126230000D01*
X169656788Y-126230000D01*
X169672000Y-126226974D01*
X169672000Y-126238000D01*
X170688000Y-126238000D01*
X170688000Y-126226974D01*
X170703212Y-126230000D01*
X170926788Y-126230000D01*
X170942000Y-126226974D01*
X170942000Y-126238000D01*
X170953026Y-126238000D01*
X170950000Y-126253212D01*
X170950000Y-126476788D01*
X170953026Y-126492000D01*
X170942000Y-126492000D01*
X170942000Y-127332954D01*
X171116874Y-127459119D01*
X171171864Y-127442446D01*
X171375206Y-127352123D01*
X171445342Y-127302647D01*
X171547376Y-127370824D01*
X171753933Y-127456383D01*
X171973212Y-127500000D01*
X172196788Y-127500000D01*
X172416067Y-127456383D01*
X172622624Y-127370824D01*
X172724658Y-127302647D01*
X172794794Y-127352123D01*
X172998136Y-127442446D01*
X173053126Y-127459119D01*
X173228000Y-127332954D01*
X173228000Y-126492000D01*
X173482000Y-126492000D01*
X173482000Y-127332954D01*
X173656874Y-127459119D01*
X173711864Y-127442446D01*
X173915206Y-127352123D01*
X174097020Y-127223865D01*
X174250318Y-127062601D01*
X174369210Y-126874529D01*
X174449126Y-126666876D01*
X174324129Y-126492000D01*
X173482000Y-126492000D01*
X173228000Y-126492000D01*
X173216974Y-126492000D01*
X173220000Y-126476788D01*
X173220000Y-126253212D01*
X173216974Y-126238000D01*
X173228000Y-126238000D01*
X173228000Y-126226974D01*
X173243212Y-126230000D01*
X173466788Y-126230000D01*
X173482000Y-126226974D01*
X173482000Y-126238000D01*
X174324129Y-126238000D01*
X174449126Y-126063124D01*
X174369210Y-125855471D01*
X174314793Y-125769390D01*
X178898524Y-125769390D01*
X178943175Y-125916599D01*
X179068359Y-126179420D01*
X179242412Y-126412769D01*
X179458645Y-126607678D01*
X179708748Y-126756657D01*
X179983109Y-126853981D01*
X180213000Y-126733314D01*
X180213000Y-125539500D01*
X180467000Y-125539500D01*
X180467000Y-126733314D01*
X180696891Y-126853981D01*
X180971252Y-126756657D01*
X181221355Y-126607678D01*
X181437588Y-126412769D01*
X181611641Y-126179420D01*
X181736825Y-125916599D01*
X181781476Y-125769390D01*
X181660155Y-125539500D01*
X180467000Y-125539500D01*
X180213000Y-125539500D01*
X179019845Y-125539500D01*
X178898524Y-125769390D01*
X174314793Y-125769390D01*
X174292744Y-125734512D01*
X174360824Y-125632624D01*
X174446383Y-125426067D01*
X174490000Y-125206788D01*
X174490000Y-124983212D01*
X174446383Y-124763933D01*
X174360824Y-124557376D01*
X174236612Y-124371480D01*
X174078520Y-124213388D01*
X173892624Y-124089176D01*
X173686067Y-124003617D01*
X173466788Y-123960000D01*
X173243212Y-123960000D01*
X173023933Y-124003617D01*
X172817376Y-124089176D01*
X172720000Y-124154241D01*
X172622624Y-124089176D01*
X172416067Y-124003617D01*
X172196788Y-123960000D01*
X171973212Y-123960000D01*
X171753933Y-124003617D01*
X171547376Y-124089176D01*
X171450000Y-124154241D01*
X171352624Y-124089176D01*
X171146067Y-124003617D01*
X171127590Y-123999942D01*
X173329295Y-121798238D01*
X173329302Y-121798229D01*
X173660940Y-121466592D01*
X173704249Y-121431049D01*
X173846084Y-121258223D01*
X173951476Y-121061047D01*
X174016377Y-120847099D01*
X174032800Y-120680352D01*
X174032800Y-120680351D01*
X174038291Y-120624600D01*
X174032800Y-120568848D01*
X174032800Y-114452631D01*
X174587132Y-113898300D01*
X179441746Y-113898300D01*
X179567760Y-113982500D01*
X179393368Y-114099025D01*
X179186525Y-114305868D01*
X179024010Y-114549089D01*
X178912068Y-114819342D01*
X178855000Y-115106240D01*
X178855000Y-115398760D01*
X178912068Y-115685658D01*
X179024010Y-115955911D01*
X179186525Y-116199132D01*
X179393368Y-116405975D01*
X179567760Y-116522500D01*
X179393368Y-116639025D01*
X179186525Y-116845868D01*
X179024010Y-117089089D01*
X178912068Y-117359342D01*
X178855000Y-117646240D01*
X178855000Y-117938760D01*
X178912068Y-118225658D01*
X179024010Y-118495911D01*
X179186525Y-118739132D01*
X179393368Y-118945975D01*
X179567760Y-119062500D01*
X179393368Y-119179025D01*
X179186525Y-119385868D01*
X179024010Y-119629089D01*
X178912068Y-119899342D01*
X178855000Y-120186240D01*
X178855000Y-120478760D01*
X178912068Y-120765658D01*
X179024010Y-121035911D01*
X179186525Y-121279132D01*
X179393368Y-121485975D01*
X179567760Y-121602500D01*
X179393368Y-121719025D01*
X179186525Y-121925868D01*
X179024010Y-122169089D01*
X178912068Y-122439342D01*
X178855000Y-122726240D01*
X178855000Y-123018760D01*
X178912068Y-123305658D01*
X179024010Y-123575911D01*
X179186525Y-123819132D01*
X179393368Y-124025975D01*
X179575534Y-124147695D01*
X179458645Y-124217322D01*
X179242412Y-124412231D01*
X179068359Y-124645580D01*
X178943175Y-124908401D01*
X178898524Y-125055610D01*
X179019845Y-125285500D01*
X180213000Y-125285500D01*
X180213000Y-125265500D01*
X180467000Y-125265500D01*
X180467000Y-125285500D01*
X181660155Y-125285500D01*
X181781476Y-125055610D01*
X181736825Y-124908401D01*
X181611641Y-124645580D01*
X181437588Y-124412231D01*
X181221355Y-124217322D01*
X181104466Y-124147695D01*
X181286632Y-124025975D01*
X181493475Y-123819132D01*
X181655990Y-123575911D01*
X181767932Y-123305658D01*
X181825000Y-123018760D01*
X181825000Y-122726240D01*
X181822168Y-122712000D01*
X187037928Y-122712000D01*
X187050188Y-122836482D01*
X187086498Y-122956180D01*
X187145463Y-123066494D01*
X187224815Y-123163185D01*
X187321506Y-123242537D01*
X187431820Y-123301502D01*
X187551518Y-123337812D01*
X187676000Y-123350072D01*
X188690250Y-123347000D01*
X188849000Y-123188250D01*
X188849000Y-121539000D01*
X189103000Y-121539000D01*
X189103000Y-123188250D01*
X189261750Y-123347000D01*
X190276000Y-123350072D01*
X190400482Y-123337812D01*
X190520180Y-123301502D01*
X190630494Y-123242537D01*
X190727185Y-123163185D01*
X190806537Y-123066494D01*
X190865502Y-122956180D01*
X190901812Y-122836482D01*
X190914072Y-122712000D01*
X190911000Y-121697750D01*
X190752250Y-121539000D01*
X189103000Y-121539000D01*
X188849000Y-121539000D01*
X187199750Y-121539000D01*
X187041000Y-121697750D01*
X187037928Y-122712000D01*
X181822168Y-122712000D01*
X181767932Y-122439342D01*
X181655990Y-122169089D01*
X181493475Y-121925868D01*
X181286632Y-121719025D01*
X181112240Y-121602500D01*
X181286632Y-121485975D01*
X181493475Y-121279132D01*
X181655990Y-121035911D01*
X181767932Y-120765658D01*
X181825000Y-120478760D01*
X181825000Y-120186240D01*
X181810233Y-120112000D01*
X187037928Y-120112000D01*
X187041000Y-121126250D01*
X187199750Y-121285000D01*
X188849000Y-121285000D01*
X188849000Y-119635750D01*
X189103000Y-119635750D01*
X189103000Y-121285000D01*
X190752250Y-121285000D01*
X190911000Y-121126250D01*
X190914072Y-120112000D01*
X190901812Y-119987518D01*
X190865502Y-119867820D01*
X190806537Y-119757506D01*
X190727185Y-119660815D01*
X190630494Y-119581463D01*
X190520180Y-119522498D01*
X190400482Y-119486188D01*
X190276000Y-119473928D01*
X189261750Y-119477000D01*
X189103000Y-119635750D01*
X188849000Y-119635750D01*
X188690250Y-119477000D01*
X187676000Y-119473928D01*
X187551518Y-119486188D01*
X187431820Y-119522498D01*
X187321506Y-119581463D01*
X187224815Y-119660815D01*
X187145463Y-119757506D01*
X187086498Y-119867820D01*
X187050188Y-119987518D01*
X187037928Y-120112000D01*
X181810233Y-120112000D01*
X181767932Y-119899342D01*
X181655990Y-119629089D01*
X181493475Y-119385868D01*
X181286632Y-119179025D01*
X181112240Y-119062500D01*
X181286632Y-118945975D01*
X181493475Y-118739132D01*
X181655990Y-118495911D01*
X181767932Y-118225658D01*
X181825000Y-117938760D01*
X181825000Y-117646240D01*
X181767932Y-117359342D01*
X181655990Y-117089089D01*
X181493475Y-116845868D01*
X181286632Y-116639025D01*
X181112240Y-116522500D01*
X181286632Y-116405975D01*
X181471188Y-116221419D01*
X187041000Y-116221419D01*
X187041000Y-116602581D01*
X187115361Y-116976419D01*
X187261225Y-117328566D01*
X187472987Y-117645491D01*
X187742509Y-117915013D01*
X188059434Y-118126775D01*
X188411581Y-118272639D01*
X188785419Y-118347000D01*
X189166581Y-118347000D01*
X189540419Y-118272639D01*
X189892566Y-118126775D01*
X190209491Y-117915013D01*
X190479013Y-117645491D01*
X190690775Y-117328566D01*
X190836639Y-116976419D01*
X190911000Y-116602581D01*
X190911000Y-116221419D01*
X190836639Y-115847581D01*
X190690775Y-115495434D01*
X190479013Y-115178509D01*
X190209491Y-114908987D01*
X189892566Y-114697225D01*
X189540419Y-114551361D01*
X189166581Y-114477000D01*
X188785419Y-114477000D01*
X188411581Y-114551361D01*
X188059434Y-114697225D01*
X187742509Y-114908987D01*
X187472987Y-115178509D01*
X187261225Y-115495434D01*
X187115361Y-115847581D01*
X187041000Y-116221419D01*
X181471188Y-116221419D01*
X181493475Y-116199132D01*
X181655990Y-115955911D01*
X181767932Y-115685658D01*
X181825000Y-115398760D01*
X181825000Y-115106240D01*
X181767932Y-114819342D01*
X181655990Y-114549089D01*
X181493475Y-114305868D01*
X181286632Y-114099025D01*
X181112240Y-113982500D01*
X181286632Y-113865975D01*
X181493475Y-113659132D01*
X181655990Y-113415911D01*
X181767932Y-113145658D01*
X181825000Y-112858760D01*
X181825000Y-112566240D01*
X181767932Y-112279342D01*
X181655990Y-112009089D01*
X181493475Y-111765868D01*
X181286632Y-111559025D01*
X181112240Y-111442500D01*
X181286632Y-111325975D01*
X181391188Y-111221419D01*
X187041000Y-111221419D01*
X187041000Y-111602581D01*
X187115361Y-111976419D01*
X187261225Y-112328566D01*
X187472987Y-112645491D01*
X187742509Y-112915013D01*
X188059434Y-113126775D01*
X188411581Y-113272639D01*
X188785419Y-113347000D01*
X189166581Y-113347000D01*
X189540419Y-113272639D01*
X189892566Y-113126775D01*
X190209491Y-112915013D01*
X190479013Y-112645491D01*
X190690775Y-112328566D01*
X190836639Y-111976419D01*
X190911000Y-111602581D01*
X190911000Y-111221419D01*
X190836639Y-110847581D01*
X190690775Y-110495434D01*
X190479013Y-110178509D01*
X190209491Y-109908987D01*
X189892566Y-109697225D01*
X189540419Y-109551361D01*
X189166581Y-109477000D01*
X188785419Y-109477000D01*
X188411581Y-109551361D01*
X188059434Y-109697225D01*
X187742509Y-109908987D01*
X187472987Y-110178509D01*
X187261225Y-110495434D01*
X187115361Y-110847581D01*
X187041000Y-111221419D01*
X181391188Y-111221419D01*
X181493475Y-111119132D01*
X181655990Y-110875911D01*
X181767932Y-110605658D01*
X181825000Y-110318760D01*
X181825000Y-110026240D01*
X181767932Y-109739342D01*
X181655990Y-109469089D01*
X181493475Y-109225868D01*
X181286632Y-109019025D01*
X181112240Y-108902500D01*
X181286632Y-108785975D01*
X181493475Y-108579132D01*
X181655990Y-108335911D01*
X181767932Y-108065658D01*
X181825000Y-107778760D01*
X181825000Y-107486240D01*
X181767932Y-107199342D01*
X181655990Y-106929089D01*
X181493475Y-106685868D01*
X181286632Y-106479025D01*
X181112240Y-106362500D01*
X181286632Y-106245975D01*
X181311188Y-106221419D01*
X187041000Y-106221419D01*
X187041000Y-106602581D01*
X187115361Y-106976419D01*
X187261225Y-107328566D01*
X187472987Y-107645491D01*
X187742509Y-107915013D01*
X188059434Y-108126775D01*
X188411581Y-108272639D01*
X188785419Y-108347000D01*
X189166581Y-108347000D01*
X189540419Y-108272639D01*
X189892566Y-108126775D01*
X190209491Y-107915013D01*
X190479013Y-107645491D01*
X190690775Y-107328566D01*
X190836639Y-106976419D01*
X190911000Y-106602581D01*
X190911000Y-106221419D01*
X190836639Y-105847581D01*
X190690775Y-105495434D01*
X190479013Y-105178509D01*
X190209491Y-104908987D01*
X189892566Y-104697225D01*
X189540419Y-104551361D01*
X189166581Y-104477000D01*
X188785419Y-104477000D01*
X188411581Y-104551361D01*
X188059434Y-104697225D01*
X187742509Y-104908987D01*
X187472987Y-105178509D01*
X187261225Y-105495434D01*
X187115361Y-105847581D01*
X187041000Y-106221419D01*
X181311188Y-106221419D01*
X181493475Y-106039132D01*
X181655990Y-105795911D01*
X181767932Y-105525658D01*
X181825000Y-105238760D01*
X181825000Y-104946240D01*
X181767932Y-104659342D01*
X181655990Y-104389089D01*
X181493475Y-104145868D01*
X181361620Y-104014013D01*
X181434180Y-103992002D01*
X181544494Y-103933037D01*
X181641185Y-103853685D01*
X181704611Y-103776400D01*
X183484649Y-103776400D01*
X183540400Y-103781891D01*
X183596151Y-103776400D01*
X183596152Y-103776400D01*
X183762899Y-103759977D01*
X183976847Y-103695076D01*
X184174023Y-103589684D01*
X184346849Y-103447849D01*
X184382396Y-103404535D01*
X184684535Y-103102396D01*
X184727849Y-103066849D01*
X184869684Y-102894023D01*
X184975076Y-102696847D01*
X185039977Y-102482899D01*
X185056400Y-102316152D01*
X185056400Y-102316143D01*
X185061890Y-102260401D01*
X185056400Y-102204659D01*
X185056400Y-97363152D01*
X185061891Y-97307400D01*
X185039977Y-97084901D01*
X184975076Y-96870953D01*
X184869684Y-96673777D01*
X184763389Y-96544256D01*
X184763387Y-96544254D01*
X184727849Y-96500951D01*
X184684546Y-96465413D01*
X182760000Y-94540868D01*
X182760000Y-94453967D01*
X182697168Y-94138088D01*
X182609624Y-93926738D01*
X184817000Y-93926738D01*
X184817000Y-94741262D01*
X184975906Y-95540135D01*
X185287611Y-96292657D01*
X185740136Y-96969909D01*
X186316091Y-97545864D01*
X186993343Y-97998389D01*
X187745865Y-98310094D01*
X188544738Y-98469000D01*
X189359262Y-98469000D01*
X190158135Y-98310094D01*
X190910657Y-97998389D01*
X191587909Y-97545864D01*
X192163864Y-96969909D01*
X192616389Y-96292657D01*
X192928094Y-95540135D01*
X193087000Y-94741262D01*
X193087000Y-93926738D01*
X192928094Y-93127865D01*
X192616389Y-92375343D01*
X192163864Y-91698091D01*
X191587909Y-91122136D01*
X190910657Y-90669611D01*
X190158135Y-90357906D01*
X189359262Y-90199000D01*
X188544738Y-90199000D01*
X187745865Y-90357906D01*
X186993343Y-90669611D01*
X186316091Y-91122136D01*
X185740136Y-91698091D01*
X185287611Y-92375343D01*
X184975906Y-93127865D01*
X184817000Y-93926738D01*
X182609624Y-93926738D01*
X182573918Y-93840537D01*
X182394987Y-93572748D01*
X182167252Y-93345013D01*
X181899463Y-93166082D01*
X181601912Y-93042832D01*
X181286033Y-92980000D01*
X180963967Y-92980000D01*
X180648088Y-93042832D01*
X180350537Y-93166082D01*
X180082748Y-93345013D01*
X179855013Y-93572748D01*
X179676082Y-93840537D01*
X179552832Y-94138088D01*
X179490000Y-94453967D01*
X179490000Y-94776033D01*
X179552832Y-95091912D01*
X179676082Y-95389463D01*
X179855013Y-95657252D01*
X180082748Y-95884987D01*
X180350537Y-96063918D01*
X180648088Y-96187168D01*
X180963967Y-96250000D01*
X181258868Y-96250000D01*
X182786401Y-97777534D01*
X182786400Y-101506400D01*
X181794087Y-101506400D01*
X181779502Y-101458320D01*
X181720537Y-101348006D01*
X181641185Y-101251315D01*
X181544494Y-101171963D01*
X181434180Y-101112998D01*
X181314482Y-101076688D01*
X181190000Y-101064428D01*
X179490000Y-101064428D01*
X179365518Y-101076688D01*
X179245820Y-101112998D01*
X179135506Y-101171963D01*
X179038815Y-101251315D01*
X178959463Y-101348006D01*
X178900498Y-101458320D01*
X178864188Y-101578018D01*
X178851928Y-101702500D01*
X178851928Y-103402500D01*
X178864188Y-103526982D01*
X178900498Y-103646680D01*
X178959463Y-103756994D01*
X179038815Y-103853685D01*
X179135506Y-103933037D01*
X179245820Y-103992002D01*
X179318380Y-104014013D01*
X179186525Y-104145868D01*
X179024010Y-104389089D01*
X178912068Y-104659342D01*
X178855000Y-104946240D01*
X178855000Y-105238760D01*
X178912068Y-105525658D01*
X179024010Y-105795911D01*
X179186525Y-106039132D01*
X179393368Y-106245975D01*
X179567760Y-106362500D01*
X179393368Y-106479025D01*
X179186525Y-106685868D01*
X179024010Y-106929089D01*
X178912068Y-107199342D01*
X178855000Y-107486240D01*
X178855000Y-107778760D01*
X178912068Y-108065658D01*
X179024010Y-108335911D01*
X179186525Y-108579132D01*
X179393368Y-108785975D01*
X179567760Y-108902500D01*
X179393368Y-109019025D01*
X179186525Y-109225868D01*
X179024010Y-109469089D01*
X178912068Y-109739342D01*
X178855000Y-110026240D01*
X178855000Y-110318760D01*
X178912068Y-110605658D01*
X179024010Y-110875911D01*
X179186525Y-111119132D01*
X179393368Y-111325975D01*
X179567760Y-111442500D01*
X179393368Y-111559025D01*
X179324093Y-111628300D01*
X174172743Y-111628300D01*
X174116999Y-111622810D01*
X174061255Y-111628300D01*
X174061248Y-111628300D01*
X173915493Y-111642656D01*
X173894500Y-111644723D01*
X173852381Y-111657500D01*
X173680553Y-111709624D01*
X173483377Y-111815016D01*
X173310551Y-111956851D01*
X173275011Y-112000157D01*
X172134660Y-113140509D01*
X172091352Y-113176051D01*
X171949517Y-113348877D01*
X171913687Y-113415911D01*
X171844124Y-113546054D01*
X171779223Y-113760002D01*
X171757309Y-113982500D01*
X171762801Y-114038261D01*
X171762800Y-120154468D01*
X171724171Y-120193098D01*
X171724162Y-120193105D01*
X169587800Y-122329468D01*
X169587800Y-120553352D01*
X169593291Y-120497600D01*
X169571377Y-120275101D01*
X169506476Y-120061153D01*
X169476723Y-120005489D01*
X169401084Y-119863977D01*
X169259249Y-119691151D01*
X169215940Y-119655608D01*
X168631743Y-119071412D01*
X168510280Y-118971730D01*
X168410589Y-118850258D01*
X167770796Y-118210465D01*
X167735249Y-118167151D01*
X167562423Y-118025316D01*
X167365247Y-117919924D01*
X167151299Y-117855023D01*
X166984552Y-117838600D01*
X166984551Y-117838600D01*
X166928800Y-117833109D01*
X166873049Y-117838600D01*
X163530141Y-117838600D01*
X163474399Y-117833110D01*
X163418657Y-117838600D01*
X163418648Y-117838600D01*
X163251901Y-117855023D01*
X163037953Y-117919924D01*
X162840777Y-118025316D01*
X162667951Y-118167151D01*
X162632409Y-118210459D01*
X161804661Y-119038207D01*
X161711686Y-119066412D01*
X161557941Y-119148589D01*
X161456953Y-119231468D01*
X157638331Y-123050091D01*
X157411589Y-123144010D01*
X157168368Y-123306525D01*
X156961525Y-123513368D01*
X156799010Y-123756589D01*
X156687068Y-124026842D01*
X156630000Y-124313740D01*
X156630000Y-124606260D01*
X156687068Y-124893158D01*
X156799010Y-125163411D01*
X156961525Y-125406632D01*
X157093380Y-125538487D01*
X157020820Y-125560498D01*
X156910506Y-125619463D01*
X156813815Y-125698815D01*
X156734463Y-125795506D01*
X156675498Y-125905820D01*
X156672471Y-125915800D01*
X156070532Y-125915800D01*
X154339276Y-124184545D01*
X154303729Y-124141231D01*
X154130903Y-123999396D01*
X153933727Y-123894004D01*
X153719779Y-123829103D01*
X153553032Y-123812680D01*
X153553031Y-123812680D01*
X153497280Y-123807189D01*
X153441529Y-123812680D01*
X145460848Y-123812680D01*
X145294101Y-123829103D01*
X145080153Y-123894004D01*
X144882977Y-123999396D01*
X144710151Y-124141231D01*
X144568316Y-124314057D01*
X144462924Y-124511233D01*
X144398023Y-124725181D01*
X144376109Y-124947680D01*
X129672546Y-124947680D01*
X129650537Y-124906506D01*
X129571185Y-124809815D01*
X129474494Y-124730463D01*
X129364180Y-124671498D01*
X129244482Y-124635188D01*
X129120000Y-124622928D01*
X127420000Y-124622928D01*
X127295518Y-124635188D01*
X127175820Y-124671498D01*
X127065506Y-124730463D01*
X126968815Y-124809815D01*
X126889463Y-124906506D01*
X126830498Y-125016820D01*
X126806034Y-125097466D01*
X126730269Y-125013412D01*
X126496920Y-124839359D01*
X126234099Y-124714175D01*
X126086890Y-124669524D01*
X125857000Y-124790845D01*
X125603000Y-124790845D01*
X125373110Y-124669524D01*
X125225901Y-124714175D01*
X124963080Y-124839359D01*
X124729731Y-125013412D01*
X124534822Y-125229645D01*
X124385843Y-125479748D01*
X124288519Y-125754109D01*
X119333202Y-125754109D01*
X119363069Y-120919000D01*
X122627928Y-120919000D01*
X122627928Y-122669000D01*
X122657001Y-122964186D01*
X122743104Y-123248028D01*
X122882927Y-123509618D01*
X123071097Y-123738903D01*
X123300382Y-123927073D01*
X123561972Y-124066896D01*
X123845814Y-124152999D01*
X124141000Y-124182072D01*
X125891000Y-124182072D01*
X126186186Y-124152999D01*
X126470028Y-124066896D01*
X126731618Y-123927073D01*
X126960903Y-123738903D01*
X127149073Y-123509618D01*
X127288896Y-123248028D01*
X127374999Y-122964186D01*
X127404072Y-122669000D01*
X127404072Y-120919000D01*
X127374999Y-120623814D01*
X127288896Y-120339972D01*
X127149073Y-120078382D01*
X126960903Y-119849097D01*
X126731618Y-119660927D01*
X126470028Y-119521104D01*
X126341357Y-119482072D01*
X129766000Y-119482072D01*
X129890482Y-119469812D01*
X130010180Y-119433502D01*
X130120494Y-119374537D01*
X130217185Y-119295185D01*
X130296537Y-119198494D01*
X130355502Y-119088180D01*
X130391812Y-118968482D01*
X130404072Y-118844000D01*
X130404072Y-116825665D01*
X131026000Y-116825665D01*
X131026000Y-117108335D01*
X131081147Y-117385574D01*
X131189320Y-117646727D01*
X131346363Y-117881759D01*
X131546241Y-118081637D01*
X131781273Y-118238680D01*
X132042426Y-118346853D01*
X132319665Y-118402000D01*
X132602335Y-118402000D01*
X132879574Y-118346853D01*
X133140727Y-118238680D01*
X133375759Y-118081637D01*
X133575637Y-117881759D01*
X133732680Y-117646727D01*
X133840853Y-117385574D01*
X133896000Y-117108335D01*
X133896000Y-116825665D01*
X133853201Y-116610500D01*
X135925928Y-116610500D01*
X135938188Y-116734982D01*
X135974498Y-116854680D01*
X136033463Y-116964994D01*
X136112815Y-117061685D01*
X136209506Y-117141037D01*
X136319820Y-117200002D01*
X136392380Y-117222013D01*
X136260525Y-117353868D01*
X136098010Y-117597089D01*
X135986068Y-117867342D01*
X135929000Y-118154240D01*
X135929000Y-118446760D01*
X135986068Y-118733658D01*
X136098010Y-119003911D01*
X136260525Y-119247132D01*
X136467368Y-119453975D01*
X136710589Y-119616490D01*
X136980842Y-119728432D01*
X137267740Y-119785500D01*
X137560260Y-119785500D01*
X137847158Y-119728432D01*
X138117411Y-119616490D01*
X138360632Y-119453975D01*
X138567475Y-119247132D01*
X138729990Y-119003911D01*
X138841932Y-118733658D01*
X138899000Y-118446760D01*
X138899000Y-118154240D01*
X138841932Y-117867342D01*
X138729990Y-117597089D01*
X138567475Y-117353868D01*
X138435620Y-117222013D01*
X138508180Y-117200002D01*
X138618494Y-117141037D01*
X138715185Y-117061685D01*
X138794537Y-116964994D01*
X138853502Y-116854680D01*
X138889812Y-116734982D01*
X138902072Y-116610500D01*
X138899000Y-116046250D01*
X138740250Y-115887500D01*
X137541000Y-115887500D01*
X137541000Y-115907500D01*
X137287000Y-115907500D01*
X137287000Y-115887500D01*
X136087750Y-115887500D01*
X135929000Y-116046250D01*
X135925928Y-116610500D01*
X133853201Y-116610500D01*
X133840853Y-116548426D01*
X133732680Y-116287273D01*
X133575637Y-116052241D01*
X133375759Y-115852363D01*
X133140727Y-115695320D01*
X132879574Y-115587147D01*
X132602335Y-115532000D01*
X132319665Y-115532000D01*
X132042426Y-115587147D01*
X131781273Y-115695320D01*
X131546241Y-115852363D01*
X131346363Y-116052241D01*
X131189320Y-116287273D01*
X131081147Y-116548426D01*
X131026000Y-116825665D01*
X130404072Y-116825665D01*
X130404072Y-115344000D01*
X130391812Y-115219518D01*
X130355502Y-115099820D01*
X130296537Y-114989506D01*
X130217185Y-114892815D01*
X130120494Y-114813463D01*
X130010180Y-114754498D01*
X129890482Y-114718188D01*
X129766000Y-114705928D01*
X126266000Y-114705928D01*
X126141518Y-114718188D01*
X126021820Y-114754498D01*
X125911506Y-114813463D01*
X125814815Y-114892815D01*
X125735463Y-114989506D01*
X125676498Y-115099820D01*
X125640188Y-115219518D01*
X125627928Y-115344000D01*
X125627928Y-118844000D01*
X125640188Y-118968482D01*
X125676498Y-119088180D01*
X125735463Y-119198494D01*
X125814815Y-119295185D01*
X125911506Y-119374537D01*
X125988131Y-119415494D01*
X125891000Y-119405928D01*
X124141000Y-119405928D01*
X123845814Y-119435001D01*
X123561972Y-119521104D01*
X123300382Y-119660927D01*
X123071097Y-119849097D01*
X122882927Y-120078382D01*
X122743104Y-120339972D01*
X122657001Y-120623814D01*
X122627928Y-120919000D01*
X119363069Y-120919000D01*
X119375886Y-118844000D01*
X119877928Y-118844000D01*
X119890188Y-118968482D01*
X119926498Y-119088180D01*
X119985463Y-119198494D01*
X120064815Y-119295185D01*
X120161506Y-119374537D01*
X120271820Y-119433502D01*
X120391518Y-119469812D01*
X120516000Y-119482072D01*
X121730250Y-119479000D01*
X121889000Y-119320250D01*
X121889000Y-117221000D01*
X122143000Y-117221000D01*
X122143000Y-119320250D01*
X122301750Y-119479000D01*
X123516000Y-119482072D01*
X123640482Y-119469812D01*
X123760180Y-119433502D01*
X123870494Y-119374537D01*
X123967185Y-119295185D01*
X124046537Y-119198494D01*
X124105502Y-119088180D01*
X124141812Y-118968482D01*
X124154072Y-118844000D01*
X124151000Y-117379750D01*
X123992250Y-117221000D01*
X122143000Y-117221000D01*
X121889000Y-117221000D01*
X120039750Y-117221000D01*
X119881000Y-117379750D01*
X119877928Y-118844000D01*
X119375886Y-118844000D01*
X119397505Y-115344000D01*
X119877928Y-115344000D01*
X119881000Y-116808250D01*
X120039750Y-116967000D01*
X121889000Y-116967000D01*
X121889000Y-114867750D01*
X122143000Y-114867750D01*
X122143000Y-116967000D01*
X123992250Y-116967000D01*
X124151000Y-116808250D01*
X124154072Y-115344000D01*
X124141812Y-115219518D01*
X124105502Y-115099820D01*
X124046537Y-114989506D01*
X123967185Y-114892815D01*
X123870494Y-114813463D01*
X123760180Y-114754498D01*
X123640482Y-114718188D01*
X123516000Y-114705928D01*
X122301750Y-114709000D01*
X122143000Y-114867750D01*
X121889000Y-114867750D01*
X121730250Y-114709000D01*
X120516000Y-114705928D01*
X120391518Y-114718188D01*
X120271820Y-114754498D01*
X120161506Y-114813463D01*
X120064815Y-114892815D01*
X119985463Y-114989506D01*
X119926498Y-115099820D01*
X119890188Y-115219518D01*
X119877928Y-115344000D01*
X119397505Y-115344000D01*
X119405767Y-114006265D01*
X131864200Y-114006265D01*
X131864200Y-114288935D01*
X131919347Y-114566174D01*
X132027520Y-114827327D01*
X132184563Y-115062359D01*
X132384441Y-115262237D01*
X132619473Y-115419280D01*
X132880626Y-115527453D01*
X133157865Y-115582600D01*
X133440535Y-115582600D01*
X133717774Y-115527453D01*
X133978927Y-115419280D01*
X134213959Y-115262237D01*
X134413837Y-115062359D01*
X134515305Y-114910500D01*
X135925928Y-114910500D01*
X135929000Y-115474750D01*
X136087750Y-115633500D01*
X137287000Y-115633500D01*
X137287000Y-114434250D01*
X137541000Y-114434250D01*
X137541000Y-115633500D01*
X138740250Y-115633500D01*
X138899000Y-115474750D01*
X138901006Y-115106240D01*
X143664500Y-115106240D01*
X143664500Y-115398760D01*
X143721568Y-115685658D01*
X143833510Y-115955911D01*
X143996025Y-116199132D01*
X144202868Y-116405975D01*
X144446089Y-116568490D01*
X144716342Y-116680432D01*
X145003240Y-116737500D01*
X145295760Y-116737500D01*
X145582658Y-116680432D01*
X145852911Y-116568490D01*
X146096132Y-116405975D01*
X146302975Y-116199132D01*
X146465490Y-115955911D01*
X146577432Y-115685658D01*
X146634500Y-115398760D01*
X146634500Y-115106240D01*
X146577432Y-114819342D01*
X146465490Y-114549089D01*
X146302975Y-114305868D01*
X146096132Y-114099025D01*
X145913966Y-113977305D01*
X146030855Y-113907678D01*
X146247088Y-113712769D01*
X146421141Y-113479420D01*
X146546325Y-113216599D01*
X146590976Y-113069390D01*
X146469655Y-112839500D01*
X145276500Y-112839500D01*
X145276500Y-112859500D01*
X145022500Y-112859500D01*
X145022500Y-112839500D01*
X143829345Y-112839500D01*
X143708024Y-113069390D01*
X143752675Y-113216599D01*
X143877859Y-113479420D01*
X144051912Y-113712769D01*
X144268145Y-113907678D01*
X144385034Y-113977305D01*
X144202868Y-114099025D01*
X143996025Y-114305868D01*
X143833510Y-114549089D01*
X143721568Y-114819342D01*
X143664500Y-115106240D01*
X138901006Y-115106240D01*
X138902072Y-114910500D01*
X138889812Y-114786018D01*
X138853502Y-114666320D01*
X138794537Y-114556006D01*
X138715185Y-114459315D01*
X138618494Y-114379963D01*
X138508180Y-114320998D01*
X138388482Y-114284688D01*
X138264000Y-114272428D01*
X137699750Y-114275500D01*
X137541000Y-114434250D01*
X137287000Y-114434250D01*
X137128250Y-114275500D01*
X136564000Y-114272428D01*
X136439518Y-114284688D01*
X136319820Y-114320998D01*
X136209506Y-114379963D01*
X136112815Y-114459315D01*
X136033463Y-114556006D01*
X135974498Y-114666320D01*
X135938188Y-114786018D01*
X135925928Y-114910500D01*
X134515305Y-114910500D01*
X134570880Y-114827327D01*
X134679053Y-114566174D01*
X134734200Y-114288935D01*
X134734200Y-114006265D01*
X134679053Y-113729026D01*
X134570880Y-113467873D01*
X134413837Y-113232841D01*
X134213959Y-113032963D01*
X133978927Y-112875920D01*
X133717774Y-112767747D01*
X133440535Y-112712600D01*
X133157865Y-112712600D01*
X132880626Y-112767747D01*
X132619473Y-112875920D01*
X132384441Y-113032963D01*
X132184563Y-113232841D01*
X132027520Y-113467873D01*
X131919347Y-113729026D01*
X131864200Y-114006265D01*
X119405767Y-114006265D01*
X119438572Y-108695419D01*
X122779000Y-108695419D01*
X122779000Y-109076581D01*
X122853361Y-109450419D01*
X122999225Y-109802566D01*
X123210987Y-110119491D01*
X123480509Y-110389013D01*
X123797434Y-110600775D01*
X124149581Y-110746639D01*
X124523419Y-110821000D01*
X124904581Y-110821000D01*
X125278419Y-110746639D01*
X125630566Y-110600775D01*
X125947491Y-110389013D01*
X126217013Y-110119491D01*
X126428775Y-109802566D01*
X126574639Y-109450419D01*
X126649000Y-109076581D01*
X126649000Y-108695419D01*
X126574639Y-108321581D01*
X126428775Y-107969434D01*
X126217013Y-107652509D01*
X125947491Y-107382987D01*
X125630566Y-107171225D01*
X125278419Y-107025361D01*
X124904581Y-106951000D01*
X124523419Y-106951000D01*
X124149581Y-107025361D01*
X123797434Y-107171225D01*
X123480509Y-107382987D01*
X123210987Y-107652509D01*
X122999225Y-107969434D01*
X122853361Y-108321581D01*
X122779000Y-108695419D01*
X119438572Y-108695419D01*
X119476310Y-102586000D01*
X122775928Y-102586000D01*
X122775928Y-105186000D01*
X122788188Y-105310482D01*
X122824498Y-105430180D01*
X122883463Y-105540494D01*
X122962815Y-105637185D01*
X123059506Y-105716537D01*
X123169820Y-105775502D01*
X123289518Y-105811812D01*
X123414000Y-105824072D01*
X126014000Y-105824072D01*
X126138482Y-105811812D01*
X126258180Y-105775502D01*
X126368494Y-105716537D01*
X126465185Y-105637185D01*
X126544537Y-105540494D01*
X126603502Y-105430180D01*
X126639812Y-105310482D01*
X126652072Y-105186000D01*
X126652072Y-103846265D01*
X131864200Y-103846265D01*
X131864200Y-104128935D01*
X131919347Y-104406174D01*
X132027520Y-104667327D01*
X132184563Y-104902359D01*
X132384441Y-105102237D01*
X132619473Y-105259280D01*
X132880626Y-105367453D01*
X133157865Y-105422600D01*
X133440535Y-105422600D01*
X133717774Y-105367453D01*
X133978927Y-105259280D01*
X134213959Y-105102237D01*
X134413837Y-104902359D01*
X134570880Y-104667327D01*
X134679053Y-104406174D01*
X134734200Y-104128935D01*
X134734200Y-103846265D01*
X134679053Y-103569026D01*
X134570880Y-103307873D01*
X134413837Y-103072841D01*
X134213959Y-102872963D01*
X133978927Y-102715920D01*
X133717774Y-102607747D01*
X133440535Y-102552600D01*
X133157865Y-102552600D01*
X132880626Y-102607747D01*
X132619473Y-102715920D01*
X132384441Y-102872963D01*
X132184563Y-103072841D01*
X132027520Y-103307873D01*
X131919347Y-103569026D01*
X131864200Y-103846265D01*
X126652072Y-103846265D01*
X126652072Y-102586000D01*
X126639812Y-102461518D01*
X126603502Y-102341820D01*
X126544537Y-102231506D01*
X126465185Y-102134815D01*
X126368494Y-102055463D01*
X126258180Y-101996498D01*
X126138482Y-101960188D01*
X126014000Y-101947928D01*
X123414000Y-101947928D01*
X123289518Y-101960188D01*
X123169820Y-101996498D01*
X123059506Y-102055463D01*
X122962815Y-102134815D01*
X122883463Y-102231506D01*
X122824498Y-102341820D01*
X122788188Y-102461518D01*
X122775928Y-102586000D01*
X119476310Y-102586000D01*
X119481767Y-101702500D01*
X143661428Y-101702500D01*
X143661428Y-103402500D01*
X143673688Y-103526982D01*
X143709998Y-103646680D01*
X143768963Y-103756994D01*
X143848315Y-103853685D01*
X143945006Y-103933037D01*
X144055320Y-103992002D01*
X144127880Y-104014013D01*
X143996025Y-104145868D01*
X143833510Y-104389089D01*
X143721568Y-104659342D01*
X143664500Y-104946240D01*
X143664500Y-105238760D01*
X143721568Y-105525658D01*
X143833510Y-105795911D01*
X143996025Y-106039132D01*
X144202868Y-106245975D01*
X144377260Y-106362500D01*
X144202868Y-106479025D01*
X143996025Y-106685868D01*
X143833510Y-106929089D01*
X143721568Y-107199342D01*
X143664500Y-107486240D01*
X143664500Y-107778760D01*
X143721568Y-108065658D01*
X143833510Y-108335911D01*
X143996025Y-108579132D01*
X144202868Y-108785975D01*
X144377260Y-108902500D01*
X144202868Y-109019025D01*
X143996025Y-109225868D01*
X143833510Y-109469089D01*
X143721568Y-109739342D01*
X143664500Y-110026240D01*
X143664500Y-110318760D01*
X143721568Y-110605658D01*
X143833510Y-110875911D01*
X143996025Y-111119132D01*
X144202868Y-111325975D01*
X144385034Y-111447695D01*
X144268145Y-111517322D01*
X144051912Y-111712231D01*
X143877859Y-111945580D01*
X143752675Y-112208401D01*
X143708024Y-112355610D01*
X143829345Y-112585500D01*
X145022500Y-112585500D01*
X145022500Y-112565500D01*
X145276500Y-112565500D01*
X145276500Y-112585500D01*
X146469655Y-112585500D01*
X146590976Y-112355610D01*
X146546325Y-112208401D01*
X146421141Y-111945580D01*
X146247088Y-111712231D01*
X146030855Y-111517322D01*
X145913966Y-111447695D01*
X146096132Y-111325975D01*
X146302975Y-111119132D01*
X146465490Y-110875911D01*
X146577432Y-110605658D01*
X146634500Y-110318760D01*
X146634500Y-110026240D01*
X146577432Y-109739342D01*
X146465490Y-109469089D01*
X146302975Y-109225868D01*
X146096132Y-109019025D01*
X145921740Y-108902500D01*
X146096132Y-108785975D01*
X146302975Y-108579132D01*
X146465490Y-108335911D01*
X146577432Y-108065658D01*
X146634500Y-107778760D01*
X146634500Y-107486240D01*
X146577432Y-107199342D01*
X146465490Y-106929089D01*
X146302975Y-106685868D01*
X146096132Y-106479025D01*
X145921740Y-106362500D01*
X146096132Y-106245975D01*
X146302975Y-106039132D01*
X146465490Y-105795911D01*
X146577432Y-105525658D01*
X146634500Y-105238760D01*
X146634500Y-104946240D01*
X146577432Y-104659342D01*
X146465490Y-104389089D01*
X146302975Y-104145868D01*
X146171120Y-104014013D01*
X146243680Y-103992002D01*
X146353994Y-103933037D01*
X146450685Y-103853685D01*
X146530037Y-103756994D01*
X146589002Y-103646680D01*
X146625312Y-103526982D01*
X146637572Y-103402500D01*
X146637572Y-101702500D01*
X146625312Y-101578018D01*
X146589002Y-101458320D01*
X146530037Y-101348006D01*
X146450685Y-101251315D01*
X146353994Y-101171963D01*
X146243680Y-101112998D01*
X146123982Y-101076688D01*
X145999500Y-101064428D01*
X144299500Y-101064428D01*
X144175018Y-101076688D01*
X144055320Y-101112998D01*
X143945006Y-101171963D01*
X143848315Y-101251315D01*
X143768963Y-101348006D01*
X143709998Y-101458320D01*
X143673688Y-101578018D01*
X143661428Y-101702500D01*
X119481767Y-101702500D01*
X119529798Y-93926738D01*
X119817000Y-93926738D01*
X119817000Y-94741262D01*
X119975906Y-95540135D01*
X120287611Y-96292657D01*
X120740136Y-96969909D01*
X121316091Y-97545864D01*
X121993343Y-97998389D01*
X122745865Y-98310094D01*
X123544738Y-98469000D01*
X124359262Y-98469000D01*
X125158135Y-98310094D01*
X125910657Y-97998389D01*
X126587909Y-97545864D01*
X127163864Y-96969909D01*
X127616389Y-96292657D01*
X127928094Y-95540135D01*
X128087000Y-94741262D01*
X128087000Y-93926738D01*
X127928094Y-93127865D01*
X127616389Y-92375343D01*
X127297767Y-91898491D01*
X137547319Y-91898491D01*
X137644643Y-92172852D01*
X137793622Y-92422955D01*
X137988531Y-92639188D01*
X138221880Y-92813241D01*
X138484701Y-92938425D01*
X138631910Y-92983076D01*
X138861800Y-92861755D01*
X138861800Y-91668600D01*
X137667986Y-91668600D01*
X137547319Y-91898491D01*
X127297767Y-91898491D01*
X127163864Y-91698091D01*
X126650482Y-91184709D01*
X137547319Y-91184709D01*
X137667986Y-91414600D01*
X138861800Y-91414600D01*
X138861800Y-90221445D01*
X139115800Y-90221445D01*
X139115800Y-91414600D01*
X139135800Y-91414600D01*
X139135800Y-91668600D01*
X139115800Y-91668600D01*
X139115800Y-92861755D01*
X139345690Y-92983076D01*
X139492899Y-92938425D01*
X139755720Y-92813241D01*
X139989069Y-92639188D01*
X140064834Y-92555134D01*
X140089298Y-92635780D01*
X140148263Y-92746094D01*
X140227615Y-92842785D01*
X140324306Y-92922137D01*
X140434620Y-92981102D01*
X140554318Y-93017412D01*
X140678800Y-93029672D01*
X142378800Y-93029672D01*
X142503282Y-93017412D01*
X142622980Y-92981102D01*
X142733294Y-92922137D01*
X142829985Y-92842785D01*
X142909337Y-92746094D01*
X142928629Y-92710000D01*
X149733000Y-92710000D01*
X149733000Y-101854000D01*
X149735440Y-101878776D01*
X149742667Y-101902601D01*
X149754403Y-101924557D01*
X149770197Y-101943803D01*
X149789443Y-101959597D01*
X149811399Y-101971333D01*
X149835224Y-101978560D01*
X149860000Y-101981000D01*
X169418000Y-101981000D01*
X169442776Y-101978560D01*
X169466601Y-101971333D01*
X169488557Y-101959597D01*
X169507803Y-101943803D01*
X169523597Y-101924557D01*
X169535333Y-101902601D01*
X169542560Y-101878776D01*
X169545000Y-101854000D01*
X169545000Y-100250413D01*
X173669192Y-100250413D01*
X173764956Y-100514814D01*
X174054571Y-100655704D01*
X174366108Y-100737384D01*
X174687595Y-100756718D01*
X175006675Y-100712961D01*
X175311088Y-100607795D01*
X175485044Y-100514814D01*
X175580808Y-100250413D01*
X180169192Y-100250413D01*
X180264956Y-100514814D01*
X180554571Y-100655704D01*
X180866108Y-100737384D01*
X181187595Y-100756718D01*
X181506675Y-100712961D01*
X181811088Y-100607795D01*
X181985044Y-100514814D01*
X182080808Y-100250413D01*
X181125000Y-99294605D01*
X180169192Y-100250413D01*
X175580808Y-100250413D01*
X174625000Y-99294605D01*
X173669192Y-100250413D01*
X169545000Y-100250413D01*
X169545000Y-99177595D01*
X172983282Y-99177595D01*
X173027039Y-99496675D01*
X173132205Y-99801088D01*
X173225186Y-99975044D01*
X173489587Y-100070808D01*
X174445395Y-99115000D01*
X174804605Y-99115000D01*
X175760413Y-100070808D01*
X176024814Y-99975044D01*
X176165704Y-99685429D01*
X176247384Y-99373892D01*
X176259189Y-99177595D01*
X179483282Y-99177595D01*
X179527039Y-99496675D01*
X179632205Y-99801088D01*
X179725186Y-99975044D01*
X179989587Y-100070808D01*
X180945395Y-99115000D01*
X181304605Y-99115000D01*
X182260413Y-100070808D01*
X182524814Y-99975044D01*
X182665704Y-99685429D01*
X182747384Y-99373892D01*
X182766718Y-99052405D01*
X182722961Y-98733325D01*
X182617795Y-98428912D01*
X182524814Y-98254956D01*
X182260413Y-98159192D01*
X181304605Y-99115000D01*
X180945395Y-99115000D01*
X179989587Y-98159192D01*
X179725186Y-98254956D01*
X179584296Y-98544571D01*
X179502616Y-98856108D01*
X179483282Y-99177595D01*
X176259189Y-99177595D01*
X176266718Y-99052405D01*
X176222961Y-98733325D01*
X176117795Y-98428912D01*
X176024814Y-98254956D01*
X175760413Y-98159192D01*
X174804605Y-99115000D01*
X174445395Y-99115000D01*
X173489587Y-98159192D01*
X173225186Y-98254956D01*
X173084296Y-98544571D01*
X173002616Y-98856108D01*
X172983282Y-99177595D01*
X169545000Y-99177595D01*
X169545000Y-97979587D01*
X173669192Y-97979587D01*
X174625000Y-98935395D01*
X175580808Y-97979587D01*
X180169192Y-97979587D01*
X181125000Y-98935395D01*
X182080808Y-97979587D01*
X181985044Y-97715186D01*
X181695429Y-97574296D01*
X181383892Y-97492616D01*
X181062405Y-97473282D01*
X180743325Y-97517039D01*
X180438912Y-97622205D01*
X180264956Y-97715186D01*
X180169192Y-97979587D01*
X175580808Y-97979587D01*
X175485044Y-97715186D01*
X175195429Y-97574296D01*
X174883892Y-97492616D01*
X174562405Y-97473282D01*
X174243325Y-97517039D01*
X173938912Y-97622205D01*
X173764956Y-97715186D01*
X173669192Y-97979587D01*
X169545000Y-97979587D01*
X169545000Y-94453967D01*
X172990000Y-94453967D01*
X172990000Y-94776033D01*
X173052832Y-95091912D01*
X173176082Y-95389463D01*
X173355013Y-95657252D01*
X173582748Y-95884987D01*
X173850537Y-96063918D01*
X174148088Y-96187168D01*
X174463967Y-96250000D01*
X174786033Y-96250000D01*
X175101912Y-96187168D01*
X175399463Y-96063918D01*
X175667252Y-95884987D01*
X175894987Y-95657252D01*
X176073918Y-95389463D01*
X176197168Y-95091912D01*
X176260000Y-94776033D01*
X176260000Y-94453967D01*
X176197168Y-94138088D01*
X176073918Y-93840537D01*
X175894987Y-93572748D01*
X175667252Y-93345013D01*
X175399463Y-93166082D01*
X175101912Y-93042832D01*
X174786033Y-92980000D01*
X174463967Y-92980000D01*
X174148088Y-93042832D01*
X173850537Y-93166082D01*
X173582748Y-93345013D01*
X173355013Y-93572748D01*
X173176082Y-93840537D01*
X173052832Y-94138088D01*
X172990000Y-94453967D01*
X169545000Y-94453967D01*
X169545000Y-92710000D01*
X169542560Y-92685224D01*
X169535333Y-92661399D01*
X169523597Y-92639443D01*
X169507803Y-92620197D01*
X169488557Y-92604403D01*
X169466601Y-92592667D01*
X169442776Y-92585440D01*
X169418000Y-92583000D01*
X149860000Y-92583000D01*
X149835224Y-92585440D01*
X149811399Y-92592667D01*
X149789443Y-92604403D01*
X149770197Y-92620197D01*
X149754403Y-92639443D01*
X149742667Y-92661399D01*
X149735440Y-92685224D01*
X149733000Y-92710000D01*
X142928629Y-92710000D01*
X142968302Y-92635780D01*
X143004612Y-92516082D01*
X143016872Y-92391600D01*
X143016872Y-90691600D01*
X143004612Y-90567118D01*
X142968302Y-90447420D01*
X142909337Y-90337106D01*
X142829985Y-90240415D01*
X142733294Y-90161063D01*
X142622980Y-90102098D01*
X142503282Y-90065788D01*
X142378800Y-90053528D01*
X140678800Y-90053528D01*
X140554318Y-90065788D01*
X140434620Y-90102098D01*
X140324306Y-90161063D01*
X140227615Y-90240415D01*
X140148263Y-90337106D01*
X140089298Y-90447420D01*
X140064834Y-90528066D01*
X139989069Y-90444012D01*
X139755720Y-90269959D01*
X139492899Y-90144775D01*
X139345690Y-90100124D01*
X139115800Y-90221445D01*
X138861800Y-90221445D01*
X138631910Y-90100124D01*
X138484701Y-90144775D01*
X138221880Y-90269959D01*
X137988531Y-90444012D01*
X137793622Y-90660245D01*
X137644643Y-90910348D01*
X137547319Y-91184709D01*
X126650482Y-91184709D01*
X126587909Y-91122136D01*
X125910657Y-90669611D01*
X125158135Y-90357906D01*
X124359262Y-90199000D01*
X123544738Y-90199000D01*
X122745865Y-90357906D01*
X121993343Y-90669611D01*
X121316091Y-91122136D01*
X120740136Y-91698091D01*
X120287611Y-92375343D01*
X119975906Y-93127865D01*
X119817000Y-93926738D01*
X119529798Y-93926738D01*
X119543250Y-91749034D01*
X119591599Y-91295297D01*
X119716672Y-90893295D01*
X119917446Y-90523244D01*
X120186269Y-90199240D01*
X120512913Y-89933617D01*
X120884917Y-89736503D01*
X121288137Y-89615396D01*
X121742542Y-89571500D01*
X191614576Y-89572515D01*
G37*
G04 #@! TD.AperFunction*
D27*
X165370917Y-120168778D02*
X165265524Y-120365954D01*
X165200623Y-120579902D01*
X165178709Y-120802400D01*
X165200623Y-121024898D01*
X165265524Y-121238846D01*
X165370917Y-121436022D01*
X165477212Y-121565543D01*
X165641398Y-121729729D01*
X165641398Y-123017151D01*
X165657821Y-123183898D01*
X165722722Y-123397846D01*
X165828114Y-123595023D01*
X165969949Y-123767849D01*
X166142775Y-123909684D01*
X166339951Y-124015076D01*
X166553899Y-124079977D01*
X166776398Y-124101891D01*
X166998896Y-124079977D01*
X167140000Y-124037173D01*
X167140000Y-125206788D01*
X167150932Y-125261748D01*
X167156423Y-125317498D01*
X167172684Y-125371103D01*
X167183617Y-125426067D01*
X167205064Y-125477845D01*
X167221324Y-125531446D01*
X167227297Y-125542621D01*
X167185498Y-125620820D01*
X167149188Y-125740518D01*
X167136928Y-125865000D01*
X167136928Y-126199235D01*
X167131023Y-126218701D01*
X167126572Y-126263896D01*
X164731469Y-128659000D01*
X160744132Y-128659000D01*
X160570132Y-128485000D01*
X160801260Y-128485000D01*
X161088158Y-128427932D01*
X161358411Y-128315990D01*
X161601632Y-128153475D01*
X161808475Y-127946632D01*
X161930195Y-127764466D01*
X161999822Y-127881355D01*
X162194731Y-128097588D01*
X162428080Y-128271641D01*
X162690901Y-128396825D01*
X162838110Y-128441476D01*
X163068000Y-128320155D01*
X163068000Y-127127000D01*
X163322000Y-127127000D01*
X163322000Y-128320155D01*
X163551890Y-128441476D01*
X163699099Y-128396825D01*
X163961920Y-128271641D01*
X164195269Y-128097588D01*
X164390178Y-127881355D01*
X164539157Y-127631252D01*
X164636481Y-127356891D01*
X164515814Y-127127000D01*
X163322000Y-127127000D01*
X163068000Y-127127000D01*
X163048000Y-127127000D01*
X163048000Y-126873000D01*
X163068000Y-126873000D01*
X163068000Y-126853000D01*
X163322000Y-126853000D01*
X163322000Y-126873000D01*
X164515814Y-126873000D01*
X164636481Y-126643109D01*
X164539157Y-126368748D01*
X164390178Y-126118645D01*
X164195269Y-125902412D01*
X163965594Y-125731100D01*
X164141632Y-125613475D01*
X164348475Y-125406632D01*
X164510990Y-125163411D01*
X164622932Y-124893158D01*
X164680000Y-124606260D01*
X164680000Y-124313740D01*
X164622932Y-124026842D01*
X164510990Y-123756589D01*
X164348475Y-123513368D01*
X164141632Y-123306525D01*
X163898411Y-123144010D01*
X163628158Y-123032068D01*
X163341260Y-122975000D01*
X163048740Y-122975000D01*
X162761842Y-123032068D01*
X162491589Y-123144010D01*
X162248368Y-123306525D01*
X162041525Y-123513368D01*
X161925000Y-123687760D01*
X161808475Y-123513368D01*
X161601632Y-123306525D01*
X161358411Y-123144010D01*
X161088158Y-123032068D01*
X161032195Y-123020936D01*
X163944532Y-120108600D01*
X165420304Y-120108600D01*
X165370917Y-120168778D01*
G04 #@! TA.AperFunction,Conductor*
D28*
G36*
X165370917Y-120168778D02*
G01*
X165265524Y-120365954D01*
X165200623Y-120579902D01*
X165178709Y-120802400D01*
X165200623Y-121024898D01*
X165265524Y-121238846D01*
X165370917Y-121436022D01*
X165477212Y-121565543D01*
X165641398Y-121729729D01*
X165641398Y-123017151D01*
X165657821Y-123183898D01*
X165722722Y-123397846D01*
X165828114Y-123595023D01*
X165969949Y-123767849D01*
X166142775Y-123909684D01*
X166339951Y-124015076D01*
X166553899Y-124079977D01*
X166776398Y-124101891D01*
X166998896Y-124079977D01*
X167140000Y-124037173D01*
X167140000Y-125206788D01*
X167150932Y-125261748D01*
X167156423Y-125317498D01*
X167172684Y-125371103D01*
X167183617Y-125426067D01*
X167205064Y-125477845D01*
X167221324Y-125531446D01*
X167227297Y-125542621D01*
X167185498Y-125620820D01*
X167149188Y-125740518D01*
X167136928Y-125865000D01*
X167136928Y-126199235D01*
X167131023Y-126218701D01*
X167126572Y-126263896D01*
X164731469Y-128659000D01*
X160744132Y-128659000D01*
X160570132Y-128485000D01*
X160801260Y-128485000D01*
X161088158Y-128427932D01*
X161358411Y-128315990D01*
X161601632Y-128153475D01*
X161808475Y-127946632D01*
X161930195Y-127764466D01*
X161999822Y-127881355D01*
X162194731Y-128097588D01*
X162428080Y-128271641D01*
X162690901Y-128396825D01*
X162838110Y-128441476D01*
X163068000Y-128320155D01*
X163068000Y-127127000D01*
X163322000Y-127127000D01*
X163322000Y-128320155D01*
X163551890Y-128441476D01*
X163699099Y-128396825D01*
X163961920Y-128271641D01*
X164195269Y-128097588D01*
X164390178Y-127881355D01*
X164539157Y-127631252D01*
X164636481Y-127356891D01*
X164515814Y-127127000D01*
X163322000Y-127127000D01*
X163068000Y-127127000D01*
X163048000Y-127127000D01*
X163048000Y-126873000D01*
X163068000Y-126873000D01*
X163068000Y-126853000D01*
X163322000Y-126853000D01*
X163322000Y-126873000D01*
X164515814Y-126873000D01*
X164636481Y-126643109D01*
X164539157Y-126368748D01*
X164390178Y-126118645D01*
X164195269Y-125902412D01*
X163965594Y-125731100D01*
X164141632Y-125613475D01*
X164348475Y-125406632D01*
X164510990Y-125163411D01*
X164622932Y-124893158D01*
X164680000Y-124606260D01*
X164680000Y-124313740D01*
X164622932Y-124026842D01*
X164510990Y-123756589D01*
X164348475Y-123513368D01*
X164141632Y-123306525D01*
X163898411Y-123144010D01*
X163628158Y-123032068D01*
X163341260Y-122975000D01*
X163048740Y-122975000D01*
X162761842Y-123032068D01*
X162491589Y-123144010D01*
X162248368Y-123306525D01*
X162041525Y-123513368D01*
X161925000Y-123687760D01*
X161808475Y-123513368D01*
X161601632Y-123306525D01*
X161358411Y-123144010D01*
X161088158Y-123032068D01*
X161032195Y-123020936D01*
X163944532Y-120108600D01*
X165420304Y-120108600D01*
X165370917Y-120168778D01*
G37*
G04 #@! TD.AperFunction*
M02*
