M48
; DRILL file {KiCad 5.1.10-88a1d61d58~88~ubuntu20.10.1} date Fri May 21 17:46:52 2021
; FORMAT={-:-/ absolute / metric / decimal}
; #@! TF.CreationDate,2021-05-21T17:46:52+03:00
; #@! TF.GenerationSoftware,Kicad,Pcbnew,5.1.10-88a1d61d58~88~ubuntu20.10.1
; #@! TF.FileFunction,Plated,1,2,PTH
FMAT,2
METRIC
T1C0.400
T2C0.650
T3C0.800
T4C1.000
T5C1.100
T6C1.300
T7C3.500
%
G90
G05
T1
X124.003Y-126.136
X125.73Y-127.813
X131.303Y-130.866
X132.756Y-91.978
X133.604Y-133.096
X134.544Y-106.324
X135.077Y-123.469
X135.966Y-104.953
X135.966Y-107.671
X136.779Y-121.895
X137.16Y-91.542
X137.414Y-113.983
X138.328Y-98.857
X138.379Y-101.956
X138.76Y-123.444
X138.938Y-115.76
X138.989Y-89.916
X138.989Y-97.841
X140.462Y-97.841
X140.919Y-103.784
X140.919Y-106.578
X142.088Y-97.841
X142.24Y-130.556
X142.24Y-134.239
X143.32Y-112.776
X144.526Y-132.334
X145.39Y-94.386
X145.517Y-124.948
X145.669Y-133.921
X146.749Y-112.776
X146.812Y-121.158
X147.117Y-96.012
X147.32Y-115.824
X149.098Y-114.554
X149.352Y-121.158
X149.542Y-133.985
X151.511Y-131.953
X151.638Y-114.402
X154.813Y-131.953
X155.55Y-114.351
X164.973Y-131.255
X165.417Y-124.269
X166.319Y-120.802
X166.675Y-107.518
X166.688Y-132.779
X166.776Y-122.961
X167.869Y-119.913
X168.364Y-105.74
X169.545Y-127.635
X170.663Y-120.599
X170.815Y-127.584
X171.45Y-134.62
X173.355Y-127.533
X175.006Y-134.62
X177.292Y-99.06
X178.562Y-99.06
X178.562Y-134.62
X180.086Y-132.339
X180.701Y-91.44
X181.996Y-125.41
X185.567Y-101.615
X186.014Y-99.421
X186.69Y-121.412
X188.976Y-123.952
X191.262Y-121.412
T2
X168.275Y-125.095
X168.275Y-126.365
X169.545Y-125.095
X169.545Y-126.365
X170.815Y-125.095
X170.815Y-126.365
X172.085Y-125.095
X172.085Y-126.365
X173.355Y-125.095
X173.355Y-126.365
T3
X132.461Y-116.967
X132.461Y-127.127
X133.299Y-103.988
X133.299Y-114.148
T4
X125.73Y-126.111
X128.27Y-126.111
X137.414Y-115.76
X137.414Y-118.3
X138.989Y-91.542
X141.529Y-91.542
X145.149Y-102.552
X145.149Y-105.093
X145.149Y-107.632
X145.149Y-110.172
X145.149Y-112.712
X145.149Y-115.252
X158.115Y-124.46
X158.115Y-127.0
X160.655Y-124.46
X160.655Y-127.0
X163.195Y-124.46
X163.195Y-127.0
X180.34Y-102.552
X180.34Y-105.093
X180.34Y-107.632
X180.34Y-110.172
X180.34Y-112.712
X180.34Y-115.252
X180.34Y-117.792
X180.34Y-120.332
X180.34Y-122.872
X180.34Y-125.412
T5
X174.625Y-94.615
X174.625Y-99.115
X181.125Y-94.615
X181.125Y-99.115
T6
X124.714Y-103.886
X124.714Y-108.886
X188.976Y-106.412
X188.976Y-111.412
X188.976Y-116.412
X188.976Y-121.412
T7
X123.952Y-94.334
X123.952Y-132.334
X188.952Y-94.334
X188.952Y-132.334
T4
X122.016Y-116.094G85X122.016Y-118.094
G05
X124.016Y-121.794G85X126.016Y-121.794
G05
X128.016Y-116.094G85X128.016Y-118.094
G05
T0
M30
